0
SECTION
2
HEADER
9
$ACADVER
1
AC1015
9
$INSUNITS
70
4
0
ENDSEC
0
SECTION
2
TABLES
0
TABLE
2
LAYER
70
5
0
LAYER
2
0
70
0
62
7
6
CONTINUOUS
0
LAYER
2
FABRIC
70
0
62
8
6
CONTINUOUS
0
LAYER
2
PIECES
70
0
62
7
6
CONTINUOUS
0
LAYER
2
LABELS
70
0
62
3
6
CONTINUOUS
0
LAYER
2
NOTCHES
70
0
62
1
6
CONTINUOUS
0
ENDTAB
0
ENDSEC
0
SECTION
2
ENTITIES
0
LWPOLYLINE
8
FABRIC
90
4
70
1
10
0
20
0
10
577.2692
20
0
10
577.2692
20
160.0001
10
0
20
160.0001
0
LWPOLYLINE
8
PIECES
90
4
70
1
10
0.46280000000000143
20
126.1659
10
110.188
20
126.1659
10
110.188
20
159.5871
10
0.46280000000000143
20
159.5871
0
TEXT
8
LABELS
10
27.8941
20
142.8765
30
0
40
2.0
1
FRONT
0
LWPOLYLINE
8
PIECES
90
4
70
1
10
0.46280000000000143
20
62.8233
10
110.188
20
62.8233
10
110.188
20
96.2445
10
0.46280000000000143
20
96.2445
0
TEXT
8
LABELS
10
27.8941
20
79.5339
30
0
40
2.0
1
FRONT
0
LWPOLYLINE
8
PIECES
90
4
70
1
10
229.94019999999998
20
143.9639
10
118.3946
20
143.96390000000002
10
118.3946
20
106.54650000000001
10
229.94019999999998
20
106.5465
0
TEXT
8
LABELS
10
146.28099999999998
20
125.2552
30
0
40
2.0
1
BACK
0
LWPOLYLINE
8
PIECES
90
4
70
1
10
350.05969999999996
20
99.5563
10
461.6053
20
99.5563
10
461.6053
20
136.9737
10
350.05969999999996
20
136.9737
0
TEXT
8
LABELS
10
377.9461
20
118.265
30
0
40
2.0
1
BACK
0
LWPOLYLINE
8
PIECES
90
4
70
1
10
109.59129999999999
20
150.9997
10
185.5913
20
150.9997
10
185.5913
20
159.9997
10
109.59129999999999
20
159.9997
0
TEXT
8
LABELS
10
128.5913
20
155.4997
30
0
40
0.9
1
WAIST BAND
0
LWPOLYLINE
8
PIECES
90
4
70
1
10
229.1596
20
81.9086
10
209.1596
20
81.9086
10
209.1596
20
71.9086
10
229.1596
20
71.9086
0
TEXT
8
LABELS
10
214.1596
20
76.9086
30
0
40
1.0
1
ZIPPER FACING
0
LWPOLYLINE
8
PIECES
90
4
70
1
10
130.189
20
138.9977
10
110.189
20
138.9977
10
110.189
20
132.9977
10
130.189
20
132.9977
0
TEXT
8
LABELS
10
115.189
20
135.9977
30
0
40
0.6
1
ZIPPER FACING 1
0
LWPOLYLINE
8
PIECES
90
4
70
1
10
209.9387
20
145.473
10
174.9387
20
145.473
10
174.9387
20
141.973
10
209.9387
20
141.973
0
TEXT
8
LABELS
10
183.6887
20
143.723
30
0
40
0.35
1
LOOPING
0
LWPOLYLINE
8
PIECES
90
4
70
1
10
502.33149999999995
20
36.2766
10
530.0038999999999
20
36.2766
10
530.0038999999999
20
48.586600000000004
10
502.33149999999995
20
48.586600000000004
0
TEXT
8
LABELS
10
509.2496
20
42.4316
30
0
40
1.231
1
facing pocket
0
LWPOLYLINE
8
PIECES
90
4
70
1
10
567.6686
20
63.5351
10
539.9962
20
63.5351
10
539.9962
20
51.2251
10
567.6686
20
51.2251
0
TEXT
8
LABELS
10
546.9143
20
57.3801
30
0
40
1.231
1
facing pocket
0
LWPOLYLINE
8
PIECES
90
4
70
1
10
110.8322
20
66.70139999999999
10
0.6069999999999993
20
66.7014
10
0.6069999999999993
20
31.980000000000004
10
110.8322
20
31.97999999999999
0
TEXT
8
LABELS
10
28.1633
20
49.3407
30
0
40
2.0
1
FRONT
0
LWPOLYLINE
8
PIECES
90
4
70
1
10
349.1678
20
0.0
10
459.393
20
0.0
10
459.393
20
34.7214
10
349.1678
20
34.7214
0
TEXT
8
LABELS
10
376.72409999999996
20
17.3607
30
0
40
2.0
1
FRONT
0
LWPOLYLINE
8
PIECES
90
4
70
1
10
118.75500000000001
20
71.8253
10
230.81060000000002
20
71.8253
10
230.81060000000002
20
110.54050000000001
10
118.75500000000001
20
110.54050000000001
0
TEXT
8
LABELS
10
146.7689
20
91.1829
30
0
40
2.0
1
BACK
0
LWPOLYLINE
8
PIECES
90
4
70
1
10
351.24510000000004
20
75.60810000000001
10
239.1895
20
75.6081
10
239.1895
20
36.8929
10
351.24510000000004
20
36.89290000000001
0
TEXT
8
LABELS
10
267.20340000000004
20
56.2505
30
0
40
2.0
1
BACK
0
LWPOLYLINE
8
PIECES
90
4
70
1
10
185.5923
20
151.0
10
265.5923
20
151.0
10
265.5923
20
160.0
10
185.5923
20
160.0
0
TEXT
8
LABELS
10
205.5923
20
155.5
30
0
40
0.9
1
WAIST BAND
0
LWPOLYLINE
8
PIECES
90
4
70
1
10
342.2668
20
10.027
10
322.2668
20
10.027000000000001
10
322.2668
20
0.027000000000001023
10
342.2668
20
0.026999999999999247
0
TEXT
8
LABELS
10
327.2668
20
5.027
30
0
40
1.0
1
ZIPPER FACING
0
LWPOLYLINE
8
PIECES
90
4
70
1
10
130.0745
20
144.9986
10
110.0745
20
144.9986
10
110.0745
20
138.9986
10
130.0745
20
138.9986
0
TEXT
8
LABELS
10
115.0745
20
141.9986
30
0
40
0.6
1
ZIPPER FACING 1
0
LWPOLYLINE
8
PIECES
90
4
70
1
10
379.3373
20
33.8909
10
344.3373
20
33.8909
10
344.3373
20
30.390900000000006
10
379.3373
20
30.3909
0
TEXT
8
LABELS
10
353.0873
20
32.1409
30
0
40
0.35
1
LOOPING
0
LWPOLYLINE
8
PIECES
90
4
70
1
10
491.53659999999996
20
65.832
10
519.209
20
65.832
10
519.209
20
78.142
10
491.53659999999996
20
78.142
0
TEXT
8
LABELS
10
498.4547
20
71.987
30
0
40
1.231
1
facing pocket
0
LWPOLYLINE
8
PIECES
90
4
70
1
10
548.4635
20
87.6508
10
520.7911
20
87.6508
10
520.7911
20
75.3408
10
548.4635
20
75.3408
0
TEXT
8
LABELS
10
527.7092
20
81.4958
30
0
40
1.231
1
facing pocket
0
LWPOLYLINE
8
PIECES
90
4
70
1
10
0.361699999999999
20
0.06970000000000098
10
111.0869
20
0.06970000000000098
10
111.0869
20
36.091300000000004
10
0.361699999999999
20
36.091300000000004
0
TEXT
8
LABELS
10
28.043
20
18.0805
30
0
40
2.0
1
FRONT
0
LWPOLYLINE
8
PIECES
90
4
70
1
10
440.3616
20
123.9774
10
551.0868
20
123.9774
10
551.0868
20
159.999
10
440.3616
20
159.999
0
TEXT
8
LABELS
10
468.0429
20
141.9882
30
0
40
2.0
1
FRONT
0
LWPOLYLINE
8
PIECES
90
4
70
1
10
119.93905000000001
20
0.0010499999999993292
10
232.50455
20
0.0010499999999993292
10
232.50455
20
40.01435
10
119.93905000000001
20
40.01435
0
TEXT
8
LABELS
10
148.080425
20
20.0077
30
0
40
2.0
1
BACK
0
LWPOLYLINE
8
PIECES
90
4
70
1
10
459.93905
20
1.210449999999998
10
572.50455
20
1.210449999999998
10
572.50455
20
41.223749999999995
10
459.93905
20
41.223749999999995
0
TEXT
8
LABELS
10
488.08042500000005
20
21.2171
30
0
40
2.0
1
BACK
0
LWPOLYLINE
8
PIECES
90
4
70
1
10
265.5933
20
150.9997
10
349.5933
20
150.9997
10
349.5933
20
159.9997
10
265.5933
20
159.9997
0
TEXT
8
LABELS
10
286.5933
20
155.4997
30
0
40
0.9
1
WAIST BAND
0
LWPOLYLINE
8
PIECES
90
4
70
1
10
234.8097
20
36.5107
10
254.8097
20
36.5107
10
254.8097
20
46.5107
10
234.8097
20
46.5107
0
TEXT
8
LABELS
10
239.8097
20
41.5107
30
0
40
1.0
1
ZIPPER FACING
0
LWPOLYLINE
8
PIECES
90
4
70
1
10
109.8319
20
144.9996
10
129.83190000000002
20
144.9996
10
129.83190000000002
20
150.9996
10
109.8319
20
150.9996
0
TEXT
8
LABELS
10
114.8319
20
147.9996
30
0
40
0.6
1
ZIPPER FACING 1
0
LWPOLYLINE
8
PIECES
90
4
70
1
10
257.113
20
147.4996
10
292.113
20
147.4996
10
292.113
20
150.9996
10
257.113
20
150.9996
0
TEXT
8
LABELS
10
265.863
20
149.2496
30
0
40
0.35
1
LOOPING
0
LWPOLYLINE
8
PIECES
90
4
70
1
10
473.2306
20
34.6294
10
500.903
20
34.6294
10
500.903
20
46.9394
10
473.2306
20
46.9394
0
TEXT
8
LABELS
10
480.1487
20
40.7844
30
0
40
1.231
1
facing pocket
0
LWPOLYLINE
8
PIECES
90
4
70
1
10
503.2305999999999
20
53.756
10
530.9029999999999
20
53.756
10
530.9029999999999
20
66.066
10
503.2305999999999
20
66.066
0
TEXT
8
LABELS
10
510.14869999999996
20
59.911
30
0
40
1.231
1
facing pocket
0
LWPOLYLINE
8
PIECES
90
4
70
1
10
457.2692
20
104.00059999999999
10
346.04400000000004
20
104.0006
10
346.04400000000004
20
66.6788
10
457.2692
20
66.67879999999998
0
TEXT
8
LABELS
10
373.8503
20
85.3397
30
0
40
2.0
1
FRONT
0
LWPOLYLINE
8
PIECES
90
4
70
1
10
577.2692000000001
20
121.3756
10
466.04400000000004
20
121.37559999999999
10
466.04400000000004
20
84.05379999999998
10
577.2692000000001
20
84.0538
0
TEXT
8
LABELS
10
493.8503
20
102.7147
30
0
40
2.0
1
FRONT
0
LWPOLYLINE
8
PIECES
90
4
70
1
10
232.2983
20
0.0007500000000000284
10
345.3737
20
0.0007500000000000284
10
345.3737
20
41.312250000000006
10
232.2983
20
41.312250000000006
0
TEXT
8
LABELS
10
260.56715
20
20.6565
30
0
40
2.0
1
BACK
0
LWPOLYLINE
8
PIECES
90
4
70
1
10
232.2983
20
71.14575
10
345.3737
20
71.14575
10
345.3737
20
112.45725
10
232.2983
20
112.45725
0
TEXT
8
LABELS
10
260.56715
20
91.8015
30
0
40
2.0
1
BACK
0
LWPOLYLINE
8
PIECES
90
4
70
1
10
349.5944
20
150.999
10
437.5944
20
150.999
10
437.5944
20
159.999
10
349.5944
20
159.999
0
TEXT
8
LABELS
10
371.5944
20
155.499
30
0
40
0.9
1
WAIST BAND
0
LWPOLYLINE
8
PIECES
90
4
70
1
10
337.5341
20
112.9914
10
317.5341
20
112.9914
10
317.5341
20
102.9914
10
337.5341
20
102.9914
0
TEXT
8
LABELS
10
322.5341
20
107.9914
30
0
40
1.0
1
ZIPPER FACING
0
LWPOLYLINE
8
PIECES
90
4
70
1
10
140.0778
20
75.2183
10
120.0778
20
75.2183
10
120.0778
20
69.2183
10
140.0778
20
69.2183
0
TEXT
8
LABELS
10
125.0778
20
72.2183
30
0
40
0.6
1
ZIPPER FACING 1
0
LWPOLYLINE
8
PIECES
90
4
70
1
10
379.1065
20
37.3919
10
344.1065
20
37.3919
10
344.1065
20
33.8919
10
379.1065
20
33.8919
0
TEXT
8
LABELS
10
352.8565
20
35.6419
30
0
40
0.35
1
LOOPING
0
LWPOLYLINE
8
PIECES
90
4
70
1
10
493.90020000000004
20
82.9732
10
466.2278
20
82.9732
10
466.2278
20
70.6632
10
493.90020000000004
20
70.6632
0
TEXT
8
LABELS
10
473.14590000000004
20
76.8182
30
0
40
1.231
1
facing pocket
0
LWPOLYLINE
8
PIECES
90
4
70
1
10
553.9001999999999
20
76.1489
10
526.2278
20
76.1489
10
526.2278
20
63.838899999999995
10
553.9001999999999
20
63.838899999999995
0
TEXT
8
LABELS
10
533.1459
20
69.9939
30
0
40
1.231
1
facing pocket
0
LWPOLYLINE
8
PIECES
90
4
70
1
10
111.7252
20
130.4808
10
0.0
20
130.4808
10
0.0
20
91.8588
10
111.7252
20
91.85879999999999
0
TEXT
8
LABELS
10
27.9313
20
111.1698
30
0
40
2.0
1
FRONT
0
LWPOLYLINE
8
PIECES
90
4
70
1
10
358.2749
20
33.3603
10
470.0001
20
33.3603
10
470.0001
20
71.98230000000001
10
358.2749
20
71.98230000000001
0
TEXT
8
LABELS
10
386.20619999999997
20
52.6713
30
0
40
2.0
1
FRONT
0
LWPOLYLINE
8
PIECES
90
4
70
1
10
343.444
20
147.97175000000001
10
229.85880000000003
20
147.97175
10
229.85880000000003
20
105.36184999999999
10
343.444
20
105.36185
0
TEXT
8
LABELS
10
258.2551
20
126.6668
30
0
40
2.0
1
BACK
0
LWPOLYLINE
8
PIECES
90
4
70
1
10
232.1687
20
77.85825
10
118.58350000000002
20
77.85825000000001
10
118.58350000000002
20
35.24835
10
232.1687
20
35.24834999999999
0
TEXT
8
LABELS
10
146.9798
20
56.5533
30
0
40
2.0
1
BACK
0
LWPOLYLINE
8
PIECES
90
4
70
1
10
343.6653
20
141.9981
10
435.6653
20
141.9981
10
435.6653
20
150.9981
10
343.6653
20
150.9981
0
TEXT
8
LABELS
10
366.6653
20
146.4981
30
0
40
0.9
1
WAIST BAND
0
LWPOLYLINE
8
PIECES
90
4
70
1
10
549.8739
20
51.2241
10
529.8739
20
51.2241
10
529.8739
20
41.2241
10
549.8739
20
41.2241
0
TEXT
8
LABELS
10
534.8739
20
46.2241
30
0
40
1.0
1
ZIPPER FACING
0
LWPOLYLINE
8
PIECES
90
4
70
1
10
249.7457
20
117.872
10
229.7457
20
117.872
10
229.7457
20
111.872
10
249.7457
20
111.872
0
TEXT
8
LABELS
10
234.7457
20
114.872
30
0
40
0.6
1
ZIPPER FACING 1
0
LWPOLYLINE
8
PIECES
90
4
70
1
10
245.664
20
6.809499999999998
10
210.664
20
6.809500000000002
10
210.664
20
3.309500000000002
10
245.664
20
3.3094999999999977
0
TEXT
8
LABELS
10
219.414
20
5.0595
30
0
40
0.35
1
LOOPING
0
LWPOLYLINE
8
PIECES
90
4
70
1
10
497.85720000000003
20
55.263600000000004
10
470.1848
20
55.263600000000004
10
470.1848
20
42.9536
10
497.85720000000003
20
42.9536
0
TEXT
8
LABELS
10
477.10290000000003
20
49.1086
30
0
40
1.231
1
facing pocket
0
LWPOLYLINE
8
PIECES
90
4
70
1
10
472.1427
20
54.6423
10
499.81510000000003
20
54.6423
10
499.81510000000003
20
66.9523
10
472.1427
20
66.9523
0
TEXT
8
LABELS
10
479.06080000000003
20
60.7973
30
0
40
1.231
1
facing pocket
0
ENDSEC
0
EOF