0
SECTION
2
HEADER
9
$ACADVER
1
AC1015
9
$INSUNITS
70
4
0
ENDSEC
0
SECTION
2
TABLES
0
TABLE
2
LAYER
70
5
0
LAYER
2
0
70
0
62
7
6
CONTINUOUS
0
LAYER
2
FABRIC
70
0
62
8
6
CONTINUOUS
0
LAYER
2
PIECES
70
0
62
7
6
CONTINUOUS
0
LAYER
2
LABELS
70
0
62
3
6
CONTINUOUS
0
LAYER
2
NOTCHES
70
0
62
1
6
CONTINUOUS
0
ENDTAB
0
ENDSEC
0
SECTION
2
ENTITIES
0
LWPOLYLINE
8
FABRIC
90
4
70
1
10
0
20
0
10
602.4738
20
0
10
602.4738
20
148.0
10
0
20
148.0
0
LWPOLYLINE
8
PIECES
90
4
70
1
10
208.65855
20
115.7644
10
313.13805
20
115.7644
10
313.13805
20
147.9904
10
208.65855
20
147.9904
0
TEXT
8
LABELS
10
234.778425
20
131.8774
30
0
40
2.0
1
Back Basic Pants
0
LWPOLYLINE
8
PIECES
90
4
70
1
10
289.99195
20
0.009599999999998943
10
394.47145
20
0.009599999999998943
10
394.47145
20
32.2356
10
289.99195
20
32.2356
0
TEXT
8
LABELS
10
316.111825
20
16.1226
30
0
40
2.0
1
Back Basic Pants
0
LWPOLYLINE
8
PIECES
90
4
70
1
10
106.90785
20
0.009700000000000486
10
209.31295
20
0.009700000000000486
10
209.31295
20
26.951700000000002
10
106.90785
20
26.951700000000002
0
TEXT
8
LABELS
10
132.50912499999998
20
13.4807
30
0
40
2.0
1
Front Basic Pants
0
LWPOLYLINE
8
PIECES
90
4
70
1
10
500.06865000000005
20
0.0
10
602.47375
20
0.0
10
602.47375
20
26.942
10
500.06865000000005
20
26.942
0
TEXT
8
LABELS
10
525.669925
20
13.471
30
0
40
2.0
1
Front Basic Pants
0
LWPOLYLINE
8
PIECES
90
4
70
1
10
0.02004999999999768
20
114.45400000000001
10
105.00955
20
114.45400000000001
10
105.00955
20
147.98000000000002
10
0.02004999999999768
20
147.98000000000002
0
TEXT
8
LABELS
10
26.267425
20
131.217
30
0
40
2.0
1
Back Basic Pants
0
LWPOLYLINE
8
PIECES
90
4
70
1
10
106.51554999999999
20
50.677499999999995
10
211.50505
20
50.677499999999995
10
211.50505
20
84.2035
10
106.51554999999999
20
84.2035
0
TEXT
8
LABELS
10
132.762925
20
67.4405
30
0
40
2.0
1
Back Basic Pants
0
LWPOLYLINE
8
PIECES
90
4
70
1
10
82.44264999999999
20
25.8904
10
185.34775
20
25.8904
10
185.34775
20
54.1242
10
82.44264999999999
20
54.1242
0
TEXT
8
LABELS
10
108.16892499999999
20
40.0073
30
0
40
2.0
1
Front Basic Pants
0
LWPOLYLINE
8
PIECES
90
4
70
1
10
314.55965000000003
20
88.185
10
417.46475
20
88.185
10
417.46475
20
116.4188
10
314.55965000000003
20
116.4188
0
TEXT
8
LABELS
10
340.285925
20
102.3019
30
0
40
2.0
1
Front Basic Pants
0
LWPOLYLINE
8
PIECES
90
4
70
1
10
417.9042
20
78.3417
10
523.4038
20
78.3417
10
523.4038
20
113.1677
10
417.9042
20
113.1677
0
TEXT
8
LABELS
10
444.27909999999997
20
95.7547
30
0
40
2.0
1
Back Basic Pants
0
LWPOLYLINE
8
PIECES
90
4
70
1
10
416.9579
20
113.16449999999999
10
522.4575
20
113.16449999999999
10
522.4575
20
147.9905
10
416.9579
20
147.9905
0
TEXT
8
LABELS
10
443.33279999999996
20
130.5775
30
0
40
2.0
1
Back Basic Pants
0
LWPOLYLINE
8
PIECES
90
4
70
1
10
106.37285
20
83.7653
10
209.77795
20
83.7653
10
209.77795
20
113.29910000000001
10
106.37285
20
113.29910000000001
0
TEXT
8
LABELS
10
132.22412500000002
20
98.5322
30
0
40
2.0
1
Front Basic Pants
0
LWPOLYLINE
8
PIECES
90
4
70
1
10
314.84844999999996
20
59.1543
10
418.25355
20
59.1543
10
418.25355
20
88.68809999999999
10
314.84844999999996
20
88.68809999999999
0
TEXT
8
LABELS
10
340.699725
20
73.9212
30
0
40
2.0
1
Front Basic Pants
0
LWPOLYLINE
8
PIECES
90
4
70
1
10
394.44425
20
0.009500000000002728
10
500.45394999999996
20
0.009500000000002728
10
500.45394999999996
20
36.1355
10
394.44425
20
36.1355
0
TEXT
8
LABELS
10
420.94667499999997
20
18.0725
30
0
40
2.0
1
Back Basic Pants
0
LWPOLYLINE
8
PIECES
90
4
70
1
10
396.14655000000005
20
36.122
10
502.15625
20
36.122
10
502.15625
20
72.248
10
396.14655000000005
20
72.248
0
TEXT
8
LABELS
10
422.648975
20
54.185
30
0
40
2.0
1
Back Basic Pants
0
LWPOLYLINE
8
PIECES
90
4
70
1
10
211.11995
20
52.817400000000006
10
315.02504999999996
20
52.817400000000006
10
315.02504999999996
20
83.6512
10
211.11995
20
83.6512
0
TEXT
8
LABELS
10
237.096225
20
68.2343
30
0
40
2.0
1
Front Basic Pants
0
LWPOLYLINE
8
PIECES
90
4
70
1
10
495.16465000000005
20
56.338300000000004
10
599.06975
20
56.338300000000004
10
599.06975
20
87.1721
10
495.16465000000005
20
87.1721
0
TEXT
8
LABELS
10
521.140925
20
71.7552
30
0
40
2.0
1
Front Basic Pants
0
LWPOLYLINE
8
PIECES
90
4
70
1
10
0.02004999999999768
20
77.7543
10
106.53975
20
77.7543
10
106.53975
20
115.18029999999999
10
0.02004999999999768
20
115.18029999999999
0
TEXT
8
LABELS
10
26.649974999999998
20
96.4673
30
0
40
2.0
1
Back Basic Pants
0
LWPOLYLINE
8
PIECES
90
4
70
1
10
185.12665
20
21.8352
10
291.64635
20
21.8352
10
291.64635
20
59.2612
10
185.12665
20
59.2612
0
TEXT
8
LABELS
10
211.756575
20
40.5482
30
0
40
2.0
1
Back Basic Pants
0
LWPOLYLINE
8
PIECES
90
4
70
1
10
104.58345
20
112.88380000000001
10
208.98855
20
112.88380000000001
10
208.98855
20
145.01760000000002
10
104.58345
20
145.01760000000002
0
TEXT
8
LABELS
10
130.68472500000001
20
128.9507
30
0
40
2.0
1
Front Basic Pants
0
LWPOLYLINE
8
PIECES
90
4
70
1
10
312.86285
20
115.85659999999999
10
417.26795000000004
20
115.85659999999999
10
417.26795000000004
20
147.9904
10
312.86285
20
147.9904
0
TEXT
8
LABELS
10
338.964125
20
131.9235
30
0
40
2.0
1
Front Basic Pants
0
LWPOLYLINE
8
PIECES
90
4
70
1
10
0.009800000000005582
20
0.009399999999999409
10
107.03960000000001
20
0.009399999999999409
10
107.03960000000001
20
38.7354
10
0.009800000000005582
20
38.7354
0
TEXT
8
LABELS
10
26.767250000000004
20
19.3724
30
0
40
2.0
1
Back Basic Pants
0
LWPOLYLINE
8
PIECES
90
4
70
1
10
0.020000000000003126
20
39.8303
10
107.0498
20
39.8303
10
107.0498
20
78.5563
10
0.020000000000003126
20
78.5563
0
TEXT
8
LABELS
10
26.77745
20
59.1933
30
0
40
2.0
1
Back Basic Pants
0
LWPOLYLINE
8
PIECES
90
4
70
1
10
209.68445
20
83.01140000000001
10
314.58955000000003
20
83.01140000000001
10
314.58955000000003
20
116.4452
10
209.68445
20
116.4452
0
TEXT
8
LABELS
10
235.910725
20
99.7283
30
0
40
2.0
1
Front Basic Pants
0
LWPOLYLINE
8
PIECES
90
4
70
1
10
291.62415
20
31.4986
10
396.52925000000005
20
31.4986
10
396.52925000000005
20
64.9324
10
291.62415
20
64.9324
0
TEXT
8
LABELS
10
317.85042500000003
20
48.2155
30
0
40
2.0
1
Front Basic Pants
0
ENDSEC
0
EOF