0
SECTION
2
HEADER
9
$ACADVER
1
AC1015
9
$INSUNITS
70
4
0
ENDSEC
0
SECTION
2
TABLES
0
TABLE
2
LAYER
70
5
0
LAYER
2
0
70
0
62
7
6
CONTINUOUS
0
LAYER
2
FABRIC
70
0
62
8
6
CONTINUOUS
0
LAYER
2
PIECES
70
0
62
7
6
CONTINUOUS
0
LAYER
2
LABELS
70
0
62
3
6
CONTINUOUS
0
LAYER
2
NOTCHES
70
0
62
1
6
CONTINUOUS
0
ENDTAB
0
ENDSEC
0
SECTION
2
ENTITIES
0
LWPOLYLINE
8
FABRIC
90
4
70
1
10
0
20
0
10
601.3232
20
0
10
601.3232
20
148.0
10
0
20
148.0
0
LWPOLYLINE
8
PIECES
90
4
70
1
10
205.887
20
114.1498
10
273.2446
20
114.1498
10
273.2446
20
138.2138
10
205.887
20
138.2138
0
TEXT
8
LABELS
10
222.72639999999998
20
126.1818
30
0
40
2.0
1
frontpanel
0
LWPOLYLINE
8
PIECES
90
4
70
1
10
258.2858
20
11.2589
10
325.64340000000004
20
11.2589
10
325.64340000000004
20
35.322900000000004
10
258.2858
20
35.322900000000004
0
TEXT
8
LABELS
10
275.1252
20
23.2909
30
0
40
2.0
1
frontpanel
0
LWPOLYLINE
8
PIECES
90
4
70
1
10
0.003550000000004161
20
80.3526
10
70.62925
20
80.3526
10
70.62925
20
107.49860000000001
10
0.003550000000004161
20
107.49860000000001
0
TEXT
8
LABELS
10
17.659975000000003
20
93.9256
30
0
40
2.0
1
frontpanel_42
0
LWPOLYLINE
8
PIECES
90
4
70
1
10
138.42095
20
26.014400000000002
10
209.04665
20
26.014400000000002
10
209.04665
20
53.1604
10
138.42095
20
53.1604
0
TEXT
8
LABELS
10
156.07737500000002
20
39.5874
30
0
40
2.0
1
frontpanel_42
0
LWPOLYLINE
8
PIECES
90
4
70
1
10
534.9318999999999
20
107.9223
10
583.7793
20
107.9223
10
583.7793
20
119.8373
10
534.9318999999999
20
119.8373
0
TEXT
8
LABELS
10
547.14375
20
113.8798
30
0
40
1.1915
1
sidepanel
0
LWPOLYLINE
8
PIECES
90
4
70
1
10
552.4757999999999
20
73.5001
10
601.3232
20
73.5001
10
601.3232
20
85.4151
10
552.4757999999999
20
85.4151
0
TEXT
8
LABELS
10
564.68765
20
79.4576
30
0
40
1.1915
1
sidepanel
0
LWPOLYLINE
8
PIECES
90
4
70
1
10
521.254
20
0.009599999999998943
10
586.9563999999999
20
0.009599999999998943
10
586.9563999999999
20
18.6096
10
521.254
20
18.6096
0
TEXT
8
LABELS
10
537.6795999999999
20
9.3096
30
0
40
1.86
1
backpanel
0
LWPOLYLINE
8
PIECES
90
4
70
1
10
534.9319
20
129.3903
10
600.6342999999999
20
129.3903
10
600.6342999999999
20
147.99030000000002
10
534.9319
20
147.99030000000002
0
TEXT
8
LABELS
10
551.3575
20
138.6903
30
0
40
1.86
1
backpanel
0
LWPOLYLINE
8
PIECES
90
4
70
1
10
462.6291
20
13.020700000000001
10
524.5439
20
13.020700000000001
10
524.5439
20
35.5547
10
462.6291
20
35.5547
0
TEXT
8
LABELS
10
478.1078
20
24.2877
30
0
40
2.0
1
sleeve 1
0
LWPOLYLINE
8
PIECES
90
4
70
1
10
520.8994
20
30.491699999999998
10
582.8142
20
30.491699999999998
10
582.8142
20
53.0257
10
520.8994
20
53.0257
0
TEXT
8
LABELS
10
536.3781
20
41.7587
30
0
40
2.0
1
sleeve 1
0
LWPOLYLINE
8
PIECES
90
4
70
1
10
184.23825
20
54.63895
10
242.76094999999998
20
54.63895
10
242.76094999999998
20
67.34605
10
184.23825
20
67.34605
0
TEXT
8
LABELS
10
198.868925
20
60.9925
30
0
40
1.27071
1
sleeve 2
0
LWPOLYLINE
8
PIECES
90
4
70
1
10
378.83995
20
135.28314999999998
10
437.36265
20
135.28314999999998
10
437.36265
20
147.99025
10
378.83995
20
147.99025
0
TEXT
8
LABELS
10
393.470625
20
141.6367
30
0
40
1.27071
1
sleeve 2
0
LWPOLYLINE
8
PIECES
90
4
70
1
10
327.70995
20
24.898399999999995
10
395.73605000000003
20
24.898399999999995
10
395.73605000000003
20
49.2136
10
327.70995
20
49.2136
0
TEXT
8
LABELS
10
344.716475
20
37.056
30
0
40
2.0
1
frontpanel
0
LWPOLYLINE
8
PIECES
90
4
70
1
10
457.40745
20
53.90599999999999
10
525.43355
20
53.90599999999999
10
525.43355
20
78.2212
10
457.40745
20
78.2212
0
TEXT
8
LABELS
10
474.413975
20
66.0636
30
0
40
2.0
1
frontpanel
0
LWPOLYLINE
8
PIECES
90
4
70
1
10
70.64925
20
121.63380000000001
10
141.18135
20
121.63380000000001
10
141.18135
20
147.98000000000002
10
70.64925
20
147.98000000000002
0
TEXT
8
LABELS
10
88.282275
20
134.8069
30
0
40
2.0
1
frontpanel_42
0
LWPOLYLINE
8
PIECES
90
4
70
1
10
120.58515
20
61.787600000000005
10
191.11725
20
61.787600000000005
10
191.11725
20
88.13380000000001
10
120.58515
20
88.13380000000001
0
TEXT
8
LABELS
10
138.218175
20
74.9607
30
0
40
2.0
1
frontpanel_42
0
LWPOLYLINE
8
PIECES
90
4
70
1
10
242.6535
20
58.4996
10
291.5009
20
58.4996
10
291.5009
20
70.9146
10
242.6535
20
70.9146
0
TEXT
8
LABELS
10
254.86535
20
64.7071
30
0
40
1.2414999999999998
1
sidepanel
0
LWPOLYLINE
8
PIECES
90
4
70
1
10
486.0753
20
135.57659999999998
10
534.9227000000001
20
135.57659999999998
10
534.9227000000001
20
147.9916
10
486.0753
20
147.9916
0
TEXT
8
LABELS
10
498.28715
20
141.7841
30
0
40
1.2414999999999998
1
sidepanel
0
LWPOLYLINE
8
PIECES
90
4
70
1
10
0.00280000000000058
20
107.2624
10
66.20519999999999
20
107.2624
10
66.20519999999999
20
126.3624
10
0.00280000000000058
20
126.3624
0
TEXT
8
LABELS
10
16.5534
20
116.8124
30
0
40
1.9100000000000001
1
backpanel
0
LWPOLYLINE
8
PIECES
90
4
70
1
10
410.6656
20
74.1444
10
476.868
20
74.1444
10
476.868
20
93.2444
10
410.6656
20
93.2444
0
TEXT
8
LABELS
10
427.2162
20
83.6944
30
0
40
1.9100000000000001
1
backpanel
0
LWPOLYLINE
8
PIECES
90
4
70
1
10
0.0034500000000008413
20
41.470299999999995
10
62.11155
20
41.470299999999995
10
62.11155
20
64.5043
10
0.0034500000000008413
20
64.5043
0
TEXT
8
LABELS
10
15.530475000000001
20
52.9873
30
0
40
2.0
1
sleeve 1
0
LWPOLYLINE
8
PIECES
90
4
70
1
10
524.82835
20
52.020300000000006
10
586.9364499999999
20
52.020300000000006
10
586.9364499999999
20
75.0543
10
524.82835
20
75.0543
0
TEXT
8
LABELS
10
540.355375
20
63.5373
30
0
40
2.0
1
sleeve 1
0
LWPOLYLINE
8
PIECES
90
4
70
1
10
209.19445000000002
20
134.78314999999998
10
267.71715
20
134.78314999999998
10
267.71715
20
147.99025
10
209.19445000000002
20
147.99025
0
TEXT
8
LABELS
10
223.825125
20
141.3867
30
0
40
1.32071
1
sleeve 2
0
LWPOLYLINE
8
PIECES
90
4
70
1
10
433.53605
20
134.64694999999998
10
492.05875
20
134.64694999999998
10
492.05875
20
147.85405
10
433.53605
20
147.85405
0
TEXT
8
LABELS
10
448.166725
20
141.2505
30
0
40
1.32071
1
sleeve 2
0
LWPOLYLINE
8
PIECES
90
4
70
1
10
391.43885
20
39.707750000000004
10
460.13035
20
39.707750000000004
10
460.13035
20
64.29025
10
391.43885
20
64.29025
0
TEXT
8
LABELS
10
408.61172500000004
20
51.999
30
0
40
2.0
1
frontpanel
0
LWPOLYLINE
8
PIECES
90
4
70
1
10
407.75095
20
93.25075
10
476.44245
20
93.25075
10
476.44245
20
117.83325
10
407.75095
20
117.83325
0
TEXT
8
LABELS
10
424.923825
20
105.542
30
0
40
2.0
1
frontpanel
0
LWPOLYLINE
8
PIECES
90
4
70
1
10
191.82885
20
67.35575
10
262.27035
20
67.35575
10
262.27035
20
92.93825000000001
10
191.82885
20
92.93825000000001
0
TEXT
8
LABELS
10
209.439225
20
80.147
30
0
40
2.0
1
frontpanel_42
0
LWPOLYLINE
8
PIECES
90
4
70
1
10
269.89205
20
65.28705
10
340.33355
20
65.28705
10
340.33355
20
90.86955
10
269.89205
20
90.86955
0
TEXT
8
LABELS
10
287.502425
20
78.0783
30
0
40
2.0
1
frontpanel_42
0
LWPOLYLINE
8
PIECES
90
4
70
1
10
534.9318999999999
20
83.3618
10
583.7793
20
83.3618
10
583.7793
20
96.2768
10
534.9318999999999
20
96.2768
0
TEXT
8
LABELS
10
547.14375
20
89.8193
30
0
40
1.2914999999999999
1
sidepanel
0
LWPOLYLINE
8
PIECES
90
4
70
1
10
534.9318999999999
20
119.83720000000001
10
583.7793
20
119.83720000000001
10
583.7793
20
132.75220000000002
10
534.9318999999999
20
132.75220000000002
0
TEXT
8
LABELS
10
547.14375
20
126.2947
30
0
40
1.2914999999999999
1
sidepanel
0
LWPOLYLINE
8
PIECES
90
4
70
1
10
341.0397
20
91.1329
10
407.7421
20
91.1329
10
407.7421
20
110.7329
10
341.0397
20
110.7329
0
TEXT
8
LABELS
10
357.7153
20
100.9329
30
0
40
1.9600000000000002
1
backpanel
0
LWPOLYLINE
8
PIECES
90
4
70
1
10
395.7011
20
21.662
10
462.4035
20
21.662
10
462.4035
20
41.262
10
395.7011
20
41.262
0
TEXT
8
LABELS
10
412.3767
20
31.462
30
0
40
1.9600000000000002
1
backpanel
0
LWPOLYLINE
8
PIECES
90
4
70
1
10
0.0035500000000006082
20
63.07220000000001
10
62.305049999999994
20
63.07220000000001
10
62.305049999999994
20
86.6062
10
0.0035500000000006082
20
86.6062
0
TEXT
8
LABELS
10
15.578925
20
74.8392
30
0
40
2.0
1
sleeve 1
0
LWPOLYLINE
8
PIECES
90
4
70
1
10
410.30755
20
113.1508
10
472.60905
20
113.1508
10
472.60905
20
136.6848
10
410.30755
20
136.6848
0
TEXT
8
LABELS
10
425.882925
20
124.9178
30
0
40
2.0
1
sleeve 1
0
LWPOLYLINE
8
PIECES
90
4
70
1
10
120.11925
20
48.21145
10
178.64194999999998
20
48.21145
10
178.64194999999998
20
61.918549999999996
10
120.11925
20
61.918549999999996
0
TEXT
8
LABELS
10
134.749925
20
55.065
30
0
40
1.37071
1
sleeve 2
0
LWPOLYLINE
8
PIECES
90
4
70
1
10
520.16385
20
17.905050000000003
10
578.68655
20
17.905050000000003
10
578.68655
20
31.61215
10
520.16385
20
31.61215
0
TEXT
8
LABELS
10
534.794525
20
24.7586
30
0
40
1.37071
1
sleeve 2
0
LWPOLYLINE
8
PIECES
90
4
70
1
10
340.84565
20
106.71820000000001
10
410.31555000000003
20
106.71820000000001
10
410.31555000000003
20
132.31040000000002
10
340.84565
20
132.31040000000002
0
TEXT
8
LABELS
10
358.213125
20
119.5143
30
0
40
2.0
1
frontpanel
0
LWPOLYLINE
8
PIECES
90
4
70
1
10
394.03975
20
0.009400000000001185
10
463.50964999999997
20
0.009400000000001185
10
463.50964999999997
20
25.601599999999998
10
394.03975
20
25.601599999999998
0
TEXT
8
LABELS
10
411.407225
20
12.8055
30
0
40
2.0
1
frontpanel
0
LWPOLYLINE
8
PIECES
90
4
70
1
10
0.003350000000004627
20
122.26080000000002
10
70.47325000000001
20
122.26080000000002
10
70.47325000000001
20
147.853
10
0.003350000000004627
20
147.853
0
TEXT
8
LABELS
10
17.620825000000004
20
135.0569
30
0
40
2.0
1
frontpanel_42
0
LWPOLYLINE
8
PIECES
90
4
70
1
10
270.63865
20
90.8662
10
341.10855000000004
20
90.8662
10
341.10855000000004
20
116.4584
10
270.63865
20
116.4584
0
TEXT
8
LABELS
10
288.256125
20
103.6623
30
0
40
2.0
1
frontpanel_42
0
LWPOLYLINE
8
PIECES
90
4
70
1
10
405.6806
20
64.2967
10
454.528
20
64.2967
10
454.528
20
77.7117
10
405.6806
20
77.7117
0
TEXT
8
LABELS
10
417.89245
20
71.0042
30
0
40
1.3415
1
sidepanel
0
LWPOLYLINE
8
PIECES
90
4
70
1
10
483.7548
20
120.53790000000001
10
532.6022
20
120.53790000000001
10
532.6022
20
133.9529
10
483.7548
20
133.9529
0
TEXT
8
LABELS
10
495.96664999999996
20
127.2454
30
0
40
1.3415
1
sidepanel
0
LWPOLYLINE
8
PIECES
90
4
70
1
10
0.0029000000000038995
20
22.586499999999997
10
67.2053
20
22.586499999999997
10
67.2053
20
42.686499999999995
10
0.0029000000000038995
20
42.686499999999995
0
TEXT
8
LABELS
10
16.803500000000003
20
32.6365
30
0
40
2.0
1
backpanel
0
LWPOLYLINE
8
PIECES
90
4
70
1
10
140.8198
20
85.02420000000001
10
208.0222
20
85.02420000000001
10
208.0222
20
105.1242
10
140.8198
20
105.1242
0
TEXT
8
LABELS
10
157.6204
20
95.0742
30
0
40
2.0
1
backpanel
0
LWPOLYLINE
8
PIECES
90
4
70
1
10
329.3452
20
44.048100000000005
10
391.8402
20
44.048100000000005
10
391.8402
20
68.0821
10
329.3452
20
68.0821
0
TEXT
8
LABELS
10
344.96895
20
56.0651
30
0
40
2.0
1
sleeve 1
0
LWPOLYLINE
8
PIECES
90
4
70
1
10
476.9196
20
77.2625
10
539.4146
20
77.2625
10
539.4146
20
101.2965
10
476.9196
20
101.2965
0
TEXT
8
LABELS
10
492.54335000000003
20
89.2795
30
0
40
2.0
1
sleeve 1
0
LWPOLYLINE
8
PIECES
90
4
70
1
10
463.46725
20
0.009749999999999481
10
521.98995
20
0.009749999999999481
10
521.98995
20
14.21685
10
463.46725
20
14.21685
0
TEXT
8
LABELS
10
478.097925
20
7.1133
30
0
40
1.4207100000000001
1
sleeve 2
0
LWPOLYLINE
8
PIECES
90
4
70
1
10
534.93195
20
94.67925
10
593.45465
20
94.67925
10
593.45465
20
108.88635
10
534.93195
20
108.88635
0
TEXT
8
LABELS
10
549.562625
20
101.7828
30
0
40
1.4207100000000001
1
sleeve 2
0
LWPOLYLINE
8
PIECES
90
4
70
1
10
0.009750000000003922
20
0.009349999999999525
10
70.25325000000001
20
0.009349999999999525
10
70.25325000000001
20
26.60725
10
0.009750000000003922
20
26.60725
0
TEXT
8
LABELS
10
17.570625000000003
20
13.3083
30
0
40
2.0
1
frontpanel
0
LWPOLYLINE
8
PIECES
90
4
70
1
10
135.75715
20
101.67734999999999
10
206.00064999999998
20
101.67734999999999
10
206.00064999999998
20
128.27525
10
135.75715
20
128.27525
0
TEXT
8
LABELS
10
153.31802499999998
20
114.9763
30
0
40
2.0
1
frontpanel
0
LWPOLYLINE
8
PIECES
90
4
70
1
10
258.28585
20
33.711149999999996
10
328.77355
20
33.711149999999996
10
328.77355
20
59.30925
10
258.28585
20
59.30925
0
TEXT
8
LABELS
10
275.907775
20
46.5102
30
0
40
2.0
1
frontpanel_42
0
LWPOLYLINE
8
PIECES
90
4
70
1
10
323.58885
20
0.009149999999999991
10
394.07655
20
0.009149999999999991
10
394.07655
20
25.60725
10
323.58885
20
25.60725
0
TEXT
8
LABELS
10
341.210775
20
12.8082
30
0
40
2.0
1
frontpanel_42
0
LWPOLYLINE
8
PIECES
90
4
70
1
10
209.4285
20
14.4329
10
258.27590000000004
20
14.4329
10
258.27590000000004
20
28.3479
10
209.4285
20
28.3479
0
TEXT
8
LABELS
10
221.64035
20
21.3904
30
0
40
1.3915
1
sidepanel
0
LWPOLYLINE
8
PIECES
90
4
70
1
10
208.4891
20
28.3944
10
257.3365
20
28.3944
10
257.3365
20
42.3094
10
208.4891
20
42.3094
0
TEXT
8
LABELS
10
220.70095
20
35.3519
30
0
40
1.3915
1
sidepanel
0
LWPOLYLINE
8
PIECES
90
4
70
1
10
68.0462
20
104.9564
10
135.7486
20
104.9564
10
135.7486
20
125.5564
10
68.0462
20
125.5564
0
TEXT
8
LABELS
10
84.9718
20
115.2564
30
0
40
2.0
1
backpanel
0
LWPOLYLINE
8
PIECES
90
4
70
1
10
273.1408
20
112.5141
10
340.8432
20
112.5141
10
340.8432
20
133.1141
10
273.1408
20
133.1141
0
TEXT
8
LABELS
10
290.06640000000004
20
122.8141
30
0
40
2.0
1
backpanel
0
LWPOLYLINE
8
PIECES
90
4
70
1
10
208.0306
20
90.45270000000001
10
270.719
20
90.45270000000001
10
270.719
20
114.9867
10
208.0306
20
114.9867
0
TEXT
8
LABELS
10
223.7027
20
102.7197
30
0
40
2.0
1
sleeve 1
0
LWPOLYLINE
8
PIECES
90
4
70
1
10
459.8784
20
34.3527
10
522.5668000000001
20
34.3527
10
522.5668000000001
20
58.886700000000005
10
459.8784
20
58.886700000000005
0
TEXT
8
LABELS
10
475.5505
20
46.6197
30
0
40
2.0
1
sleeve 1
0
LWPOLYLINE
8
PIECES
90
4
70
1
10
258.28575
20
0.009649999999999714
10
316.80845
20
0.009649999999999714
10
316.80845
20
14.716750000000001
10
258.28575
20
14.716750000000001
0
TEXT
8
LABELS
10
272.916425
20
7.3632
30
0
40
1.47071
1
sleeve 2
0
LWPOLYLINE
8
PIECES
90
4
70
1
10
322.34935
20
133.28324999999998
10
380.87205
20
133.28324999999998
10
380.87205
20
147.99035
10
322.34935
20
147.99035
0
TEXT
8
LABELS
10
336.980025
20
140.6368
30
0
40
1.47071
1
sleeve 2
0
LWPOLYLINE
8
PIECES
90
4
70
1
10
67.21395
20
18.89615
10
138.22744999999998
20
18.89615
10
138.22744999999998
20
46.49585
10
67.21395
20
46.49585
0
TEXT
8
LABELS
10
84.96732499999999
20
32.696
30
0
40
2.0
1
frontpanel
0
LWPOLYLINE
8
PIECES
90
4
70
1
10
138.42095
20
0.009350000000001302
10
209.43444999999997
20
0.009350000000001302
10
209.43444999999997
20
27.60905
10
138.42095
20
27.60905
0
TEXT
8
LABELS
10
156.17432499999998
20
13.8092
30
0
40
2.0
1
frontpanel
0
LWPOLYLINE
8
PIECES
90
4
70
1
10
70.386
20
81.17895
10
140.8826
20
81.17895
10
140.8826
20
106.77985
10
70.386
20
106.77985
0
TEXT
8
LABELS
10
88.01015
20
93.9794
30
0
40
2.0
1
frontpanel_42
0
LWPOLYLINE
8
PIECES
90
4
70
1
10
340.25350000000003
20
67.36375
10
410.7501
20
67.36375
10
410.7501
20
92.96464999999999
10
340.25350000000003
20
92.96464999999999
0
TEXT
8
LABELS
10
357.87765
20
80.1642
30
0
40
2.0
1
frontpanel_42
0
LWPOLYLINE
8
PIECES
90
4
70
1
10
209.4073
20
0.009600000000000719
10
258.2547
20
0.009600000000000719
10
258.2547
20
14.4246
10
209.4073
20
14.4246
0
TEXT
8
LABELS
10
221.61915
20
7.2171
30
0
40
1.4415
1
sidepanel
0
LWPOLYLINE
8
PIECES
90
4
70
1
10
208.4216
20
42.324
10
257.269
20
42.324
10
257.269
20
56.739000000000004
10
208.4216
20
56.739000000000004
0
TEXT
8
LABELS
10
220.63345
20
49.5315
30
0
40
1.4415
1
sidepanel
0
LWPOLYLINE
8
PIECES
90
4
70
1
10
70.2089
20
0.009599999999998943
10
138.4113
20
0.009599999999998943
10
138.4113
20
21.1096
10
70.2089
20
21.1096
0
TEXT
8
LABELS
10
87.2595
20
10.5596
30
0
40
2.0
1
backpanel
0
LWPOLYLINE
8
PIECES
90
4
70
1
10
140.9821
20
126.89040000000001
10
209.1845
20
126.89040000000001
10
209.1845
20
147.99040000000002
10
140.9821
20
147.99040000000002
0
TEXT
8
LABELS
10
158.0327
20
137.4404
30
0
40
2.0
1
backpanel
0
LWPOLYLINE
8
PIECES
90
4
70
1
10
62.07755
20
44.21640000000001
10
124.96205
20
44.21640000000001
10
124.96205
20
69.2504
10
62.07755
20
69.2504
0
TEXT
8
LABELS
10
77.798675
20
56.7334
30
0
40
2.0
1
sleeve 1
0
LWPOLYLINE
8
PIECES
90
4
70
1
10
475.71985
20
99.9706
10
538.6043500000001
20
99.9706
10
538.6043500000001
20
125.0046
10
475.71985
20
125.0046
0
TEXT
8
LABELS
10
491.440975
20
112.4876
30
0
40
2.0
1
sleeve 1
0
LWPOLYLINE
8
PIECES
90
4
70
1
10
61.02925
20
68.26185
10
119.55195
20
68.26185
10
119.55195
20
83.46894999999999
10
61.02925
20
83.46894999999999
0
TEXT
8
LABELS
10
75.659925
20
75.8654
30
0
40
1.52071
1
sleeve 2
0
LWPOLYLINE
8
PIECES
90
4
70
1
10
265.76555
20
132.78324999999998
10
324.28825
20
132.78324999999998
10
324.28825
20
147.99035
10
265.76555
20
147.99035
0
TEXT
8
LABELS
10
280.396225
20
140.3868
30
0
40
1.52071
1
sleeve 2
0
ENDSEC
0
EOF