0
SECTION
2
HEADER
9
$ACADVER
1
AC1015
9
$INSUNITS
70
4
0
ENDSEC
0
SECTION
2
TABLES
0
TABLE
2
LAYER
70
5
0
LAYER
2
0
70
0
62
7
6
CONTINUOUS
0
LAYER
2
PIECES
70
0
62
7
6
CONTINUOUS
0
LAYER
2
LABELS
70
0
62
3
6
CONTINUOUS
0
LAYER
2
INTERNALS
70
0
62
4
6
CONTINUOUS
0
LAYER
2
NOTCHES
70
0
62
1
6
CONTINUOUS
0
ENDTAB
0
ENDSEC
0
SECTION
2
ENTITIES
0
LWPOLYLINE
8
PIECES
90
4
70
1
10
0.0
20
0.0
10
21.4068
20
0.0
10
21.4068
20
63.5687
10
0.0
20
63.5687
0
TEXT
8
LABELS
10
2
20
31.78435
30
0
40
2.0
1
P1
0
LWPOLYLINE
8
PIECES
90
4
70
1
10
31.406799999999997
20
0.0
10
53.875499999999995
20
0.0
10
53.875499999999995
20
60.386
10
31.406799999999997
20
60.386
0
TEXT
8
LABELS
10
33.406800000000004
20
30.193
30
0
40
2.0
1
P3
0
LWPOLYLINE
8
PIECES
90
4
70
1
10
63.8755
20
0.0
10
76.455
20
0.0
10
76.455
20
47.5325
10
63.8755
20
47.5325
0
TEXT
8
LABELS
10
65.8755
20
23.76625
30
0
40
2.0
1
P4
0
LWPOLYLINE
8
PIECES
90
4
70
1
10
86.455
20
0.0
10
99.41179999999999
20
0.0
10
99.41179999999999
20
48.1391
10
86.455
20
48.1391
0
TEXT
8
LABELS
10
88.455
20
24.06955
30
0
40
2.0
1
P5
0
LWPOLYLINE
8
PIECES
90
4
70
1
10
109.4118
20
0.0
10
182.72400000000002
20
0.0
10
182.72400000000002
20
29.5742
10
109.4118
20
29.5742
0
TEXT
8
LABELS
10
111.4118
20
14.7871
30
0
40
2.0
1
P6
0
LWPOLYLINE
8
PIECES
90
4
70
1
10
192.724
20
0.0
10
247.5679
20
0.0
10
247.5679
20
12.1096
10
192.724
20
12.1096
0
TEXT
8
LABELS
10
194.724
20
6.0548
30
0
40
1.21096
1
P7
0
LWPOLYLINE
8
PIECES
90
4
70
1
10
257.5679
20
0.0
10
312.06950000000006
20
0.0
10
312.06950000000006
20
10.7309
10
257.5679
20
10.7309
0
TEXT
8
LABELS
10
259.5679
20
5.36545
30
0
40
1.07309
1
P8
0
LWPOLYLINE
8
PIECES
90
4
70
1
10
322.0695
20
0.0
10
329.0695
20
0.0
10
329.0695
20
22.1
10
322.0695
20
22.1
0
TEXT
8
LABELS
10
324.0695
20
11.05
30
0
40
2.0
1
Piece2
0
LWPOLYLINE
8
PIECES
90
4
70
1
10
339.0695
20
0.0
10
387.63000000000005
20
0.0
10
387.63000000000005
20
7.0
10
339.0695
20
7.0
0
TEXT
8
LABELS
10
341.0695
20
3.5
30
0
40
0.7
1
@Piece1
0
LWPOLYLINE
8
PIECES
90
4
70
1
10
397.63
20
0.0
10
420.33889999999997
20
0.0
10
420.33889999999997
20
13.6507
10
397.63
20
13.6507
0
TEXT
8
LABELS
10
399.63
20
6.82535
30
0
40
1.36507
1
Piece3
0
LWPOLYLINE
8
PIECES
90
4
70
1
10
430.33889999999997
20
0.0
10
430.83889999999997
20
0.0
10
430.83889999999997
20
63.12
10
430.33889999999997
20
63.12
0
TEXT
8
LABELS
10
432.33889999999997
20
31.56
30
0
40
2.0
1
@P13
0
ENDSEC
0
EOF