0
SECTION
2
HEADER
9
$ACADVER
1
AC1015
9
$INSUNITS
70
4
0
ENDSEC
0
SECTION
2
TABLES
0
TABLE
2
LAYER
70
5
0
LAYER
2
0
70
0
62
7
6
CONTINUOUS
0
LAYER
2
PIECES
70
0
62
7
6
CONTINUOUS
0
LAYER
2
LABELS
70
0
62
3
6
CONTINUOUS
0
LAYER
2
INTERNALS
70
0
62
4
6
CONTINUOUS
0
LAYER
2
NOTCHES
70
0
62
1
6
CONTINUOUS
0
ENDTAB
0
ENDSEC
0
SECTION
2
ENTITIES
0
LWPOLYLINE
8
PIECES
90
4
70
1
10
0.0
20
0.0
10
40.0251
20
0.0
10
40.0251
20
104.9025
10
0.0
20
104.9025
0
TEXT
8
LABELS
10
2
20
52.45125
30
0
40
2.0
1
Back
0
LWPOLYLINE
8
PIECES
90
4
70
1
10
50.0251
20
0.0
10
61.5247
20
0.0
10
61.5247
20
12.0937
10
50.0251
20
12.0937
0
TEXT
8
LABELS
10
52.0251
20
6.04685
30
0
40
1.20937
1
17SKINNY-10
0
LWPOLYLINE
8
PIECES
90
4
70
1
10
71.5247
20
0.0
10
77.51069999999999
20
0.0
10
77.51069999999999
20
16.3802
10
71.5247
20
16.3802
0
TEXT
8
LABELS
10
73.5247
20
8.1901
30
0
40
1.6380199999999998
1
17SKINNY-11
0
LWPOLYLINE
8
PIECES
90
4
70
1
10
87.5107
20
0.0
10
92.19699999999999
20
0.0
10
92.19699999999999
20
16.0988
10
87.5107
20
16.0988
0
TEXT
8
LABELS
10
89.5107
20
8.0494
30
0
40
1.60988
1
17SKINNY-12
0
LWPOLYLINE
8
PIECES
90
4
70
1
10
102.197
20
0.0
10
107.19730000000001
20
0.0
10
107.19730000000001
20
19.2807
10
102.197
20
19.2807
0
TEXT
8
LABELS
10
104.197
20
9.64035
30
0
40
1.92807
1
17SKINNY-13
0
LWPOLYLINE
8
PIECES
90
4
70
1
10
117.1973
20
0.0
10
120.99739999999998
20
0.0
10
120.99739999999998
20
60.0003
10
117.1973
20
60.0003
0
TEXT
8
LABELS
10
119.1973
20
30.00015
30
0
40
2.0
1
17SKINNY-14
0
LWPOLYLINE
8
PIECES
90
4
70
1
10
130.9974
20
0.0
10
133.4
20
0.0
10
133.4
20
9.9997
10
130.9974
20
9.9997
0
TEXT
8
LABELS
10
132.9974
20
4.99985
30
0
40
0.99997
1
17SKINNY-15
0
LWPOLYLINE
8
PIECES
90
4
70
1
10
143.4
20
0.0
10
180.51579999999998
20
0.0
10
180.51579999999998
20
30.4103
10
143.4
20
30.4103
0
TEXT
8
LABELS
10
145.4
20
15.20515
30
0
40
2.0
1
17SKINNY-16
0
LWPOLYLINE
8
PIECES
90
4
70
1
10
190.5158
20
0.0
10
210.5161
20
0.0
10
210.5161
20
26.0003
10
190.5158
20
26.0003
0
TEXT
8
LABELS
10
192.5158
20
13.00015
30
0
40
2.0
1
17SKINNY-17
0
LWPOLYLINE
8
PIECES
90
4
70
1
10
220.51610000000002
20
0.0
10
248.90470000000002
20
0.0
10
248.90470000000002
20
100.5682
10
220.51610000000002
20
100.5682
0
TEXT
8
LABELS
10
222.51610000000002
20
50.2841
30
0
40
2.0
1
Front
0
LWPOLYLINE
8
PIECES
90
4
70
1
10
258.90470000000005
20
0.0
10
287.29330000000004
20
0.0
10
287.29330000000004
20
104.5682
10
258.90470000000005
20
104.5682
0
TEXT
8
LABELS
10
260.90470000000005
20
52.2841
30
0
40
2.0
1
17SKINNY-3
0
LWPOLYLINE
8
PIECES
90
4
70
1
10
297.29330000000004
20
0.0
10
341.7084000000001
20
0.0
10
341.7084000000001
20
13.3241
10
297.29330000000004
20
13.3241
0
TEXT
8
LABELS
10
299.29330000000004
20
6.66205
30
0
40
1.3324099999999999
1
Belt
0
LWPOLYLINE
8
PIECES
90
4
70
1
10
351.70840000000004
20
0.0
10
399.5522
20
0.0
10
399.5522
20
17.5029
10
351.70840000000004
20
17.5029
0
TEXT
8
LABELS
10
353.70840000000004
20
8.75145
30
0
40
1.7502900000000001
1
17SKINNY-5
0
LWPOLYLINE
8
PIECES
90
4
70
1
10
409.5522
20
0.0
10
420.43980000000005
20
0.0
10
420.43980000000005
20
25.3345
10
409.5522
20
25.3345
0
TEXT
8
LABELS
10
411.5522
20
12.66725
30
0
40
2.0
1
Pocket
0
LWPOLYLINE
8
PIECES
90
4
70
1
10
430.43980000000005
20
0.0
10
440.7118000000001
20
0.0
10
440.7118000000001
20
24.7851
10
430.43980000000005
20
24.7851
0
TEXT
8
LABELS
10
432.43980000000005
20
12.39255
30
0
40
2.0
1
17SKINNY-7
0
LWPOLYLINE
8
PIECES
90
4
70
1
10
450.71180000000004
20
0.0
10
455.4116
20
0.0
10
455.4116
20
20.0
10
450.71180000000004
20
20.0
0
TEXT
8
LABELS
10
452.71180000000004
20
10.0
30
0
40
2.0
1
17SKINNY-8
0
LWPOLYLINE
8
PIECES
90
4
70
1
10
465.4116
20
0.0
10
485.41190000000006
20
0.0
10
485.41190000000006
20
8.0
10
465.4116
20
8.0
0
TEXT
8
LABELS
10
467.4116
20
4.0
30
0
40
0.8
1
17SKINNY-9
0
LWPOLYLINE
8
PIECES
90
4
70
1
10
495.4119
20
0.0
10
496.21189999999996
20
0.0
10
496.21189999999996
20
5.5
10
495.4119
20
5.5
0
TEXT
8
LABELS
10
497.4119
20
2.75
30
0
40
0.55
1
Loop
0
LWPOLYLINE
8
PIECES
90
4
70
1
10
0.0
20
114.9025
10
0.8
20
114.9025
10
0.8
20
120.4025
10
0.0
20
120.4025
0
TEXT
8
LABELS
10
2
20
117.6525
30
0
40
0.55
1
@5.5
0
ENDSEC
0
EOF