0
SECTION
2
HEADER
9
$ACADVER
1
AC1015
9
$INSUNITS
70
4
0
ENDSEC
0
SECTION
2
TABLES
0
TABLE
2
LAYER
70
5
0
LAYER
2
0
70
0
62
7
6
CONTINUOUS
0
LAYER
2
PIECES
70
0
62
7
6
CONTINUOUS
0
LAYER
2
LABELS
70
0
62
3
6
CONTINUOUS
0
LAYER
2
INTERNALS
70
0
62
4
6
CONTINUOUS
0
LAYER
2
NOTCHES
70
0
62
1
6
CONTINUOUS
0
ENDTAB
0
ENDSEC
0
SECTION
2
ENTITIES
0
LWPOLYLINE
8
PIECES
90
4
70
1
10
0.0
20
0.0
10
36.5069
20
0.0
10
36.5069
20
57.9962
10
0.0
20
57.9962
0
TEXT
8
LABELS
10
2
20
28.9981
30
0
40
2.0
1
17SKINNY-1
0
LWPOLYLINE
8
PIECES
90
4
70
1
10
46.5069
20
0.0
10
52.492900000000006
20
0.0
10
52.492900000000006
20
15.3802
10
46.5069
20
15.3802
0
TEXT
8
LABELS
10
48.5069
20
7.6901
30
0
40
1.53802
1
17SKINNY-11
0
LWPOLYLINE
8
PIECES
90
4
70
1
10
62.4929
20
0.0
10
67.1792
20
0.0
10
67.1792
20
15.0988
10
62.4929
20
15.0988
0
TEXT
8
LABELS
10
64.4929
20
7.5494
30
0
40
1.50988
1
17SKINNY-12
0
LWPOLYLINE
8
PIECES
90
4
70
1
10
77.17920000000001
20
0.0
10
82.17950000000002
20
0.0
10
82.17950000000002
20
18.2807
10
77.17920000000001
20
18.2807
0
TEXT
8
LABELS
10
79.17920000000001
20
9.14035
30
0
40
1.8280699999999999
1
17SKINNY-13
0
LWPOLYLINE
8
PIECES
90
4
70
1
10
92.1795
20
0.0
10
95.97959999999999
20
0.0
10
95.97959999999999
20
60.0003
10
92.1795
20
60.0003
0
TEXT
8
LABELS
10
94.1795
20
30.00015
30
0
40
2.0
1
17SKINNY-14
0
LWPOLYLINE
8
PIECES
90
4
70
1
10
105.9796
20
0.0
10
108.38220000000001
20
0.0
10
108.38220000000001
20
9.9997
10
105.9796
20
9.9997
0
TEXT
8
LABELS
10
107.9796
20
4.99985
30
0
40
0.99997
1
17SKINNY-15
0
LWPOLYLINE
8
PIECES
90
4
70
1
10
118.38220000000001
20
0.0
10
153.79880000000003
20
0.0
10
153.79880000000003
20
31.2795
10
118.38220000000001
20
31.2795
0
TEXT
8
LABELS
10
120.38220000000001
20
15.63975
30
0
40
2.0
1
17SKINNY-16
0
LWPOLYLINE
8
PIECES
90
4
70
1
10
163.79880000000003
20
0.0
10
182.79900000000004
20
0.0
10
182.79900000000004
20
25.0003
10
163.79880000000003
20
25.0003
0
TEXT
8
LABELS
10
165.79880000000003
20
12.50015
30
0
40
2.0
1
17SKINNY-17
0
LWPOLYLINE
8
PIECES
90
4
70
1
10
192.79900000000004
20
0.0
10
216.502
20
0.0
10
216.502
20
53.6691
10
192.79900000000004
20
53.6691
0
TEXT
8
LABELS
10
194.79900000000004
20
26.83455
30
0
40
2.0
1
17SKINNY-2
0
LWPOLYLINE
8
PIECES
90
4
70
1
10
226.50200000000004
20
0.0
10
265.00260000000003
20
0.0
10
265.00260000000003
20
11.277
10
226.50200000000004
20
11.277
0
TEXT
8
LABELS
10
228.50200000000004
20
5.6385
30
0
40
1.1277
1
17SKINNY-4
0
LWPOLYLINE
8
PIECES
90
4
70
1
10
275.00260000000003
20
0.0
10
317.2101
20
0.0
10
317.2101
20
14.7973
10
275.00260000000003
20
14.7973
0
TEXT
8
LABELS
10
277.00260000000003
20
7.39865
30
0
40
1.47973
1
17SKINNY-5
0
LWPOLYLINE
8
PIECES
90
4
70
1
10
327.2101
20
0.0
10
337.53229999999996
20
0.0
10
337.53229999999996
20
24.3437
10
327.2101
20
24.3437
0
TEXT
8
LABELS
10
329.2101
20
12.17185
30
0
40
2.0
1
17SKINNY-6
0
LWPOLYLINE
8
PIECES
90
4
70
1
10
347.5323
20
0.0
10
357.7947
20
0.0
10
357.7947
20
25.5578
10
347.5323
20
25.5578
0
TEXT
8
LABELS
10
349.5323
20
12.7789
30
0
40
2.0
1
17SKINNY-7
0
LWPOLYLINE
8
PIECES
90
4
70
1
10
367.79470000000003
20
0.0
10
372.4945
20
0.0
10
372.4945
20
19.0
10
367.79470000000003
20
19.0
0
TEXT
8
LABELS
10
369.79470000000003
20
9.5
30
0
40
1.9
1
17SKINNY-8
0
LWPOLYLINE
8
PIECES
90
4
70
1
10
382.4945
20
0.0
10
401.49480000000005
20
0.0
10
401.49480000000005
20
8.0
10
382.4945
20
8.0
0
TEXT
8
LABELS
10
384.4945
20
4.0
30
0
40
0.8
1
17SKINNY-9
0
LWPOLYLINE
8
PIECES
90
4
70
1
10
411.4948
20
0.0
10
412.29479999999995
20
0.0
10
412.29479999999995
20
5.5
10
411.4948
20
5.5
0
TEXT
8
LABELS
10
413.4948
20
2.75
30
0
40
0.55
1
BELT LOOP FRT
0
LWPOLYLINE
8
PIECES
90
4
70
1
10
422.2948
20
0.0
10
423.09479999999996
20
0.0
10
423.09479999999996
20
5.5
10
422.2948
20
5.5
0
TEXT
8
LABELS
10
424.2948
20
2.75
30
0
40
0.55
1
BELT LOOP BCK
0
LWPOLYLINE
8
PIECES
90
4
70
1
10
433.0948
20
0.0
10
448.56430000000006
20
0.0
10
448.56430000000006
20
16.5542
10
433.0948
20
16.5542
0
TEXT
8
LABELS
10
435.0948
20
8.2771
30
0
40
1.6554200000000001
1
Pocket
0
LWPOLYLINE
8
PIECES
90
4
70
1
10
458.5643
20
0.0
10
474.0516
20
0.0
10
474.0516
20
6.9869
10
458.5643
20
6.9869
0
TEXT
8
LABELS
10
460.5643
20
3.49345
30
0
40
0.69869
1
flap
0
LWPOLYLINE
8
PIECES
90
4
70
1
10
484.0516
20
0.0
10
499.0952
20
0.0
10
499.0952
20
4.3971
10
484.0516
20
4.3971
0
TEXT
8
LABELS
10
486.0516
20
2.19855
30
0
40
0.43971
1
WELT
0
ENDSEC
0
EOF