0
SECTION
2
HEADER
9
$ACADVER
1
AC1015
9
$INSUNITS
70
4
0
ENDSEC
0
SECTION
2
TABLES
0
TABLE
2
LAYER
70
5
0
LAYER
2
0
70
0
62
7
6
CONTINUOUS
0
LAYER
2
FABRIC
70
0
62
8
6
CONTINUOUS
0
LAYER
2
PIECES
70
0
62
7
6
CONTINUOUS
0
LAYER
2
LABELS
70
0
62
3
6
CONTINUOUS
0
LAYER
2
NOTCHES
70
0
62
1
6
CONTINUOUS
0
ENDTAB
0
ENDSEC
0
SECTION
2
ENTITIES
0
LWPOLYLINE
8
FABRIC
90
4
70
1
10
0
20
0
10
649.9252
20
0
10
649.9252
20
160.0001
10
0
20
160.0001
0
LWPOLYLINE
8
PIECES
90
4
70
1
10
601.1252000000001
20
34.80010000000001
10
491.40000000000003
20
34.80009999999999
10
491.40000000000003
20
1.3788999999999945
10
601.1252000000001
20
1.3789000000000087
0
TEXT
8
LABELS
10
518.8313
20
18.0895
30
0
40
2.0
1
FRONT
0
LWPOLYLINE
8
PIECES
90
4
70
1
10
540.1999999999999
20
99.0789
10
649.9252
20
99.0789
10
649.9252
20
132.5001
10
540.1999999999999
20
132.5001
0
TEXT
8
LABELS
10
567.6313
20
115.7895
30
0
40
2.0
1
FRONT
0
LWPOLYLINE
8
PIECES
90
4
70
1
10
482.3456
20
100.10010000000001
10
370.79999999999995
20
100.1001
10
370.79999999999995
20
62.6827
10
482.3456
20
62.68270000000001
0
TEXT
8
LABELS
10
398.6864
20
81.3914
30
0
40
2.0
1
BACK
0
LWPOLYLINE
8
PIECES
90
4
70
1
10
489.6456
20
137.50009999999997
10
378.09999999999997
20
137.5001
10
378.09999999999997
20
100.0827
10
489.6456
20
100.08269999999999
0
TEXT
8
LABELS
10
405.9864
20
118.7914
30
0
40
2.0
1
BACK
0
LWPOLYLINE
8
PIECES
90
4
70
1
10
249.2
20
40.1001
10
325.2
20
40.1001
10
325.2
20
49.1001
10
249.2
20
49.1001
0
TEXT
8
LABELS
10
268.2
20
44.6001
30
0
40
0.9
1
WAIST BAND
0
LWPOLYLINE
8
PIECES
90
4
70
1
10
87.1
20
81.7001
10
107.1
20
81.7001
10
107.1
20
91.7001
10
87.1
20
91.7001
0
TEXT
8
LABELS
10
92.1
20
86.7001
30
0
40
1.0
1
ZIPPER FACING
0
LWPOLYLINE
8
PIECES
90
4
70
1
10
25.9
20
154.0001
10
45.9
20
154.0001
10
45.9
20
160.0001
10
25.9
20
160.0001
0
TEXT
8
LABELS
10
30.9
20
157.0001
30
0
40
0.6
1
ZIPPER FACING 1
0
LWPOLYLINE
8
PIECES
90
4
70
1
10
0.0
20
128.1001
10
35.0
20
128.1001
10
35.0
20
131.6001
10
0.0
20
131.6001
0
TEXT
8
LABELS
10
8.75
20
129.8501
30
0
40
0.35
1
LOOPING
0
LWPOLYLINE
8
PIECES
90
4
70
1
10
27.6724
20
42.1001
10
0.0
20
42.1001
10
0.0
20
29.790099999999995
10
27.6724
20
29.7901
0
TEXT
8
LABELS
10
6.9181
20
35.9451
30
0
40
1.231
1
facing pocket
0
LWPOLYLINE
8
PIECES
90
4
70
1
10
27.6724
20
54.5001
10
0.0
20
54.5001
10
0.0
20
42.1901
10
27.6724
20
42.1901
0
TEXT
8
LABELS
10
6.9181
20
48.3451
30
0
40
1.231
1
facing pocket
0
LWPOLYLINE
8
PIECES
90
4
70
1
10
592.1252000000001
20
107.2001
10
481.90000000000003
20
107.20009999999999
10
481.90000000000003
20
72.47869999999999
10
592.1252000000001
20
72.4787
0
TEXT
8
LABELS
10
509.4563
20
89.8394
30
0
40
2.0
1
FRONT
0
LWPOLYLINE
8
PIECES
90
4
70
1
10
599.4252
20
159.6001
10
489.2
20
159.6001
10
489.2
20
124.8787
10
599.4252
20
124.87869999999998
0
TEXT
8
LABELS
10
516.7563
20
142.2394
30
0
40
2.0
1
FRONT
0
LWPOLYLINE
8
PIECES
90
4
70
1
10
335.1556
20
87.5001
10
223.09999999999997
20
87.50009999999999
10
223.09999999999997
20
48.78489999999999
10
335.1556
20
48.78490000000001
0
TEXT
8
LABELS
10
251.11389999999997
20
68.1425
30
0
40
2.0
1
BACK
0
LWPOLYLINE
8
PIECES
90
4
70
1
10
379.5556
20
160.0001
10
267.5
20
160.00010000000003
10
267.5
20
121.28490000000002
10
379.5556
20
121.28490000000001
0
TEXT
8
LABELS
10
295.51390000000004
20
140.6425
30
0
40
2.0
1
BACK
0
LWPOLYLINE
8
PIECES
90
4
70
1
10
158.2
20
140.9001
10
238.2
20
140.9001
10
238.2
20
149.9001
10
158.2
20
149.9001
0
TEXT
8
LABELS
10
178.2
20
145.4001
30
0
40
0.9
1
WAIST BAND
0
LWPOLYLINE
8
PIECES
90
4
70
1
10
193.5
20
59.900099999999995
10
213.5
20
59.900099999999995
10
213.5
20
69.9001
10
193.5
20
69.9001
0
TEXT
8
LABELS
10
198.5
20
64.9001
30
0
40
1.0
1
ZIPPER FACING
0
LWPOLYLINE
8
PIECES
90
4
70
1
10
46.0
20
152.8001
10
66.0
20
152.8001
10
66.0
20
158.8001
10
46.0
20
158.8001
0
TEXT
8
LABELS
10
51.0
20
155.8001
30
0
40
0.6
1
ZIPPER FACING 1
0
LWPOLYLINE
8
PIECES
90
4
70
1
10
0.0
20
131.6001
10
35.0
20
131.6001
10
35.0
20
135.1001
10
0.0
20
135.1001
0
TEXT
8
LABELS
10
8.75
20
133.3501
30
0
40
0.35
1
LOOPING
0
LWPOLYLINE
8
PIECES
90
4
70
1
10
27.6724
20
126.7001
10
0.0
20
126.7001
10
0.0
20
114.3901
10
27.6724
20
114.3901
0
TEXT
8
LABELS
10
6.9181
20
120.5451
30
0
40
1.231
1
facing pocket
0
LWPOLYLINE
8
PIECES
90
4
70
1
10
27.6724
20
158.0001
10
0.0
20
158.0001
10
0.0
20
145.6901
10
27.6724
20
145.6901
0
TEXT
8
LABELS
10
6.9181
20
151.8451
30
0
40
1.231
1
facing pocket
0
LWPOLYLINE
8
PIECES
90
4
70
1
10
381.0
20
1.378499999999999
10
491.7252
20
1.378499999999999
10
491.7252
20
37.400099999999995
10
381.0
20
37.400099999999995
0
TEXT
8
LABELS
10
408.68129999999996
20
19.3893
30
0
40
2.0
1
FRONT
0
LWPOLYLINE
8
PIECES
90
4
70
1
10
445.5
20
33.6785
10
556.2252
20
33.6785
10
556.2252
20
69.7001
10
445.5
20
69.7001
0
TEXT
8
LABELS
10
473.18129999999996
20
51.6893
30
0
40
2.0
1
FRONT
0
LWPOLYLINE
8
PIECES
90
4
70
1
10
224.56545
20
66.40015000000001
10
111.99995000000001
20
66.40015
10
111.99995000000001
20
26.386849999999995
10
224.56545
20
26.38685000000001
0
TEXT
8
LABELS
10
140.141325
20
46.3935
30
0
40
2.0
1
BACK
0
LWPOLYLINE
8
PIECES
90
4
70
1
10
224.76545
20
106.50014999999999
10
112.19995
20
106.50015
10
112.19995
20
66.48685
10
224.76545
20
66.48684999999999
0
TEXT
8
LABELS
10
140.34132499999998
20
86.4935
30
0
40
2.0
1
BACK
0
LWPOLYLINE
8
PIECES
90
4
70
1
10
130.0
20
151.0001
10
214.0
20
151.0001
10
214.0
20
160.0001
10
130.0
20
160.0001
0
TEXT
8
LABELS
10
151.0
20
155.5001
30
0
40
0.9
1
WAIST BAND
0
LWPOLYLINE
8
PIECES
90
4
70
1
10
214.0
20
149.9001
10
234.0
20
149.9001
10
234.0
20
159.9001
10
214.0
20
159.9001
0
TEXT
8
LABELS
10
219.0
20
154.9001
30
0
40
1.0
1
ZIPPER FACING
0
LWPOLYLINE
8
PIECES
90
4
70
1
10
51.2
20
83.7001
10
71.2
20
83.7001
10
71.2
20
89.7001
10
51.2
20
89.7001
0
TEXT
8
LABELS
10
56.2
20
86.7001
30
0
40
0.6
1
ZIPPER FACING 1
0
LWPOLYLINE
8
PIECES
90
4
70
1
10
0.0
20
135.1001
10
35.0
20
135.1001
10
35.0
20
138.6001
10
0.0
20
138.6001
0
TEXT
8
LABELS
10
8.75
20
136.8501
30
0
40
0.35
1
LOOPING
0
LWPOLYLINE
8
PIECES
90
4
70
1
10
46.300000000000004
20
39.0901
10
73.97240000000001
20
39.0901
10
73.97240000000001
20
51.4001
10
46.300000000000004
20
51.4001
0
TEXT
8
LABELS
10
53.2181
20
45.2451
30
0
40
1.231
1
facing pocket
0
LWPOLYLINE
8
PIECES
90
4
70
1
10
101.67240000000001
20
48.8001
10
74.0
20
48.8001
10
74.0
20
36.4901
10
101.67240000000001
20
36.4901
0
TEXT
8
LABELS
10
80.91810000000001
20
42.6451
30
0
40
1.231
1
facing pocket
0
LWPOLYLINE
8
PIECES
90
4
70
1
10
380.7252
20
118.90010000000001
10
269.5
20
118.9001
10
269.5
20
81.57829999999998
10
380.7252
20
81.5783
0
TEXT
8
LABELS
10
297.30629999999996
20
100.2392
30
0
40
2.0
1
FRONT
0
LWPOLYLINE
8
PIECES
90
4
70
1
10
445.6252
20
66.50009999999999
10
334.40000000000003
20
66.5001
10
334.40000000000003
20
29.178300000000004
10
445.6252
20
29.17829999999999
0
TEXT
8
LABELS
10
362.2063
20
47.8392
30
0
40
2.0
1
FRONT
0
LWPOLYLINE
8
PIECES
90
4
70
1
10
113.0754
20
128.10005
10
0.0
20
128.10004999999998
10
0.0
20
86.78854999999999
10
113.0754
20
86.78855
0
TEXT
8
LABELS
10
28.26885
20
107.4443
30
0
40
2.0
1
BACK
0
LWPOLYLINE
8
PIECES
90
4
70
1
10
45.099999999999994
20
118.68855
10
158.1754
20
118.68855
10
158.1754
20
160.00005000000002
10
45.099999999999994
20
160.00005000000002
0
TEXT
8
LABELS
10
73.36885
20
139.3443
30
0
40
2.0
1
BACK
0
LWPOLYLINE
8
PIECES
90
4
70
1
10
113.6
20
10.5001
10
201.6
20
10.5001
10
201.6
20
19.5001
10
113.6
20
19.5001
0
TEXT
8
LABELS
10
135.6
20
15.0001
30
0
40
0.9
1
WAIST BAND
0
LWPOLYLINE
8
PIECES
90
4
70
1
10
224.5
20
96.0001
10
244.5
20
96.0001
10
244.5
20
106.0001
10
224.5
20
106.0001
0
TEXT
8
LABELS
10
229.5
20
101.0001
30
0
40
1.0
1
ZIPPER FACING
0
LWPOLYLINE
8
PIECES
90
4
70
1
10
66.1
20
153.2001
10
86.1
20
153.2001
10
86.1
20
159.2001
10
66.1
20
159.2001
0
TEXT
8
LABELS
10
71.1
20
156.2001
30
0
40
0.6
1
ZIPPER FACING 1
0
LWPOLYLINE
8
PIECES
90
4
70
1
10
0.0
20
138.6001
10
35.0
20
138.6001
10
35.0
20
142.1001
10
0.0
20
142.1001
0
TEXT
8
LABELS
10
8.75
20
140.3501
30
0
40
0.35
1
LOOPING
0
LWPOLYLINE
8
PIECES
90
4
70
1
10
140.6724
20
117.1001
10
113.0
20
117.1001
10
113.0
20
104.7901
10
140.6724
20
104.7901
0
TEXT
8
LABELS
10
119.91810000000001
20
110.9451
30
0
40
1.231
1
facing pocket
0
LWPOLYLINE
8
PIECES
90
4
70
1
10
141.2724
20
68.9001
10
113.6
20
68.90010000000001
10
113.6
20
56.5901
10
141.2724
20
56.5901
0
TEXT
8
LABELS
10
120.5181
20
62.7451
30
0
40
1.231
1
facing pocket
0
LWPOLYLINE
8
PIECES
90
4
70
1
10
269.4252
20
140.8001
10
157.7
20
140.8001
10
157.7
20
102.17809999999999
10
269.4252
20
102.1781
0
TEXT
8
LABELS
10
185.6313
20
121.4891
30
0
40
2.0
1
FRONT
0
LWPOLYLINE
8
PIECES
90
4
70
1
10
335.2252
20
40.00009999999999
10
223.5
20
40.0001
10
223.5
20
1.378100000000007
10
335.2252
20
1.3780999999999928
0
TEXT
8
LABELS
10
251.4313
20
20.6891
30
0
40
2.0
1
FRONT
0
LWPOLYLINE
8
PIECES
90
4
70
1
10
113.5852
20
44.000150000000005
10
0.0
20
44.00014999999999
10
0.0
20
1.390249999999991
10
113.5852
20
1.3902500000000053
0
TEXT
8
LABELS
10
28.3963
20
22.6952
30
0
40
2.0
1
BACK
0
LWPOLYLINE
8
PIECES
90
4
70
1
10
113.5852
20
86.70015
10
0.0
20
86.70015000000001
10
0.0
20
44.09025000000001
10
113.5852
20
44.09025
0
TEXT
8
LABELS
10
28.3963
20
65.3952
30
0
40
2.0
1
BACK
0
LWPOLYLINE
8
PIECES
90
4
70
1
10
113.19999999999999
20
1.4001000000000001
10
205.2
20
1.4001000000000001
10
205.2
20
10.4001
10
113.19999999999999
20
10.4001
0
TEXT
8
LABELS
10
136.2
20
5.9001
30
0
40
0.9
1
WAIST BAND
0
LWPOLYLINE
8
PIECES
90
4
70
1
10
224.6
20
33.9001
10
244.6
20
33.9001
10
244.6
20
43.9001
10
224.6
20
43.9001
0
TEXT
8
LABELS
10
229.6
20
38.9001
30
0
40
1.0
1
ZIPPER FACING
0
LWPOLYLINE
8
PIECES
90
4
70
1
10
113.5
20
70.9001
10
133.5
20
70.9001
10
133.5
20
76.9001
10
113.5
20
76.9001
0
TEXT
8
LABELS
10
118.5
20
73.9001
30
0
40
0.6
1
ZIPPER FACING 1
0
LWPOLYLINE
8
PIECES
90
4
70
1
10
0.0
20
142.1001
10
35.0
20
142.1001
10
35.0
20
145.6001
10
0.0
20
145.6001
0
TEXT
8
LABELS
10
8.75
20
143.8501
30
0
40
0.35
1
LOOPING
0
LWPOLYLINE
8
PIECES
90
4
70
1
10
165.8
20
60.6901
10
193.4724
20
60.6901
10
193.4724
20
73.0001
10
165.8
20
73.0001
0
TEXT
8
LABELS
10
172.7181
20
66.8451
30
0
40
1.231
1
facing pocket
0
LWPOLYLINE
8
PIECES
90
4
70
1
10
180.70000000000002
20
18.490099999999998
10
208.3724
20
18.490099999999998
10
208.3724
20
30.8001
10
180.70000000000002
20
30.8001
0
TEXT
8
LABELS
10
187.6181
20
24.6451
30
0
40
1.231
1
facing pocket
0
ENDSEC
0
EOF