0
SECTION
2
HEADER
9
$ACADVER
1
AC1015
9
$INSUNITS
70
4
0
ENDSEC
0
SECTION
2
TABLES
0
TABLE
2
LAYER
70
5
0
LAYER
2
0
70
0
62
7
6
CONTINUOUS
0
LAYER
2
FABRIC
70
0
62
8
6
CONTINUOUS
0
LAYER
2
PIECES
70
0
62
7
6
CONTINUOUS
0
LAYER
2
LABELS
70
0
62
3
6
CONTINUOUS
0
LAYER
2
NOTCHES
70
0
62
1
6
CONTINUOUS
0
ENDTAB
0
ENDSEC
0
SECTION
2
ENTITIES
0
LWPOLYLINE
8
FABRIC
90
4
70
1
10
0
20
0
10
571.0599
20
0
10
571.0599
20
147.3211
10
0
20
147.3211
0
LWPOLYLINE
8
PIECES
90
4
70
1
10
32.50005
20
131.29885000000002
10
121.38455
20
131.29885000000002
10
121.38455
20
147.32115
10
32.50005
20
147.32115
0
TEXT
8
LABELS
10
54.721175
20
139.31
30
0
40
1.60223
1
FRONT FACING
0
LWPOLYLINE
8
PIECES
90
4
70
1
10
320.00005
20
67.59875
10
408.88455
20
67.59875
10
408.88455
20
83.62105
10
320.00005
20
83.62105
0
TEXT
8
LABELS
10
342.221175
20
75.6099
30
0
40
1.60223
1
FRONT FACING
0
LWPOLYLINE
8
PIECES
90
4
70
1
10
102.60005000000001
20
0.098749999999999
10
191.48455
20
0.098749999999999
10
191.48455
20
16.12105
10
102.60005000000001
20
16.12105
0
TEXT
8
LABELS
10
124.82117500000001
20
8.1099
30
0
40
1.60223
1
FRONT FACING
0
LWPOLYLINE
8
PIECES
90
4
70
1
10
435.78455
20
99.72105
10
346.90005
20
99.72105
10
346.90005
20
83.69875
10
435.78455
20
83.69875
0
TEXT
8
LABELS
10
369.121175
20
91.7099
30
0
40
1.60223
1
FRONT FACING
0
LWPOLYLINE
8
PIECES
90
4
70
1
10
451.65979999999996
20
29.921100000000003
10
400.79999999999995
20
29.921099999999996
10
400.8
20
0.03269999999999662
10
451.6598
20
0.032700000000003726
0
TEXT
8
LABELS
10
413.51495
20
14.9769
30
0
40
2.0
1
UPPER FRONT
0
LWPOLYLINE
8
PIECES
90
4
70
1
10
451.65979999999996
20
59.8211
10
400.79999999999995
20
59.821099999999994
10
400.8
20
29.932699999999997
10
451.6598
20
29.932700000000004
0
TEXT
8
LABELS
10
413.51495
20
44.8769
30
0
40
2.0
1
UPPER FRONT
0
LWPOLYLINE
8
PIECES
90
4
70
1
10
406.5
20
59.5327
10
457.35979999999995
20
59.5327
10
457.35979999999995
20
89.4211
10
406.5
20
89.4211
0
TEXT
8
LABELS
10
419.21495
20
74.4769
30
0
40
2.0
1
UPPER FRONT
0
LWPOLYLINE
8
PIECES
90
4
70
1
10
434.1
20
117.1327
10
484.9598
20
117.1327
10
484.9598
20
147.0211
10
434.1
20
147.0211
0
TEXT
8
LABELS
10
446.81495
20
132.0769
30
0
40
2.0
1
UPPER FRONT
0
LWPOLYLINE
8
PIECES
90
4
70
1
10
174.5918
20
53.521100000000004
10
92.1
20
53.52109999999999
10
92.1
20
42.76649999999999
10
174.5918
20
42.76650000000001
0
TEXT
8
LABELS
10
112.72295
20
48.1438
30
0
40
1.07546
1
FRONT PLACKET
0
LWPOLYLINE
8
PIECES
90
4
70
1
10
415.5918
20
147.3211
10
333.09999999999997
20
147.3211
10
333.09999999999997
20
136.56650000000002
10
415.5918
20
136.56650000000002
0
TEXT
8
LABELS
10
353.72294999999997
20
141.9438
30
0
40
1.07546
1
FRONT PLACKET
0
LWPOLYLINE
8
PIECES
90
4
70
1
10
435.4917
20
136.22109999999998
10
352.99989999999997
20
136.22109999999998
10
352.99989999999997
20
125.46649999999998
10
435.4917
20
125.4665
0
TEXT
8
LABELS
10
373.62284999999997
20
130.8438
30
0
40
1.07546
1
FRONT PLACKET
0
LWPOLYLINE
8
PIECES
90
4
70
1
10
354.4
20
99.7665
10
436.8918
20
99.7665
10
436.8918
20
110.5211
10
354.4
20
110.5211
0
TEXT
8
LABELS
10
375.02295
20
105.1438
30
0
40
1.07546
1
FRONT PLACKET
0
LWPOLYLINE
8
PIECES
90
4
70
1
10
559.09995
20
39.88815
10
564.95985
20
39.88815
10
564.95985
20
76.92105000000001
10
559.09995
20
76.92105000000001
0
TEXT
8
LABELS
10
560.564925
20
58.4046
30
0
40
2.0
1
COLLAR STAND
0
LWPOLYLINE
8
PIECES
90
4
70
1
10
563.1999500000001
20
1.3881499999999996
10
569.05985
20
1.3881499999999996
10
569.05985
20
38.421049999999994
10
563.1999500000001
20
38.421049999999994
0
TEXT
8
LABELS
10
564.664925
20
19.9046
30
0
40
2.0
1
COLLAR STAND
0
LWPOLYLINE
8
PIECES
90
4
70
1
10
564.99995
20
36.68815
10
570.8598499999999
20
36.68815
10
570.8598499999999
20
73.72104999999999
10
564.99995
20
73.72104999999999
0
TEXT
8
LABELS
10
566.464925
20
55.2046
30
0
40
2.0
1
COLLAR STAND
0
LWPOLYLINE
8
PIECES
90
4
70
1
10
565.1999500000001
20
86.48814999999999
10
571.05985
20
86.48814999999999
10
571.05985
20
123.52105
10
565.1999500000001
20
123.52105
0
TEXT
8
LABELS
10
566.664925
20
105.0046
30
0
40
2.0
1
COLLAR STAND
0
LWPOLYLINE
8
PIECES
90
4
70
1
10
55.099999999999994
20
65.4635
10
76.48519999999999
20
65.4635
10
76.48519999999999
20
70.72109999999999
10
55.099999999999994
20
70.72109999999999
0
TEXT
8
LABELS
10
60.446299999999994
20
68.0923
30
0
40
0.52576
1
ZIPPER FACING
0
LWPOLYLINE
8
PIECES
90
4
70
1
10
156.9
20
142.06349999999998
10
178.2852
20
142.06349999999998
10
178.2852
20
147.3211
10
156.9
20
147.3211
0
TEXT
8
LABELS
10
162.2463
20
144.6923
30
0
40
0.52576
1
ZIPPER FACING
0
LWPOLYLINE
8
PIECES
90
4
70
1
10
213.7
20
99.0635
10
235.0852
20
99.0635
10
235.0852
20
104.3211
10
213.7
20
104.3211
0
TEXT
8
LABELS
10
219.04629999999997
20
101.6923
30
0
40
0.52576
1
ZIPPER FACING
0
LWPOLYLINE
8
PIECES
90
4
70
1
10
435.29999999999995
20
104.8635
10
456.6852
20
104.8635
10
456.6852
20
110.1211
10
435.29999999999995
20
110.1211
0
TEXT
8
LABELS
10
440.6463
20
107.4923
30
0
40
0.52576
1
ZIPPER FACING
0
LWPOLYLINE
8
PIECES
90
4
70
1
10
233.49995
20
64.9967
10
239.33585
20
64.9967
10
239.33585
20
87.52109999999999
10
233.49995
20
87.52109999999999
0
TEXT
8
LABELS
10
234.958925
20
76.2589
30
0
40
2.0
1
FRONT WAIST FAC
0
LWPOLYLINE
8
PIECES
90
4
70
1
10
271.49994999999996
20
123.39669999999998
10
277.33585
20
123.39669999999998
10
277.33585
20
145.9211
10
271.49994999999996
20
145.9211
0
TEXT
8
LABELS
10
272.95892499999997
20
134.6589
30
0
40
2.0
1
FRONT WAIST FAC
0
LWPOLYLINE
8
PIECES
90
4
70
1
10
289.49994999999996
20
124.4967
10
295.33585
20
124.4967
10
295.33585
20
147.02110000000002
10
289.49994999999996
20
147.02110000000002
0
TEXT
8
LABELS
10
290.95892499999997
20
135.7589
30
0
40
2.0
1
FRONT WAIST FAC
0
LWPOLYLINE
8
PIECES
90
4
70
1
10
339.69995
20
0.09670000000000023
10
345.53585000000004
20
0.09670000000000023
10
345.53585000000004
20
22.6211
10
339.69995
20
22.6211
0
TEXT
8
LABELS
10
341.158925
20
11.3589
30
0
40
2.0
1
FRONT WAIST FAC
0
LWPOLYLINE
8
PIECES
90
4
70
1
10
92.89995
20
125.11275
10
177.47705000000002
20
125.11275
10
177.47705000000002
20
131.02105
10
92.89995
20
131.02105
0
TEXT
8
LABELS
10
114.04422500000001
20
128.0669
30
0
40
0.59083
1
UNDER FRONT FAC
0
LWPOLYLINE
8
PIECES
90
4
70
1
10
177.87705
20
90.62115
10
93.29995000000001
20
90.62115
10
93.29995000000001
20
84.71285
10
177.87705
20
84.71285
0
TEXT
8
LABELS
10
114.44422500000002
20
87.667
30
0
40
0.59083
1
UNDER FRONT FAC
0
LWPOLYLINE
8
PIECES
90
4
70
1
10
438.97715
20
116.52105
10
354.40005
20
116.52105
10
354.40005
20
110.61275
10
438.97715
20
110.61275
0
TEXT
8
LABELS
10
375.544325
20
113.5669
30
0
40
0.59083
1
UNDER FRONT FAC
0
LWPOLYLINE
8
PIECES
90
4
70
1
10
438.97715
20
122.52105
10
354.40005
20
122.52105
10
354.40005
20
116.61275
10
438.97715
20
116.61275
0
TEXT
8
LABELS
10
375.544325
20
119.5669
30
0
40
0.59083
1
UNDER FRONT FAC
0
LWPOLYLINE
8
PIECES
90
4
70
1
10
466.0
20
2.9491499999999995
10
481.32219999999995
20
2.9491499999999995
10
481.32219999999995
20
57.721050000000005
10
466.0
20
57.721050000000005
0
TEXT
8
LABELS
10
469.83054999999996
20
30.3351
30
0
40
2.0
1
LOWER COLLAR
0
LWPOLYLINE
8
PIECES
90
4
70
1
10
471.8
20
55.949149999999996
10
487.12219999999996
20
55.949149999999996
10
487.12219999999996
20
110.72104999999999
10
471.8
20
110.72104999999999
0
TEXT
8
LABELS
10
475.63054999999997
20
83.3351
30
0
40
2.0
1
LOWER COLLAR
0
LWPOLYLINE
8
PIECES
90
4
70
1
10
539.9234
20
77.0211
10
533.6
20
77.0211
10
533.6
20
38.5617
10
539.9234
20
38.5617
0
TEXT
8
LABELS
10
535.18085
20
57.7914
30
0
40
2.0
1
SLEEVE CUFF
0
LWPOLYLINE
8
PIECES
90
4
70
1
10
546.3234
20
77.0211
10
540.0
20
77.0211
10
540.0
20
38.5617
10
546.3234
20
38.5617
0
TEXT
8
LABELS
10
541.5808499999999
20
57.7914
30
0
40
2.0
1
SLEEVE CUFF
0
LWPOLYLINE
8
PIECES
90
4
70
1
10
552.5234
20
115.52109999999999
10
546.2
20
115.52109999999999
10
546.2
20
77.0617
10
552.5234
20
77.0617
0
TEXT
8
LABELS
10
547.78085
20
96.2914
30
0
40
2.0
1
SLEEVE CUFF
0
LWPOLYLINE
8
PIECES
90
4
70
1
10
552.7234
20
77.0211
10
546.4
20
77.0211
10
546.4
20
38.5617
10
552.7234
20
38.5617
0
TEXT
8
LABELS
10
547.9808499999999
20
57.7914
30
0
40
2.0
1
SLEEVE CUFF
0
LWPOLYLINE
8
PIECES
90
4
70
1
10
558.9234
20
115.52109999999999
10
552.6
20
115.52109999999999
10
552.6
20
77.0617
10
558.9234
20
77.0617
0
TEXT
8
LABELS
10
554.18085
20
96.2914
30
0
40
2.0
1
SLEEVE CUFF
0
LWPOLYLINE
8
PIECES
90
4
70
1
10
559.1234
20
77.0211
10
552.8
20
77.0211
10
552.8
20
38.5617
10
559.1234
20
38.5617
0
TEXT
8
LABELS
10
554.3808499999999
20
57.7914
30
0
40
2.0
1
SLEEVE CUFF
0
LWPOLYLINE
8
PIECES
90
4
70
1
10
563.2234
20
38.521100000000004
10
556.9
20
38.521100000000004
10
556.9
20
0.06169999999999831
10
563.2234
20
0.06169999999999831
0
TEXT
8
LABELS
10
558.4808499999999
20
19.2914
30
0
40
2.0
1
SLEEVE CUFF
0
LWPOLYLINE
8
PIECES
90
4
70
1
10
565.2234
20
123.62110000000001
10
558.9
20
123.62110000000001
10
558.9
20
85.1617
10
565.2234
20
85.1617
0
TEXT
8
LABELS
10
560.4808499999999
20
104.3914
30
0
40
2.0
1
SLEEVE CUFF
0
LWPOLYLINE
8
PIECES
90
4
70
1
10
240.95520000000002
20
99.0211
10
184.9
20
99.0211
10
184.9
20
94.4303
10
240.95520000000002
20
94.4303
0
TEXT
8
LABELS
10
198.9138
20
96.7257
30
0
40
0.45908
1
POCKET FACING
0
LWPOLYLINE
8
PIECES
90
4
70
1
10
337.0552
20
4.621100000000004
10
281.0
20
4.621099999999997
10
281.0
20
0.03029999999999644
10
337.0552
20
0.030300000000003546
0
TEXT
8
LABELS
10
295.0138
20
2.3257
30
0
40
0.45908
1
POCKET FACING
0
LWPOLYLINE
8
PIECES
90
4
70
1
10
338.3552
20
9.221099999999996
10
282.3
20
9.221100000000003
10
282.3
20
4.630300000000004
10
338.3552
20
4.6302999999999965
0
TEXT
8
LABELS
10
296.3138
20
6.9257
30
0
40
0.45908
1
POCKET FACING
0
LWPOLYLINE
8
PIECES
90
4
70
1
10
339.6552
20
13.821099999999998
10
283.59999999999997
20
13.821100000000005
10
283.59999999999997
20
9.230300000000003
10
339.6552
20
9.230299999999996
0
TEXT
8
LABELS
10
297.61379999999997
20
11.5257
30
0
40
0.45908
1
POCKET FACING
0
LWPOLYLINE
8
PIECES
90
4
70
1
10
465.70005000000003
20
110.89805000000001
10
546.16715
20
110.89805000000001
10
546.16715
20
117.12115
10
465.70005000000003
20
117.12115
0
TEXT
8
LABELS
10
485.816825
20
114.0096
30
0
40
0.6223099999999999
1
UNDER PLACKET
0
LWPOLYLINE
8
PIECES
90
4
70
1
10
475.10005000000007
20
25.99805
10
555.5671500000001
20
25.99805
10
555.5671500000001
20
32.22115
10
475.10005000000007
20
32.22115
0
TEXT
8
LABELS
10
495.21682500000003
20
29.1096
30
0
40
0.6223099999999999
1
UNDER PLACKET
0
LWPOLYLINE
8
PIECES
90
4
70
1
10
475.70005
20
32.298049999999996
10
556.16715
20
32.298049999999996
10
556.16715
20
38.52115
10
475.70005
20
38.52115
0
TEXT
8
LABELS
10
495.81682499999994
20
35.4096
30
0
40
0.6223099999999999
1
UNDER PLACKET
0
LWPOLYLINE
8
PIECES
90
4
70
1
10
476.40005
20
19.69805
10
556.86715
20
19.69805
10
556.86715
20
25.92115
10
476.40005
20
25.92115
0
TEXT
8
LABELS
10
496.516825
20
22.8096
30
0
40
0.6223099999999999
1
UNDER PLACKET
0
LWPOLYLINE
8
PIECES
90
4
70
1
10
121.39995
20
131.04704999999998
10
176.36725
20
131.04704999999998
10
176.36725
20
146.52115
10
121.39995
20
146.52115
0
TEXT
8
LABELS
10
135.141775
20
138.7841
30
0
40
1.54741
1
CENTER BACK VEN
0
LWPOLYLINE
8
PIECES
90
4
70
1
10
183.89995
20
100.54705
10
238.86725
20
100.54705
10
238.86725
20
116.02114999999999
10
183.89995
20
116.02114999999999
0
TEXT
8
LABELS
10
197.641775
20
108.2841
30
0
40
1.54741
1
CENTER BACK VEN
0
LWPOLYLINE
8
PIECES
90
4
70
1
10
233.45354999999998
20
94.42115
10
180.20004999999998
20
94.42115
10
180.20005
20
29.579250000000002
10
233.45355
20
29.579250000000002
0
TEXT
8
LABELS
10
193.51342499999998
20
62.0002
30
0
40
2.0
1
UPPER BACK
0
LWPOLYLINE
8
PIECES
90
4
70
1
10
233.50005
20
0.07925000000000182
10
286.75355
20
0.07925000000000182
10
286.75355
20
64.92115
10
233.50005
20
64.92115
0
TEXT
8
LABELS
10
246.813425
20
32.5002
30
0
40
2.0
1
UPPER BACK
0
LWPOLYLINE
8
PIECES
90
4
70
1
10
467.55795
20
58.422799999999995
10
451.60005
20
58.422799999999995
10
451.60005
20
2.921400000000002
10
467.55795
20
2.921400000000002
0
TEXT
8
LABELS
10
455.589525
20
30.6721
30
0
40
2.0
1
UPPER COLLAR
0
LWPOLYLINE
8
PIECES
90
4
70
1
10
473.35785
20
111.4228
10
457.39995
20
111.4228
10
457.39995
20
55.921400000000006
10
473.35785
20
55.921400000000006
0
TEXT
8
LABELS
10
461.38942499999996
20
83.6721
30
0
40
2.0
1
UPPER COLLAR
0
LWPOLYLINE
8
PIECES
90
4
70
1
10
507.34955
20
94.22105
10
481.20005000000003
20
94.22104999999999
10
481.20005000000003
20
70.61874999999999
10
507.34955
20
70.61875
0
TEXT
8
LABELS
10
487.73742500000003
20
82.4199
30
0
40
2.0
1
POCKET BAG
0
LWPOLYLINE
8
PIECES
90
4
70
1
10
485.00005
20
117.21875
10
511.14955
20
117.21875
10
511.14955
20
140.82105
10
485.00005
20
140.82105
0
TEXT
8
LABELS
10
491.537425
20
129.0199
30
0
40
2.0
1
POCKET BAG
0
LWPOLYLINE
8
PIECES
90
4
70
1
10
510.84955
20
62.22105
10
484.70005000000003
20
62.22105
10
484.70005000000003
20
38.61875
10
510.84955
20
38.61875
0
TEXT
8
LABELS
10
491.23742500000003
20
50.4199
30
0
40
2.0
1
POCKET BAG
0
LWPOLYLINE
8
PIECES
90
4
70
1
10
507.39995
20
61.518750000000004
10
533.54945
20
61.518750000000004
10
533.54945
20
85.12105
10
507.39995
20
85.12105
0
TEXT
8
LABELS
10
513.937325
20
73.3199
30
0
40
2.0
1
POCKET BAG
0
LWPOLYLINE
8
PIECES
90
4
70
1
10
189.19995
20
0.11834999999999951
10
210.76844999999997
20
0.11834999999999951
10
210.76844999999997
20
29.02105
10
189.19995
20
29.02105
0
TEXT
8
LABELS
10
194.592075
20
14.5697
30
0
40
2.0
1
CENTER BACK FAC
0
LWPOLYLINE
8
PIECES
90
4
70
1
10
207.49995
20
0.11834999999999951
10
229.06844999999998
20
0.11834999999999951
10
229.06844999999998
20
29.02105
10
207.49995
20
29.02105
0
TEXT
8
LABELS
10
212.892075
20
14.5697
30
0
40
2.0
1
CENTER BACK FAC
0
LWPOLYLINE
8
PIECES
90
4
70
1
10
0.0
20
136.0267
10
20.9438
20
136.0267
10
20.9438
20
146.1211
10
0.0
20
146.1211
0
TEXT
8
LABELS
10
5.23595
20
141.0739
30
0
40
1.0094400000000001
1
SLEEVE PLACKET
0
LWPOLYLINE
8
PIECES
90
4
70
1
10
241.1438
20
119.0211
10
220.2
20
119.0211
10
220.2
20
108.9267
10
241.1438
20
108.9267
0
TEXT
8
LABELS
10
225.43595
20
113.9739
30
0
40
1.0094400000000001
1
SLEEVE PLACKET
0
LWPOLYLINE
8
PIECES
90
4
70
1
10
239.4
20
64.9267
10
260.3438
20
64.9267
10
260.3438
20
75.0211
10
239.4
20
75.0211
0
TEXT
8
LABELS
10
244.63595
20
69.9739
30
0
40
1.0094400000000001
1
SLEEVE PLACKET
0
LWPOLYLINE
8
PIECES
90
4
70
1
10
328.3438
20
23.9211
10
307.4
20
23.9211
10
307.4
20
13.826699999999999
10
328.3438
20
13.826699999999999
0
TEXT
8
LABELS
10
312.63595
20
18.8739
30
0
40
1.0094400000000001
1
SLEEVE PLACKET
0
LWPOLYLINE
8
PIECES
90
4
70
1
10
380.54380000000003
20
72.0211
10
359.6
20
72.0211
10
359.6
20
61.926700000000004
10
380.54380000000003
20
61.9267
0
TEXT
8
LABELS
10
364.83595
20
66.9739
30
0
40
1.0094400000000001
1
SLEEVE PLACKET
0
LWPOLYLINE
8
PIECES
90
4
70
1
10
389.8438
20
10.121099999999998
10
368.9
20
10.121100000000002
10
368.9
20
0.026700000000000834
10
389.8438
20
0.026699999999999058
0
TEXT
8
LABELS
10
374.13595
20
5.0739
30
0
40
1.0094400000000001
1
SLEEVE PLACKET
0
LWPOLYLINE
8
PIECES
90
4
70
1
10
380.6
20
57.8267
10
401.54380000000003
20
57.8267
10
401.54380000000003
20
67.9211
10
380.6
20
67.9211
0
TEXT
8
LABELS
10
385.83595
20
62.8739
30
0
40
1.0094400000000001
1
SLEEVE PLACKET
0
LWPOLYLINE
8
PIECES
90
4
70
1
10
435.8
20
89.4267
10
456.7438
20
89.4267
10
456.7438
20
99.5211
10
435.8
20
99.5211
0
TEXT
8
LABELS
10
441.03595
20
94.4739
30
0
40
1.0094400000000001
1
SLEEVE PLACKET
0
LWPOLYLINE
8
PIECES
90
4
70
1
10
507.40000000000003
20
85.17955
10
528.2472
20
85.17955
10
528.2472
20
108.02105
10
507.40000000000003
20
108.02105
0
TEXT
8
LABELS
10
512.6118
20
96.6003
30
0
40
2.0
1
UNDER POCKET
0
LWPOLYLINE
8
PIECES
90
4
70
1
10
510.90000000000003
20
38.57965
10
531.7472
20
38.57965
10
531.7472
20
61.42115
10
510.90000000000003
20
61.42115
0
TEXT
8
LABELS
10
516.1118
20
50.0004
30
0
40
2.0
1
UNDER POCKET
0
LWPOLYLINE
8
PIECES
90
4
70
1
10
511.2
20
117.17955
10
532.0472
20
117.17955
10
532.0472
20
140.02105
10
511.2
20
140.02105
0
TEXT
8
LABELS
10
516.4118
20
128.6003
30
0
40
2.0
1
UNDER POCKET
0
LWPOLYLINE
8
PIECES
90
4
70
1
10
532.1
20
117.17955
10
552.9472
20
117.17955
10
552.9472
20
140.02105
10
532.1
20
140.02105
0
TEXT
8
LABELS
10
537.3118
20
128.6003
30
0
40
2.0
1
UNDER POCKET
0
LWPOLYLINE
8
PIECES
90
4
70
1
10
243.20000000000002
20
60.0381
10
300.92760000000004
20
60.0381
10
300.92760000000004
20
128.1211
10
243.20000000000002
20
128.1211
0
TEXT
8
LABELS
10
257.63190000000003
20
94.0796
30
0
40
2.0
1
Sleeve
0
LWPOLYLINE
8
PIECES
90
4
70
1
10
342.92760000000004
20
83.4211
10
285.20000000000005
20
83.4211
10
285.2
20
15.338100000000004
10
342.9276
20
15.338100000000004
0
TEXT
8
LABELS
10
299.63190000000003
20
49.3796
30
0
40
2.0
1
Sleeve
0
LWPOLYLINE
8
PIECES
90
4
70
1
10
354.32759999999996
20
147.22109999999998
10
296.59999999999997
20
147.22109999999998
10
296.6
20
79.1381
10
354.3276
20
79.1381
0
TEXT
8
LABELS
10
311.0319
20
113.1796
30
0
40
2.0
1
Sleeve
0
LWPOLYLINE
8
PIECES
90
4
70
1
10
400.72760000000005
20
68.1211
10
343.0
20
68.1211
10
343.0
20
0.03810000000000002
10
400.72760000000005
20
0.03810000000000002
0
TEXT
8
LABELS
10
357.43190000000004
20
34.0796
30
0
40
2.0
1
Sleeve
0
LWPOLYLINE
8
PIECES
90
4
70
1
10
-5.000000000165983e-05
20
0.04889999999999972
10
93.95325
20
0.04889999999999972
10
93.95325
20
34.021100000000004
10
-5.000000000165983e-05
20
34.021100000000004
0
TEXT
8
LABELS
10
23.488274999999998
20
17.035
30
0
40
2.0
1
Back
0
LWPOLYLINE
8
PIECES
90
4
70
1
10
-5.000000000165983e-05
20
34.048899999999996
10
93.95325
20
34.048899999999996
10
93.95325
20
68.02109999999999
10
-5.000000000165983e-05
20
68.02109999999999
0
TEXT
8
LABELS
10
23.488274999999998
20
51.035
30
0
40
2.0
1
Back
0
LWPOLYLINE
8
PIECES
90
4
70
1
10
-5.000000000165983e-05
20
68.0489
10
93.95325
20
68.0489
10
93.95325
20
102.02109999999999
10
-5.000000000165983e-05
20
102.02109999999999
0
TEXT
8
LABELS
10
23.488274999999998
20
85.035
30
0
40
2.0
1
Back
0
LWPOLYLINE
8
PIECES
90
4
70
1
10
-5.000000000165983e-05
20
102.0489
10
93.95325
20
102.0489
10
93.95325
20
136.0211
10
-5.000000000165983e-05
20
136.0211
0
TEXT
8
LABELS
10
23.488274999999998
20
119.035
30
0
40
2.0
1
Back
0
LWPOLYLINE
8
PIECES
90
4
70
1
10
90.8
20
53.47004999999999
10
183.25279999999998
20
53.47004999999999
10
183.25279999999998
20
84.62115
10
90.8
20
84.62115
0
TEXT
8
LABELS
10
113.91319999999999
20
69.0456
30
0
40
2.0
1
Front
0
LWPOLYLINE
8
PIECES
90
4
70
1
10
92.39999999999999
20
93.27005
10
184.8528
20
93.27005
10
184.8528
20
124.42115000000001
10
92.39999999999999
20
124.42115000000001
0
TEXT
8
LABELS
10
115.51319999999998
20
108.8456
30
0
40
2.0
1
Front
0
LWPOLYLINE
8
PIECES
90
4
70
1
10
92.39999999999999
20
11.570050000000002
10
184.8528
20
11.570050000000002
10
184.8528
20
42.72115
10
92.39999999999999
20
42.72115
0
TEXT
8
LABELS
10
115.51319999999998
20
27.1456
30
0
40
2.0
1
Front
0
LWPOLYLINE
8
PIECES
90
4
70
1
10
179.0
20
116.07005000000001
10
271.4528
20
116.07005000000001
10
271.4528
20
147.22115
10
179.0
20
147.22115
0
TEXT
8
LABELS
10
202.1132
20
131.6456
30
0
40
2.0
1
Front
0
ENDSEC
0
EOF