0
SECTION
2
HEADER
9
$ACADVER
1
AC1015
9
$INSUNITS
70
4
0
ENDSEC
0
SECTION
2
TABLES
0
TABLE
2
LAYER
70
3
0
LAYER
2
0
70
0
62
7
6
CONTINUOUS
0
LAYER
2
CONTOURS
70
0
62
7
6
CONTINUOUS
0
LAYER
2
FILL
70
0
62
8
6
CONTINUOUS
0
ENDTAB
0
ENDSEC
0
SECTION
2
ENTITIES
0
LWPOLYLINE
8
CONTOURS
90
40
70
0
10
76.7700
20
38.7400
10
70.2200
20
36.4000
10
66.4500
20
35.1600
10
62.6600
20
34.0400
10
60.4600
20
33.4700
10
56.9200
20
32.6800
10
53.3000
20
32.0200
10
48.2000
20
31.2400
10
43.1600
20
30.5600
10
0.4400
20
29.3000
10
0.1100
20
22.9300
10
0.0200
20
18.6000
10
0.0900
20
14.6500
10
0.5000
20
7.0100
10
43.1400
20
5.5600
10
78.6500
20
0.5500
10
85.8100
20
0.0800
10
90.8000
20
0.0100
10
93.5600
20
0.0800
10
95.7500
20
0.2500
10
96.8900
20
0.3800
10
99.4000
20
0.7900
10
102.4100
20
1.4400
10
104.9400
20
2.0600
10
105.6300
20
2.0600
10
106.6100
20
15.4800
10
107.0500
20
25.5500
10
105.0600
20
25.7600
10
85.0600
20
28.5600
10
82.7500
20
29.4700
10
81.6700
20
30.0100
10
80.6900
20
30.6300
10
80.1800
20
31.0400
10
79.7600
20
31.4500
10
79.3400
20
31.9300
10
78.9700
20
32.4600
10
78.4300
20
33.4200
10
77.8900
20
34.7000
10
77.5100
20
35.8500
10
77.1800
20
37.0700
0
LWPOLYLINE
8
CONTOURS
90
40
70
0
10
76.7800
20
39.8300
10
70.2300
20
42.1600
10
66.4600
20
43.4000
10
62.6700
20
44.5200
10
60.4700
20
45.0900
10
56.9300
20
45.8800
10
53.3100
20
46.5500
10
48.2100
20
47.3300
10
43.1700
20
48.0100
10
0.4500
20
49.2700
10
0.1200
20
55.6400
10
0.0300
20
59.9700
10
0.1000
20
63.9200
10
0.5100
20
71.5600
10
43.1500
20
73.0100
10
78.6600
20
78.0100
10
85.8200
20
78.4900
10
90.8100
20
78.5600
10
93.5700
20
78.4800
10
95.7600
20
78.3200
10
96.9100
20
78.1900
10
99.4100
20
77.7800
10
102.4200
20
77.1300
10
104.9500
20
76.5100
10
105.6400
20
76.5100
10
106.6200
20
63.0900
10
107.0600
20
53.0100
10
105.0700
20
52.8100
10
85.0700
20
50.0100
10
82.7600
20
49.0900
10
81.6800
20
48.5600
10
80.7000
20
47.9400
10
80.1900
20
47.5300
10
79.7700
20
47.1200
10
79.3500
20
46.6300
10
78.9800
20
46.1100
10
78.4400
20
45.1500
10
77.9000
20
43.8700
10
77.5200
20
42.7100
10
77.1900
20
41.4900
0
LWPOLYLINE
8
CONTOURS
90
41
70
0
10
76.7700
20
77.7500
10
70.2100
20
79.9800
10
66.4400
20
81.1600
10
62.6400
20
82.2100
10
60.4400
20
82.7500
10
56.8900
20
83.4800
10
53.2800
20
84.0900
10
48.1700
20
84.7900
10
43.1600
20
85.3800
10
0.4400
20
86.6400
10
0.1200
20
92.8700
10
0.0300
20
97.1000
10
0.1000
20
100.9600
10
0.5000
20
108.4300
10
43.1400
20
109.8800
10
78.1500
20
114.6400
10
85.3100
20
115.1100
10
90.3000
20
115.1800
10
93.0600
20
115.1100
10
95.2500
20
114.9400
10
96.3900
20
114.8100
10
98.9000
20
114.4000
10
101.9100
20
113.7500
10
104.4400
20
113.1300
10
105.1300
20
113.1300
10
106.1100
20
99.7100
10
106.5500
20
90.6400
10
104.5600
20
90.4300
10
84.5600
20
87.6300
10
82.3600
20
86.7200
10
81.3400
20
86.1900
10
80.7000
20
85.8000
10
80.1200
20
85.3600
10
79.7900
20
85.0600
10
79.3800
20
84.6200
10
79.0000
20
84.1300
10
78.6600
20
83.5900
10
78.2600
20
82.8200
10
77.9100
20
81.9800
10
77.4000
20
80.4000
10
77.0400
20
78.9400
0
LWPOLYLINE
8
CONTOURS
90
38
70
0
10
76.7400
20
114.4500
10
70.1400
20
116.3500
10
66.3600
20
117.3400
10
62.5500
20
118.2000
10
60.3500
20
118.6300
10
56.7900
20
119.1900
10
53.1700
20
119.6300
10
48.0600
20
120.0800
10
43.1300
20
120.4300
10
0.4100
20
121.6900
10
0.1100
20
127.4900
10
0.0300
20
131.4300
10
0.1000
20
135.0200
10
0.4700
20
141.9800
10
43.1100
20
143.4300
10
76.6200
20
147.4400
10
83.7800
20
147.9100
10
88.7700
20
147.9800
10
91.5300
20
147.9100
10
93.7200
20
147.7400
10
94.8600
20
147.6100
10
97.3700
20
147.2000
10
100.3800
20
146.5500
10
102.9100
20
145.9300
10
103.6000
20
145.9300
10
105.0200
20
126.4400
10
103.0300
20
126.2300
10
83.0300
20
123.4300
10
81.1600
20
122.5300
10
80.3000
20
122.0200
10
79.5200
20
121.4500
10
79.1100
20
121.0700
10
78.7700
20
120.6900
10
78.4300
20
120.2100
10
78.1300
20
119.6900
10
77.7100
20
118.7500
10
77.3300
20
117.5000
10
77.0300
20
116.1500
0
LWPOLYLINE
8
CONTOURS
90
34
70
0
10
182.4100
20
0.4900
10
149.3900
20
2.5400
10
106.9200
20
3.5100
10
107.2700
20
9.4200
10
107.3500
20
13.1900
10
107.2700
20
16.4100
10
106.9200
20
22.3200
10
149.1400
20
21.4000
10
155.1500
20
21.3100
10
159.1400
20
21.3700
10
162.1100
20
21.5400
10
165.0500
20
21.8400
10
166.5500
20
22.0600
10
169.2000
20
22.5700
10
171.9400
20
23.2400
10
175.2000
20
24.1900
10
179.5300
20
25.6400
10
183.2000
20
26.9500
10
183.8500
20
25.4600
10
184.1800
20
24.8700
10
184.6800
20
24.1500
10
185.1100
20
23.7200
10
185.5500
20
23.3800
10
186.3700
20
22.9100
10
187.2900
20
22.5200
10
188.8500
20
22.0000
10
208.8500
20
20.8000
10
209.3200
20
2.0100
10
204.4600
20
1.0000
10
201.6500
20
0.5300
10
200.6900
20
0.4100
10
198.3000
20
0.1800
10
195.5000
20
0.0500
10
189.5400
20
0.0200
0
LWPOLYLINE
8
CONTOURS
90
35
70
0
10
158.4500
20
26.3700
10
124.9300
20
28.6700
10
82.4600
20
29.6300
10
82.7900
20
35.1500
10
82.8900
20
39.5700
10
82.8200
20
42.8800
10
82.4500
20
48.9400
10
124.6800
20
48.0200
10
130.7000
20
48.0200
10
134.7000
20
48.1500
10
137.6700
20
48.3700
10
140.6200
20
48.7200
10
142.1200
20
48.9600
10
144.7700
20
49.5100
10
147.4900
20
50.2300
10
150.7500
20
51.2300
10
155.0600
20
52.7500
10
158.7300
20
54.1200
10
159.4600
20
52.5300
10
159.8100
20
51.8900
10
160.3700
20
51.1300
10
160.8300
20
50.6800
10
161.1300
20
50.4500
10
161.6000
20
50.1300
10
162.4900
20
49.6900
10
163.8700
20
49.1800
10
164.8800
20
48.8700
10
184.8800
20
47.6700
10
185.3600
20
27.8900
10
180.4800
20
26.8700
10
177.6800
20
26.4000
10
176.7300
20
26.2800
10
174.3200
20
26.0600
10
170.9600
20
25.9100
10
165.5700
20
25.8900
0
LWPOLYLINE
8
CONTOURS
90
38
70
0
10
183.2400
20
84.2000
10
176.6400
20
82.3100
10
172.8500
20
81.3200
10
169.0400
20
80.4500
10
166.8500
20
80.0300
10
163.2900
20
79.4700
10
159.6600
20
79.0300
10
154.5500
20
78.5800
10
149.6200
20
78.2300
10
106.9000
20
76.9700
10
106.6100
20
71.1700
10
106.5300
20
67.2300
10
106.5900
20
63.6300
10
106.9700
20
56.6800
10
149.6000
20
55.2200
10
183.1200
20
51.2200
10
190.2800
20
50.7400
10
195.2600
20
50.6800
10
198.0200
20
50.7500
10
200.2100
20
50.9100
10
201.3600
20
51.0500
10
203.8700
20
51.4500
10
206.8800
20
52.1100
10
209.4000
20
52.7300
10
210.1000
20
52.7300
10
211.5200
20
72.2200
10
209.5300
20
72.4300
10
189.5300
20
75.2300
10
187.6600
20
76.1300
10
186.7900
20
76.6400
10
186.0100
20
77.2100
10
185.6100
20
77.5900
10
185.2700
20
77.9700
10
184.9300
20
78.4500
10
184.6300
20
78.9600
10
184.2100
20
79.9000
10
183.8200
20
81.1500
10
183.5300
20
82.5100
0
LWPOLYLINE
8
CONTOURS
90
36
70
0
10
182.8800
20
84.2400
10
148.8600
20
86.7900
10
106.3900
20
87.7600
10
106.7300
20
93.4200
10
106.8300
20
96.8200
10
106.8400
20
97.9500
10
106.7600
20
101.3400
10
106.3800
20
107.5700
10
148.6100
20
106.6500
10
154.6500
20
106.7400
10
158.6600
20
106.9300
10
161.6300
20
107.1900
10
164.5900
20
107.5900
10
166.0800
20
107.8600
10
168.7300
20
108.4600
10
171.4500
20
109.2100
10
174.6900
20
110.2700
10
178.9800
20
111.8500
10
182.6600
20
113.3000
10
183.4600
20
111.6000
10
183.8500
20
110.9200
10
184.1400
20
110.5000
10
184.4500
20
110.1200
10
184.9500
20
109.6400
10
185.5700
20
109.1800
10
186.4600
20
108.7100
10
187.6400
20
108.2500
10
189.3100
20
107.7400
10
209.3100
20
106.5400
10
209.7900
20
85.7600
10
205.4600
20
84.8500
10
202.6600
20
84.3600
10
201.1600
20
84.1600
10
198.7400
20
83.9300
10
195.3800
20
83.7800
10
190.0000
20
83.7700
0
LWPOLYLINE
8
CONTOURS
90
37
70
0
10
182.0900
20
113.3600
10
147.0700
20
116.4100
10
104.6000
20
117.3800
10
104.9600
20
123.3200
10
105.0600
20
126.8900
10
105.0700
20
128.0900
10
104.9900
20
131.6500
10
104.5900
20
138.1900
10
146.8200
20
137.2700
10
152.9000
20
137.5500
10
156.9200
20
137.8700
10
159.9100
20
138.2200
10
162.8600
20
138.7200
10
164.3600
20
139.0300
10
167.0000
20
139.7100
10
169.7000
20
140.5500
10
172.9100
20
141.7100
10
177.1700
20
143.4300
10
180.8700
20
145.0200
10
181.8100
20
143.1100
10
182.2700
20
142.3500
10
182.7800
20
141.6600
10
183.1600
20
141.2500
10
183.5200
20
140.9300
10
184.1900
20
140.4600
10
184.7300
20
140.1600
10
185.3100
20
139.8800
10
186.5600
20
139.4200
10
188.5200
20
138.8600
10
208.5200
20
137.6600
10
209.0000
20
114.8800
10
204.6500
20
113.9600
10
201.8500
20
113.4700
10
200.3700
20
113.2700
10
197.9300
20
113.0500
10
194.5700
20
112.9000
10
189.2100
20
112.8800
0
LWPOLYLINE
8
CONTOURS
90
41
70
0
10
261.8800
20
59.2600
10
255.3100
20
57.0400
10
251.5400
20
55.8600
10
247.7400
20
54.8000
10
245.5500
20
54.2700
10
242.0000
20
53.5400
10
238.3800
20
52.9300
10
233.2800
20
52.2300
10
228.2600
20
51.6400
10
185.5500
20
50.3700
10
185.2200
20
44.1500
10
185.1400
20
39.9200
10
185.2100
20
36.0500
10
185.6100
20
28.5900
10
228.2400
20
27.1300
10
263.2600
20
22.3800
10
270.4200
20
21.9000
10
275.4100
20
21.8400
10
278.1600
20
21.9100
10
280.3600
20
22.0700
10
281.5000
20
22.2000
10
284.0100
20
22.6100
10
287.0200
20
23.2700
10
289.5400
20
23.8800
10
290.2400
20
23.8800
10
291.2100
20
37.3000
10
291.6600
20
46.3800
10
289.6700
20
46.5800
10
269.6700
20
49.3800
10
267.4700
20
50.3000
10
266.4400
20
50.8200
10
265.8100
20
51.2200
10
265.2300
20
51.6600
10
264.8900
20
51.9600
10
264.4900
20
52.3900
10
264.1100
20
52.8900
10
263.7700
20
53.4200
10
263.3600
20
54.2000
10
263.0200
20
55.0300
10
262.5100
20
56.6200
10
262.1500
20
58.0700
0
LWPOLYLINE
8
CONTOURS
90
37
70
0
10
288.1300
20
83.1800
10
253.6100
20
80.3700
10
211.1300
20
79.4100
10
211.4800
20
73.6000
10
211.5900
20
70.1200
10
211.5900
20
68.9600
10
211.5100
20
65.4800
10
211.1300
20
59.1000
10
253.3600
20
60.0200
10
259.4200
20
59.8300
10
263.4300
20
59.5800
10
266.4100
20
59.2700
10
269.3700
20
58.8200
10
270.8600
20
58.5300
10
273.5000
20
57.8900
10
276.2100
20
57.0900
10
279.4400
20
55.9900
10
283.7200
20
54.3300
10
287.4100
20
52.8200
10
288.2800
20
54.6200
10
288.7000
20
55.3400
10
289.0100
20
55.7800
10
289.3500
20
56.1900
10
289.8800
20
56.6900
10
290.5200
20
57.1500
10
291.0500
20
57.4500
10
291.6200
20
57.7200
10
292.8500
20
58.1700
10
294.5600
20
58.6700
10
314.5600
20
59.8700
10
315.0400
20
81.6600
10
310.7000
20
82.5700
10
307.9000
20
83.0600
10
306.4100
20
83.2600
10
303.9800
20
83.4900
10
300.6200
20
83.6300
10
295.2500
20
83.6500
0
LWPOLYLINE
8
CONTOURS
90
40
70
0
10
287.6900
20
115.9700
10
252.1700
20
112.6700
10
209.7000
20
111.7000
10
210.0600
20
105.6100
10
210.1800
20
101.9600
10
210.1800
20
100.7300
10
210.1000
20
97.0900
10
209.6900
20
90.3900
10
251.9200
20
91.3100
10
258.0100
20
90.9300
10
262.0500
20
90.5600
10
265.0400
20
90.1500
10
268.0000
20
89.6100
10
269.5000
20
89.2700
10
272.1300
20
88.5500
10
274.8200
20
87.6700
10
278.0200
20
86.4600
10
282.2600
20
84.6700
10
285.9700
20
83.0100
10
286.8300
20
84.7500
10
287.4700
20
85.8200
10
288.0200
20
86.5500
10
288.4300
20
86.9800
10
288.8100
20
87.3200
10
289.4900
20
87.7900
10
289.8500
20
88.0000
10
290.6300
20
88.3800
10
291.9100
20
88.8500
10
293.5100
20
89.3100
10
294.1200
20
89.4700
10
314.1200
20
90.6700
10
314.4400
20
105.7900
10
314.4800
20
109.2900
10
314.6000
20
114.4500
10
310.2400
20
115.3700
10
307.4400
20
115.8600
10
305.9700
20
116.0500
10
303.5200
20
116.2800
10
300.1600
20
116.4300
10
294.8200
20
116.4500
0
LWPOLYLINE
8
CONTOURS
90
39
70
0
10
285.3700
20
115.7600
10
278.7600
20
117.5500
10
274.9700
20
118.4700
10
271.1600
20
119.2800
10
268.9600
20
119.6700
10
265.4000
20
120.1700
10
261.7700
20
120.5500
10
256.6600
20
120.9200
10
251.7600
20
121.1900
10
209.0400
20
122.4500
10
208.7300
20
128.6700
10
208.6700
20
131.9500
10
208.7300
20
135.4600
10
209.1000
20
142.2400
10
251.7300
20
143.6900
10
284.7500
20
147.4500
10
291.9100
20
147.9200
10
296.9000
20
147.9900
10
299.6500
20
147.9200
10
301.8500
20
147.7500
10
302.9900
20
147.6200
10
305.5000
20
147.2100
10
308.5100
20
146.5600
10
311.0400
20
145.9400
10
311.7300
20
145.9400
10
312.7100
20
132.5200
10
313.1500
20
127.4500
10
311.1600
20
127.2400
10
291.1600
20
124.4400
10
289.4000
20
123.5400
10
288.5900
20
123.0400
10
288.0900
20
122.6700
10
287.6400
20
122.2700
10
287.0500
20
121.5800
10
286.7400
20
121.0900
10
286.4800
20
120.5700
10
286.1100
20
119.6100
10
285.7900
20
118.3500
10
285.4800
20
116.5300
0
LWPOLYLINE
8
CONTOURS
90
39
70
0
10
366.7000
20
32.2400
10
360.0900
20
30.4500
10
356.3000
20
29.5300
10
352.4900
20
28.7200
10
350.2900
20
28.3300
10
346.7300
20
27.8300
10
343.1000
20
27.4500
10
337.9900
20
27.0800
10
333.0900
20
26.8100
10
290.3700
20
25.5500
10
290.0600
20
19.3300
10
290.0000
20
16.0500
10
290.0700
20
12.5400
10
290.4300
20
5.7600
10
333.0700
20
4.3100
10
366.0800
20
0.5500
10
373.2500
20
0.0800
10
378.2300
20
0.0100
10
380.9900
20
0.0800
10
383.1800
20
0.2500
10
384.3300
20
0.3800
10
386.8300
20
0.7900
10
389.8500
20
1.4400
10
392.3700
20
2.0600
10
393.0600
20
2.0600
10
394.0400
20
15.4800
10
394.4800
20
20.5500
10
392.4900
20
20.7600
10
372.4900
20
23.5600
10
370.7300
20
24.4600
10
369.9200
20
24.9600
10
369.4200
20
25.3300
10
368.9700
20
25.7300
10
368.3900
20
26.4200
10
368.0800
20
26.9100
10
367.8100
20
27.4300
10
367.4500
20
28.3900
10
367.1200
20
29.6500
10
366.8100
20
31.4700
0
LWPOLYLINE
8
CONTOURS
90
40
70
0
10
369.6300
20
31.9700
10
334.1100
20
35.2700
10
291.6400
20
36.2400
10
292.0000
20
42.3300
10
292.1200
20
45.9800
10
292.1200
20
47.2100
10
292.0400
20
50.8600
10
291.6300
20
57.5500
10
333.8600
20
56.6300
10
339.9500
20
57.0100
10
343.9800
20
57.3900
10
346.9800
20
57.7900
10
349.9400
20
58.3300
10
351.4400
20
58.6700
10
354.0700
20
59.3900
10
356.7600
20
60.2700
10
359.9600
20
61.4800
10
364.2000
20
63.2700
10
367.9100
20
64.9300
10
368.7700
20
63.1900
10
369.4100
20
62.1200
10
369.9600
20
61.3900
10
370.3700
20
60.9600
10
370.7500
20
60.6300
10
371.4300
20
60.1500
10
371.7900
20
59.9400
10
372.5700
20
59.5700
10
373.8500
20
59.1000
10
375.4500
20
58.6400
10
376.0600
20
58.4800
10
396.0600
20
57.2800
10
396.3800
20
42.1500
10
396.4200
20
38.6500
10
396.5400
20
33.4900
10
392.1800
20
32.5700
10
389.3800
20
32.0900
10
387.9100
20
31.8900
10
385.4600
20
31.6600
10
382.1000
20
31.5100
10
376.7500
20
31.5000
0
LWPOLYLINE
8
CONTOURS
90
36
70
0
10
391.3600
20
88.2100
10
357.3300
20
85.6600
10
314.8600
20
84.7000
10
315.2000
20
79.0300
10
315.3100
20
75.6400
10
315.3100
20
74.5000
10
315.2300
20
71.1100
10
314.8600
20
64.8800
10
357.0900
20
65.8000
10
363.1300
20
65.7100
10
367.1300
20
65.5200
10
370.1100
20
65.2600
10
373.0600
20
64.8600
10
374.5600
20
64.5900
10
377.2000
20
64.0000
10
379.9200
20
63.2400
10
383.1600
20
62.1900
10
387.4600
20
60.6000
10
391.1400
20
59.1500
10
391.9300
20
60.8600
10
392.3200
20
61.5300
10
392.6100
20
61.9500
10
392.9300
20
62.3400
10
393.4200
20
62.8200
10
394.0500
20
63.2700
10
394.9300
20
63.7400
10
396.1200
20
64.2000
10
397.7900
20
64.7100
10
417.7900
20
65.9100
10
418.2600
20
86.6900
10
413.9400
20
87.6100
10
411.1300
20
88.0900
10
409.6300
20
88.3000
10
407.2200
20
88.5200
10
403.8600
20
88.6700
10
398.4800
20
88.6900
0
LWPOLYLINE
8
CONTOURS
90
35
70
0
10
390.5700
20
115.9400
10
357.0400
20
113.6400
10
314.5700
20
112.6800
10
314.9100
20
107.1600
10
315.0100
20
102.7400
10
314.9300
20
99.4300
10
314.5700
20
93.3600
10
356.8000
20
94.2800
10
362.8200
20
94.2800
10
366.8200
20
94.1600
10
369.7900
20
93.9400
10
372.7400
20
93.5900
10
374.2400
20
93.3500
10
376.8800
20
92.7900
10
379.6100
20
92.0800
10
382.8600
20
91.0800
10
387.1800
20
89.5600
10
390.8500
20
88.1800
10
391.5700
20
89.7800
10
391.9300
20
90.4200
10
392.4900
20
91.1800
10
392.9500
20
91.6300
10
393.2400
20
91.8600
10
393.7200
20
92.1800
10
394.6100
20
92.6200
10
395.9900
20
93.1300
10
397.0000
20
93.4400
10
417.0000
20
94.6400
10
417.4700
20
114.4200
10
412.6000
20
115.4400
10
409.7900
20
115.9100
10
408.8500
20
116.0300
10
406.4400
20
116.2500
10
403.0800
20
116.4000
10
397.6900
20
116.4200
0
LWPOLYLINE
8
CONTOURS
90
37
70
0
10
390.3700
20
147.5200
10
355.3500
20
144.4600
10
312.8800
20
143.5000
10
313.2300
20
137.5500
10
313.3400
20
133.9800
10
313.3500
20
132.7900
10
313.2600
20
129.2300
10
312.8700
20
122.6900
10
355.1000
20
123.6100
10
361.1800
20
123.3200
10
365.2000
20
123.0100
10
368.1900
20
122.6500
10
371.1400
20
122.1600
10
372.6400
20
121.8400
10
375.2800
20
121.1600
10
377.9800
20
120.3200
10
381.1900
20
119.1700
10
385.4500
20
117.4400
10
389.1500
20
115.8600
10
390.0900
20
117.7700
10
390.5500
20
118.5200
10
391.0600
20
119.2100
10
391.4400
20
119.6300
10
391.8000
20
119.9500
10
392.4700
20
120.4100
10
393.0100
20
120.7200
10
393.5900
20
120.9900
10
394.8400
20
121.4500
10
396.8000
20
122.0100
10
416.8000
20
123.2100
10
417.2800
20
145.9900
10
412.9300
20
146.9100
10
410.1300
20
147.4000
10
408.6500
20
147.6000
10
406.2100
20
147.8300
10
402.8500
20
147.9700
10
397.4900
20
147.9900
0
LWPOLYLINE
8
CONTOURS
90
41
70
0
10
471.1900
20
0.0100
10
464.6100
20
2.1200
10
460.8300
20
3.2400
10
457.0300
20
4.2300
10
454.8400
20
4.7300
10
451.2800
20
5.4000
10
447.6600
20
5.9600
10
442.5600
20
6.5700
10
437.5700
20
7.0800
10
394.8500
20
8.3500
10
394.5400
20
14.4300
10
394.4500
20
18.5700
10
394.5200
20
22.3400
10
394.9200
20
29.6400
10
437.5500
20
31.0900
10
472.0700
20
35.5900
10
479.2300
20
36.0700
10
484.2100
20
36.1400
10
486.9700
20
36.0600
10
489.1600
20
35.9000
10
490.3100
20
35.7700
10
492.8200
20
35.3600
10
495.8300
20
34.7000
10
498.3500
20
34.0900
10
499.0500
20
34.0900
10
500.0200
20
20.6700
10
500.4600
20
12.5900
10
498.4700
20
12.3900
10
478.4700
20
9.5900
10
476.3800
20
8.6800
10
475.4100
20
8.1600
10
474.8100
20
7.7700
10
474.2600
20
7.3400
10
473.9500
20
7.0500
10
473.5600
20
6.6100
10
473.2000
20
6.1200
10
472.8700
20
5.5900
10
472.5000
20
4.8200
10
472.1700
20
3.9900
10
471.6500
20
2.1800
10
471.2800
20
0.4800
0
LWPOLYLINE
8
CONTOURS
90
41
70
0
10
472.8900
20
72.2500
10
466.3100
20
70.1400
10
462.5400
20
69.0200
10
458.7300
20
68.0300
10
456.5400
20
67.5300
10
452.9800
20
66.8500
10
449.3700
20
66.3000
10
444.2600
20
65.6800
10
439.2700
20
65.1700
10
396.5500
20
63.9100
10
396.2400
20
57.8300
10
396.1600
20
53.6900
10
396.2300
20
49.9200
10
396.6200
20
42.6200
10
439.2500
20
41.1700
10
473.7700
20
36.6700
10
480.9300
20
36.1900
10
485.9200
20
36.1200
10
488.6700
20
36.2000
10
490.8700
20
36.3600
10
492.0100
20
36.4900
10
494.5200
20
36.9000
10
497.5300
20
37.5500
10
500.0500
20
38.1700
10
500.7500
20
38.1700
10
501.7200
20
51.5900
10
502.1700
20
59.6700
10
500.1800
20
59.8700
10
480.1800
20
62.6700
10
478.0900
20
63.5800
10
477.1200
20
64.1000
10
476.5200
20
64.4900
10
475.9700
20
64.9200
10
475.6500
20
65.2100
10
475.2600
20
65.6400
10
474.9000
20
66.1400
10
474.5800
20
66.6700
10
474.2000
20
67.4400
10
473.8800
20
68.2700
10
473.3600
20
70.0800
10
472.9900
20
71.7700
0
LWPOLYLINE
8
CONTOURS
90
39
70
0
10
494.6400
20
78.3400
10
488.0500
20
80.3400
10
484.2700
20
81.4000
10
480.4600
20
82.3300
10
478.2700
20
82.7900
10
474.7100
20
83.4100
10
471.0900
20
83.9000
10
465.9800
20
84.4400
10
461.0200
20
84.8700
10
418.3000
20
86.1300
10
418.0000
20
92.0700
10
417.9100
20
96.1100
10
417.9800
20
99.7900
10
418.3700
20
106.9200
10
461.0000
20
108.3700
10
495.0200
20
112.6200
10
502.1800
20
113.1000
10
507.1600
20
113.1700
10
509.9200
20
113.0900
10
512.1100
20
112.9300
10
513.2600
20
112.8000
10
515.7700
20
112.3900
10
518.7800
20
111.7400
10
521.3000
20
111.1200
10
522.0000
20
111.1200
10
522.9700
20
97.7000
10
523.4100
20
90.6200
10
521.4200
20
90.4200
10
501.4200
20
87.6200
10
499.4400
20
86.7100
10
498.5300
20
86.2000
10
497.7000
20
85.6100
10
497.2600
20
85.2300
10
496.9100
20
84.8400
10
496.5400
20
84.3600
10
496.2300
20
83.8400
10
495.7800
20
82.9000
10
495.3500
20
81.6400
10
495.0100
20
80.2700
0
LWPOLYLINE
8
CONTOURS
90
39
70
0
10
493.6900
20
147.9900
10
487.1000
20
145.9900
10
483.3200
20
144.9300
10
479.5200
20
144.0000
10
477.3200
20
143.5400
10
473.7600
20
142.9200
10
470.1400
20
142.4300
10
465.0300
20
141.8900
10
460.0800
20
141.4700
10
417.3600
20
140.2000
10
417.0500
20
134.2600
10
416.9700
20
130.2200
10
417.0400
20
126.5400
10
417.4200
20
119.4100
10
460.0500
20
117.9600
10
494.0700
20
113.7100
10
501.2300
20
113.2300
10
506.2200
20
113.1600
10
508.9700
20
113.2400
10
511.1700
20
113.4000
10
512.3100
20
113.5300
10
514.8200
20
113.9400
10
517.8300
20
114.6000
10
520.3600
20
115.2100
10
521.0500
20
115.2100
10
522.0300
20
128.6300
10
522.4700
20
135.7100
10
520.4800
20
135.9100
10
500.4800
20
138.7100
10
498.5000
20
139.6200
10
497.5800
20
140.1300
10
496.7500
20
140.7200
10
496.3200
20
141.1100
10
495.9600
20
141.4900
10
495.6000
20
141.9700
10
495.2800
20
142.4900
10
494.8300
20
143.4400
10
494.4000
20
144.6900
10
494.0700
20
146.0600
0
LWPOLYLINE
8
CONTOURS
90
37
70
0
10
572.1700
20
56.8100
10
537.6500
20
59.6100
10
495.1800
20
60.5800
10
495.5300
20
66.3800
10
495.6300
20
69.8700
10
495.6400
20
71.0300
10
495.5600
20
74.5100
10
495.1700
20
80.8900
10
537.4000
20
79.9700
10
543.4600
20
80.1600
10
547.4700
20
80.4100
10
550.4600
20
80.7200
10
553.4100
20
81.1700
10
554.9100
20
81.4600
10
557.5500
20
82.1000
10
560.2600
20
82.8900
10
563.4900
20
84.0000
10
567.7700
20
85.6600
10
571.4500
20
87.1700
10
572.3200
20
85.3700
10
572.7400
20
84.6500
10
573.0600
20
84.2100
10
573.4000
20
83.8000
10
573.9200
20
83.3000
10
574.5700
20
82.8400
10
575.1000
20
82.5400
10
575.6700
20
82.2700
10
576.8900
20
81.8200
10
578.6000
20
81.3200
10
598.6000
20
80.1200
10
599.0800
20
58.3300
10
594.7400
20
57.4200
10
591.9400
20
56.9300
10
590.4500
20
56.7300
10
588.0200
20
56.5000
10
584.6600
20
56.3600
10
579.3000
20
56.3400
0
LWPOLYLINE
8
CONTOURS
90
34
70
0
10
575.5800
20
26.4600
10
542.5500
20
24.4100
10
500.0800
20
23.4400
10
500.4300
20
17.5300
10
500.5100
20
13.7600
10
500.4300
20
10.5400
10
500.0800
20
4.6300
10
542.3100
20
5.5500
10
548.3100
20
5.6400
10
552.3000
20
5.5800
10
555.2700
20
5.4100
10
558.2100
20
5.1100
10
559.7100
20
4.8900
10
562.3600
20
4.3800
10
565.1000
20
3.7100
10
568.3600
20
2.7600
10
572.6900
20
1.3100
10
576.3600
20
0.0000
10
577.0100
20
1.4900
10
577.3400
20
2.0900
10
577.8400
20
2.8000
10
578.2700
20
3.2300
10
578.7100
20
3.5700
10
579.5300
20
4.0400
10
580.4500
20
4.4400
10
582.0100
20
4.9600
10
602.0100
20
6.1600
10
602.4800
20
24.9400
10
597.6200
20
25.9500
10
594.8100
20
26.4200
10
593.8500
20
26.5400
10
591.4600
20
26.7700
10
588.6600
20
26.9000
10
582.7000
20
26.9300
0
ENDSEC
0
EOF