0
SECTION
2
HEADER
9
$ACADVER
1
AC1015
9
$INSUNITS
70
4
0
ENDSEC
0
SECTION
2
TABLES
0
TABLE
2
LAYER
70
3
0
LAYER
2
0
70
0
62
7
6
CONTINUOUS
0
LAYER
2
CONTOURS
70
0
62
7
6
CONTINUOUS
0
LAYER
2
FILL
70
0
62
8
6
CONTINUOUS
0
ENDTAB
0
ENDSEC
0
SECTION
2
ENTITIES
0
LWPOLYLINE
8
CONTOURS
90
45
70
0
10
69.6200
20
26.6000
10
70.2600
20
11.8000
10
47.6200
20
12.8200
10
31.4000
20
12.1900
10
47.5800
20
10.8200
10
70.2400
20
10.8000
10
69.9800
20
0.0000
10
7.6600
20
1.4400
10
7.5300
20
4.4900
10
7.3700
20
5.2300
10
7.2600
20
5.6000
10
6.8900
20
6.4900
10
6.4400
20
7.2500
10
6.0600
20
7.7400
10
5.4400
20
8.3500
10
5.0000
20
8.6900
10
4.3100
20
9.1000
10
3.6600
20
9.4000
10
2.5000
20
9.8000
10
1.1800
20
10.1200
10
0.0200
20
10.3500
10
2.5700
20
16.2700
10
5.5800
20
22.4300
10
10.5500
20
21.0800
10
10.8900
20
21.0100
10
13.2300
20
20.7000
10
15.1900
20
20.6000
10
16.9500
20
20.6400
10
19.1200
20
20.8300
10
20.7300
20
21.5200
10
21.4900
20
21.9300
10
22.2000
20
22.4200
10
23.0100
20
23.0900
10
24.1600
20
24.1800
10
27.9100
20
24.7300
10
29.3100
20
25.0800
10
30.7500
20
24.9900
10
41.3900
20
24.1200
10
45.3100
20
23.9500
10
46.7700
20
24.0800
10
47.8900
20
24.2400
10
54.0600
20
25.2900
10
57.7700
20
25.8200
10
60.5600
20
26.1200
10
63.9900
20
26.3700
0
LWPOLYLINE
8
CONTOURS
90
37
70
0
10
3.3100
20
22.5800
10
11.7200
20
23.0300
10
15.3700
20
23.4000
10
20.8700
20
24.0400
10
28.5600
20
25.1200
10
40.3600
20
26.9300
10
42.5600
20
27.2100
10
43.0400
20
27.2500
10
44.3100
20
27.2800
10
45.4100
20
27.2700
10
67.2100
20
26.5100
10
67.2200
20
40.9100
10
58.1700
20
40.1900
10
52.3600
20
39.5600
10
45.5800
20
38.7200
10
44.5300
20
38.6300
10
43.4900
20
38.6100
10
42.3600
20
38.6600
10
40.4400
20
38.8600
10
30.8200
20
40.3000
10
18.6100
20
42.6700
10
15.7700
20
42.3400
10
13.3100
20
42.1600
10
11.3100
20
42.0500
10
8.1400
20
42.0500
10
6.6800
20
42.1200
10
5.9700
20
42.1900
10
4.0200
20
42.4700
10
2.8100
20
42.6800
10
0.0100
20
30.1300
10
1.7600
20
28.3900
10
2.0400
20
28.0000
10
2.2900
20
27.5800
10
2.6100
20
26.9200
10
2.9200
20
25.9800
10
3.0800
20
25.2600
10
3.2300
20
24.0400
0
LWPOLYLINE
8
CONTOURS
90
40
70
0
10
12.3900
20
42.1300
10
10.4700
20
43.6100
10
9.5700
20
44.2500
10
5.5800
20
46.8500
10
4.3200
20
47.7500
10
3.1700
20
48.6900
10
2.1800
20
49.6600
10
1.3700
20
50.6800
10
0.7900
20
51.6700
10
0.4700
20
52.4300
10
0.2400
20
53.2600
10
0.0700
20
54.4000
10
0.0100
20
55.7700
10
0.0500
20
56.6000
10
0.2000
20
57.6200
10
0.5200
20
58.9000
10
0.9000
20
59.9300
10
1.2200
20
60.6400
10
1.6200
20
61.3600
10
2.1900
20
62.2300
10
2.8900
20
63.0600
10
3.3200
20
63.4900
10
4.4300
20
64.4900
10
10.2600
20
63.9600
10
16.0700
20
63.3500
10
21.8800
20
62.6400
10
27.6700
20
61.8500
10
33.4500
20
60.9700
10
39.2200
20
60.0000
10
44.9700
20
58.9500
10
50.7100
20
57.8100
10
56.4200
20
56.5900
10
62.1200
20
55.2700
10
59.4200
20
41.4600
10
47.3800
20
43.1700
10
40.8900
20
43.7900
10
35.2500
20
44.0400
10
29.8400
20
44.0100
10
24.4400
20
43.7000
10
22.2100
20
43.4900
0
LWPOLYLINE
8
CONTOURS
90
42
70
0
10
12.5800
20
63.7300
10
10.6300
20
65.2600
10
9.7200
20
65.9000
10
5.2900
20
68.8500
10
4.4500
20
69.4600
10
3.6700
20
70.0800
10
2.6100
20
71.0500
10
1.7100
20
72.0600
10
1.2200
20
72.7600
10
1.0000
20
73.1200
10
0.6700
20
73.7700
10
0.4200
20
74.4500
10
0.2300
20
75.1800
10
0.0600
20
76.3500
10
0.0100
20
77.8200
10
0.0600
20
78.5900
10
0.2200
20
79.6100
10
0.5600
20
80.9000
10
0.9500
20
81.9400
10
1.3100
20
82.7000
10
1.8300
20
83.6200
10
2.2800
20
84.2600
10
2.7500
20
84.8400
10
3.4200
20
85.5300
10
4.6300
20
86.6000
10
10.4500
20
86.0700
10
16.2700
20
85.4500
10
22.0700
20
84.7400
10
27.8600
20
83.9500
10
33.6400
20
83.0700
10
39.4100
20
82.1100
10
45.1600
20
81.0500
10
50.9000
20
79.9100
10
56.6200
20
78.6900
10
62.3200
20
77.3800
10
59.6100
20
63.0600
10
47.5700
20
64.7700
10
41.0900
20
65.3900
10
35.4400
20
65.6400
10
30.0300
20
65.6100
10
24.6300
20
65.3000
10
22.4000
20
65.0900
0
LWPOLYLINE
8
CONTOURS
90
47
70
0
10
69.0100
20
80.3400
10
70.3600
20
94.5900
10
47.7000
20
94.6700
10
31.5300
20
96.0900
10
47.7500
20
96.6700
10
70.3900
20
95.5900
10
70.6400
20
105.8900
10
8.0800
20
107.4900
10
7.7500
20
104.5000
10
7.5500
20
103.7800
10
7.4200
20
103.4300
10
7.0000
20
102.5700
10
6.5000
20
101.8500
10
6.0900
20
101.3900
10
5.4600
20
100.8300
10
5.0600
20
100.5600
10
4.5100
20
100.2700
10
3.9400
20
100.0200
10
3.2700
20
99.7900
10
2.4800
20
99.5900
10
0.7300
20
99.3000
10
0.0100
20
99.2000
10
2.3400
20
93.2900
10
4.9100
20
87.2100
10
9.9700
20
88.3900
10
12.2500
20
88.6300
10
12.8300
20
88.6500
10
14.5700
20
88.6600
10
16.0500
20
88.5800
10
18.1000
20
88.3300
10
18.6700
20
88.2200
10
19.6600
20
87.9500
10
20.7200
20
87.5300
10
21.3900
20
87.1600
10
22.0600
20
86.6800
10
22.7100
20
86.1200
10
23.9300
20
84.8800
10
27.6500
20
84.1900
10
28.9300
20
83.8000
10
40.9400
20
84.1900
10
45.0000
20
84.1600
10
46.4500
20
83.9400
10
47.4200
20
83.7500
10
53.5300
20
82.4000
10
57.2200
20
81.6900
10
59.9900
20
81.2500
10
63.4000
20
80.8400
0
LWPOLYLINE
8
CONTOURS
90
35
70
0
10
3.3100
20
126.3500
10
11.5900
20
125.9000
10
15.1900
20
125.5300
10
20.6000
20
124.8900
10
28.1600
20
123.8200
10
39.7800
20
122.0300
10
41.9400
20
121.7500
10
42.4100
20
121.7100
10
43.6800
20
121.6800
10
44.7500
20
121.6900
10
66.2100
20
122.4200
10
66.2200
20
109.0200
10
57.1700
20
109.7400
10
51.3600
20
110.3600
10
44.5800
20
111.2100
10
43.5300
20
111.3000
10
42.4900
20
111.3200
10
41.3600
20
111.2600
10
39.4400
20
111.0700
10
29.8200
20
109.6300
10
17.6100
20
107.2600
10
14.7700
20
107.5900
10
10.6700
20
107.8500
10
7.5100
20
107.8300
10
6.3800
20
107.7700
10
5.7300
20
107.7100
10
3.9300
20
107.4500
10
2.8100
20
107.2500
10
0.0100
20
119.3000
10
1.8400
20
121.0800
10
2.2300
20
121.6500
10
2.5400
20
122.2700
10
2.8600
20
123.1500
10
3.0200
20
123.8200
10
3.2000
20
124.9700
0
LWPOLYLINE
8
CONTOURS
90
47
70
0
10
69.6700
20
122.2500
10
70.4800
20
136.5400
10
47.8300
20
135.7800
10
31.6200
20
136.5900
10
47.8100
20
137.7700
10
70.4700
20
137.5400
10
70.3400
20
147.8400
10
7.7600
20
147.1000
10
7.5500
20
144.1000
10
7.3700
20
143.3800
10
7.2600
20
143.0200
10
6.8700
20
142.1500
10
6.4000
20
141.4100
10
6.0100
20
140.9300
10
5.4000
20
140.3600
10
5.0000
20
140.0700
10
4.4700
20
139.7500
10
3.9100
20
139.4900
10
3.2400
20
139.2300
10
2.4700
20
139.0100
10
0.7300
20
138.6400
10
0.0100
20
138.5200
10
2.5600
20
132.7000
10
5.3500
20
126.7200
10
10.3700
20
128.0900
10
12.6400
20
128.4100
10
13.2100
20
128.4600
10
14.9500
20
128.5300
10
16.4300
20
128.5000
10
18.4900
20
128.3300
10
19.0700
20
128.2400
10
20.0600
20
128.0100
10
21.1400
20
127.6300
10
21.8200
20
127.2900
10
22.5100
20
126.8300
10
23.1800
20
126.3000
10
24.4500
20
125.1000
10
28.1900
20
124.5500
10
29.4800
20
124.2100
10
41.4700
20
125.0400
10
45.5300
20
125.1700
10
46.9900
20
125.0100
10
47.9600
20
124.8500
10
54.1200
20
123.7300
10
57.8300
20
123.1600
10
60.6200
20
122.8300
10
64.0400
20
122.5400
0
LWPOLYLINE
8
CONTOURS
90
37
70
0
10
73.5200
20
21.1000
10
82.0600
20
20.6500
10
85.7700
20
20.2800
10
91.3500
20
19.6200
10
99.1600
20
18.5400
10
111.1500
20
16.7200
10
113.3800
20
16.4300
10
113.8700
20
16.3900
10
115.1400
20
16.3600
10
116.2700
20
16.3700
10
138.4200
20
17.1600
10
138.4200
20
1.7700
10
129.3800
20
2.4800
10
123.5700
20
3.1100
10
116.7800
20
3.9600
10
115.7400
20
4.0500
10
114.6900
20
4.0600
10
113.5600
20
4.0100
10
111.6400
20
3.8200
10
102.0300
20
2.3700
10
89.8200
20
0.0000
10
86.9800
20
0.3400
10
84.3500
20
0.5400
10
82.1600
20
0.6600
10
78.7500
20
0.6600
10
77.1700
20
0.5900
10
76.4200
20
0.5200
10
74.3100
20
0.2200
10
73.0200
20
0.0000
10
70.2200
20
13.0500
10
72.0200
20
14.9300
10
72.3100
20
15.3500
10
72.5700
20
15.7900
10
72.8800
20
16.5000
10
73.1900
20
17.4900
10
73.3300
20
18.2600
10
73.4700
20
19.5500
0
LWPOLYLINE
8
CONTOURS
90
44
70
0
10
137.7800
20
46.4900
10
138.2400
20
31.1800
10
115.6100
20
32.4500
10
99.3800
20
32.0100
10
115.5400
20
30.4600
10
138.2000
20
30.1800
10
137.8100
20
18.8900
10
74.7600
20
21.0500
10
74.7000
20
24.1600
10
74.5600
20
24.9100
10
74.4600
20
25.2800
10
74.1000
20
26.1900
10
73.6700
20
26.9700
10
73.3000
20
27.4700
10
72.6800
20
28.1300
10
72.2600
20
28.4600
10
71.5900
20
28.9000
10
70.9400
20
29.2200
10
69.7300
20
29.6700
10
68.4500
20
30.0200
10
67.2200
20
30.3000
10
69.7700
20
36.3200
10
73.0100
20
42.6600
10
78.1100
20
41.2800
10
80.8600
20
40.8900
10
82.8800
20
40.8000
10
84.6800
20
40.8400
10
86.9000
20
41.0400
10
88.5600
20
41.7500
10
89.3400
20
42.1800
10
90.0700
20
42.6900
10
90.9000
20
43.3800
10
92.0900
20
44.5000
10
95.8300
20
45.0600
10
97.3400
20
45.4200
10
98.8900
20
45.3200
10
109.5200
20
44.3300
10
113.4500
20
44.1100
10
114.9100
20
44.2200
10
116.0200
20
44.3700
10
122.2000
20
45.3500
10
125.9200
20
45.8400
10
128.7200
20
46.1200
10
132.1500
20
46.3200
0
LWPOLYLINE
8
CONTOURS
90
43
70
0
10
75.2400
20
68.5700
10
73.1900
20
66.9100
10
72.2600
20
66.2400
10
67.7900
20
63.1700
10
66.5200
20
62.2200
10
65.7400
20
61.5700
10
64.6800
20
60.5600
10
63.7900
20
59.5200
10
63.2900
20
58.8000
10
63.0800
20
58.4300
10
62.7500
20
57.7600
10
62.4800
20
57.0700
10
62.2500
20
56.1600
10
62.0900
20
54.9000
10
62.0900
20
53.4200
10
62.1700
20
52.5600
10
62.3600
20
51.5100
10
62.7400
20
50.2100
10
63.1600
20
49.1600
10
63.6300
20
48.2200
10
63.9600
20
47.6700
10
64.5800
20
46.7800
10
64.9200
20
46.3600
10
65.5000
20
45.7300
10
65.9500
20
45.3100
10
67.2800
20
44.2100
10
73.1100
20
44.7400
10
78.9200
20
45.3500
10
84.7300
20
46.0600
10
90.5200
20
46.8500
10
96.3000
20
47.7300
10
102.0700
20
48.7000
10
107.8200
20
49.7500
10
113.5600
20
50.8900
10
119.2700
20
52.1200
10
124.9700
20
53.4300
10
122.2700
20
69.2400
10
110.2300
20
67.5300
10
103.7400
20
66.9100
10
98.1000
20
66.6600
10
92.6900
20
66.6900
10
87.2900
20
67.0000
10
85.0600
20
67.2100
0
LWPOLYLINE
8
CONTOURS
90
40
70
0
10
69.4400
20
83.3200
10
77.6200
20
82.3900
10
83.0700
20
81.8800
10
87.1600
20
81.5900
10
91.2400
20
81.4100
10
95.3200
20
81.3700
10
98.2600
20
81.4400
10
101.7600
20
81.6400
10
105.7000
20
81.9900
10
111.2200
20
82.6500
10
117.0400
20
83.4600
10
119.5600
20
72.5200
10
113.8100
20
71.2100
10
109.6600
20
70.4100
10
108.0100
20
70.1300
10
104.0300
20
69.5400
10
102.1700
20
69.3000
10
98.2900
20
68.8800
10
96.3100
20
68.7100
10
90.4200
20
68.3600
10
85.8700
20
68.2600
10
84.5200
20
68.2500
10
80.1200
20
68.3300
10
78.6300
20
68.3900
10
74.3800
20
68.6300
10
72.7400
20
68.7600
10
68.6300
20
69.1700
10
66.8700
20
69.3800
10
61.0400
20
70.2400
10
64.6600
20
72.5000
10
65.0600
20
72.8500
10
65.4400
20
73.2500
10
66.3300
20
74.3000
10
66.8400
20
75.0400
10
67.4500
20
76.0600
10
67.9800
20
77.1600
10
68.3400
20
78.0200
10
68.9100
20
79.8500
10
69.1200
20
80.7600
10
69.3300
20
82.0300
0
LWPOLYLINE
8
CONTOURS
90
47
70
0
10
140.4000
20
81.1700
10
140.8900
20
95.4700
10
118.2700
20
94.2000
10
102.0400
20
94.6500
10
118.2000
20
96.1900
10
140.8600
20
96.4700
10
140.5000
20
106.7700
10
77.9500
20
104.6200
10
77.8000
20
101.6200
10
77.6500
20
100.8900
10
77.5400
20
100.5300
10
77.1700
20
99.6500
10
76.7100
20
98.9000
10
76.3300
20
98.4100
10
75.7400
20
97.8300
10
75.3500
20
97.5300
10
74.8300
20
97.2000
10
74.2700
20
96.9200
10
73.6100
20
96.6600
10
72.8400
20
96.4100
10
71.1100
20
96.0100
10
70.4000
20
95.8700
10
73.0700
20
90.1100
10
76.0000
20
84.1900
10
80.9800
20
85.6700
10
83.2400
20
86.0500
10
83.8200
20
86.1100
10
85.5500
20
86.2100
10
87.0400
20
86.2200
10
89.1000
20
86.1000
10
89.6800
20
86.0200
10
90.6800
20
85.8100
10
91.7700
20
85.4500
10
92.4500
20
85.1300
10
93.1500
20
84.6900
10
93.8300
20
84.1700
10
95.1200
20
83.0000
10
98.8800
20
82.5300
10
100.1800
20
82.2200
10
112.1500
20
83.3300
10
116.2000
20
83.5400
10
117.6600
20
83.4200
10
118.6400
20
83.2800
10
124.8200
20
82.3000
10
128.5400
20
81.8100
10
131.3400
20
81.5400
10
134.7700
20
81.3300
0
LWPOLYLINE
8
CONTOURS
90
37
70
0
10
71.3600
20
125.5500
10
79.8300
20
125.0900
10
83.5100
20
124.7300
10
89.0500
20
124.0700
10
96.8000
20
122.9900
10
108.7000
20
121.1800
10
110.9100
20
120.8900
10
111.3900
20
120.8600
10
112.6600
20
120.8200
10
113.7800
20
120.8300
10
135.7600
20
121.6100
10
135.7600
20
106.7200
10
126.7100
20
107.4300
10
120.9100
20
108.0600
10
114.1200
20
108.9100
10
113.0800
20
108.9900
10
112.0300
20
109.0100
10
110.9000
20
108.9600
10
108.9800
20
108.7600
10
99.3700
20
107.3200
10
87.1500
20
104.9500
10
84.3200
20
105.2800
10
81.7700
20
105.4700
10
79.6800
20
105.5900
10
76.3800
20
105.5900
10
74.8700
20
105.5200
10
74.1300
20
105.4500
10
72.1100
20
105.1600
10
70.8600
20
104.9500
10
68.0600
20
117.7500
10
69.8300
20
119.5500
10
70.1200
20
119.9600
10
70.3700
20
120.3900
10
70.6900
20
121.0700
10
70.9900
20
122.0400
10
71.1500
20
122.7800
10
71.2900
20
124.0400
0
LWPOLYLINE
8
CONTOURS
90
47
70
0
10
139.9000
20
121.6200
10
141.0600
20
135.8900
10
118.4000
20
135.6800
10
102.2100
20
136.8800
10
118.4300
20
137.6700
10
141.0700
20
136.8900
10
141.1900
20
147.1900
10
78.6100
20
147.9700
10
78.3300
20
144.9700
10
78.1300
20
144.2500
10
78.0100
20
143.9000
10
77.6000
20
143.0400
10
77.1100
20
142.3100
10
76.7100
20
141.8400
10
76.0900
20
141.2800
10
75.6800
20
141.0000
10
75.1500
20
140.7000
10
74.5800
20
140.4500
10
73.9000
20
140.2100
10
73.1200
20
140.0000
10
71.3800
20
139.6800
10
70.6600
20
139.5800
10
73.0600
20
133.7000
10
75.7100
20
127.6500
10
80.7600
20
128.9000
10
83.0300
20
129.1600
10
83.6100
20
129.2000
10
85.3500
20
129.2300
10
86.8300
20
129.1700
10
88.8800
20
128.9500
10
89.4600
20
128.8400
10
90.4500
20
128.5900
10
91.5200
20
128.1800
10
92.1900
20
127.8200
10
92.8700
20
127.3500
10
93.5200
20
126.8000
10
94.7600
20
125.5700
10
98.4900
20
124.9200
10
99.7700
20
124.5600
10
111.7800
20
125.1000
10
115.8400
20
125.1200
10
117.2900
20
124.9300
10
118.2600
20
124.7500
10
124.3900
20
123.4800
10
128.0800
20
122.8200
10
130.8600
20
122.4200
10
134.2800
20
122.0500
0
LWPOLYLINE
8
CONTOURS
90
47
70
0
10
189.8300
20
88.1200
10
191.0000
20
73.8600
10
168.3300
20
74.0700
10
152.1500
20
72.8700
10
168.3600
20
72.0800
10
191.0100
20
72.8600
10
191.1300
20
62.5600
10
128.5500
20
61.7800
10
128.2600
20
64.7700
10
128.0700
20
65.4900
10
127.9500
20
65.8500
10
127.5300
20
66.7100
10
127.0500
20
67.4400
10
126.6500
20
67.9100
10
126.0200
20
68.4700
10
125.6200
20
68.7400
10
125.0800
20
69.0500
10
124.5200
20
69.3000
10
123.8400
20
69.5300
10
123.0600
20
69.7400
10
121.3100
20
70.0600
10
120.6000
20
70.1700
10
123.0000
20
76.0500
10
125.6500
20
82.1000
10
130.6900
20
80.8500
10
132.9700
20
80.5800
10
133.5500
20
80.5500
10
135.2800
20
80.5200
10
136.7700
20
80.5800
10
138.8200
20
80.8000
10
139.4000
20
80.9100
10
140.3800
20
81.1600
10
141.4500
20
81.5700
10
142.1300
20
81.9300
10
142.8000
20
82.4000
10
143.4600
20
82.9500
10
144.7000
20
84.1800
10
148.4300
20
84.8200
10
149.7100
20
85.1900
10
161.7100
20
84.6500
10
165.7700
20
84.6200
10
167.2300
20
84.8200
10
168.2000
20
85.0000
10
174.3300
20
86.2700
10
178.0200
20
86.9300
10
180.8000
20
87.3300
10
184.2200
20
87.7000
0
LWPOLYLINE
8
CONTOURS
90
39
70
0
10
128.5300
20
61.7700
10
136.7100
20
60.8400
10
142.1600
20
60.3300
10
146.2500
20
60.0400
10
150.3300
20
59.8600
10
154.4100
20
59.8200
10
157.3500
20
59.8900
10
160.8500
20
60.0900
10
164.7900
20
60.4400
10
170.3100
20
61.1000
10
176.1300
20
61.9100
10
178.6500
20
52.4700
10
172.9000
20
51.1600
10
168.7500
20
50.3600
10
167.1000
20
50.0800
10
163.1200
20
49.4900
10
161.2600
20
49.2500
10
157.3900
20
48.8300
10
155.4000
20
48.6600
10
149.5100
20
48.3100
10
144.9600
20
48.2000
10
143.6100
20
48.2000
10
139.2100
20
48.2800
10
137.7200
20
48.3400
10
133.4700
20
48.5800
10
131.8300
20
48.7100
10
127.7200
20
49.1200
10
125.9600
20
49.3300
10
120.1300
20
50.1900
10
123.6400
20
52.1500
10
124.3900
20
52.8000
10
125.2500
20
53.7100
10
125.7500
20
54.3600
10
126.3600
20
55.2600
10
126.9000
20
56.2300
10
127.2600
20
57.0000
10
127.8800
20
58.6400
10
128.1100
20
59.4600
10
128.3600
20
60.6000
0
LWPOLYLINE
8
CONTOURS
90
44
70
0
10
208.9800
20
0.0000
10
209.4400
20
15.3000
10
186.8200
20
14.0300
10
170.5900
20
14.4700
10
186.7500
20
16.0200
10
209.4100
20
16.3000
10
209.0100
20
27.6000
10
145.9700
20
25.4400
10
145.9000
20
22.3300
10
145.7600
20
21.5700
10
145.6600
20
21.2000
10
145.3100
20
20.2900
10
144.8800
20
19.5200
10
144.5100
20
19.0100
10
143.8900
20
18.3600
10
143.4700
20
18.0200
10
142.7900
20
17.5900
10
142.1500
20
17.2700
10
140.9300
20
16.8100
10
139.6600
20
16.4600
10
138.4300
20
16.1900
10
140.9800
20
10.1600
10
144.2200
20
3.8300
10
149.3100
20
5.2100
10
152.0700
20
5.5900
10
154.0800
20
5.6900
10
155.8900
20
5.6400
10
158.1000
20
5.4400
10
159.7600
20
4.7300
10
160.5500
20
4.3000
10
161.2800
20
3.8000
10
162.1100
20
3.1100
10
163.3000
20
1.9800
10
167.0400
20
1.4300
10
168.5500
20
1.0700
10
170.1000
20
1.1700
10
180.7300
20
2.1600
10
184.6500
20
2.3800
10
186.1200
20
2.2600
10
187.2300
20
2.1100
10
193.4100
20
1.1300
10
197.1300
20
0.6400
10
199.9200
20
0.3700
10
203.3600
20
0.1600
0
LWPOLYLINE
8
CONTOURS
90
47
70
0
10
207.4300
20
53.1500
10
208.7800
20
38.9000
10
186.1100
20
38.8200
10
169.9500
20
37.4100
10
186.1700
20
36.8300
10
208.8000
20
37.9000
10
209.0600
20
27.6000
10
146.4900
20
26.0000
10
146.1700
20
29.0000
10
145.9700
20
29.7100
10
145.8400
20
30.0700
10
145.4100
20
30.9200
10
144.9200
20
31.6500
10
144.5100
20
32.1100
10
143.8800
20
32.6600
10
143.4700
20
32.9300
10
142.9300
20
33.2300
10
142.3600
20
33.4700
10
141.6800
20
33.7000
10
140.9000
20
33.9000
10
139.1500
20
34.2000
10
138.4300
20
34.2900
10
140.7500
20
40.2000
10
143.3300
20
46.2800
10
148.3900
20
45.1000
10
150.6700
20
44.8700
10
151.2400
20
44.8400
10
152.9800
20
44.8400
10
154.4700
20
44.9100
10
156.5100
20
45.1600
10
157.0900
20
45.2800
10
158.0700
20
45.5400
10
159.1400
20
45.9700
10
159.8100
20
46.3300
10
160.4800
20
46.8100
10
161.1200
20
47.3700
10
162.3500
20
48.6100
10
166.0700
20
49.3100
10
167.3500
20
49.6900
10
179.3600
20
49.3100
10
183.4100
20
49.3400
10
184.8700
20
49.5500
10
185.8400
20
49.7400
10
191.9500
20
51.0900
10
195.6300
20
51.8000
10
198.4100
20
52.2400
10
201.8200
20
52.6500
0
LWPOLYLINE
8
CONTOURS
90
37
70
0
10
144.1300
20
105.1100
10
152.5400
20
104.6600
10
156.1900
20
104.2900
10
161.6900
20
103.6500
10
169.3700
20
102.5700
10
181.1800
20
100.7600
10
183.3800
20
100.4800
10
183.8500
20
100.4400
10
185.1300
20
100.4100
10
186.2200
20
100.4200
10
208.0300
20
101.1800
10
208.0300
20
86.7800
10
198.9900
20
87.5000
10
193.1800
20
88.1300
10
186.3900
20
88.9800
10
185.3500
20
89.0600
10
184.3000
20
89.0800
10
183.1700
20
89.0300
10
181.2600
20
88.8300
10
171.6400
20
87.3900
10
159.4300
20
85.0200
10
156.5900
20
85.3500
10
154.1300
20
85.5300
10
152.1300
20
85.6400
10
148.9500
20
85.6400
10
147.4900
20
85.5700
10
146.7900
20
85.5000
10
144.8300
20
85.2300
10
143.6300
20
85.0100
10
140.8300
20
97.5600
10
142.5700
20
99.3000
10
142.8600
20
99.6900
10
143.1100
20
100.1100
10
143.4300
20
100.7700
10
143.7400
20
101.7100
10
143.8900
20
102.4300
10
144.0500
20
103.6500
0
LWPOLYLINE
8
CONTOURS
90
45
70
0
10
205.3700
20
101.6700
10
206.0100
20
116.4700
10
183.3700
20
115.4500
10
167.1500
20
116.0700
10
183.3300
20
117.4400
10
205.9900
20
117.4700
10
205.7300
20
128.2700
10
143.4100
20
126.8300
10
143.2700
20
123.7700
10
143.1200
20
123.0300
10
143.0100
20
122.6700
10
142.6400
20
121.7800
10
142.1800
20
121.0200
10
141.8000
20
120.5300
10
141.1900
20
119.9100
10
140.7500
20
119.5800
10
140.0600
20
119.1700
10
139.4100
20
118.8700
10
138.2500
20
118.4700
10
136.9200
20
118.1400
10
135.7700
20
117.9100
10
138.3100
20
111.9900
10
141.3300
20
105.8300
10
146.2900
20
107.1800
10
146.6400
20
107.2500
10
148.9800
20
107.5700
10
150.9400
20
107.6700
10
152.7000
20
107.6300
10
154.8600
20
107.4400
10
156.4800
20
106.7500
10
157.2400
20
106.3300
10
157.9500
20
105.8400
10
158.7600
20
105.1800
10
159.9100
20
104.0900
10
163.6600
20
103.5300
10
165.0600
20
103.1800
10
166.4900
20
103.2700
10
177.1400
20
104.1400
10
181.0500
20
104.3200
10
182.5200
20
104.1900
10
183.6300
20
104.0300
10
189.8100
20
102.9700
10
193.5200
20
102.4400
10
196.3100
20
102.1400
10
199.7400
20
101.8900
0
LWPOLYLINE
8
CONTOURS
90
37
70
0
10
144.2900
20
126.8800
10
152.8300
20
127.3300
10
156.5400
20
127.7000
10
162.1200
20
128.3600
10
169.9300
20
129.4400
10
181.9200
20
131.2600
10
184.1500
20
131.5500
10
184.6400
20
131.5900
10
185.9100
20
131.6200
10
187.0500
20
131.6100
10
209.1900
20
130.8200
10
209.1900
20
146.2100
10
200.1500
20
145.5000
10
194.3400
20
144.8700
10
187.5600
20
144.0200
10
186.5100
20
143.9300
10
185.4700
20
143.9200
10
184.3400
20
143.9700
10
182.4200
20
144.1600
10
172.8000
20
145.6100
10
160.5900
20
147.9800
10
157.7500
20
147.6400
10
155.1200
20
147.4400
10
152.9400
20
147.3200
10
149.5200
20
147.3200
10
147.9500
20
147.3900
10
147.1900
20
147.4600
10
145.0900
20
147.7600
10
143.7900
20
147.9800
10
140.9900
20
134.9300
10
142.7900
20
133.0500
10
143.0800
20
132.6300
10
143.3400
20
132.1900
10
143.6500
20
131.4800
10
143.9600
20
130.4900
10
144.1100
20
129.7200
10
144.2400
20
128.4300
0
LWPOLYLINE
8
CONTOURS
90
47
70
0
10
261.3000
20
92.9300
10
262.2800
20
78.6500
10
239.6200
20
79.1400
10
223.4200
20
78.1400
10
239.6300
20
77.1500
10
262.2800
20
77.6500
10
262.2700
20
67.3500
10
199.6900
20
67.3500
10
199.4400
20
70.3500
10
199.2600
20
71.0700
10
199.1400
20
71.4200
10
198.7300
20
72.2900
10
198.2600
20
73.0300
10
197.8600
20
73.5000
10
197.2400
20
74.0600
10
196.8500
20
74.3500
10
196.3100
20
74.6600
10
195.7500
20
74.9200
10
195.0700
20
75.1600
10
194.3000
20
75.3800
10
192.5600
20
75.7200
10
191.8400
20
75.8300
10
194.3100
20
81.6900
10
197.0400
20
87.7000
10
202.0700
20
86.3900
10
204.3400
20
86.0900
10
204.9200
20
86.0500
10
206.6600
20
86.0100
10
208.1400
20
86.0500
10
210.1900
20
86.2400
10
210.7700
20
86.3400
10
211.7600
20
86.5800
10
212.8400
20
86.9800
10
213.5100
20
87.3300
10
214.2000
20
87.7900
10
214.8600
20
88.3300
10
216.1100
20
89.5400
10
219.8500
20
90.1400
10
221.1400
20
90.4900
10
233.1300
20
89.8000
10
237.1900
20
89.7300
10
238.6500
20
89.9000
10
239.6200
20
90.0700
10
245.7700
20
91.2600
10
249.4700
20
91.8800
10
252.2500
20
92.2500
10
255.6800
20
92.5700
0
LWPOLYLINE
8
CONTOURS
90
39
70
0
10
192.6500
20
67.2000
10
200.8300
20
66.2700
10
206.2800
20
65.7600
10
210.3700
20
65.4700
10
214.4500
20
65.2900
10
218.5300
20
65.2500
10
221.4700
20
65.3200
10
224.9700
20
65.5200
10
228.9100
20
65.8700
10
234.4300
20
66.5300
10
240.2500
20
67.3400
10
242.7700
20
58.8900
10
237.0200
20
57.5800
10
232.8700
20
56.7900
10
231.2200
20
56.5100
10
227.2400
20
55.9200
10
225.3800
20
55.6800
10
221.5000
20
55.2600
10
219.5100
20
55.0900
10
213.6300
20
54.7400
10
209.0800
20
54.6300
10
207.7300
20
54.6300
10
203.3300
20
54.7100
10
201.8300
20
54.7600
10
197.5900
20
55.0100
10
195.9500
20
55.1400
10
191.8400
20
55.5400
10
190.0800
20
55.7600
10
184.2500
20
56.6200
10
187.6900
20
58.3800
10
188.4100
20
58.9600
10
189.2500
20
59.7800
10
189.7500
20
60.3700
10
190.3500
20
61.1900
10
190.9000
20
62.0700
10
191.2700
20
62.7800
10
191.9100
20
64.2900
10
192.1600
20
65.0500
10
192.4500
20
66.1100
0
LWPOLYLINE
8
CONTOURS
90
42
70
0
10
220.9900
20
114.3100
10
218.9800
20
112.6900
10
218.0600
20
112.0300
10
213.6000
20
109.0000
10
212.3400
20
108.0600
10
211.2000
20
107.0800
10
210.2200
20
106.0800
10
209.4000
20
105.0200
10
208.8200
20
104.0100
10
208.5300
20
103.3300
10
208.4000
20
102.9400
10
208.2200
20
102.2200
10
208.0500
20
100.9900
10
208.0400
20
99.4700
10
208.1100
20
98.6800
10
208.2900
20
97.6400
10
208.4800
20
96.8900
10
208.8500
20
95.8000
10
209.0700
20
95.2800
10
209.5000
20
94.4200
10
210.0000
20
93.5800
10
210.4600
20
92.9200
10
211.0500
20
92.2300
10
211.8300
20
91.4600
10
213.0400
20
90.4400
10
218.8600
20
90.9700
10
224.6800
20
91.5900
10
230.4800
20
92.2900
10
236.2800
20
93.0900
10
242.0600
20
93.9700
10
247.8300
20
94.9300
10
253.5800
20
95.9900
10
259.3100
20
97.1300
10
265.0300
20
98.3500
10
270.7300
20
99.6600
10
268.0200
20
114.9800
10
255.9800
20
113.2700
10
249.5000
20
112.6500
10
243.8600
20
112.4000
10
238.4500
20
112.4300
10
233.0500
20
112.7400
10
230.8200
20
112.9500
0
LWPOLYLINE
8
CONTOURS
90
44
70
0
10
271.7000
20
138.2000
10
273.0100
20
125.4500
10
250.3500
20
125.3700
10
234.1800
20
123.9600
10
250.4000
20
123.3800
10
273.0400
20
124.4500
10
273.2500
20
115.6500
10
213.9400
20
114.1400
10
213.5000
20
116.9800
10
213.2800
20
117.6500
10
213.1400
20
117.9800
10
212.6800
20
118.8000
10
212.1600
20
119.4700
10
211.7400
20
119.9000
10
211.1600
20
120.3600
10
210.7600
20
120.6000
10
210.2100
20
120.8700
10
209.5600
20
121.1100
10
208.8800
20
121.2900
10
207.8300
20
121.4800
10
205.9000
20
121.6700
10
208.4600
20
127.2000
10
210.6000
20
132.6500
10
215.0500
20
131.3700
10
217.1000
20
131.0300
10
219.5700
20
130.8700
10
220.8000
20
130.8900
10
222.7500
20
131.0400
10
224.3100
20
131.6900
10
224.9800
20
132.0600
10
225.6000
20
132.5000
10
226.2000
20
132.9800
10
227.2300
20
133.9300
10
230.9700
20
134.4800
10
231.9400
20
134.7800
10
232.9600
20
134.7100
10
243.6300
20
134.3600
10
247.5100
20
134.3700
10
248.0200
20
134.4300
10
249.9300
20
134.7600
10
256.2200
20
136.1400
10
259.9100
20
136.8500
10
262.6800
20
137.2900
10
266.0900
20
137.7100
0
LWPOLYLINE
8
CONTOURS
90
39
70
0
10
217.6100
20
147.8400
10
225.7900
20
146.9200
10
231.2400
20
146.4000
10
235.3300
20
146.1100
10
239.4100
20
145.9300
10
243.4900
20
145.8900
10
246.4300
20
145.9600
10
249.9300
20
146.1600
10
253.8700
20
146.5200
10
259.3900
20
147.1700
10
265.2100
20
147.9800
10
267.7300
20
139.0400
10
261.9800
20
137.7300
10
257.8200
20
136.9300
10
256.1800
20
136.6600
10
252.2000
20
136.0600
10
250.3400
20
135.8200
10
246.4600
20
135.4000
10
244.4700
20
135.2300
10
238.5800
20
134.8800
10
234.0300
20
134.7800
10
232.6900
20
134.7700
10
228.2800
20
134.8500
10
226.7900
20
134.9100
10
222.5500
20
135.1600
10
220.9000
20
135.2800
10
216.8000
20
135.6900
10
215.0400
20
135.9000
10
209.2000
20
136.7600
10
212.6800
20
138.6300
10
213.4200
20
139.2400
10
214.2700
20
140.1000
10
214.7700
20
140.7200
10
215.3700
20
141.5800
10
215.9100
20
142.5100
10
216.2800
20
143.2400
10
216.9100
20
144.8200
10
217.1500
20
145.6100
10
217.4200
20
146.7200
0
LWPOLYLINE
8
CONTOURS
90
33
70
0
10
258.2600
20
0.0000
10
253.8000
20
0.1800
10
250.4600
20
0.4300
10
249.2700
20
0.5700
10
246.4900
20
0.9900
10
237.1400
20
2.8300
10
234.5300
20
3.2200
10
231.9300
20
3.4900
10
229.0600
20
3.6400
10
225.6100
20
3.6900
10
219.4500
20
3.5600
10
215.6600
20
3.5900
10
216.2300
20
5.2600
10
216.3300
20
5.8700
10
216.3600
20
6.4400
10
216.3000
20
7.2500
10
216.1600
20
7.8900
10
215.9700
20
8.4700
10
215.5600
20
9.3400
10
215.1700
20
9.9400
10
214.4900
20
10.7800
10
213.8500
20
11.4100
10
213.0700
20
12.0300
10
212.0800
20
12.6800
10
211.4000
20
13.0800
10
209.4200
20
14.0700
10
231.6100
20
12.3900
10
234.0500
20
12.1700
10
235.5800
20
12.1600
10
236.6300
20
12.2500
10
245.5000
20
13.3300
10
249.2200
20
13.7100
10
258.2600
20
14.4100
0
LWPOLYLINE
8
CONTOURS
90
33
70
0
10
258.2900
20
28.3400
10
253.8200
20
28.1600
10
250.4800
20
27.9100
10
249.2900
20
27.7700
10
246.5100
20
27.3500
10
237.1600
20
25.5100
10
234.5500
20
25.1100
10
231.9500
20
24.8500
10
229.0800
20
24.6900
10
225.6300
20
24.6500
10
219.4700
20
24.7800
10
215.6800
20
24.7400
10
216.2400
20
23.2300
10
216.3600
20
22.5400
10
216.3700
20
21.8900
10
216.2800
20
21.1800
10
216.1200
20
20.5700
10
215.8900
20
20.0000
10
215.4300
20
19.1400
10
215.0200
20
18.5600
10
214.5500
20
18.0000
10
213.8300
20
17.3100
10
213.1500
20
16.7700
10
212.1900
20
16.1500
10
211.1800
20
15.6000
10
209.4400
20
14.7700
10
231.6300
20
16.4500
10
234.0700
20
16.6700
10
235.6000
20
16.6800
10
236.6500
20
16.5900
10
245.5300
20
15.5100
10
249.2400
20
15.1300
10
258.2800
20
14.4200
0
LWPOLYLINE
8
CONTOURS
90
33
70
0
10
257.3500
20
28.3800
10
252.8800
20
28.5600
10
249.5400
20
28.8200
10
248.3500
20
28.9500
10
245.5700
20
29.3800
10
236.2200
20
31.2100
10
233.6100
20
31.6100
10
231.0100
20
31.8700
10
228.1500
20
32.0300
10
224.6900
20
32.0800
10
218.5300
20
31.9500
10
214.7400
20
31.9800
10
215.3000
20
33.4900
10
215.4200
20
34.1800
10
215.4300
20
34.8300
10
215.3400
20
35.5400
10
215.1800
20
36.1500
10
214.9500
20
36.7200
10
214.4900
20
37.5800
10
214.0800
20
38.1600
10
213.6100
20
38.7200
10
212.8900
20
39.4100
10
212.2100
20
39.9500
10
211.2500
20
40.5800
10
210.2400
20
41.1200
10
208.5000
20
41.9500
10
230.6900
20
40.2700
10
233.1300
20
40.0500
10
234.6600
20
40.0500
10
235.7100
20
40.1300
10
244.5900
20
41.2100
10
248.3000
20
41.5900
10
257.3400
20
42.3000
0
LWPOLYLINE
8
CONTOURS
90
33
70
0
10
257.2800
20
56.7300
10
252.8100
20
56.5500
10
249.4700
20
56.3000
10
248.2900
20
56.1600
10
245.5000
20
55.7400
10
236.1500
20
53.9000
10
233.5500
20
53.5000
10
230.9400
20
53.2400
10
228.0800
20
53.0800
10
224.6200
20
53.0400
10
218.4600
20
53.1700
10
214.6700
20
53.1300
10
215.2500
20
51.4700
10
215.3500
20
50.8600
10
215.3700
20
50.2800
10
215.3100
20
49.4700
10
215.1800
20
48.8400
10
214.9900
20
48.2600
10
214.5700
20
47.3900
10
214.1900
20
46.7900
10
213.5000
20
45.9500
10
212.8600
20
45.3200
10
212.0800
20
44.6900
10
211.1000
20
44.0400
10
210.4100
20
43.6500
10
208.4300
20
42.6600
10
230.6200
20
44.3400
10
233.0600
20
44.5600
10
234.5900
20
44.5700
10
235.6400
20
44.4800
10
244.5200
20
43.4000
10
248.2300
20
43.0200
10
257.2800
20
42.3100
0
LWPOLYLINE
8
CONTOURS
90
33
70
0
10
291.5100
20
70.9000
10
287.0400
20
70.7300
10
283.7000
20
70.4700
10
282.5200
20
70.3400
10
279.7300
20
69.9100
10
270.3800
20
68.0800
10
267.7800
20
67.6800
10
265.1700
20
67.4100
10
262.3100
20
67.2600
10
258.8500
20
67.2100
10
252.7000
20
67.3400
10
248.9100
20
67.3100
10
249.4400
20
66.2100
10
249.5800
20
65.6700
10
249.6000
20
65.1100
10
249.4700
20
64.5400
10
249.1200
20
63.6700
10
248.7800
20
63.0600
10
248.3900
20
62.4800
10
247.9400
20
61.9400
10
247.4600
20
61.4500
10
246.9500
20
61.0200
10
246.0800
20
60.4100
10
245.1800
20
59.9100
10
243.9200
20
59.3400
10
242.6600
20
58.8400
10
264.8500
20
60.5100
10
267.2900
20
60.7400
10
268.8200
20
60.7400
10
269.8800
20
60.6600
10
278.7500
20
59.5800
10
282.4600
20
59.2000
10
291.5100
20
58.4900
0
LWPOLYLINE
8
CONTOURS
90
40
70
0
10
266.7000
20
0.1400
10
274.8800
20
1.0600
10
280.3300
20
1.5800
10
284.4200
20
1.8700
10
288.5000
20
2.0500
10
292.5800
20
2.0900
10
295.5200
20
2.0200
10
299.0200
20
1.8200
10
302.9600
20
1.4600
10
308.4800
20
0.8100
10
314.3000
20
0.0000
10
316.8200
20
10.4400
10
311.0700
20
11.7500
10
306.9100
20
12.5500
10
305.2700
20
12.8200
10
301.2900
20
13.4200
10
299.4300
20
13.6600
10
295.5500
20
14.0800
10
293.5600
20
14.2500
10
287.6700
20
14.6000
10
283.1200
20
14.7000
10
281.7800
20
14.7100
10
277.3700
20
14.6300
10
275.8800
20
14.5700
10
271.6400
20
14.3200
10
270.0000
20
14.2000
10
265.8900
20
13.7900
10
264.1300
20
13.5800
10
258.3000
20
12.7200
10
261.8800
20
10.5600
10
262.2700
20
10.2300
10
262.6500
20
9.8400
10
263.5300
20
8.8400
10
264.0400
20
8.1300
10
264.6500
20
7.1500
10
265.1800
20
6.1000
10
265.5400
20
5.2700
10
266.1300
20
3.4900
10
266.3400
20
2.6200
10
266.5600
20
1.3900
0
LWPOLYLINE
8
CONTOURS
90
44
70
0
10
324.1000
20
11.2500
10
325.4100
20
24.0000
10
302.7500
20
24.0800
10
286.5800
20
25.4900
10
302.8000
20
26.0700
10
325.4400
20
25.0000
10
325.6500
20
33.8000
10
266.3400
20
35.3100
10
265.9000
20
32.4800
10
265.6700
20
31.8000
10
265.5400
20
31.4700
10
265.0800
20
30.6600
10
264.5600
20
29.9800
10
264.1400
20
29.5500
10
263.5600
20
29.0900
10
263.1600
20
28.8500
10
262.6100
20
28.5800
10
261.9600
20
28.3500
10
261.2800
20
28.1600
10
260.2300
20
27.9700
10
258.3000
20
27.7800
10
260.8500
20
22.2500
10
263.0000
20
16.8100
10
267.4400
20
18.0800
10
269.5000
20
18.4200
10
271.9700
20
18.5800
10
273.2000
20
18.5600
10
275.1500
20
18.4200
10
276.7100
20
17.7600
10
277.3800
20
17.3900
10
278.0000
20
16.9600
10
278.6000
20
16.4700
10
279.6200
20
15.5200
10
283.3700
20
14.9700
10
284.3400
20
14.6800
10
285.3500
20
14.7400
10
296.0300
20
15.0900
10
299.9100
20
15.0800
10
300.4200
20
15.0300
10
302.3300
20
14.7000
10
308.6200
20
13.3100
10
312.3100
20
12.6000
10
315.0800
20
12.1600
10
318.4900
20
11.7500
0
LWPOLYLINE
8
CONTOURS
90
47
70
0
10
328.1300
20
33.7000
10
328.7800
20
48.0000
10
306.1400
20
46.9800
10
289.9200
20
47.6100
10
306.1000
20
48.9700
10
328.7600
20
49.0000
10
328.5100
20
59.3000
10
265.9500
20
57.8600
10
265.7700
20
54.8500
10
265.6000
20
54.1300
10
265.4900
20
53.7700
10
265.1100
20
52.8900
10
264.6500
20
52.1500
10
264.2600
20
51.6600
10
263.6600
20
51.0800
10
263.2700
20
50.7900
10
262.7400
20
50.4700
10
262.1800
20
50.2000
10
261.5100
20
49.9400
10
260.7400
20
49.7000
10
259.0100
20
49.3200
10
258.3000
20
49.1900
10
260.9000
20
43.4000
10
263.7700
20
37.4500
10
268.7600
20
38.8700
10
271.0300
20
39.2200
10
271.6100
20
39.2700
10
273.3400
20
39.3600
10
274.8300
20
39.3600
10
276.8800
20
39.2100
10
277.4700
20
39.1200
10
278.4600
20
38.9000
10
279.5500
20
38.5300
10
280.2300
20
38.2000
10
280.9300
20
37.7500
10
281.6000
20
37.2200
10
282.8800
20
36.0400
10
286.6300
20
35.5300
10
287.9200
20
35.2100
10
299.9000
20
36.1800
10
303.9600
20
36.3500
10
305.4200
20
36.2000
10
306.4000
20
36.0600
10
312.5700
20
35.0100
10
316.2800
20
34.4800
10
319.0700
20
34.1700
10
322.5000
20
33.9300
0
LWPOLYLINE
8
CONTOURS
90
47
70
0
10
339.3600
20
65.2800
10
340.3400
20
79.5600
10
317.6900
20
79.0600
10
301.4900
20
80.0600
10
317.6900
20
81.0500
10
340.3400
20
80.5600
10
340.3300
20
90.8600
10
277.7500
20
90.8600
10
277.5000
20
87.8600
10
277.3200
20
87.1400
10
277.2000
20
86.7800
10
276.8000
20
85.9100
10
276.3200
20
85.1800
10
275.9200
20
84.7100
10
275.3100
20
84.1400
10
274.9100
20
83.8600
10
274.3700
20
83.5500
10
273.8100
20
83.2900
10
273.1400
20
83.0400
10
272.3600
20
82.8300
10
270.6200
20
82.4800
10
269.9000
20
82.3700
10
272.3800
20
76.5200
10
275.1000
20
70.5100
10
280.1300
20
71.8200
10
282.4100
20
72.1100
10
282.9800
20
72.1500
10
284.7200
20
72.2000
10
286.2000
20
72.1600
10
288.2600
20
71.9600
10
288.8400
20
71.8600
10
289.8300
20
71.6200
10
290.9000
20
71.2300
10
291.5800
20
70.8800
10
292.2600
20
70.4200
10
292.9200
20
69.8700
10
294.1700
20
68.6600
10
297.9100
20
68.0600
10
299.2000
20
67.7100
10
311.2000
20
68.4000
10
315.2500
20
68.4800
10
316.7200
20
68.3000
10
317.6900
20
68.1400
10
323.8300
20
66.9400
10
327.5300
20
66.3300
10
330.3200
20
65.9600
10
333.7400
20
65.6300
0
LWPOLYLINE
8
CONTOURS
90
47
70
0
10
340.3000
20
116.4500
10
341.1200
20
102.1600
10
318.4700
20
102.9200
10
302.2600
20
102.1100
10
318.4500
20
100.9300
10
341.1100
20
101.1600
10
340.9800
20
90.8600
10
278.4000
20
91.6000
10
278.1800
20
94.6000
10
278.0100
20
95.3200
10
277.8900
20
95.6800
10
277.5000
20
96.5500
10
277.0300
20
97.2900
10
276.6400
20
97.7700
10
276.0300
20
98.3400
10
275.6400
20
98.6300
10
275.1100
20
98.9500
10
274.5500
20
99.2100
10
273.8800
20
99.4600
10
273.1000
20
99.6900
10
271.3700
20
100.0500
10
270.6500
20
100.1700
10
273.1900
20
106.0000
10
275.9900
20
111.9800
10
281.0000
20
110.6100
10
283.2700
20
110.2900
10
283.8500
20
110.2400
10
285.5900
20
110.1700
10
287.0700
20
110.1900
10
289.1200
20
110.3700
10
289.7100
20
110.4600
10
290.7000
20
110.6900
10
291.7800
20
111.0700
10
292.4600
20
111.4100
10
293.1500
20
111.8700
10
293.8100
20
112.4000
10
295.0800
20
113.6000
10
298.8300
20
114.1500
10
300.1200
20
114.4900
10
312.1100
20
113.6500
10
316.1600
20
113.5300
10
317.6300
20
113.6900
10
318.6000
20
113.8500
10
324.7600
20
114.9700
10
328.4600
20
115.5400
10
331.2500
20
115.8700
10
334.6800
20
116.1600
0
LWPOLYLINE
8
CONTOURS
90
37
70
0
10
276.4500
20
112.5000
10
284.9200
20
112.9600
10
288.6000
20
113.3200
10
294.1400
20
113.9800
10
301.8900
20
115.0600
10
313.7900
20
116.8700
10
316.0000
20
117.1600
10
316.4900
20
117.1900
10
317.7600
20
117.2300
10
318.8700
20
117.2200
10
340.8500
20
116.4400
10
340.8500
20
131.3300
10
331.8100
20
130.6200
10
326.0000
20
129.9900
10
319.2200
20
129.1400
10
318.1700
20
129.0600
10
317.1200
20
129.0400
10
315.9900
20
129.0900
10
314.0800
20
129.2900
10
304.4600
20
130.7300
10
292.2500
20
133.1000
10
289.4100
20
132.7700
10
286.8700
20
132.5800
10
284.7700
20
132.4600
10
281.4800
20
132.4600
10
279.9600
20
132.5300
10
279.2300
20
132.6000
10
277.2000
20
132.8900
10
275.9500
20
133.1000
10
273.1500
20
120.3000
10
274.9200
20
118.5000
10
275.2100
20
118.0900
10
275.4700
20
117.6600
10
275.7800
20
116.9800
10
276.0900
20
116.0100
10
276.2400
20
115.2700
10
276.3800
20
114.0100
0
LWPOLYLINE
8
CONTOURS
90
40
70
0
10
274.1800
20
132.9100
10
282.3600
20
133.8400
10
287.8100
20
134.3500
10
291.9000
20
134.6400
10
295.9800
20
134.8200
10
300.0600
20
134.8600
10
303.0000
20
134.7900
10
306.5000
20
134.5900
10
310.4400
20
134.2400
10
315.9600
20
133.5800
10
321.7800
20
132.7700
10
324.3000
20
143.7200
10
318.5500
20
145.0300
10
314.3900
20
145.8200
10
312.7500
20
146.1000
10
308.7700
20
146.6900
10
306.9100
20
146.9300
10
303.0300
20
147.3500
10
301.0400
20
147.5200
10
295.1500
20
147.8700
10
290.6000
20
147.9800
10
289.2600
20
147.9800
10
284.8500
20
147.9000
10
283.3600
20
147.8500
10
279.1200
20
147.6000
10
277.4800
20
147.4700
10
273.3700
20
147.0700
10
271.6100
20
146.8500
10
265.7800
20
145.9900
10
269.4000
20
143.7400
10
269.8000
20
143.3800
10
270.1800
20
142.9800
10
271.0600
20
141.9300
10
271.5800
20
141.1900
10
272.1900
20
140.1700
10
272.7200
20
139.0800
10
273.0700
20
138.2200
10
273.6500
20
136.3800
10
273.8500
20
135.4700
10
274.0600
20
134.2000
0
LWPOLYLINE
8
CONTOURS
90
40
70
0
10
330.7600
20
147.8400
10
338.9400
20
146.9200
10
344.3900
20
146.4000
10
348.4800
20
146.1100
10
352.5600
20
145.9300
10
356.6400
20
145.8900
10
359.5800
20
145.9600
10
363.0800
20
146.1600
10
367.0200
20
146.5200
10
372.5400
20
147.1700
10
378.3600
20
147.9800
10
380.8800
20
137.5400
10
375.1300
20
136.2300
10
370.9800
20
135.4300
10
369.3300
20
135.1600
10
365.3600
20
134.5600
10
363.4900
20
134.3200
10
359.6200
20
133.9000
10
357.6300
20
133.7300
10
351.7400
20
133.3800
10
347.1900
20
133.2800
10
345.8400
20
133.2700
10
341.4400
20
133.3500
10
339.9500
20
133.4100
10
335.7000
20
133.6600
10
334.0600
20
133.7800
10
329.9500
20
134.1900
10
328.1900
20
134.4000
10
322.3600
20
135.2600
10
325.9500
20
137.4200
10
326.3400
20
137.7500
10
326.7200
20
138.1400
10
327.5900
20
139.1400
10
328.1000
20
139.8500
10
328.7100
20
140.8300
10
329.2500
20
141.8800
10
329.6000
20
142.7100
10
330.1900
20
144.4900
10
330.4000
20
145.3600
10
330.6300
20
146.5900
0
LWPOLYLINE
8
CONTOURS
90
47
70
0
10
393.4300
20
25.6000
10
394.0900
20
11.3000
10
371.4500
20
12.3200
10
355.2300
20
11.6900
10
371.4000
20
10.3200
10
394.0600
20
10.3000
10
393.8200
20
0.0000
10
331.2500
20
1.4400
10
331.0700
20
4.4500
10
330.9000
20
5.1700
10
330.7900
20
5.5300
10
330.4100
20
6.4100
10
329.9500
20
7.1500
10
329.5700
20
7.6300
10
328.9600
20
8.2100
10
328.5700
20
8.5100
10
328.0400
20
8.8300
10
327.4900
20
9.1000
10
326.8200
20
9.3600
10
326.0500
20
9.6000
10
324.3100
20
9.9800
10
323.6000
20
10.1100
10
326.2100
20
15.9000
10
329.0700
20
21.8500
10
334.0700
20
20.4300
10
336.3400
20
20.0800
10
336.9100
20
20.0200
10
338.6500
20
19.9400
10
340.1300
20
19.9400
10
342.1900
20
20.0900
10
342.7700
20
20.1800
10
343.7700
20
20.3900
10
344.8500
20
20.7700
10
345.5300
20
21.1000
10
346.2300
20
21.5500
10
346.9000
20
22.0700
10
348.1800
20
23.2500
10
351.9300
20
23.7700
10
353.2300
20
24.0900
10
365.2100
20
23.1200
10
369.2600
20
22.9500
10
370.7200
20
23.1000
10
371.7000
20
23.2400
10
377.8700
20
24.2900
10
381.5800
20
24.8200
10
384.3700
20
25.1200
10
387.8000
20
25.3700
0
LWPOLYLINE
8
CONTOURS
90
44
70
0
10
394.4800
20
49.2000
10
395.6300
20
35.9400
10
372.9700
20
36.1500
10
356.7800
20
34.9500
10
372.9900
20
34.1600
10
395.6400
20
34.9400
10
395.7500
20
25.6400
10
335.6700
20
24.8900
10
335.3000
20
27.7800
10
335.1000
20
28.4700
10
334.9600
20
28.8100
10
334.5300
20
29.6500
10
334.0300
20
30.3500
10
333.6200
20
30.7900
10
333.0200
20
31.2900
10
332.5800
20
31.5800
10
332.0300
20
31.8500
10
331.4600
20
32.0800
10
330.7800
20
32.2900
10
329.7300
20
32.5100
10
327.7200
20
32.7800
10
330.2700
20
38.4000
10
332.6300
20
44.0300
10
337.2100
20
42.7300
10
339.3200
20
42.3900
10
341.8600
20
42.2400
10
343.1300
20
42.2600
10
344.4000
20
42.3500
10
345.1300
20
42.4200
10
346.6000
20
43.0300
10
347.2600
20
43.3800
10
347.9500
20
43.8400
10
348.6900
20
44.4400
10
349.7400
20
45.4300
10
353.4900
20
45.9800
10
354.5700
20
46.2900
10
366.3600
20
45.7300
10
370.2400
20
45.6900
10
370.7500
20
45.7400
10
372.6700
20
46.0400
10
378.9700
20
47.3500
10
382.6600
20
48.0100
10
385.4400
20
48.4100
10
388.8600
20
48.7800
0
LWPOLYLINE
8
CONTOURS
90
41
70
0
10
342.1100
20
67.4100
10
340.1300
20
65.8300
10
339.2200
20
65.1800
10
334.7700
20
62.1900
10
333.1300
20
60.9400
10
332.0600
20
59.9600
10
331.1500
20
58.9500
10
330.6400
20
58.2400
10
330.4100
20
57.8800
10
330.0700
20
57.2300
10
329.8000
20
56.5600
10
329.5500
20
55.6300
10
329.3800
20
54.4300
10
329.3600
20
53.0100
10
329.4200
20
52.1600
10
329.5800
20
51.1300
10
329.9400
20
49.8300
10
330.3400
20
48.7900
10
330.7300
20
47.9700
10
331.2400
20
47.1000
10
331.7000
20
46.4400
10
332.3900
20
45.6300
10
333.0500
20
44.9900
10
334.1600
20
44.0400
10
339.9900
20
44.5700
10
345.8000
20
45.1800
10
351.6100
20
45.8900
10
357.4000
20
46.6800
10
363.1800
20
47.5600
10
368.9500
20
48.5300
10
374.7000
20
49.5800
10
380.4300
20
50.7200
10
386.1500
20
51.9500
10
391.8500
20
53.2600
10
389.1500
20
68.0700
10
377.1000
20
66.3600
10
370.6200
20
65.7400
10
364.9800
20
65.4900
10
359.5700
20
65.5200
10
354.1700
20
65.8300
10
351.9400
20
66.0400
0
LWPOLYLINE
8
CONTOURS
90
47
70
0
10
410.2700
20
92.9500
10
410.7600
20
78.6500
10
388.1300
20
79.9200
10
371.9100
20
79.4800
10
388.0700
20
77.9300
10
410.7300
20
77.6500
10
410.3600
20
67.3500
10
347.8200
20
69.5000
10
347.6700
20
72.5100
10
347.5100
20
73.2300
10
347.4000
20
73.5900
10
347.0300
20
74.4800
10
346.5800
20
75.2300
10
346.2000
20
75.7100
10
345.6100
20
76.3000
10
345.2200
20
76.6000
10
344.6900
20
76.9200
10
344.1400
20
77.2000
10
343.4700
20
77.4700
10
342.7100
20
77.7100
10
340.9800
20
78.1100
10
340.2600
20
78.2500
10
342.9400
20
84.0200
10
345.8700
20
89.9300
10
350.8500
20
88.4500
10
353.1100
20
88.0800
10
353.6800
20
88.0200
10
355.4200
20
87.9100
10
356.9100
20
87.9000
10
358.9600
20
88.0200
10
359.5500
20
88.1000
10
360.5400
20
88.3100
10
361.6300
20
88.6700
10
362.3200
20
89.0000
10
363.0200
20
89.4300
10
363.7000
20
89.9500
10
364.9900
20
91.1200
10
368.7500
20
91.5900
10
370.0500
20
91.9000
10
382.0100
20
90.8000
10
386.0700
20
90.5800
10
387.5300
20
90.7100
10
388.5100
20
90.8400
10
394.6900
20
91.8200
10
398.4100
20
92.3100
10
401.2000
20
92.5800
10
404.6400
20
92.7900
0
LWPOLYLINE
8
CONTOURS
90
36
70
0
10
344.3500
20
110.7200
10
352.6900
20
110.2700
10
356.3200
20
109.9000
10
361.7700
20
109.2600
10
369.4000
20
108.1900
10
381.1100
20
106.3900
10
383.2900
20
106.1000
10
383.7600
20
106.0700
10
385.0300
20
106.0300
10
386.1100
20
106.0400
10
407.7500
20
106.7900
10
407.7500
20
92.8900
10
398.7100
20
93.6100
10
392.9000
20
94.2400
10
386.1100
20
95.0800
10
385.0700
20
95.1700
10
384.0200
20
95.1900
10
382.8900
20
95.1400
10
380.9800
20
94.9400
10
371.3600
20
93.5000
10
359.1500
20
91.1300
10
356.3100
20
91.4600
10
353.9300
20
91.6300
10
352.0300
20
91.7400
10
348.9700
20
91.7300
10
347.5700
20
91.6600
10
346.8900
20
91.6000
10
345.0100
20
91.3300
10
343.8500
20
91.1200
10
341.0500
20
103.4200
10
342.7700
20
105.0900
10
343.3000
20
105.8700
10
343.6100
20
106.5100
10
343.9300
20
107.4200
10
344.0900
20
108.1100
10
344.2500
20
109.3000
0
LWPOLYLINE
8
CONTOURS
90
45
70
0
10
409.5100
20
106.7100
10
410.3300
20
121.0000
10
387.6800
20
120.2300
10
371.4600
20
121.0400
10
387.6500
20
122.2300
10
410.3100
20
122.0000
10
410.1800
20
132.3000
10
348.6000
20
131.5700
10
348.3900
20
128.5700
10
348.2200
20
127.8500
10
348.1000
20
127.4900
10
347.7100
20
126.6200
10
347.2400
20
125.8800
10
346.8500
20
125.4000
10
346.2400
20
124.8300
10
345.8400
20
124.5400
10
345.3100
20
124.2200
10
344.7500
20
123.9600
10
344.0800
20
123.7000
10
343.3100
20
123.4800
10
341.5700
20
123.1100
10
340.8600
20
122.9900
10
343.4000
20
117.1700
10
346.1900
20
111.1900
10
351.0300
20
112.5200
10
351.3700
20
112.5900
10
353.6400
20
112.9100
10
355.5600
20
113.0100
10
357.2800
20
112.9700
10
359.3800
20
112.8000
10
360.9500
20
112.1300
10
361.6900
20
111.7300
10
362.3800
20
111.2600
10
363.1700
20
110.6100
10
364.2900
20
109.5600
10
368.0300
20
109.0000
10
369.3300
20
108.6700
10
381.3100
20
109.5000
10
385.2200
20
109.6300
10
386.6800
20
109.4900
10
387.8000
20
109.3100
10
393.9600
20
108.1900
10
397.6700
20
107.6200
10
400.4600
20
107.2800
10
403.8900
20
107.0000
0
LWPOLYLINE
8
CONTOURS
90
39
70
0
10
387.2600
20
135.4100
10
395.4300
20
136.3400
10
400.8800
20
136.8500
10
404.9700
20
137.1400
10
409.0500
20
137.3200
10
413.1400
20
137.3600
10
416.0700
20
137.2900
10
419.5800
20
137.0900
10
423.5100
20
136.7400
10
429.0300
20
136.0800
10
434.8500
20
135.2700
10
437.3700
20
143.7200
10
431.6200
20
145.0300
10
427.4700
20
145.8200
10
425.8200
20
146.1000
10
421.8500
20
146.6900
10
419.9800
20
146.9300
10
416.1100
20
147.3500
10
414.1200
20
147.5200
10
408.2300
20
147.8700
10
403.6800
20
147.9800
10
402.3300
20
147.9800
10
397.9300
20
147.9000
10
396.4400
20
147.8500
10
392.1900
20
147.6000
10
390.5500
20
147.4700
10
386.4400
20
147.0700
10
384.6800
20
146.8500
10
378.8500
20
145.9900
10
382.2900
20
144.2300
10
383.0200
20
143.6500
10
383.8500
20
142.8300
10
384.3600
20
142.2400
10
384.9600
20
141.4200
10
385.5000
20
140.5400
10
385.8700
20
139.8300
10
386.5100
20
138.3200
10
386.7600
20
137.5600
10
387.0500
20
136.5000
0
LWPOLYLINE
8
CONTOURS
90
45
70
0
10
462.7000
20
25.5900
10
463.5200
20
11.3000
10
440.8700
20
12.0700
10
424.6600
20
11.2600
10
440.8500
20
10.0700
10
463.5100
20
10.3000
10
463.3800
20
0.0000
10
401.8000
20
0.7300
10
401.5800
20
3.7300
10
401.4100
20
4.4500
10
401.2900
20
4.8100
10
400.9000
20
5.6800
10
400.4300
20
6.4200
10
400.0400
20
6.9000
10
399.4300
20
7.4700
10
399.0400
20
7.7600
10
398.5100
20
8.0800
10
397.9500
20
8.3400
10
397.2800
20
8.6000
10
396.5000
20
8.8200
10
394.7700
20
9.1900
10
394.0500
20
9.3100
10
396.5900
20
15.1300
10
399.3900
20
21.1100
10
404.2200
20
19.7800
10
404.5600
20
19.7100
10
406.8400
20
19.3900
10
408.7600
20
19.2900
10
410.4700
20
19.3300
10
412.5800
20
19.5000
10
414.1400
20
20.1700
10
414.8800
20
20.5700
10
415.5800
20
21.0400
10
416.3600
20
21.6900
10
417.4800
20
22.7400
10
421.2300
20
23.3000
10
422.5200
20
23.6300
10
434.5100
20
22.8000
10
438.4100
20
22.6700
10
439.8800
20
22.8100
10
441.0000
20
22.9900
10
447.1600
20
24.1100
10
450.8600
20
24.6800
10
453.6500
20
25.0200
10
457.0800
20
25.3000
0
LWPOLYLINE
8
CONTOURS
90
36
70
0
10
399.0100
20
21.6500
10
407.3500
20
22.1100
10
410.9800
20
22.4700
10
416.4300
20
23.1200
10
424.0600
20
24.1900
10
435.7700
20
25.9900
10
437.9500
20
26.2700
10
438.4200
20
26.3100
10
439.7000
20
26.3400
10
440.7800
20
26.3300
10
462.4100
20
25.5900
10
462.4100
20
39.4800
10
453.3700
20
38.7700
10
447.5600
20
38.1400
10
440.7800
20
37.2900
10
439.7300
20
37.2100
10
438.6800
20
37.1900
10
437.5600
20
37.2400
10
435.6400
20
37.4300
10
426.0200
20
38.8800
10
413.8100
20
41.2500
10
410.9700
20
40.9200
10
408.5900
20
40.7400
10
406.6900
20
40.6400
10
403.6300
20
40.6400
10
402.2300
20
40.7200
10
401.5500
20
40.7800
10
399.6700
20
41.0500
10
398.5100
20
41.2500
10
395.7100
20
28.9500
10
397.4300
20
27.2800
10
397.9600
20
26.5100
10
398.2700
20
25.8700
10
398.5900
20
24.9600
10
398.7500
20
24.2600
10
398.9100
20
23.0700
0
LWPOLYLINE
8
CONTOURS
90
43
70
0
10
459.1600
20
39.7000
10
460.1400
20
53.4800
10
437.4800
20
52.9800
10
421.2800
20
53.9800
10
437.4900
20
54.9700
10
460.1400
20
54.4800
10
460.1300
20
64.2800
10
399.3000
20
64.2800
10
399.0100
20
61.3300
10
398.8200
20
60.6200
10
398.6900
20
60.2800
10
398.2800
20
59.4200
10
397.8000
20
58.7000
10
397.4000
20
58.2400
10
396.7900
20
57.7000
10
396.3700
20
57.4100
10
395.8400
20
57.1200
10
395.2700
20
56.8700
10
394.6000
20
56.6400
10
393.5500
20
56.3800
10
391.4500
20
56.0400
10
396.5700
20
44.5200
10
401.2800
20
45.8300
10
403.4500
20
46.1700
10
406.0600
20
46.3200
10
407.3600
20
46.2900
10
408.6700
20
46.1900
10
409.4100
20
46.1200
10
410.9300
20
45.4800
10
411.6100
20
45.1200
10
412.3200
20
44.6400
10
413.0900
20
44.0200
10
414.1800
20
43.0000
10
417.9200
20
42.4500
10
419.1100
20
42.1200
10
430.9900
20
42.8200
10
434.8900
20
42.9100
10
435.3800
20
42.8700
10
437.4800
20
42.5600
10
443.6300
20
41.3600
10
447.3300
20
40.7500
10
450.1100
20
40.3800
10
453.5400
20
40.0500
0
LWPOLYLINE
8
CONTOURS
90
33
70
0
10
454.5400
20
77.7000
10
450.0700
20
77.5300
10
446.7300
20
77.2700
10
445.5400
20
77.1400
10
442.7600
20
76.7100
10
433.4100
20
74.8700
10
430.8100
20
74.4800
10
428.2000
20
74.2100
10
425.3400
20
74.0600
10
421.8800
20
74.0100
10
415.7200
20
74.1400
10
411.9300
20
74.1100
10
412.4800
20
72.7400
10
412.6100
20
72.0600
10
412.6300
20
71.5500
10
412.5500
20
70.9400
10
412.3900
20
70.3500
10
412.1600
20
69.7700
10
411.6900
20
68.9100
10
411.2800
20
68.3200
10
410.8000
20
67.7600
10
410.0500
20
67.0500
10
409.4100
20
66.5600
10
408.4700
20
65.9700
10
407.4900
20
65.4500
10
405.6900
20
64.6400
10
427.8800
20
66.3100
10
430.3200
20
66.5300
10
431.8500
20
66.5400
10
432.9000
20
66.4500
10
441.7800
20
65.3700
10
445.4900
20
64.9900
10
454.5400
20
64.2900
0
LWPOLYLINE
8
CONTOURS
90
35
70
0
10
413.9800
20
74.1300
10
422.2500
20
74.5900
10
425.8500
20
74.9500
10
431.2600
20
75.6000
10
438.8200
20
76.6600
10
450.4400
20
78.4500
10
452.6100
20
78.7400
10
453.0800
20
78.7700
10
454.3500
20
78.8100
10
455.4100
20
78.8000
10
476.8800
20
78.0700
10
476.8800
20
91.4600
10
467.8300
20
90.7500
10
462.0300
20
90.1200
10
455.2400
20
89.2700
10
454.2000
20
89.1900
10
453.1500
20
89.1700
10
452.0200
20
89.2200
10
450.1000
20
89.4200
10
440.4900
20
90.8600
10
428.2700
20
93.2300
10
425.4300
20
92.9000
10
421.3400
20
92.6300
10
418.1700
20
92.6500
10
417.0500
20
92.7200
10
416.3900
20
92.7800
10
414.5900
20
93.0400
10
413.4800
20
93.2300
10
410.6800
20
81.1800
10
412.5100
20
79.4100
10
412.8900
20
78.8400
10
413.2100
20
78.2200
10
413.5200
20
77.3400
10
413.6900
20
76.6700
10
413.8600
20
75.5200
0
LWPOLYLINE
8
CONTOURS
90
43
70
0
10
475.4700
20
117.8200
10
476.4500
20
104.0400
10
453.7900
20
104.5400
10
437.5900
20
103.5400
10
453.8000
20
102.5500
10
476.4500
20
103.0400
10
476.4400
20
93.2400
10
415.6100
20
93.2400
10
415.3200
20
96.1900
10
415.1300
20
96.9000
10
415.0100
20
97.2400
10
414.6000
20
98.1000
10
414.1100
20
98.8200
10
413.7100
20
99.2800
10
413.1100
20
99.8200
10
412.6900
20
100.1100
10
412.1500
20
100.4000
10
411.5800
20
100.6500
10
410.9100
20
100.8800
10
409.8600
20
101.1400
10
407.7600
20
101.4800
10
412.8800
20
113.0100
10
417.5900
20
111.6900
10
419.7600
20
111.3500
10
422.3800
20
111.2000
10
423.6700
20
111.2300
10
424.9800
20
111.3300
10
425.7300
20
111.4000
10
427.2400
20
112.0400
10
427.9200
20
112.4000
10
428.6400
20
112.8800
10
429.4000
20
113.5000
10
430.4900
20
114.5200
10
434.2300
20
115.0700
10
435.4200
20
115.4000
10
447.3100
20
114.7000
10
451.2000
20
114.6100
10
451.7000
20
114.6500
10
453.7900
20
114.9600
10
459.9400
20
116.1600
10
463.6400
20
116.7700
10
466.4200
20
117.1400
10
469.8500
20
117.4700
0
LWPOLYLINE
8
CONTOURS
90
42
70
0
10
422.8800
20
136.0100
10
420.9400
20
134.4800
10
420.0300
20
133.8300
10
415.5900
20
130.8900
10
414.7600
20
130.2800
10
413.9700
20
129.6500
10
412.9100
20
128.6800
10
412.0200
20
127.6700
10
411.5200
20
126.9700
10
411.3000
20
126.6100
10
410.9800
20
125.9600
10
410.7200
20
125.2900
10
410.5300
20
124.5600
10
410.3600
20
123.3800
10
410.3200
20
121.9200
10
410.3700
20
121.1500
10
410.5200
20
120.1200
10
410.8600
20
118.8300
10
411.2500
20
117.8000
10
411.6100
20
117.0400
10
412.1400
20
116.1200
10
412.5900
20
115.4700
10
413.0500
20
114.9000
10
413.7300
20
114.2000
10
414.9300
20
113.1400
10
420.7500
20
113.6700
10
426.5700
20
114.2900
10
432.3700
20
114.9900
10
438.1700
20
115.7800
10
443.9500
20
116.6600
10
449.7200
20
117.6300
10
455.4700
20
118.6800
10
461.2000
20
119.8200
10
466.9200
20
121.0500
10
472.6200
20
122.3600
10
469.9100
20
136.6700
10
457.8700
20
134.9600
10
451.3900
20
134.3400
10
445.7500
20
134.0900
10
440.3400
20
134.1300
10
434.9400
20
134.4300
10
432.7100
20
134.6400
0
LWPOLYLINE
8
CONTOURS
90
39
70
0
10
441.9500
20
134.7800
10
450.1300
20
135.7000
10
455.5800
20
136.2200
10
459.6700
20
136.5000
10
463.7500
20
136.6800
10
467.8300
20
136.7200
10
470.7700
20
136.6600
10
474.2700
20
136.4600
10
478.2100
20
136.1000
10
483.7300
20
135.4400
10
489.5500
20
134.6400
10
492.0700
20
143.5800
10
486.3200
20
144.8900
10
482.1600
20
145.6800
10
480.5200
20
145.9600
10
476.5400
20
146.5500
10
474.6800
20
146.7900
10
470.8000
20
147.2100
10
468.8100
20
147.3900
10
462.9200
20
147.7400
10
458.3700
20
147.8400
10
457.0300
20
147.8400
10
452.6200
20
147.7700
10
451.1300
20
147.7100
10
446.8900
20
147.4600
10
445.2500
20
147.3300
10
441.1400
20
146.9300
10
439.3800
20
146.7200
10
433.5500
20
145.8600
10
437.0200
20
143.9900
10
437.7600
20
143.3800
10
438.6100
20
142.5200
10
439.1100
20
141.9000
10
439.7100
20
141.0400
10
440.2600
20
140.1100
10
440.6200
20
139.3700
10
441.2500
20
137.7900
10
441.4900
20
137.0100
10
441.7600
20
135.9000
0
LWPOLYLINE
8
CONTOURS
90
39
70
0
10
471.8800
20
0.1400
10
480.0600
20
1.0600
10
485.5100
20
1.5800
10
489.6000
20
1.8700
10
493.6800
20
2.0500
10
497.7600
20
2.0900
10
500.7000
20
2.0200
10
504.2000
20
1.8200
10
508.1400
20
1.4600
10
513.6600
20
0.8100
10
519.4800
20
0.0000
10
522.0000
20
9.9400
10
516.2500
20
11.2500
10
512.0900
20
12.0500
10
510.4500
20
12.3200
10
506.4700
20
12.9200
10
504.6100
20
13.1600
10
500.7300
20
13.5800
10
498.7400
20
13.7500
10
492.8600
20
14.1000
10
488.3100
20
14.2000
10
486.9600
20
14.2100
10
482.5500
20
14.1300
10
481.0600
20
14.0700
10
476.8200
20
13.8200
10
475.1800
20
13.7000
10
471.0700
20
13.2900
10
469.3100
20
13.0800
10
463.4800
20
12.2200
10
467.0300
20
10.1600
10
467.7900
20
9.4800
10
468.6500
20
8.5200
10
469.1600
20
7.8400
10
469.7700
20
6.9000
10
470.3100
20
5.8900
10
470.6600
20
5.0900
10
471.2700
20
3.3800
10
471.4900
20
2.5300
10
471.7300
20
1.3500
0
LWPOLYLINE
8
CONTOURS
90
42
70
0
10
474.8200
20
13.6800
10
472.9400
20
15.1200
10
472.0400
20
15.7400
10
468.0600
20
18.3100
10
466.8100
20
19.2000
10
465.6800
20
20.1300
10
464.7100
20
21.0900
10
464.1600
20
21.7600
10
463.5400
20
22.7300
10
463.2300
20
23.3700
10
463.0900
20
23.7600
10
462.8900
20
24.4900
10
462.7100
20
25.6000
10
462.6400
20
27.0100
10
462.6700
20
27.7700
10
462.8000
20
28.7800
10
462.9300
20
29.4000
10
463.1900
20
30.3100
10
463.4700
20
31.0700
10
463.7700
20
31.7300
10
464.0500
20
32.2700
10
464.5900
20
33.1400
10
465.1000
20
33.8100
10
465.6400
20
34.4000
10
466.8700
20
35.5400
10
472.6900
20
35.0200
10
478.5000
20
34.4000
10
484.3100
20
33.6900
10
490.1000
20
32.9000
10
495.8800
20
32.0200
10
501.6500
20
31.0600
10
507.4000
20
30.0000
10
513.1400
20
28.8600
10
518.8600
20
27.6400
10
524.5500
20
26.3200
10
521.8500
20
13.0100
10
509.8100
20
14.7200
10
503.3300
20
15.3400
10
497.6800
20
15.5900
10
492.2700
20
15.5600
10
486.8700
20
15.2500
10
484.6400
20
15.0400
0
LWPOLYLINE
8
CONTOURS
90
42
70
0
10
472.8400
20
35.0100
10
470.8300
20
36.6300
10
469.9100
20
37.2900
10
465.4400
20
40.3200
10
464.1900
20
41.2600
10
463.0500
20
42.2300
10
462.0600
20
43.2400
10
461.2500
20
44.3000
10
460.6600
20
45.3100
10
460.3800
20
45.9800
10
460.2400
20
46.3800
10
460.0600
20
47.1000
10
459.9000
20
48.3300
10
459.8900
20
49.8500
10
459.9600
20
50.6400
10
460.1400
20
51.6800
10
460.3300
20
52.4300
10
460.7000
20
53.5200
10
460.9200
20
54.0300
10
461.3500
20
54.9000
10
461.8400
20
55.7400
10
462.3100
20
56.3900
10
462.8900
20
57.0900
10
463.6800
20
57.8600
10
464.8900
20
58.8800
10
470.7100
20
58.3500
10
476.5300
20
57.7300
10
482.3300
20
57.0300
10
488.1300
20
56.2300
10
493.9100
20
55.3500
10
499.6700
20
54.3900
10
505.4300
20
53.3300
10
511.1600
20
52.1900
10
516.8800
20
50.9700
10
522.5800
20
49.6600
10
519.8700
20
34.3400
10
507.8300
20
36.0500
10
501.3500
20
36.6700
10
495.7100
20
36.9200
10
490.2900
20
36.8900
10
484.8900
20
36.5800
10
482.6600
20
36.3700
0
LWPOLYLINE
8
CONTOURS
90
44
70
0
10
524.1800
20
53.9000
10
525.3300
20
67.1600
10
502.6600
20
66.9500
10
486.4800
20
68.1500
10
502.6900
20
68.9400
10
525.3400
20
68.1600
10
525.4400
20
77.4600
10
465.3600
20
78.2100
10
465.0000
20
75.3200
10
464.7900
20
74.6300
10
464.6600
20
74.2900
10
464.2300
20
73.4500
10
463.7300
20
72.7500
10
463.3200
20
72.3100
10
462.7200
20
71.8100
10
462.2700
20
71.5200
10
461.7300
20
71.2500
10
461.1600
20
71.0200
10
460.4800
20
70.8100
10
459.4300
20
70.5900
10
457.4200
20
70.3200
10
459.9700
20
64.7000
10
462.3300
20
59.0700
10
466.9000
20
60.3700
10
469.0200
20
60.7100
10
471.5600
20
60.8600
10
472.8200
20
60.8400
10
474.1000
20
60.7500
10
474.8200
20
60.6800
10
476.2900
20
60.0700
10
476.9500
20
59.7200
10
477.6400
20
59.2600
10
478.3800
20
58.6600
10
479.4400
20
57.6700
10
483.1900
20
57.1200
10
484.2700
20
56.8100
10
496.0500
20
57.3700
10
499.9400
20
57.4100
10
500.4400
20
57.3600
10
502.3700
20
57.0600
10
508.6700
20
55.7500
10
512.3600
20
55.0900
10
515.1400
20
54.6900
10
518.5600
20
54.3200
0
LWPOLYLINE
8
CONTOURS
90
41
70
0
10
489.6900
20
77.9200
10
487.7100
20
79.4900
10
486.7900
20
80.1500
10
482.3400
20
83.1300
10
480.7100
20
84.3800
10
479.6300
20
85.3600
10
478.7200
20
86.3800
10
478.2100
20
87.0800
10
477.9900
20
87.4400
10
477.6500
20
88.0900
10
477.3700
20
88.7700
10
477.1200
20
89.6900
10
476.9600
20
90.8900
10
476.9300
20
92.3200
10
476.9900
20
93.1700
10
477.1600
20
94.2000
10
477.5100
20
95.5000
10
477.9100
20
96.5400
10
478.3100
20
97.3500
10
478.8200
20
98.2300
10
479.2800
20
98.8800
10
479.9600
20
99.6900
10
480.6300
20
100.3300
10
481.7400
20
101.2900
10
487.5600
20
100.7600
10
493.3700
20
100.1400
10
499.1800
20
99.4400
10
504.9700
20
98.6400
10
510.7500
20
97.7600
10
516.5200
20
96.8000
10
522.2700
20
95.7400
10
528.0100
20
94.6000
10
533.7300
20
93.3800
10
539.4200
20
92.0700
10
536.7200
20
77.2500
10
524.6800
20
78.9600
10
518.2000
20
79.5800
10
512.5500
20
79.8300
10
507.1400
20
79.8000
10
501.7400
20
79.4900
10
499.5100
20
79.2800
0
LWPOLYLINE
8
CONTOURS
90
43
70
0
10
488.8800
20
100.6300
10
486.8300
20
102.2900
10
485.9100
20
102.9700
10
481.4300
20
106.0300
10
480.1600
20
106.9800
10
479.3800
20
107.6300
10
478.3300
20
108.6400
10
477.4300
20
109.6800
10
476.9400
20
110.4100
10
476.7200
20
110.7800
10
476.3900
20
111.4400
10
476.1200
20
112.1300
10
475.8900
20
113.0500
10
475.7300
20
114.3000
10
475.7300
20
115.7800
10
475.8100
20
116.6400
10
476.0000
20
117.6900
10
476.3800
20
118.9900
10
476.8000
20
120.0500
10
477.2700
20
120.9800
10
477.6000
20
121.5300
10
478.2200
20
122.4200
10
478.5600
20
122.8500
10
479.1400
20
123.4700
10
479.6000
20
123.8900
10
480.9300
20
124.9900
10
486.7500
20
124.4700
10
492.5600
20
123.8500
10
498.3700
20
123.1400
10
504.1600
20
122.3500
10
509.9400
20
121.4700
10
515.7100
20
120.5100
10
521.4600
20
119.4500
10
527.2000
20
118.3100
10
532.9200
20
117.0900
10
538.6100
20
115.7700
10
535.9100
20
99.9600
10
523.8700
20
101.6700
10
517.3900
20
102.2900
10
511.7400
20
102.5400
10
506.3300
20
102.5100
10
500.9300
20
102.2000
10
498.7000
20
101.9900
0
LWPOLYLINE
8
CONTOURS
90
33
70
0
10
532.6100
20
120.5300
10
528.1400
20
120.7000
10
524.8100
20
120.9600
10
523.6200
20
121.0900
10
520.8300
20
121.5200
10
511.4800
20
123.3600
10
508.8800
20
123.7500
10
506.2700
20
124.0200
10
503.4100
20
124.1700
10
499.9600
20
124.2200
10
493.8000
20
124.0900
10
490.0100
20
124.1200
10
490.5500
20
125.4900
10
490.6900
20
126.1700
10
490.7000
20
126.6800
10
490.6200
20
127.2900
10
490.4600
20
127.8800
10
490.2400
20
128.4600
10
489.7700
20
129.3200
10
489.3500
20
129.9100
10
488.8800
20
130.4600
10
488.1200
20
131.1800
10
487.4800
20
131.6700
10
486.5500
20
132.2600
10
485.5600
20
132.7800
10
483.7600
20
133.5900
10
505.9500
20
131.9200
10
508.4000
20
131.7000
10
509.9300
20
131.6900
10
510.9800
20
131.7800
10
519.8500
20
132.8600
10
523.5600
20
133.2400
10
532.6100
20
133.9400
0
LWPOLYLINE
8
CONTOURS
90
33
70
0
10
534.9300
20
135.5700
10
530.4600
20
135.7400
10
527.1300
20
136.0000
10
525.9400
20
136.1300
10
523.1500
20
136.5600
10
513.8100
20
138.3900
10
511.2000
20
138.7900
10
508.5900
20
139.0600
10
505.7300
20
139.2100
10
502.2800
20
139.2600
10
496.1200
20
139.1300
10
492.3300
20
139.1600
10
492.8600
20
140.2600
10
493.0000
20
140.8000
10
493.0200
20
141.3600
10
492.9000
20
141.9300
10
492.5400
20
142.8000
10
492.2100
20
143.4200
10
491.8100
20
143.9900
10
491.3700
20
144.5300
10
490.8800
20
145.0200
10
490.3700
20
145.4600
10
489.5000
20
146.0600
10
488.6000
20
146.5600
10
487.3400
20
147.1300
10
486.0900
20
147.6300
10
508.2700
20
145.9600
10
510.7200
20
145.7300
10
512.2500
20
145.7300
10
513.3000
20
145.8100
10
522.1700
20
146.8900
10
525.8900
20
147.2800
10
534.9300
20
147.9800
0
LWPOLYLINE
8
CONTOURS
90
35
70
0
10
524.5600
20
0.0000
10
532.7800
20
0.4500
10
536.3400
20
0.8200
10
541.7100
20
1.4600
10
549.2200
20
2.5200
10
560.7400
20
4.3000
10
562.8900
20
4.5800
10
563.3500
20
4.6200
10
564.6200
20
4.6600
10
565.6700
20
4.6500
10
586.9600
20
3.9300
10
586.9700
20
16.8300
10
577.9200
20
16.1100
10
572.1100
20
15.4900
10
565.3300
20
14.6400
10
564.2800
20
14.5500
10
563.2400
20
14.5300
10
562.1100
20
14.5900
10
560.1900
20
14.7800
10
550.5700
20
16.2200
10
538.3600
20
18.6000
10
535.5200
20
18.2600
10
531.6100
20
18.0200
10
528.5700
20
18.0400
10
527.4900
20
18.1000
10
526.8600
20
18.1600
10
525.1300
20
18.4100
10
524.0600
20
18.6000
10
521.2600
20
6.8000
10
523.0700
20
5.1000
10
523.4500
20
4.5500
10
523.7600
20
3.9600
10
524.0800
20
3.1100
10
524.2500
20
2.4600
10
524.4400
20
1.3400
0
LWPOLYLINE
8
CONTOURS
90
39
70
0
10
528.5800
20
18.0400
10
536.7600
20
18.9600
10
542.2100
20
19.4700
10
546.2900
20
19.7600
10
550.3800
20
19.9400
10
554.4600
20
19.9800
10
557.3900
20
19.9100
10
560.9000
20
19.7100
10
564.8400
20
19.3600
10
570.3600
20
18.7000
10
576.1700
20
17.9000
10
578.7000
20
27.3400
10
572.9500
20
28.6500
10
568.7900
20
29.4400
10
567.1500
20
29.7200
10
563.1700
20
30.3100
10
561.3100
20
30.5500
10
557.4300
20
30.9700
10
555.4400
20
31.1400
10
549.5500
20
31.4900
10
545.0000
20
31.6000
10
543.6600
20
31.6000
10
539.2500
20
31.5200
10
537.7600
20
31.4700
10
533.5200
20
31.2200
10
531.8700
20
31.0900
10
527.7700
20
30.6900
10
526.0100
20
30.4700
10
520.1700
20
29.6200
10
523.6900
20
27.6500
10
524.4400
20
27.0100
10
525.2900
20
26.0900
10
525.8000
20
25.4500
10
526.4000
20
24.5400
10
526.9400
20
23.5700
10
527.3100
20
22.8100
10
527.9200
20
21.1600
10
528.1500
20
20.3500
10
528.4100
20
19.2000
0
LWPOLYLINE
8
CONTOURS
90
42
70
0
10
533.0900
20
52.3500
10
531.2100
20
50.9100
10
530.3100
20
50.2800
10
526.3300
20
47.7200
10
525.0800
20
46.8300
10
523.9500
20
45.9000
10
522.9800
20
44.9300
10
522.4300
20
44.2600
10
521.8100
20
43.3000
10
521.5000
20
42.6500
10
521.3600
20
42.2700
10
521.1600
20
41.5400
10
520.9800
20
40.4200
10
520.9100
20
39.0200
10
520.9400
20
38.2600
10
521.0700
20
37.2500
10
521.2000
20
36.6300
10
521.4600
20
35.7200
10
521.7400
20
34.9600
10
522.0400
20
34.3000
10
522.3200
20
33.7600
10
522.8600
20
32.8800
10
523.3700
20
32.2100
10
523.9100
20
31.6300
10
525.1400
20
30.4800
10
530.9600
20
31.0100
10
536.7700
20
31.6300
10
542.5800
20
32.3300
10
548.3700
20
33.1300
10
554.1500
20
34.0000
10
559.9200
20
34.9700
10
565.6700
20
36.0200
10
571.4100
20
37.1600
10
577.1300
20
38.3900
10
582.8200
20
39.7000
10
580.1200
20
53.0200
10
568.0800
20
51.3100
10
561.6000
20
50.6900
10
555.9500
20
50.4300
10
550.5400
20
50.4700
10
545.1400
20
50.7700
10
542.9100
20
50.9800
0
LWPOLYLINE
8
CONTOURS
90
40
70
0
10
537.2100
20
74.3800
10
535.3000
20
72.8900
10
534.3900
20
72.2600
10
530.4000
20
69.6500
10
529.1400
20
68.7500
10
528.0000
20
67.8200
10
527.0100
20
66.8400
10
526.1900
20
65.8200
10
525.6100
20
64.8300
10
525.3000
20
64.0800
10
525.0700
20
63.2500
10
524.9000
20
62.1000
10
524.8400
20
60.7400
10
524.8800
20
59.9000
10
525.0200
20
58.8800
10
525.3500
20
57.6000
10
525.7200
20
56.5800
10
526.0500
20
55.8700
10
526.4400
20
55.1400
10
527.0200
20
54.2800
10
527.7200
20
53.4500
10
528.1500
20
53.0100
10
529.2600
20
52.0100
10
535.0800
20
52.5400
10
540.9000
20
53.1600
10
546.7000
20
53.8600
10
552.5000
20
54.6500
10
558.2800
20
55.5300
10
564.0400
20
56.5000
10
569.8000
20
57.5500
10
575.5300
20
58.6900
10
581.2500
20
59.9200
10
586.9500
20
61.2300
10
584.2400
20
75.0400
10
572.2000
20
73.3300
10
565.7200
20
72.7100
10
560.0700
20
72.4600
10
554.6600
20
72.5000
10
549.2600
20
72.8000
10
547.0300
20
73.0100
0
LWPOLYLINE
8
CONTOURS
90
33
70
0
10
583.7900
20
83.3500
10
579.3200
20
83.5300
10
575.9800
20
83.7800
10
574.8000
20
83.9200
10
572.0100
20
84.3400
10
562.6600
20
86.1800
10
560.0600
20
86.5800
10
557.4500
20
86.8400
10
554.5900
20
87.0000
10
551.1300
20
87.0400
10
544.9700
20
86.9100
10
541.1800
20
86.9500
10
541.7200
20
88.1800
10
541.8700
20
88.8100
10
541.8800
20
89.3500
10
541.7500
20
90.0100
10
541.5600
20
90.5800
10
541.1300
20
91.4700
10
540.7300
20
92.0800
10
540.2800
20
92.6500
10
539.7800
20
93.1700
10
539.2600
20
93.6200
10
538.6700
20
94.0700
10
537.4400
20
94.7900
10
536.1500
20
95.4100
10
534.9400
20
95.9200
10
557.1300
20
94.2400
10
559.5700
20
94.0200
10
561.1000
20
94.0100
10
562.1500
20
94.1000
10
571.0300
20
95.1800
10
574.7400
20
95.5600
10
583.7900
20
96.2700
0
LWPOLYLINE
8
CONTOURS
90
39
70
0
10
543.3500
20
108.7400
10
551.5300
20
107.8100
10
556.9800
20
107.3000
10
561.0600
20
107.0100
10
565.1500
20
106.8300
10
569.2300
20
106.7900
10
572.1600
20
106.8600
10
575.6700
20
107.0600
10
579.6100
20
107.4100
10
585.1200
20
108.0700
10
590.9400
20
108.8800
10
593.4600
20
98.9300
10
587.7100
20
97.6200
10
583.5600
20
96.8300
10
581.9100
20
96.5500
10
577.9400
20
95.9600
10
576.0800
20
95.7200
10
572.2000
20
95.3000
10
570.2100
20
95.1300
10
564.3200
20
94.7800
10
559.7700
20
94.6700
10
558.4200
20
94.6700
10
554.0200
20
94.7500
10
552.5300
20
94.8000
10
548.2800
20
95.0500
10
546.6400
20
95.1800
10
542.5300
20
95.5800
10
540.7800
20
95.8000
10
534.9400
20
96.6600
10
538.4900
20
98.7200
10
539.2500
20
99.4000
10
540.1200
20
100.3600
10
540.6300
20
101.0400
10
541.2300
20
101.9800
10
541.7700
20
102.9900
10
542.1300
20
103.7900
10
542.7300
20
105.5000
10
542.9500
20
106.3400
10
543.1900
20
107.5300
0
LWPOLYLINE
8
CONTOURS
90
34
70
0
10
583.7900
20
107.9100
10
579.3200
20
108.0900
10
575.9800
20
108.3400
10
574.8000
20
108.4800
10
572.0100
20
108.9000
10
562.6600
20
110.7400
10
560.0600
20
111.1400
10
557.4500
20
111.4000
10
554.5900
20
111.5600
10
551.1300
20
111.6000
10
544.9700
20
111.4700
10
541.1800
20
111.5100
10
541.6900
20
112.4200
10
541.7800
20
112.6600
10
541.8800
20
113.1100
10
541.8800
20
113.4700
10
541.7600
20
113.9600
10
541.4600
20
114.6700
10
541.1300
20
115.2700
10
540.5500
20
116.1000
10
540.1100
20
116.6000
10
539.6300
20
117.0700
10
539.1900
20
117.4200
10
538.5600
20
117.8500
10
537.7000
20
118.3400
10
536.7900
20
118.7600
10
534.9400
20
119.4800
10
557.1300
20
117.8000
10
559.5700
20
117.5800
10
561.1000
20
117.5700
10
562.1500
20
117.6600
10
571.0300
20
118.7400
10
574.7400
20
119.1200
10
583.7900
20
119.8300
0
LWPOLYLINE
8
CONTOURS
90
33
70
0
10
583.7900
20
132.7400
10
579.3200
20
132.5700
10
575.9800
20
132.3100
10
574.8000
20
132.1800
10
572.0100
20
131.7500
10
562.6600
20
129.9100
10
560.0600
20
129.5200
10
557.4500
20
129.2500
10
554.5900
20
129.1000
10
551.1300
20
129.0500
10
544.9700
20
129.1800
10
541.1800
20
129.1500
10
541.7200
20
127.9200
10
541.8700
20
127.2800
10
541.8800
20
126.7400
10
541.7500
20
126.0800
10
541.5600
20
125.5100
10
541.1300
20
124.6200
10
540.7300
20
124.0200
10
540.2800
20
123.4500
10
539.7800
20
122.9300
10
539.2600
20
122.4700
10
538.6700
20
122.0300
10
537.4400
20
121.3000
10
536.1500
20
120.6800
10
534.9400
20
120.1800
10
557.1300
20
121.8500
10
559.5700
20
122.0700
10
561.1000
20
122.0800
10
562.1500
20
121.9900
10
571.0300
20
120.9100
10
574.7400
20
120.5300
10
583.7900
20
119.8300
0
LWPOLYLINE
8
CONTOURS
90
35
70
0
10
538.2400
20
147.9800
10
546.4600
20
147.5300
10
550.0200
20
147.1600
10
555.3900
20
146.5200
10
562.8900
20
145.4600
10
574.4200
20
143.6800
10
576.5700
20
143.4000
10
577.0300
20
143.3600
10
578.3000
20
143.3200
10
579.3500
20
143.3300
10
600.6400
20
144.0500
10
600.6400
20
131.1500
10
591.6000
20
131.8700
10
585.7900
20
132.4900
10
579.0100
20
133.3400
10
577.9600
20
133.4300
10
576.9200
20
133.4500
10
575.7900
20
133.3900
10
573.8700
20
133.2000
10
564.2500
20
131.7600
10
552.0400
20
129.3800
10
549.2000
20
129.7200
10
545.2800
20
129.9600
10
542.2500
20
129.9400
10
541.1700
20
129.8800
10
540.5400
20
129.8200
10
538.8100
20
129.5700
10
537.7400
20
129.3800
10
534.9400
20
141.1800
10
536.7400
20
142.8800
10
537.1300
20
143.4300
10
537.4400
20
144.0200
10
537.7600
20
144.8700
10
537.9300
20
145.5200
10
538.1100
20
146.6400
0
LWPOLYLINE
8
CONTOURS
90
34
70
0
10
601.3300
20
85.4100
10
596.8600
20
85.2300
10
593.5300
20
84.9700
10
592.3400
20
84.8400
10
589.5600
20
84.4100
10
580.2100
20
82.5800
10
577.6000
20
82.1800
10
575.0000
20
81.9200
10
572.1300
20
81.7600
10
568.6800
20
81.7100
10
562.5200
20
81.8400
10
558.7300
20
81.8100
10
559.2300
20
80.8900
10
559.3300
20
80.6500
10
559.4300
20
80.2100
10
559.4200
20
79.8500
10
559.3000
20
79.3600
10
559.0000
20
78.6400
10
558.6800
20
78.0500
10
558.0900
20
77.2200
10
557.6500
20
76.7100
10
557.1700
20
76.2500
10
556.7400
20
75.9000
10
556.1100
20
75.4600
10
555.2400
20
74.9800
10
554.3300
20
74.5600
10
552.4900
20
73.8400
10
574.6700
20
75.5100
10
577.1200
20
75.7400
10
578.6500
20
75.7400
10
579.7000
20
75.6600
10
588.5700
20
74.5800
10
592.2900
20
74.2000
10
601.3300
20
73.4900
0
ENDSEC
0
EOF