0
SECTION
2
HEADER
9
$ACADVER
1
AC1015
9
$INSUNITS
70
4
0
ENDSEC
0
SECTION
2
TABLES
0
TABLE
2
LAYER
70
3
0
LAYER
2
0
70
0
62
7
6
CONTINUOUS
0
LAYER
2
CONTOURS
70
0
62
7
6
CONTINUOUS
0
LAYER
2
FILL
70
0
62
8
6
CONTINUOUS
0
ENDTAB
0
ENDSEC
0
SECTION
2
ENTITIES
0
LWPOLYLINE
8
CONTOURS
90
4
70
0
10
0.0100
20
0.0000
10
0.0100
20
130.6800
10
238.5900
20
130.6800
10
238.5900
20
0.0000
0
LWPOLYLINE
8
CONTOURS
90
27
70
0
10
22.4100
20
105.6200
10
23.9100
20
105.6400
10
25.9100
20
105.7800
10
27.3000
20
106.0800
10
28.0500
20
107.1000
10
31.2900
20
104.7600
10
33.2500
20
103.2100
10
34.7400
20
101.8800
10
36.4800
20
100.0800
10
38.0800
20
98.1600
10
39.5600
20
96.1500
10
40.9200
20
94.0500
10
41.9000
20
92.3000
10
42.5500
20
91.0300
10
43.8100
20
90.8900
10
42.8100
20
81.9400
10
42.3500
20
76.9700
10
42.0400
20
71.9800
10
41.8700
20
67.4800
10
41.8400
20
62.4800
10
41.9300
20
56.9800
10
42.1300
20
52.4800
10
42.4800
20
48.0000
10
42.8900
20
43.7500
10
41.6200
20
43.6300
10
29.1200
20
43.5400
10
22.4100
20
43.5500
0
LWPOLYLINE
8
CONTOURS
90
27
70
0
10
22.4100
20
105.6200
10
20.9100
20
105.6400
10
18.9200
20
105.7800
10
17.5300
20
106.0800
10
16.7800
20
107.1100
10
13.5400
20
104.7600
10
11.5700
20
103.2200
10
10.0800
20
101.8800
10
8.3500
20
100.0800
10
6.7500
20
98.1600
10
5.2600
20
96.1500
10
3.9000
20
94.0500
10
2.9300
20
92.3100
10
2.2700
20
91.0400
10
1.0100
20
90.8900
10
2.0100
20
81.9500
10
2.4700
20
76.9700
10
2.7900
20
71.9800
10
2.9500
20
67.4800
10
2.9800
20
62.4800
10
2.8900
20
56.9800
10
2.6800
20
52.4900
10
2.3300
20
48.0000
10
1.9300
20
43.7600
10
3.1900
20
43.6400
10
15.6900
20
43.5400
10
22.4100
20
43.5500
0
LWPOLYLINE
8
CONTOURS
90
36
70
0
10
93.3400
20
37.2200
10
93.9200
20
45.7000
10
94.2400
20
52.1900
10
94.4100
20
58.6900
10
94.4700
20
65.6900
10
94.4100
20
72.6900
10
94.2200
20
78.1800
10
93.7800
20
85.8300
10
95.0500
20
85.8900
10
94.6500
20
84.7000
10
95.8200
20
86.8600
10
97.0500
20
89.0000
10
98.4400
20
91.0700
10
99.6600
20
92.6600
10
100.9900
20
94.1500
10
102.8000
20
95.8700
10
104.7300
20
97.5200
10
105.5800
20
96.5700
10
106.2800
20
95.2500
10
107.0700
20
93.9700
10
107.7100
20
93.2000
10
108.4600
20
92.5400
10
109.3000
20
91.9900
10
110.2000
20
91.5500
10
111.1400
20
91.2300
10
112.6200
20
90.9700
10
114.2200
20
90.8900
10
115.8100
20
90.8900
10
115.8100
20
86.5600
10
115.8100
20
77.4600
10
115.8100
20
68.3700
10
115.8100
20
59.2800
10
115.8100
20
50.1900
10
115.8100
20
37.1300
10
114.2200
20
37.1300
10
94.6100
20
37.1300
0
LWPOLYLINE
8
CONTOURS
90
27
70
0
10
56.4400
20
32.8400
10
55.8900
20
38.8100
10
55.6000
20
43.3000
10
55.4400
20
48.3000
10
55.3800
20
53.8000
10
55.4600
20
58.3000
10
55.6900
20
63.2900
10
56.0600
20
68.2800
10
56.6500
20
74.2500
10
57.3400
20
80.3700
10
58.6000
20
80.2400
10
60.0200
20
77.6000
10
62.1200
20
74.1900
10
62.7100
20
73.3800
10
63.4000
20
72.6600
10
64.2200
20
72.0800
10
65.1300
20
71.6800
10
65.6400
20
71.5400
10
66.9100
20
71.5100
10
66.7400
20
65.0100
10
66.7300
20
59.5100
10
66.8700
20
53.0200
10
67.1600
20
45.0200
10
67.5100
20
39.0300
10
67.9600
20
32.9500
10
66.7000
20
32.8700
10
57.7100
20
32.9500
0
LWPOLYLINE
8
CONTOURS
90
27
70
1
10
87.5200
20
91.8500
10
88.7900
20
91.8800
10
89.2100
20
84.3900
10
89.3800
20
79.4000
10
89.4400
20
71.4000
10
89.3700
20
64.4000
10
89.1700
20
57.9000
10
88.8400
20
51.4100
10
88.3100
20
43.7500
10
87.0400
20
43.8300
10
77.7500
20
43.8300
10
76.4900
20
43.9200
10
77.0400
20
51.4000
10
77.3200
20
56.8900
10
77.5300
20
63.8900
10
77.7100
20
74.8900
10
77.7600
20
82.5000
10
79.0300
20
82.4900
10
80.0300
20
82.5900
10
81.0200
20
82.7600
10
81.9600
20
83.0800
10
82.8100
20
83.6100
10
83.5200
20
84.3100
10
84.1000
20
85.1300
10
85.4300
20
87.8200
10
86.6200
20
90.0200
10
87.5200
20
91.8500
0
LWPOLYLINE
8
CONTOURS
90
41
70
0
10
164.2800
20
102.1000
10
169.2700
20
102.6400
10
179.5800
20
103.7600
10
189.8800
20
104.8800
10
196.0000
20
105.5500
10
197.5800
20
105.6900
10
200.2200
20
105.9200
10
210.5200
20
106.8300
10
218.7600
20
107.5600
10
218.8700
20
106.3700
10
223.0800
20
104.7900
10
226.3100
20
103.4300
10
229.4700
20
101.9300
10
232.1200
20
100.5200
10
234.6700
20
98.9500
10
237.5900
20
96.9900
10
236.9000
20
95.9300
10
236.2200
20
95.2000
10
235.1000
20
93.5300
10
234.6200
20
92.6500
10
234.2600
20
91.7200
10
233.9400
20
90.2500
10
233.7200
20
87.7300
10
234.4200
20
86.6700
10
231.0800
20
84.4800
10
228.5100
20
82.9200
10
226.7500
20
81.9800
10
224.9200
20
81.1700
10
220.2100
20
79.4800
10
219.3700
20
79.1600
10
219.2800
20
77.9800
10
215.2000
20
78.2800
10
210.5300
20
78.6200
10
200.2000
20
79.3700
10
189.9100
20
80.2500
10
179.6000
20
81.1200
10
169.3000
20
82.0000
10
164.3000
20
82.4200
10
164.4100
20
83.6900
10
164.4000
20
92.2800
10
164.4100
20
100.8400
0
LWPOLYLINE
8
CONTOURS
90
19
70
0
10
164.8700
20
72.8500
10
200.7400
20
76.2600
10
219.5800
20
78.2800
10
219.7100
20
77.0200
10
217.3200
20
75.2200
10
215.7900
20
73.9300
10
214.7600
20
72.8300
10
213.9500
20
71.5700
10
213.3300
20
70.2000
10
212.8700
20
68.7700
10
212.6400
20
67.7400
10
212.6600
20
66.4700
10
202.1600
20
66.3500
10
194.1600
20
66.3800
10
182.1600
20
66.4900
10
175.6600
20
66.4400
10
165.7800
20
66.1700
10
165.7500
20
67.4400
10
164.9900
20
71.5800
0
LWPOLYLINE
8
CONTOURS
90
21
70
1
10
217.9300
20
108.0100
10
217.7400
20
106.7600
10
191.3300
20
108.9300
10
179.3600
20
109.7700
10
163.4300
20
110.7600
10
163.5200
20
112.0300
10
164.2700
20
116.2200
10
164.3100
20
117.4900
10
172.8000
20
117.1700
10
178.3000
20
117.0600
10
184.8000
20
117.1000
10
199.8000
20
117.3700
10
211.2200
20
117.4200
10
211.2300
20
116.1500
10
211.7500
20
114.7400
10
212.3800
20
113.3800
10
213.1600
20
112.0900
10
214.1200
20
110.9400
10
215.2200
20
109.9200
10
216.8300
20
108.7400
10
217.9300
20
108.0100
0
LWPOLYLINE
8
CONTOURS
90
6
70
0
10
148.9700
20
101.7100
10
155.9700
20
101.7100
10
155.9700
20
98.0600
10
155.9700
20
83.2700
10
155.9700
20
79.6100
10
148.9700
20
79.6100
0
LWPOLYLINE
8
CONTOURS
90
7
70
0
10
69.7600
20
8.0000
10
85.9900
20
8.0000
10
93.6800
20
8.0000
10
101.5800
20
8.0000
10
118.3200
20
8.0000
10
118.3200
20
1.0000
10
69.7600
20
1.0000
0
LWPOLYLINE
8
CONTOURS
90
7
70
0
10
69.7600
20
8.0000
10
53.5300
20
8.0000
10
45.8400
20
8.0000
10
37.9400
20
8.0000
10
21.2000
20
8.0000
10
21.2000
20
1.0000
10
69.7600
20
1.0000
0
LWPOLYLINE
8
CONTOURS
90
26
70
0
10
72.9200
20
120.5300
10
74.9200
20
120.6100
10
76.9000
20
120.8500
10
78.8700
20
121.2600
10
80.7900
20
121.8200
10
82.6700
20
122.5300
10
84.4800
20
123.3900
10
86.2100
20
124.4000
10
87.8600
20
125.5500
10
89.4100
20
126.8200
10
90.8400
20
128.2100
10
92.1400
20
129.6800
10
95.6300
20
126.8400
10
94.3100
20
125.3400
10
92.9100
20
123.9200
10
91.4000
20
122.6000
10
89.8000
20
121.3900
10
88.1300
20
120.3000
10
86.3800
20
119.3100
10
84.5800
20
118.4500
10
82.7100
20
117.7200
10
80.8000
20
117.1100
10
78.8500
20
116.6400
10
76.8800
20
116.3000
10
74.8900
20
116.1000
10
72.9200
20
116.0300
0
LWPOLYLINE
8
CONTOURS
90
26
70
0
10
72.9200
20
120.5300
10
70.9200
20
120.6100
10
68.9400
20
120.8500
10
66.9800
20
121.2600
10
65.0500
20
121.8200
10
63.1700
20
122.5300
10
61.3600
20
123.3900
10
59.6300
20
124.4000
10
57.9800
20
125.5500
10
56.4300
20
126.8200
10
55.0000
20
128.2100
10
53.7100
20
129.6800
10
50.2100
20
126.8400
10
51.5300
20
125.3400
10
52.9400
20
123.9200
10
54.4500
20
122.6000
10
56.0400
20
121.3900
10
57.7200
20
120.3000
10
59.4600
20
119.3100
10
61.2700
20
118.4500
10
63.1300
20
117.7200
10
65.0500
20
117.1100
10
66.9900
20
116.6400
10
68.9600
20
116.3000
10
70.9500
20
116.1000
10
72.9200
20
116.0300
0
LWPOLYLINE
8
CONTOURS
90
6
70
0
10
125.5500
20
34.3400
10
125.0500
20
34.3400
10
125.0500
20
41.4300
10
125.0500
20
92.9600
10
125.0500
20
97.4600
10
125.5500
20
97.4600
0
LWPOLYLINE
8
CONTOURS
90
6
70
0
10
125.5500
20
34.3400
10
126.0500
20
34.3400
10
126.0500
20
41.4300
10
126.0500
20
92.9600
10
126.0500
20
97.4600
10
125.5500
20
97.4600
0
LWPOLYLINE
8
CONTOURS
90
26
70
1
10
22.4100
20
44.8200
10
22.4100
20
104.6700
10
23.9100
20
104.6900
10
25.9100
20
104.8200
10
26.9000
20
104.9800
10
28.2400
20
105.4000
10
30.6800
20
103.6300
10
32.6300
20
102.0800
10
34.1000
20
100.7300
10
35.4900
20
99.2800
10
37.0900
20
97.3600
10
38.5700
20
95.3500
10
39.9300
20
93.2400
10
40.9000
20
91.4900
10
42.2800
20
88.6700
10
41.5100
20
81.7100
10
41.0600
20
76.7300
10
40.7500
20
71.7400
10
40.5900
20
67.2400
10
40.5700
20
62.2400
10
40.6700
20
56.7400
10
40.8800
20
52.2500
10
41.2800
20
47.2600
10
41.5000
20
44.9000
10
29.0000
20
44.8100
10
22.4100
20
44.8200
0
LWPOLYLINE
8
CONTOURS
90
25
70
0
10
22.4100
20
104.6700
10
20.9100
20
104.6900
10
18.9200
20
104.8200
10
17.9300
20
104.9800
10
16.5900
20
105.4000
10
14.1500
20
103.6300
10
12.2000
20
102.0800
10
10.7200
20
100.7300
10
9.3400
20
99.2800
10
7.7300
20
97.3600
10
6.2500
20
95.3500
10
4.9000
20
93.2500
10
3.9300
20
91.5000
10
2.5400
20
88.6700
10
3.3100
20
81.7100
10
3.7600
20
76.7300
10
4.0700
20
71.7400
10
4.2300
20
67.2400
10
4.2500
20
62.2500
10
4.1500
20
56.7500
10
3.9400
20
52.2500
10
3.5400
20
47.2700
10
3.3100
20
44.9000
10
15.8100
20
44.8100
10
22.4100
20
44.8200
0
LWPOLYLINE
8
CONTOURS
90
30
70
1
10
114.2200
20
38.4000
10
94.6900
20
38.4000
10
95.2000
20
45.8800
10
95.5100
20
52.3700
10
95.6900
20
58.8700
10
95.7400
20
65.8700
10
95.6800
20
72.8700
10
95.4800
20
77.8700
10
95.2100
20
82.5500
10
95.7500
20
83.9500
10
97.3700
20
87.0500
10
98.6800
20
89.1800
10
99.8300
20
90.8200
10
101.0800
20
92.3800
10
102.4700
20
93.8200
10
104.8500
20
95.9100
10
105.5500
20
94.5900
10
106.3600
20
93.3200
10
107.0100
20
92.5600
10
107.7500
20
91.8900
10
109.0000
20
91.0600
10
110.3900
20
90.4600
10
111.8400
20
90.1100
10
114.2200
20
89.9400
10
114.2200
20
86.5600
10
114.2200
20
77.4600
10
114.2200
20
68.3700
10
114.2200
20
59.2800
10
114.2200
20
50.1900
10
114.2200
20
38.4000
0
LWPOLYLINE
8
CONTOURS
90
24
70
1
10
66.6100
20
34.1400
10
57.6000
20
34.2200
10
57.1000
20
39.7000
10
56.8500
20
43.6900
10
56.7000
20
48.6900
10
56.6600
20
54.1900
10
56.7500
20
58.6900
10
56.9900
20
63.6800
10
57.3300
20
68.1700
10
57.9400
20
74.1400
10
58.3800
20
77.9800
10
59.3500
20
76.2300
10
61.2100
20
73.2700
10
61.8100
20
72.4600
10
62.5000
20
71.7500
10
63.3000
20
71.1400
10
64.1800
20
70.6700
10
65.6100
20
70.2500
10
65.4600
20
64.2500
10
65.4600
20
58.7500
10
65.6400
20
51.7500
10
65.9300
20
44.2600
10
66.3000
20
38.2700
10
66.6100
20
34.1400
0
LWPOLYLINE
8
CONTOURS
90
24
70
1
10
87.6400
20
89.2500
10
87.6400
20
89.2500
10
88.0000
20
82.7600
10
88.1300
20
78.2600
10
88.1700
20
70.2600
10
88.0900
20
63.7600
10
87.8700
20
57.2600
10
87.5200
20
50.7700
10
87.1300
20
45.1000
10
77.8400
20
45.1000
10
78.3500
20
52.0800
10
78.6200
20
57.5800
10
78.8300
20
65.0800
10
78.9900
20
76.0700
10
79.0200
20
81.2200
10
80.5100
20
81.3700
10
81.5000
20
81.5600
10
82.4500
20
81.8900
10
83.3100
20
82.3900
10
84.0800
20
83.0400
10
84.7400
20
83.8000
10
85.5300
20
85.0800
10
86.3900
20
86.8900
10
87.6400
20
89.2500
0
LWPOLYLINE
8
CONTOURS
90
38
70
1
10
165.6700
20
92.2800
10
165.6800
20
100.9800
10
169.4100
20
101.3800
10
179.7200
20
102.5000
10
190.0200
20
103.6200
10
196.1300
20
104.2800
10
197.6900
20
104.4200
10
200.3300
20
104.6500
10
210.6300
20
105.5600
10
216.1900
20
106.0500
10
218.0400
20
105.3100
10
222.2600
20
103.7400
10
225.5000
20
102.4000
10
228.6600
20
100.9200
10
231.3200
20
99.5100
10
233.4500
20
98.2200
10
236.0800
20
96.4600
10
235.4100
20
95.7200
10
234.2900
20
94.0500
10
233.6000
20
92.7200
10
233.1600
20
91.2900
10
232.8700
20
89.3100
10
232.7400
20
87.0800
10
229.8100
20
85.1800
10
227.6500
20
83.9000
10
225.8800
20
82.9800
10
224.0400
20
82.1900
10
219.3200
20
80.5300
10
217.4700
20
79.7700
10
216.7400
20
79.4400
10
215.3000
20
79.5500
10
210.6200
20
79.8900
10
200.3000
20
80.6400
10
190.0100
20
81.5100
10
179.7100
20
82.3900
10
169.4100
20
83.2600
10
165.6800
20
83.5800
10
165.6700
20
92.2800
0
LWPOLYLINE
8
CONTOURS
90
16
70
1
10
167.0400
20
67.4700
10
166.2600
20
71.7000
10
200.8700
20
75.0000
10
217.2500
20
76.7600
10
215.6800
20
75.5200
10
214.5700
20
74.5200
10
213.5800
20
73.3900
10
212.7900
20
72.1100
10
212.1700
20
70.7400
10
211.7000
20
69.3200
10
211.3500
20
67.7200
10
201.3500
20
67.6100
10
193.3500
20
67.6500
10
182.3500
20
67.7700
10
176.3500
20
67.7200
10
167.0400
20
67.4700
0
LWPOLYLINE
8
CONTOURS
90
18
70
1
10
215.4100
20
108.2200
10
215.4100
20
108.2200
10
191.4900
20
110.1900
10
179.5200
20
111.0300
10
164.7900
20
111.9400
10
165.5500
20
116.1800
10
173.5400
20
115.8800
10
179.0400
20
115.7900
10
185.5400
20
115.8300
10
199.0400
20
116.0900
10
209.8900
20
116.1400
10
210.3900
20
114.7200
10
210.9700
20
113.3400
10
211.6900
20
112.0200
10
212.5500
20
110.7900
10
213.5700
20
109.6900
10
214.7100
20
108.7200
10
215.4100
20
108.2200
0
LWPOLYLINE
8
CONTOURS
90
4
70
0
10
125.5500
20
81.3000
10
125.5500
20
82.7000
10
124.8500
20
82.0000
10
126.2500
20
82.0000
0
LWPOLYLINE
8
CONTOURS
90
4
70
0
10
125.5500
20
33.9300
10
125.5500
20
35.3300
10
124.8500
20
34.6300
10
126.2500
20
34.6300
0
LWPOLYLINE
8
CONTOURS
90
4
70
0
10
125.5500
20
96.2500
10
125.5500
20
97.6500
10
124.8500
20
96.9500
10
126.2500
20
96.9500
0
ENDSEC
0
EOF