0
SECTION
2
HEADER
9
$ACADVER
1
AC1015
9
$INSUNITS
70
4
0
ENDSEC
0
SECTION
2
TABLES
0
TABLE
2
LAYER
70
3
0
LAYER
2
0
70
0
62
7
6
CONTINUOUS
0
LAYER
2
CONTOURS
70
0
62
7
6
CONTINUOUS
0
LAYER
2
FILL
70
0
62
8
6
CONTINUOUS
0
ENDTAB
0
ENDSEC
0
SECTION
2
ENTITIES
0
LWPOLYLINE
8
CONTOURS
90
36
70
0
10
0.1600
20
33.9900
10
6.3700
20
33.8600
10
53.8200
20
33.4100
10
53.7300
20
32.5300
10
53.7800
20
32.3300
10
53.9200
20
32.1200
10
54.1000
20
31.9700
10
55.4500
20
31.0900
10
56.3200
20
30.7200
10
57.4700
20
30.3800
10
58.4900
20
30.1400
10
59.5300
20
29.9600
10
60.6400
20
29.8200
10
61.8400
20
29.7200
10
64.0800
20
29.6400
10
66.9500
20
29.5900
10
68.3500
20
29.6100
10
69.4400
20
29.6900
10
78.7300
20
30.5700
10
82.1200
20
31.0900
10
87.3700
20
32.1000
10
93.9600
20
9.1400
10
92.6700
20
8.2600
10
92.1700
20
7.7900
10
91.8200
20
7.3600
10
91.5100
20
6.8900
10
91.2300
20
6.3700
10
90.9700
20
5.7800
10
90.6600
20
4.8400
10
90.5300
20
4.2500
10
90.4600
20
3.6600
10
90.4300
20
2.4900
10
90.5000
20
0.0400
10
37.0700
20
0.0200
10
6.4100
20
0.0800
10
0.0100
20
0.0600
0
LWPOLYLINE
8
CONTOURS
90
36
70
0
10
0.1600
20
67.9900
10
6.3700
20
67.8600
10
53.8200
20
67.4100
10
53.7300
20
66.5300
10
53.7800
20
66.3300
10
53.9200
20
66.1200
10
54.1000
20
65.9700
10
55.4500
20
65.0900
10
56.3200
20
64.7200
10
57.4700
20
64.3800
10
58.4900
20
64.1400
10
59.5300
20
63.9600
10
60.6400
20
63.8200
10
61.8400
20
63.7200
10
64.0800
20
63.6400
10
66.9500
20
63.5900
10
68.3500
20
63.6100
10
69.4400
20
63.6900
10
78.7300
20
64.5700
10
82.1200
20
65.0900
10
87.3700
20
66.1000
10
93.9600
20
43.1400
10
92.6700
20
42.2600
10
92.1700
20
41.7900
10
91.8200
20
41.3600
10
91.5100
20
40.8900
10
91.2300
20
40.3700
10
90.9700
20
39.7800
10
90.6600
20
38.8400
10
90.5300
20
38.2500
10
90.4600
20
37.6600
10
90.4300
20
36.4900
10
90.5000
20
34.0400
10
37.0700
20
34.0200
10
6.4100
20
34.0800
10
0.0100
20
34.0600
0
LWPOLYLINE
8
CONTOURS
90
36
70
0
10
0.1600
20
68.0200
10
6.3700
20
68.1500
10
53.8200
20
68.6000
10
53.7300
20
69.4800
10
53.7800
20
69.6800
10
53.9200
20
69.8900
10
54.1000
20
70.0400
10
55.4500
20
70.9200
10
56.3200
20
71.3000
10
57.4700
20
71.6300
10
58.4900
20
71.8700
10
59.5300
20
72.0500
10
60.6400
20
72.1900
10
61.8400
20
72.2900
10
64.0800
20
72.3700
10
66.9500
20
72.4200
10
68.3500
20
72.4000
10
69.4400
20
72.3200
10
78.7300
20
71.4400
10
82.1200
20
70.9200
10
87.3700
20
69.9100
10
93.9600
20
92.8700
10
92.6700
20
93.7500
10
92.1700
20
94.2200
10
91.8200
20
94.6500
10
91.5100
20
95.1200
10
91.2300
20
95.6400
10
90.9700
20
96.2300
10
90.6600
20
97.1700
10
90.5300
20
97.7600
10
90.4600
20
98.3500
10
90.4300
20
99.5200
10
90.5000
20
101.9700
10
37.0700
20
101.9900
10
6.4100
20
101.9300
10
0.0100
20
101.9500
0
LWPOLYLINE
8
CONTOURS
90
36
70
0
10
0.1600
20
102.0200
10
6.3700
20
102.1500
10
53.8200
20
102.6000
10
53.7300
20
103.4800
10
53.7800
20
103.6800
10
53.9200
20
103.8900
10
54.1000
20
104.0400
10
55.4500
20
104.9200
10
56.3200
20
105.3000
10
57.4700
20
105.6300
10
58.4900
20
105.8700
10
59.5300
20
106.0500
10
60.6400
20
106.1900
10
61.8400
20
106.2900
10
64.0800
20
106.3700
10
66.9500
20
106.4200
10
68.3500
20
106.4000
10
69.4400
20
106.3200
10
78.7300
20
105.4400
10
82.1200
20
104.9200
10
87.3700
20
103.9100
10
93.9600
20
126.8700
10
92.6700
20
127.7500
10
92.1700
20
128.2200
10
91.8200
20
128.6500
10
91.5100
20
129.1200
10
91.2300
20
129.6400
10
90.9700
20
130.2300
10
90.6600
20
131.1700
10
90.5300
20
131.7600
10
90.4600
20
132.3500
10
90.4300
20
133.5200
10
90.5000
20
135.9700
10
37.0700
20
135.9900
10
6.4100
20
135.9300
10
0.0100
20
135.9500
0
LWPOLYLINE
8
CONTOURS
90
38
70
0
10
90.8100
20
54.2100
10
117.8200
20
53.6400
10
162.3400
20
53.4600
10
164.3500
20
53.5300
10
174.6500
20
53.4400
10
175.8900
20
55.7200
10
176.2000
20
56.1400
10
176.7100
20
56.7200
10
177.0900
20
57.0700
10
177.4900
20
57.3800
10
178.1100
20
57.7800
10
178.5300
20
57.9900
10
179.1700
20
58.2200
10
179.8800
20
58.3800
10
180.3700
20
58.4500
10
180.6300
20
58.4600
10
183.2600
20
58.3100
10
176.6100
20
82.2400
10
170.3800
20
80.5200
10
167.8200
20
79.9200
10
164.6000
20
79.3000
10
162.3900
20
78.9300
10
159.9200
20
78.6200
10
157.2200
20
78.4200
10
155.3300
20
78.3400
10
154.2000
20
78.3400
10
153.7100
20
78.3700
10
152.2800
20
78.5200
10
150.8200
20
78.7900
10
149.9700
20
79.0200
10
149.2100
20
79.2800
10
148.5300
20
79.5600
10
147.9300
20
79.8700
10
147.3900
20
80.2100
10
146.6300
20
80.8000
10
145.4700
20
82.0200
10
145.4700
20
83.2100
10
91.8100
20
84.5900
0
LWPOLYLINE
8
CONTOURS
90
38
70
0
10
92.4100
20
94.0100
10
119.4200
20
93.4400
10
163.9400
20
93.2600
10
165.9500
20
93.3300
10
176.2500
20
93.2400
10
177.4900
20
95.5200
10
177.8000
20
95.9400
10
178.3100
20
96.5200
10
178.6900
20
96.8700
10
179.0900
20
97.1800
10
179.7100
20
97.5800
10
180.1300
20
97.7900
10
180.7700
20
98.0200
10
181.4800
20
98.1800
10
181.9700
20
98.2500
10
182.2300
20
98.2600
10
184.8600
20
98.1100
10
178.2100
20
122.0400
10
171.9800
20
120.3200
10
169.4200
20
119.7200
10
166.2000
20
119.1000
10
163.9900
20
118.7300
10
161.5200
20
118.4200
10
158.8200
20
118.2200
10
156.9300
20
118.1400
10
155.8000
20
118.1400
10
155.3100
20
118.1700
10
153.8800
20
118.3200
10
152.4200
20
118.5900
10
151.5700
20
118.8200
10
150.8100
20
119.0800
10
150.1300
20
119.3600
10
149.5300
20
119.6700
10
148.9900
20
120.0100
10
148.2300
20
120.6000
10
147.0700
20
121.8200
10
147.0700
20
123.0100
10
93.4100
20
124.3900
0
LWPOLYLINE
8
CONTOURS
90
38
70
0
10
92.4100
20
41.9200
10
119.4200
20
42.4900
10
163.9400
20
42.6800
10
165.9500
20
42.6000
10
176.2500
20
42.6900
10
177.4900
20
40.4100
10
177.8000
20
39.9900
10
178.3100
20
39.4100
10
178.6900
20
39.0600
10
179.0900
20
38.7500
10
179.7100
20
38.3500
10
180.1300
20
38.1400
10
180.7700
20
37.9100
10
181.4800
20
37.7500
10
181.9700
20
37.6800
10
182.2300
20
37.6700
10
184.8600
20
37.8300
10
178.2100
20
13.8900
10
171.9800
20
15.6100
10
169.4200
20
16.2100
10
166.2000
20
16.8400
10
163.9900
20
17.2000
10
161.5200
20
17.5100
10
158.8200
20
17.7100
10
156.9300
20
17.7900
10
155.8000
20
17.7900
10
155.3100
20
17.7600
10
153.8800
20
17.6100
10
152.4200
20
17.3400
10
151.5700
20
17.1100
10
150.8100
20
16.8600
10
150.1300
20
16.5700
10
149.5300
20
16.2600
10
148.9900
20
15.9200
10
148.2300
20
15.3300
10
147.0700
20
14.1100
10
147.0700
20
12.9200
10
93.4100
20
11.5400
0
LWPOLYLINE
8
CONTOURS
90
38
70
0
10
179.0100
20
146.4200
10
206.0200
20
146.9900
10
250.5400
20
147.1800
10
252.5500
20
147.1000
10
262.8500
20
147.1900
10
264.0900
20
144.9100
10
264.4000
20
144.4900
10
264.9100
20
143.9100
10
265.2900
20
143.5600
10
265.6900
20
143.2500
10
266.3100
20
142.8500
10
266.7300
20
142.6400
10
267.3700
20
142.4100
10
268.0800
20
142.2500
10
268.5700
20
142.1800
10
268.8300
20
142.1700
10
271.4600
20
142.3300
10
264.8100
20
118.3900
10
258.5800
20
120.1100
10
256.0200
20
120.7100
10
252.8000
20
121.3400
10
250.5900
20
121.7000
10
248.1200
20
122.0100
10
245.4200
20
122.2100
10
243.5300
20
122.2900
10
242.4000
20
122.2900
10
241.9100
20
122.2600
10
240.4800
20
122.1100
10
239.0200
20
121.8400
10
238.1700
20
121.6100
10
237.4100
20
121.3600
10
236.7300
20
121.0700
10
236.1300
20
120.7600
10
235.5900
20
120.4200
10
234.8300
20
119.8300
10
233.6700
20
118.6100
10
233.6700
20
117.4200
10
180.0100
20
116.0400
0
LWPOLYLINE
8
CONTOURS
90
55
70
0
10
183.6700
20
61.9700
10
183.6000
20
64.5800
10
183.5500
20
65.0100
10
183.3700
20
65.8700
10
183.0300
20
66.9000
10
182.6300
20
67.6800
10
182.3800
20
68.0300
10
181.9500
20
68.5300
10
181.6400
20
68.8300
10
180.2100
20
69.8300
10
186.9200
20
92.8700
10
193.0700
20
91.6700
10
194.3200
20
91.4900
10
204.2100
20
90.5100
10
205.5000
20
90.4500
10
210.0400
20
90.4700
10
213.0400
20
90.6100
10
214.1500
20
90.7200
10
215.1700
20
90.8700
10
216.1200
20
91.0500
10
217.0200
20
91.2700
10
217.9200
20
91.5600
10
219.0700
20
92.0900
10
219.9500
20
92.5700
10
220.2400
20
92.8100
10
220.4200
20
93.0500
10
220.5000
20
93.2400
10
220.6200
20
94.3900
10
233.4600
20
94.3900
10
233.4300
20
61.9800
10
233.4600
20
29.5500
10
220.6200
20
29.5500
10
220.4500
20
30.8000
10
220.3500
20
30.9900
10
220.2300
20
31.1500
10
219.8300
20
31.4600
10
219.5100
20
31.6300
10
217.9300
20
32.3800
10
216.8000
20
32.7300
10
215.1600
20
33.0700
10
213.1800
20
33.3200
10
210.8400
20
33.4500
10
205.9000
20
33.5000
10
204.5600
20
33.4500
10
200.0900
20
33.0500
10
193.3600
20
32.3100
10
186.9200
20
31.0700
10
180.2100
20
54.1100
10
181.6400
20
55.1100
10
182.2400
20
55.7300
10
182.6300
20
56.2600
10
182.9400
20
56.8400
10
183.2500
20
57.6500
10
183.5100
20
58.7100
10
183.6300
20
59.5700
0
LWPOLYLINE
8
CONTOURS
90
55
70
0
10
283.3000
20
32.4700
10
283.3700
20
29.8600
10
283.4300
20
29.4300
10
283.6100
20
28.5700
10
283.9400
20
27.5400
10
284.3500
20
26.7600
10
284.5900
20
26.4100
10
285.0200
20
25.9100
10
285.3400
20
25.6100
10
286.7600
20
24.6100
10
280.0500
20
1.5700
10
273.9000
20
2.7700
10
272.6600
20
2.9500
10
262.7700
20
3.9300
10
261.4700
20
3.9900
10
256.9400
20
3.9700
10
253.9300
20
3.8300
10
252.8300
20
3.7200
10
251.8100
20
3.5700
10
250.8600
20
3.3900
10
249.9600
20
3.1700
10
249.0500
20
2.8800
10
247.9000
20
2.3500
10
247.0200
20
1.8700
10
246.7300
20
1.6300
10
246.5600
20
1.3900
10
246.4700
20
1.2000
10
246.3500
20
0.0500
10
233.5100
20
0.0500
10
233.5400
20
32.4600
10
233.5100
20
64.8900
10
246.3500
20
64.8900
10
246.5200
20
63.6400
10
246.6200
20
63.4500
10
246.7400
20
63.2900
10
247.1500
20
62.9800
10
247.4700
20
62.8100
10
249.0500
20
62.0600
10
250.1700
20
61.7100
10
251.8100
20
61.3700
10
253.7900
20
61.1200
10
256.1300
20
60.9900
10
261.0800
20
60.9400
10
262.4100
20
60.9900
10
266.8800
20
61.3900
10
273.6100
20
62.1300
10
280.0500
20
63.3700
10
286.7600
20
40.3300
10
285.3300
20
39.3300
10
284.7300
20
38.7100
10
284.3500
20
38.1800
10
284.0300
20
37.6000
10
283.7200
20
36.7900
10
283.4700
20
35.7300
10
283.3500
20
34.8700
0
LWPOLYLINE
8
CONTOURS
90
53
70
0
10
243.2100
20
75.2600
10
250.6400
20
74.2500
10
252.7300
20
73.9100
10
255.1900
20
73.4100
10
256.6100
20
73.0500
10
258.6700
20
72.4300
10
261.4800
20
71.4300
10
264.5800
20
70.2800
10
266.1800
20
69.6300
10
270.2800
20
67.7500
10
275.1200
20
65.6600
10
287.6800
20
60.0100
10
288.3100
20
61.9800
10
289.2100
20
64.9700
10
290.0300
20
67.3900
10
290.5600
20
68.7300
10
291.3700
20
70.5200
10
292.0000
20
71.7600
10
293.3000
20
74.0500
10
295.3600
20
77.5900
10
296.5500
20
79.8600
10
297.6200
20
82.1300
10
298.6400
20
84.4400
10
299.1800
20
85.8400
10
299.9000
20
88.2500
10
300.2700
20
89.7100
10
300.6800
20
91.9500
10
300.8500
20
93.1400
10
300.9400
20
94.5400
10
300.9400
20
94.9500
10
300.8600
20
96.2000
10
300.7300
20
97.1200
10
300.5300
20
98.1300
10
300.2700
20
99.2000
10
299.9400
20
100.3300
10
299.2900
20
102.2100
10
298.3800
20
104.4500
10
297.2300
20
106.9400
10
295.7900
20
109.7800
10
292.7700
20
115.4600
10
292.0100
20
117.0400
10
291.1800
20
118.9700
10
290.2900
20
121.5400
10
289.6200
20
123.9200
10
288.6300
20
128.0900
10
279.1300
20
124.0400
10
272.5100
20
121.2800
10
259.0800
20
116.1400
10
257.5700
20
115.6400
10
255.0000
20
114.9200
10
253.6600
20
114.6100
10
248.9400
20
113.7700
10
243.2300
20
113.0500
0
LWPOLYLINE
8
CONTOURS
90
53
70
0
10
342.9400
20
68.1400
10
335.5100
20
69.1500
10
333.4200
20
69.4900
10
330.9600
20
69.9900
10
329.5400
20
70.3500
10
327.4800
20
70.9700
10
324.6600
20
71.9600
10
321.5700
20
73.1200
10
319.9700
20
73.7700
10
315.8700
20
75.6500
10
311.0200
20
77.7400
10
298.4700
20
83.3900
10
297.8300
20
81.4100
10
296.9400
20
78.4300
10
296.1200
20
76.0100
10
295.5900
20
74.6700
10
294.7800
20
72.8800
10
294.1400
20
71.6400
10
292.8500
20
69.3500
10
290.7900
20
65.8100
10
289.6000
20
63.5400
10
288.5200
20
61.2700
10
287.5100
20
58.9600
10
286.9700
20
57.5600
10
286.2500
20
55.1500
10
285.8700
20
53.6900
10
285.4600
20
51.4400
10
285.3000
20
50.2600
10
285.2100
20
48.8600
10
285.2100
20
48.4500
10
285.2900
20
47.2000
10
285.4200
20
46.2800
10
285.6100
20
45.2700
10
285.8700
20
44.2000
10
286.2000
20
43.0700
10
286.8600
20
41.1900
10
287.7700
20
38.9500
10
288.9100
20
36.4600
10
290.3600
20
33.6200
10
293.3700
20
27.9400
10
294.1400
20
26.3600
10
294.9700
20
24.4300
10
295.8600
20
21.8600
10
296.5300
20
19.4800
10
297.5200
20
15.3100
10
307.0100
20
19.3600
10
313.6400
20
22.1200
10
327.0700
20
27.2600
10
328.5800
20
27.7600
10
331.1500
20
28.4800
10
332.4900
20
28.7900
10
337.2100
20
29.6300
10
342.9100
20
30.3500
0
LWPOLYLINE
8
CONTOURS
90
53
70
0
10
354.3400
20
94.3600
10
346.9100
20
93.3500
10
344.8200
20
93.0100
10
342.3600
20
92.5100
10
340.9400
20
92.1500
10
338.8800
20
91.5300
10
336.0600
20
90.5300
10
332.9700
20
89.3800
10
331.3700
20
88.7300
10
327.2700
20
86.8500
10
322.4200
20
84.7600
10
309.8700
20
79.1100
10
309.2300
20
81.0800
10
308.3400
20
84.0700
10
307.5200
20
86.4900
10
306.9900
20
87.8300
10
306.1800
20
89.6200
10
305.5400
20
90.8600
10
304.2500
20
93.1500
10
302.1900
20
96.6900
10
301.0000
20
98.9600
10
299.9200
20
101.2300
10
298.9100
20
103.5400
10
298.3700
20
104.9400
10
297.6500
20
107.3500
10
297.2700
20
108.8100
10
296.8600
20
111.0500
10
296.7000
20
112.2400
10
296.6100
20
113.6400
10
296.6100
20
114.0500
10
296.6900
20
115.3000
10
296.8200
20
116.2200
10
297.0100
20
117.2300
10
297.2700
20
118.3000
10
297.6000
20
119.4300
10
298.2600
20
121.3100
10
299.1700
20
123.5500
10
300.3100
20
126.0400
10
301.7600
20
128.8800
10
304.7700
20
134.5600
10
305.5400
20
136.1400
10
306.3700
20
138.0700
10
307.2600
20
140.6400
10
307.9300
20
143.0200
10
308.9200
20
147.1900
10
318.4100
20
143.1400
10
325.0400
20
140.3800
10
338.4700
20
135.2400
10
339.9800
20
134.7400
10
342.5500
20
134.0200
10
343.8900
20
133.7100
10
348.6100
20
132.8700
10
354.3100
20
132.1500
0
LWPOLYLINE
8
CONTOURS
90
53
70
0
10
400.7400
20
15.2600
10
393.3100
20
14.2500
10
391.2200
20
13.9100
10
388.7600
20
13.4100
10
387.3400
20
13.0500
10
385.2800
20
12.4300
10
382.4600
20
11.4300
10
379.3700
20
10.2800
10
377.7700
20
9.6300
10
373.6700
20
7.7500
10
368.8200
20
5.6600
10
356.2700
20
0.0100
10
355.6300
20
1.9800
10
354.7400
20
4.9700
10
353.9200
20
7.3900
10
353.3900
20
8.7300
10
352.5800
20
10.5200
10
351.9400
20
11.7600
10
350.6500
20
14.0500
10
348.5900
20
17.5900
10
347.4000
20
19.8600
10
346.3200
20
22.1300
10
345.3100
20
24.4400
10
344.7700
20
25.8400
10
344.0500
20
28.2500
10
343.6700
20
29.7100
10
343.2600
20
31.9500
10
343.1000
20
33.1400
10
343.0100
20
34.5400
10
343.0100
20
34.9500
10
343.0900
20
36.2000
10
343.2200
20
37.1200
10
343.4200
20
38.1300
10
343.6700
20
39.2000
10
344.0000
20
40.3300
10
344.6600
20
42.2100
10
345.5700
20
44.4500
10
346.7100
20
46.9400
10
348.1600
20
49.7800
10
351.1700
20
55.4600
10
351.9400
20
57.0400
10
352.7700
20
58.9700
10
353.6600
20
61.5400
10
354.3300
20
63.9200
10
355.3200
20
68.0900
10
364.8100
20
64.0400
10
371.4400
20
61.2800
10
384.8700
20
56.1400
10
386.3800
20
55.6400
10
388.9500
20
54.9200
10
390.2900
20
54.6100
10
395.0100
20
53.7700
10
400.7100
20
53.0500
0
LWPOLYLINE
8
CONTOURS
90
25
70
0
10
112.5100
20
147.2500
10
112.2100
20
146.0500
10
112.2600
20
145.5100
10
112.4600
20
144.8700
10
113.3900
20
142.8500
10
114.1600
20
141.4000
10
114.6200
20
140.7600
10
115.1400
20
140.1900
10
115.7100
20
139.7000
10
116.3000
20
139.3200
10
116.9100
20
139.0200
10
117.5900
20
138.8000
10
118.1000
20
138.6800
10
118.9400
20
138.5600
10
121.3900
20
138.5500
10
119.2700
20
131.2700
10
114.1300
20
132.4500
10
112.3600
20
132.7700
10
98.8200
20
135.0500
10
92.1700
20
135.8600
10
90.2600
20
136.0200
10
83.5600
20
136.2900
10
42.0600
20
137.3200
10
32.5100
20
137.5100
10
32.5600
20
147.2900
0
LWPOLYLINE
8
CONTOURS
90
25
70
0
10
400.0100
20
83.5500
10
399.7100
20
82.3500
10
399.7600
20
81.8100
10
399.9600
20
81.1700
10
400.8900
20
79.1500
10
401.6600
20
77.7000
10
402.1200
20
77.0600
10
402.6400
20
76.4900
10
403.2100
20
76.0000
10
403.8000
20
75.6200
10
404.4100
20
75.3200
10
405.0900
20
75.1000
10
405.6000
20
74.9800
10
406.4400
20
74.8600
10
408.8900
20
74.8500
10
406.7700
20
67.5700
10
401.6300
20
68.7500
10
399.8600
20
69.0700
10
386.3200
20
71.3500
10
379.6700
20
72.1600
10
377.7600
20
72.3200
10
371.0600
20
72.5900
10
329.5600
20
73.6200
10
320.0100
20
73.8100
10
320.0600
20
83.5900
0
LWPOLYLINE
8
CONTOURS
90
25
70
0
10
182.6100
20
0.1100
10
182.3100
20
1.3100
10
182.3600
20
1.8500
10
182.5600
20
2.4900
10
183.4900
20
4.5100
10
184.2600
20
5.9600
10
184.7200
20
6.6000
10
185.2400
20
7.1700
10
185.8100
20
7.6600
10
186.4000
20
8.0400
10
187.0100
20
8.3400
10
187.6900
20
8.5600
10
188.2000
20
8.6800
10
189.0400
20
8.8000
10
191.4900
20
8.8100
10
189.3700
20
16.0900
10
184.2300
20
14.9100
10
182.4600
20
14.5900
10
168.9200
20
12.3100
10
162.2700
20
11.5000
10
160.3600
20
11.3400
10
153.6600
20
11.0700
10
112.1600
20
10.0400
10
102.6100
20
9.8500
10
102.6600
20
0.0700
0
LWPOLYLINE
8
CONTOURS
90
25
70
0
10
355.7900
20
99.6500
10
356.0900
20
98.4500
10
356.0400
20
97.9100
10
355.8500
20
97.2700
10
354.9200
20
95.2500
10
354.1500
20
93.8000
10
353.6800
20
93.1600
10
353.1600
20
92.5900
10
352.6000
20
92.1000
10
352.0100
20
91.7200
10
351.4000
20
91.4200
10
350.7100
20
91.2000
10
350.2100
20
91.0800
10
349.3600
20
90.9600
10
346.9100
20
90.9500
10
349.0300
20
83.6700
10
354.1800
20
84.8500
10
355.9400
20
85.1700
10
369.4900
20
87.4500
10
376.1300
20
88.2600
10
378.0400
20
88.4200
10
384.7400
20
88.6900
10
426.2500
20
89.7200
10
435.7900
20
89.9100
10
435.7500
20
99.6900
0
LWPOLYLINE
8
CONTOURS
90
7
70
0
10
94.1500
20
42.8300
10
93.8500
20
47.5100
10
93.5100
20
49.5700
10
93.0900
20
51.0800
10
92.1100
20
53.4900
10
174.5200
20
53.3200
10
174.6000
20
42.7400
0
LWPOLYLINE
8
CONTOURS
90
7
70
0
10
335.1500
20
136.6300
10
334.8500
20
141.3100
10
334.5100
20
143.3700
10
334.0900
20
144.8800
10
333.1100
20
147.2900
10
415.5200
20
147.1200
10
415.6000
20
136.5400
0
LWPOLYLINE
8
CONTOURS
90
7
70
0
10
355.0500
20
125.5300
10
354.7500
20
130.2100
10
354.4100
20
132.2700
10
353.9900
20
133.7800
10
353.0100
20
136.1900
10
435.4200
20
136.0200
10
435.5000
20
125.4400
0
LWPOLYLINE
8
CONTOURS
90
7
70
0
10
434.8600
20
110.4000
10
435.1600
20
105.7200
10
435.5100
20
103.6600
10
435.9200
20
102.1500
10
436.9000
20
99.7400
10
354.4900
20
99.9100
10
354.4100
20
110.4900
0
LWPOLYLINE
8
CONTOURS
90
7
70
0
10
177.4100
20
125.2400
10
94.1600
20
125.0800
10
94.3200
20
126.1100
10
93.5000
20
128.6700
10
92.9100
20
129.8900
10
93.3600
20
130.9800
10
177.4900
20
130.9900
0
LWPOLYLINE
8
CONTOURS
90
7
70
0
10
93.3900
20
90.4300
10
176.6400
20
90.5900
10
176.4800
20
89.5600
10
177.3000
20
87.0000
10
177.8900
20
85.7900
10
177.4400
20
84.6900
10
93.3100
20
84.6800
0
LWPOLYLINE
8
CONTOURS
90
7
70
0
10
354.4900
20
110.7400
10
437.7400
20
110.5800
10
437.5800
20
111.6100
10
438.4000
20
114.1700
10
438.9900
20
115.3900
10
438.5400
20
116.4800
10
354.4100
20
116.4900
0
LWPOLYLINE
8
CONTOURS
90
7
70
0
10
354.4900
20
116.7400
10
437.7400
20
116.5800
10
437.5800
20
117.6100
10
438.4000
20
120.1700
10
438.9900
20
121.3900
10
438.5400
20
122.4800
10
354.4100
20
122.4900
0
LWPOLYLINE
8
CONTOURS
90
37
70
0
10
443.3400
20
29.8500
10
444.4200
20
27.8400
10
444.6900
20
27.4600
10
445.1200
20
26.9300
10
445.4400
20
26.6000
10
445.9500
20
26.1500
10
446.3300
20
25.8800
10
446.7200
20
25.6300
10
447.3400
20
25.3300
10
447.7700
20
25.1600
10
448.4300
20
24.9700
10
448.8800
20
24.8800
10
450.7100
20
24.8100
10
451.6700
20
24.0600
10
445.3100
20
1.0900
10
438.0800
20
3.0900
10
436.7700
20
3.3700
10
430.9400
20
4.4900
10
429.7400
20
4.6300
10
425.1400
20
4.9700
10
423.8000
20
5.0100
10
422.9000
20
4.9900
10
421.1700
20
4.8400
10
420.2400
20
4.6900
10
419.0300
20
4.4200
10
418.3300
20
4.2200
10
417.4000
20
3.8700
10
416.2900
20
3.2900
10
415.7700
20
2.9500
10
415.3000
20
2.6000
10
414.9200
20
2.2500
10
414.6200
20
1.8700
10
414.4700
20
1.5700
10
414.3800
20
1.2700
10
414.3200
20
0.0000
10
400.8200
20
0.0100
10
400.8100
20
29.8900
0
LWPOLYLINE
8
CONTOURS
90
37
70
0
10
443.3400
20
59.7500
10
444.4200
20
57.7400
10
444.6900
20
57.3600
10
445.1200
20
56.8300
10
445.4400
20
56.5000
10
445.9500
20
56.0500
10
446.3300
20
55.7800
10
446.7200
20
55.5300
10
447.3400
20
55.2300
10
447.7700
20
55.0600
10
448.4300
20
54.8700
10
448.8800
20
54.7800
10
450.7100
20
54.7100
10
451.6700
20
53.9600
10
445.3100
20
30.9900
10
438.0800
20
32.9900
10
436.7700
20
33.2700
10
430.9400
20
34.3900
10
429.7400
20
34.5300
10
425.1400
20
34.8700
10
423.8000
20
34.9100
10
422.9000
20
34.8900
10
421.1700
20
34.7400
10
420.2400
20
34.5900
10
419.0300
20
34.3200
10
418.3300
20
34.1200
10
417.4000
20
33.7700
10
416.2900
20
33.1900
10
415.7700
20
32.8500
10
415.3000
20
32.5000
10
414.9200
20
32.1500
10
414.6200
20
31.7700
10
414.4700
20
31.4700
10
414.3800
20
31.1700
10
414.3200
20
29.9000
10
400.8200
20
29.9100
10
400.8100
20
59.7900
0
LWPOLYLINE
8
CONTOURS
90
37
70
0
10
414.8400
20
89.3500
10
413.7600
20
87.3400
10
413.4900
20
86.9600
10
413.0600
20
86.4300
10
412.7400
20
86.1000
10
412.2300
20
85.6500
10
411.8500
20
85.3800
10
411.4600
20
85.1300
10
410.8400
20
84.8300
10
410.4100
20
84.6600
10
409.7500
20
84.4700
10
409.3000
20
84.3800
10
407.4700
20
84.3100
10
406.5100
20
83.5600
10
412.8700
20
60.5900
10
420.1000
20
62.5900
10
421.4100
20
62.8700
10
427.2400
20
63.9900
10
428.4400
20
64.1300
10
433.0400
20
64.4700
10
434.3800
20
64.5100
10
435.2800
20
64.4900
10
437.0100
20
64.3400
10
437.9400
20
64.1900
10
439.1500
20
63.9200
10
439.8500
20
63.7200
10
440.7800
20
63.3700
10
441.8900
20
62.7900
10
442.4100
20
62.4500
10
442.8800
20
62.1000
10
443.2600
20
61.7500
10
443.5600
20
61.3700
10
443.7100
20
61.0700
10
443.8000
20
60.7700
10
443.8600
20
59.5000
10
457.3600
20
59.5100
10
457.3700
20
89.3900
0
LWPOLYLINE
8
CONTOURS
90
37
70
0
10
442.4400
20
146.9500
10
441.3600
20
144.9400
10
441.0900
20
144.5600
10
440.6600
20
144.0300
10
440.3400
20
143.7000
10
439.8300
20
143.2500
10
439.4500
20
142.9800
10
439.0600
20
142.7300
10
438.4400
20
142.4300
10
438.0100
20
142.2600
10
437.3500
20
142.0700
10
436.9000
20
141.9800
10
435.0700
20
141.9100
10
434.1100
20
141.1600
10
440.4700
20
118.1900
10
447.7000
20
120.1900
10
449.0100
20
120.4700
10
454.8400
20
121.5900
10
456.0400
20
121.7300
10
460.6400
20
122.0700
10
461.9800
20
122.1100
10
462.8800
20
122.0900
10
464.6100
20
121.9400
10
465.5400
20
121.7900
10
466.7500
20
121.5200
10
467.4500
20
121.3200
10
468.3800
20
120.9700
10
469.4900
20
120.3900
10
470.0100
20
120.0500
10
470.4800
20
119.7000
10
470.8600
20
119.3500
10
471.1600
20
118.9700
10
471.3100
20
118.6700
10
471.4000
20
118.3700
10
471.4600
20
117.1000
10
484.9600
20
117.1100
10
484.9700
20
146.9900
0
LWPOLYLINE
8
CONTOURS
90
69
70
0
10
461.2300
20
30.6300
10
461.3300
20
27.5000
10
461.4800
20
25.2000
10
461.6400
20
23.8000
10
461.8300
20
22.6400
10
462.1500
20
21.2700
10
462.3700
20
20.6200
10
462.7600
20
19.7700
10
463.3900
20
18.7200
10
463.9600
20
17.9100
10
464.4500
20
17.2800
10
465.8300
20
15.7800
10
466.5600
20
15.0700
10
466.8800
20
14.5600
10
467.4500
20
8.2100
10
460.5100
20
3.9000
10
459.2600
20
3.2500
10
458.9600
20
3.1300
10
458.4400
20
2.9500
10
457.9700
20
2.8900
10
457.7500
20
2.9300
10
457.4600
20
3.0400
10
456.8800
20
3.3100
10
456.6200
20
3.4900
10
456.4100
20
3.7000
10
456.2000
20
3.9900
10
455.8700
20
4.6300
10
455.4800
20
5.6500
10
454.5800
20
8.4800
10
453.4900
20
12.2200
10
453.0400
20
14.0800
10
452.4300
20
17.3100
10
452.1600
20
18.9800
10
451.9300
20
21.1300
10
451.6800
20
24.6000
10
451.6200
20
27.1100
10
451.6100
20
30.6600
10
451.6500
20
34.5200
10
451.7100
20
36.6900
10
451.9300
20
39.6600
10
452.1400
20
41.7000
10
452.4600
20
43.7800
10
453.1500
20
47.3000
10
453.4600
20
48.6400
10
454.5000
20
52.1800
10
455.2000
20
54.4300
10
455.9600
20
56.5500
10
456.3000
20
57.2300
10
456.5200
20
57.5600
10
456.7400
20
57.7900
10
457.2100
20
58.0700
10
458.0200
20
58.3800
10
458.2800
20
58.3900
10
458.4900
20
58.3500
10
459.1400
20
58.1400
10
460.6600
20
57.3700
10
467.5700
20
53.0200
10
466.9600
20
46.6800
10
466.5600
20
46.0800
10
465.7700
20
45.3200
10
464.2400
20
43.6300
10
463.5000
20
42.6000
10
462.9700
20
41.7600
10
462.4900
20
40.8100
10
462.1800
20
39.9300
10
461.9800
20
39.1700
10
461.6200
20
37.0600
10
461.4700
20
35.7000
10
461.3200
20
33.4100
0
LWPOLYLINE
8
CONTOURS
90
69
70
0
10
467.0300
20
83.6300
10
467.1300
20
80.5000
10
467.2800
20
78.2000
10
467.4400
20
76.8000
10
467.6300
20
75.6400
10
467.9500
20
74.2700
10
468.1700
20
73.6200
10
468.5600
20
72.7700
10
469.1900
20
71.7200
10
469.7600
20
70.9100
10
470.2500
20
70.2800
10
471.6300
20
68.7800
10
472.3600
20
68.0700
10
472.6800
20
67.5600
10
473.2500
20
61.2100
10
466.3100
20
56.9000
10
465.0600
20
56.2500
10
464.7600
20
56.1300
10
464.2400
20
55.9500
10
463.7700
20
55.8900
10
463.5500
20
55.9300
10
463.2600
20
56.0400
10
462.6800
20
56.3100
10
462.4200
20
56.4900
10
462.2100
20
56.7000
10
462.0000
20
56.9900
10
461.6700
20
57.6300
10
461.2800
20
58.6500
10
460.3800
20
61.4800
10
459.2900
20
65.2200
10
458.8400
20
67.0800
10
458.2300
20
70.3100
10
457.9600
20
71.9800
10
457.7300
20
74.1300
10
457.4800
20
77.6000
10
457.4200
20
80.1100
10
457.4100
20
83.6600
10
457.4500
20
87.5200
10
457.5100
20
89.6900
10
457.7300
20
92.6600
10
457.9400
20
94.7000
10
458.2600
20
96.7800
10
458.9500
20
100.3000
10
459.2600
20
101.6400
10
460.3000
20
105.1800
10
461.0000
20
107.4300
10
461.7600
20
109.5500
10
462.1000
20
110.2300
10
462.3200
20
110.5600
10
462.5400
20
110.7900
10
463.0100
20
111.0700
10
463.8200
20
111.3800
10
464.0800
20
111.3900
10
464.2900
20
111.3500
10
464.9400
20
111.1400
10
466.4600
20
110.3700
10
473.3700
20
106.0200
10
472.7600
20
99.6800
10
472.3600
20
99.0800
10
471.5700
20
98.3200
10
470.0400
20
96.6300
10
469.3000
20
95.6000
10
468.7700
20
94.7600
10
468.2900
20
93.8100
10
467.9800
20
92.9300
10
467.7800
20
92.1700
10
467.4200
20
90.0600
10
467.2700
20
88.7000
10
467.1200
20
86.4100
0
LWPOLYLINE
8
CONTOURS
90
67
70
0
10
466.0100
20
30.4300
10
466.1000
20
36.4500
10
466.1900
20
38.7900
10
466.3900
20
41.2000
10
466.7400
20
43.9100
10
467.2300
20
46.8100
10
467.8000
20
49.5000
10
468.4700
20
52.0500
10
469.2400
20
54.5100
10
469.7300
20
55.8600
10
469.9700
20
56.3700
10
470.1500
20
56.6600
10
470.4500
20
57.0400
10
470.8000
20
57.3300
10
471.0900
20
57.5100
10
471.3900
20
57.6200
10
471.6800
20
57.6800
10
472.0700
20
57.6800
10
472.4200
20
57.6200
10
472.9800
20
57.4300
10
473.8000
20
57.0500
10
475.1100
20
56.2500
10
481.3300
20
52.6200
10
480.6200
20
46.0700
10
478.4900
20
43.8600
10
478.1800
20
43.5100
10
477.3900
20
42.4900
10
476.9400
20
41.8100
10
476.3900
20
40.7800
10
476.1000
20
40.1100
10
475.8600
20
39.4000
10
475.5700
20
38.2600
10
475.4100
20
37.3400
10
475.2600
20
36.1400
10
475.0800
20
33.9400
10
474.9400
20
30.2900
10
475.1300
20
25.3100
10
475.2000
20
24.4800
10
475.4100
20
22.8300
10
475.6500
20
21.6700
10
475.9300
20
20.7100
10
476.2900
20
19.8100
10
476.7400
20
18.9400
10
477.2900
20
18.0700
10
477.7100
20
17.4900
10
480.4900
20
14.4700
10
481.1400
20
7.9100
10
473.3100
20
3.4200
10
472.7400
20
3.1700
10
472.3700
20
3.0400
10
471.9600
20
2.9400
10
471.6200
20
2.9200
10
471.3300
20
2.9500
10
471.0300
20
3.0400
10
470.7400
20
3.1800
10
470.4500
20
3.3800
10
470.1900
20
3.6200
10
469.7900
20
4.1800
10
469.4700
20
4.8700
10
469.2000
20
5.6200
10
468.4400
20
8.0500
10
467.7800
20
10.5600
10
467.2100
20
13.1700
10
466.7300
20
15.9500
10
466.3500
20
18.8800
10
466.1400
20
21.3900
10
466.0500
20
24.0700
0
LWPOLYLINE
8
CONTOURS
90
67
70
0
10
471.8100
20
83.4300
10
471.9000
20
89.4500
10
471.9900
20
91.7900
10
472.1900
20
94.2000
10
472.5400
20
96.9100
10
473.0300
20
99.8100
10
473.6000
20
102.5000
10
474.2700
20
105.0500
10
475.0400
20
107.5100
10
475.5300
20
108.8600
10
475.7700
20
109.3700
10
475.9500
20
109.6600
10
476.2500
20
110.0400
10
476.6000
20
110.3300
10
476.8900
20
110.5100
10
477.1900
20
110.6200
10
477.4800
20
110.6800
10
477.8700
20
110.6800
10
478.2200
20
110.6200
10
478.7800
20
110.4300
10
479.6000
20
110.0500
10
480.9100
20
109.2500
10
487.1300
20
105.6200
10
486.4200
20
99.0700
10
484.2900
20
96.8600
10
483.9800
20
96.5100
10
483.1900
20
95.4900
10
482.7400
20
94.8100
10
482.1900
20
93.7800
10
481.9000
20
93.1100
10
481.6600
20
92.4000
10
481.3700
20
91.2600
10
481.2100
20
90.3400
10
481.0600
20
89.1400
10
480.8800
20
86.9400
10
480.7400
20
83.2900
10
480.9300
20
78.3100
10
481.0000
20
77.4800
10
481.2100
20
75.8300
10
481.4500
20
74.6700
10
481.7300
20
73.7100
10
482.0900
20
72.8100
10
482.5400
20
71.9400
10
483.0900
20
71.0700
10
483.5100
20
70.4900
10
486.2900
20
67.4700
10
486.9400
20
60.9100
10
479.1100
20
56.4200
10
478.5400
20
56.1700
10
478.1700
20
56.0400
10
477.7600
20
55.9400
10
477.4200
20
55.9200
10
477.1300
20
55.9500
10
476.8300
20
56.0400
10
476.5400
20
56.1800
10
476.2500
20
56.3800
10
475.9900
20
56.6200
10
475.5900
20
57.1800
10
475.2700
20
57.8700
10
475.0000
20
58.6200
10
474.2400
20
61.0500
10
473.5800
20
63.5600
10
473.0100
20
66.1700
10
472.5300
20
68.9500
10
472.1500
20
71.8800
10
471.9400
20
74.3900
10
471.8500
20
77.0700
0
LWPOLYLINE
8
CONTOURS
90
13
70
0
10
176.3600
20
139.4900
10
169.6100
20
140.3200
10
155.9400
20
142.1100
10
125.6800
20
145.9700
10
121.8300
20
146.4900
10
121.4800
20
141.3400
10
121.4100
20
139.1200
10
121.4500
20
136.9200
10
121.6000
20
134.7100
10
121.9500
20
131.0200
10
155.9400
20
135.3000
10
158.6300
20
135.6700
10
176.3800
20
137.8000
0
LWPOLYLINE
8
CONTOURS
90
13
70
0
10
238.8600
20
107.5200
10
232.1100
20
106.6900
10
218.4400
20
104.9000
10
188.1800
20
101.0400
10
184.3300
20
100.5200
10
183.9800
20
105.6700
10
183.9100
20
107.8900
10
183.9500
20
110.0900
10
184.1000
20
112.3000
10
184.4500
20
115.9900
10
218.4400
20
111.7100
10
221.1300
20
111.3300
10
238.8800
20
109.2000
0
LWPOLYLINE
8
CONTOURS
90
52
70
0
10
192.8400
20
14.5400
10
192.6700
20
17.6000
10
192.4500
20
18.4500
10
191.9600
20
19.6800
10
191.6500
20
20.2500
10
191.4400
20
20.5600
10
191.2000
20
20.8300
10
191.0500
20
20.9800
10
189.2100
20
22.4300
10
191.1000
20
28.9900
10
193.5700
20
28.3000
10
197.0500
20
27.2000
10
200.4600
20
26.0200
10
202.1800
20
25.3600
10
203.3200
20
24.8600
10
204.6500
20
24.1700
10
205.5600
20
23.6200
10
206.5400
20
22.9700
10
207.5200
20
22.2000
10
208.2000
20
21.5200
10
208.8600
20
20.6600
10
209.6500
20
19.4600
10
210.0400
20
18.6500
10
210.2500
20
18.0600
10
210.5200
20
16.9600
10
210.7600
20
15.6400
10
210.7800
20
14.5600
10
210.7400
20
13.3000
10
210.5400
20
12.2600
10
210.2500
20
11.0300
10
210.0300
20
10.4300
10
209.7800
20
9.8800
10
209.4800
20
9.3500
10
209.0600
20
8.7200
10
208.4100
20
7.8400
10
207.9800
20
7.3400
10
207.2700
20
6.6900
10
206.3000
20
5.9600
10
204.8800
20
5.0600
10
203.5400
20
4.3400
10
202.5800
20
3.9000
10
200.5800
20
3.1100
10
197.4600
20
2.0200
10
194.0100
20
0.9100
10
191.1300
20
0.0900
10
189.2300
20
6.6500
10
191.1200
20
8.1500
10
191.5000
20
8.5800
10
191.8100
20
9.0700
10
192.0900
20
9.6700
10
192.5400
20
10.9100
10
192.6900
20
11.5500
0
LWPOLYLINE
8
CONTOURS
90
52
70
0
10
211.1400
20
14.5400
10
210.9700
20
17.6000
10
210.7500
20
18.4500
10
210.2600
20
19.6800
10
209.9500
20
20.2500
10
209.7400
20
20.5600
10
209.5000
20
20.8300
10
209.3500
20
20.9800
10
207.5100
20
22.4300
10
209.4000
20
28.9900
10
211.8700
20
28.3000
10
215.3500
20
27.2000
10
218.7600
20
26.0200
10
220.4800
20
25.3600
10
221.6200
20
24.8600
10
222.9500
20
24.1700
10
223.8600
20
23.6200
10
224.8400
20
22.9700
10
225.8200
20
22.2000
10
226.5000
20
21.5200
10
227.1600
20
20.6600
10
227.9500
20
19.4600
10
228.3400
20
18.6500
10
228.5500
20
18.0600
10
228.8200
20
16.9600
10
229.0600
20
15.6400
10
229.0800
20
14.5600
10
229.0400
20
13.3000
10
228.8400
20
12.2600
10
228.5500
20
11.0300
10
228.3300
20
10.4300
10
228.0800
20
9.8800
10
227.7800
20
9.3500
10
227.3600
20
8.7200
10
226.7100
20
7.8400
10
226.2800
20
7.3400
10
225.5700
20
6.6900
10
224.6000
20
5.9600
10
223.1800
20
5.0600
10
221.8400
20
4.3400
10
220.8800
20
3.9000
10
218.8800
20
3.1100
10
215.7600
20
2.0200
10
212.3100
20
0.9100
10
209.4300
20
0.0900
10
207.5300
20
6.6500
10
209.4200
20
8.1500
10
209.8000
20
8.5800
10
210.1100
20
9.0700
10
210.3900
20
9.6700
10
210.8400
20
10.9100
10
210.9900
20
11.5500
0
LWPOLYLINE
8
CONTOURS
90
4
70
0
10
465.7100
20
110.8700
10
465.7100
20
117.0900
10
546.1800
20
117.0900
10
546.1800
20
110.8700
0
LWPOLYLINE
8
CONTOURS
90
4
70
0
10
475.1100
20
25.9700
10
475.1100
20
32.1900
10
555.5800
20
32.1900
10
555.5800
20
25.9700
0
LWPOLYLINE
8
CONTOURS
90
4
70
0
10
475.7100
20
32.2700
10
475.7100
20
38.4900
10
556.1800
20
38.4900
10
556.1800
20
32.2700
0
LWPOLYLINE
8
CONTOURS
90
4
70
0
10
476.4100
20
19.6700
10
476.4100
20
25.8900
10
556.8800
20
25.8900
10
556.8800
20
19.6700
0
LWPOLYLINE
8
CONTOURS
90
4
70
0
10
240.9700
20
94.4000
10
184.9100
20
94.5500
10
184.9200
20
98.9900
10
240.9200
20
98.8400
0
LWPOLYLINE
8
CONTOURS
90
4
70
0
10
337.0700
20
0.0000
10
281.0100
20
0.1500
10
281.0200
20
4.5900
10
337.0200
20
4.4400
0
LWPOLYLINE
8
CONTOURS
90
4
70
0
10
338.3700
20
9.1900
10
282.3100
20
9.0400
10
282.3200
20
4.6000
10
338.3200
20
4.7500
0
LWPOLYLINE
8
CONTOURS
90
4
70
0
10
339.6700
20
13.7900
10
283.6100
20
13.6400
10
283.6200
20
9.2000
10
339.6200
20
9.3500
0
LWPOLYLINE
8
CONTOURS
90
44
70
0
10
481.2500
20
85.1700
10
481.2100
20
86.9300
10
481.2800
20
88.3700
10
481.4500
20
89.4600
10
481.6100
20
90.0800
10
481.8200
20
90.6400
10
482.0500
20
91.1300
10
482.2500
20
91.4700
10
482.6300
20
91.9700
10
482.9500
20
92.3100
10
483.2100
20
92.5300
10
483.7000
20
92.8500
10
484.1300
20
93.0700
10
484.6000
20
93.2400
10
485.4500
20
93.4400
10
487.2500
20
93.7100
10
489.7700
20
93.9700
10
492.4900
20
94.1400
10
495.4800
20
94.1900
10
498.9000
20
94.1300
10
503.1300
20
93.9300
10
507.3400
20
93.6600
10
507.3600
20
82.4500
10
507.3400
20
71.1200
10
499.6200
20
70.6900
10
496.8100
20
70.6000
10
493.4300
20
70.5900
10
490.5300
20
70.7000
10
487.9000
20
70.9100
10
486.2600
20
71.1100
10
485.1100
20
71.3100
10
484.5500
20
71.4600
10
484.2000
20
71.6000
10
483.7600
20
71.8200
10
483.2700
20
72.1500
10
482.9300
20
72.4500
10
482.5400
20
72.8900
10
482.1900
20
73.4100
10
481.9500
20
73.8900
10
481.7400
20
74.4100
10
481.5700
20
74.9900
10
481.3800
20
75.9800
10
481.2800
20
77.1800
10
481.2700
20
82.3100
0
LWPOLYLINE
8
CONTOURS
90
44
70
0
10
511.1200
20
126.2100
10
511.1600
20
124.4500
10
511.0900
20
123.0100
10
510.9200
20
121.9200
10
510.7600
20
121.3000
10
510.5500
20
120.7400
10
510.3200
20
120.2500
10
510.1200
20
119.9100
10
509.7400
20
119.4100
10
509.4100
20
119.0700
10
509.1500
20
118.8500
10
508.6700
20
118.5300
10
508.2400
20
118.3100
10
507.7700
20
118.1400
10
506.9200
20
117.9400
10
505.1200
20
117.6700
10
502.6000
20
117.4100
10
499.8800
20
117.2400
10
496.8900
20
117.1900
10
493.4700
20
117.2500
10
489.2400
20
117.4500
10
485.0300
20
117.7200
10
485.0100
20
128.9300
10
485.0300
20
140.2600
10
492.7500
20
140.6900
10
495.5600
20
140.7800
10
498.9400
20
140.7900
10
501.8400
20
140.6800
10
504.4700
20
140.4700
10
506.1100
20
140.2700
10
507.2600
20
140.0700
10
507.8200
20
139.9200
10
508.1700
20
139.7800
10
508.6100
20
139.5600
10
509.1000
20
139.2300
10
509.4400
20
138.9300
10
509.8300
20
138.4900
10
510.1800
20
137.9600
10
510.4200
20
137.4900
10
510.6200
20
136.9700
10
510.8000
20
136.3900
10
510.9900
20
135.4000
10
511.0900
20
134.2000
10
511.1000
20
129.0700
0
LWPOLYLINE
8
CONTOURS
90
44
70
0
10
484.7500
20
47.6100
10
484.7100
20
45.8500
10
484.7800
20
44.4100
10
484.9500
20
43.3200
10
485.1100
20
42.7000
10
485.3200
20
42.1400
10
485.5500
20
41.6500
10
485.7500
20
41.3100
10
486.1300
20
40.8100
10
486.4500
20
40.4700
10
486.7100
20
40.2500
10
487.2000
20
39.9300
10
487.6300
20
39.7100
10
488.1000
20
39.5400
10
488.9500
20
39.3400
10
490.7500
20
39.0700
10
493.2700
20
38.8100
10
495.9900
20
38.6400
10
498.9800
20
38.5900
10
502.4000
20
38.6500
10
506.6300
20
38.8500
10
510.8400
20
39.1200
10
510.8600
20
50.3300
10
510.8400
20
61.6600
10
503.1200
20
62.0900
10
500.3100
20
62.1800
10
496.9300
20
62.1900
10
494.0300
20
62.0800
10
491.4000
20
61.8700
10
489.7600
20
61.6700
10
488.6100
20
61.4700
10
488.0500
20
61.3200
10
487.7000
20
61.1800
10
487.2600
20
60.9600
10
486.7700
20
60.6300
10
486.4300
20
60.3300
10
486.0400
20
59.8900
10
485.6900
20
59.3600
10
485.4500
20
58.8900
10
485.2400
20
58.3700
10
485.0700
20
57.7900
10
484.8800
20
56.8000
10
484.7800
20
55.6000
10
484.7700
20
50.4700
0
LWPOLYLINE
8
CONTOURS
90
44
70
0
10
533.5200
20
76.0700
10
533.5600
20
77.8300
10
533.4900
20
79.2700
10
533.3200
20
80.3600
10
533.1600
20
80.9800
10
532.9500
20
81.5400
10
532.7200
20
82.0300
10
532.5200
20
82.3700
10
532.1400
20
82.8700
10
531.8100
20
83.2100
10
531.5500
20
83.4300
10
531.0700
20
83.7500
10
530.6400
20
83.9700
10
530.1700
20
84.1400
10
529.3200
20
84.3400
10
527.5200
20
84.6100
10
525.0000
20
84.8700
10
522.2800
20
85.0400
10
519.2900
20
85.0900
10
515.8700
20
85.0300
10
511.6400
20
84.8300
10
507.4300
20
84.5600
10
507.4100
20
73.3500
10
507.4300
20
62.0200
10
515.1500
20
61.5900
10
517.9600
20
61.5000
10
521.3400
20
61.4900
10
524.2400
20
61.6000
10
526.8700
20
61.8100
10
528.5100
20
62.0100
10
529.6600
20
62.2100
10
530.2200
20
62.3600
10
530.5700
20
62.5000
10
531.0100
20
62.7200
10
531.5000
20
63.0500
10
531.8400
20
63.3500
10
532.2300
20
63.7900
10
532.5800
20
64.3100
10
532.8200
20
64.7900
10
533.0200
20
65.3100
10
533.2000
20
65.8900
10
533.3900
20
66.8800
10
533.4900
20
68.0800
10
533.5000
20
73.2100
0
LWPOLYLINE
8
CONTOURS
90
4
70
0
10
539.8200
20
38.5300
10
533.6100
20
38.5500
10
533.6300
20
76.9900
10
539.9300
20
76.9700
0
LWPOLYLINE
8
CONTOURS
90
4
70
0
10
546.2200
20
38.5300
10
540.0100
20
38.5500
10
540.0300
20
76.9900
10
546.3300
20
76.9700
0
LWPOLYLINE
8
CONTOURS
90
4
70
0
10
552.4200
20
77.0300
10
546.2100
20
77.0500
10
546.2300
20
115.4900
10
552.5300
20
115.4700
0
LWPOLYLINE
8
CONTOURS
90
4
70
0
10
552.6200
20
38.5300
10
546.4100
20
38.5500
10
546.4300
20
76.9900
10
552.7300
20
76.9700
0
LWPOLYLINE
8
CONTOURS
90
4
70
0
10
558.8200
20
115.4900
10
552.6100
20
115.4800
10
552.6300
20
77.0300
10
558.9300
20
77.0500
0
LWPOLYLINE
8
CONTOURS
90
4
70
0
10
559.0200
20
76.9900
10
552.8100
20
76.9800
10
552.8300
20
38.5300
10
559.1300
20
38.5500
0
LWPOLYLINE
8
CONTOURS
90
4
70
0
10
563.1200
20
38.4900
10
556.9100
20
38.4800
10
556.9300
20
0.0300
10
563.2300
20
0.0500
0
LWPOLYLINE
8
CONTOURS
90
4
70
0
10
565.1200
20
123.5900
10
558.9100
20
123.5800
10
558.9300
20
85.1300
10
565.2300
20
85.1500
0
LWPOLYLINE
8
CONTOURS
90
36
70
0
10
507.4100
20
107.9200
10
511.7300
20
107.9900
10
521.7100
20
107.9600
10
523.1700
20
107.9100
10
524.2400
20
107.7800
10
524.8100
20
107.6300
10
525.3100
20
107.4500
10
525.7600
20
107.2400
10
526.2000
20
106.9700
10
526.6900
20
106.6000
10
526.9400
20
106.3700
10
527.3700
20
105.8200
10
527.7800
20
105.0700
10
528.0100
20
104.5000
10
528.1100
20
104.1600
10
528.2100
20
103.5000
10
528.2600
20
101.0400
10
528.1800
20
96.5800
10
528.2600
20
92.4000
10
528.2400
20
89.8400
10
528.1600
20
89.1500
10
527.9700
20
88.5100
10
527.7400
20
87.9700
10
527.4500
20
87.4300
10
527.1000
20
86.9400
10
526.7600
20
86.5900
10
526.0900
20
86.0900
10
525.5300
20
85.7800
10
524.9300
20
85.5400
10
524.1200
20
85.3400
10
523.4800
20
85.2500
10
522.7100
20
85.2000
10
521.6600
20
85.1800
10
513.3100
20
85.1500
10
507.4300
20
85.2000
10
507.4400
20
96.5600
0
LWPOLYLINE
8
CONTOURS
90
36
70
0
10
510.9100
20
61.3200
10
515.2300
20
61.3900
10
525.2100
20
61.3600
10
526.6700
20
61.3100
10
527.7400
20
61.1800
10
528.3100
20
61.0300
10
528.8100
20
60.8500
10
529.2600
20
60.6400
10
529.7000
20
60.3700
10
530.1900
20
60.0000
10
530.4400
20
59.7700
10
530.8700
20
59.2200
10
531.2800
20
58.4700
10
531.5100
20
57.9000
10
531.6100
20
57.5600
10
531.7100
20
56.9000
10
531.7600
20
54.4400
10
531.6800
20
49.9800
10
531.7600
20
45.8000
10
531.7400
20
43.2400
10
531.6600
20
42.5500
10
531.4700
20
41.9100
10
531.2400
20
41.3700
10
530.9500
20
40.8300
10
530.6000
20
40.3400
10
530.2600
20
39.9900
10
529.5900
20
39.4900
10
529.0300
20
39.1800
10
528.4300
20
38.9400
10
527.6200
20
38.7400
10
526.9800
20
38.6500
10
526.2100
20
38.6000
10
525.1600
20
38.5800
10
516.8100
20
38.5500
10
510.9300
20
38.6000
10
510.9400
20
49.9600
0
LWPOLYLINE
8
CONTOURS
90
36
70
0
10
511.2100
20
117.2200
10
515.5300
20
117.1500
10
525.5100
20
117.1800
10
526.9700
20
117.2300
10
528.0400
20
117.3700
10
528.6100
20
117.5100
10
529.1100
20
117.6900
10
529.5600
20
117.9000
10
530.0000
20
118.1700
10
530.4900
20
118.5400
10
530.7400
20
118.7700
10
531.1700
20
119.3200
10
531.5800
20
120.0800
10
531.8100
20
120.6400
10
531.9100
20
120.9900
10
532.0100
20
121.6400
10
532.0600
20
124.1000
10
531.9800
20
128.5700
10
532.0600
20
132.7400
10
532.0400
20
135.3000
10
531.9600
20
135.9900
10
531.7700
20
136.6300
10
531.5400
20
137.1700
10
531.2500
20
137.7100
10
530.9000
20
138.2000
10
530.5600
20
138.5500
10
529.8900
20
139.0500
10
529.3300
20
139.3600
10
528.7300
20
139.6000
10
527.9200
20
139.8000
10
527.2800
20
139.8900
10
526.5100
20
139.9400
10
525.4600
20
139.9600
10
517.1100
20
139.9900
10
511.2300
20
139.9500
10
511.2400
20
128.5800
0
LWPOLYLINE
8
CONTOURS
90
36
70
0
10
532.1100
20
117.2200
10
536.4300
20
117.1500
10
546.4100
20
117.1800
10
547.8700
20
117.2300
10
548.9400
20
117.3700
10
549.5100
20
117.5100
10
550.0100
20
117.6900
10
550.4600
20
117.9000
10
550.9000
20
118.1700
10
551.3900
20
118.5400
10
551.6400
20
118.7700
10
552.0700
20
119.3200
10
552.4800
20
120.0800
10
552.7100
20
120.6400
10
552.8100
20
120.9900
10
552.9100
20
121.6400
10
552.9600
20
124.1000
10
552.8800
20
128.5700
10
552.9600
20
132.7400
10
552.9400
20
135.3000
10
552.8600
20
135.9900
10
552.6700
20
136.6300
10
552.4400
20
137.1700
10
552.1500
20
137.7100
10
551.8000
20
138.2000
10
551.4600
20
138.5500
10
550.7900
20
139.0500
10
550.2300
20
139.3600
10
549.6300
20
139.6000
10
548.8200
20
139.8000
10
548.1800
20
139.8900
10
547.4100
20
139.9400
10
546.3600
20
139.9600
10
538.0100
20
139.9900
10
532.1300
20
139.9500
10
532.1400
20
128.5800
0
LWPOLYLINE
8
CONTOURS
90
35
70
0
10
560.9800
20
39.8600
10
560.0100
20
42.9700
10
559.7200
20
44.0900
10
559.6000
20
44.6000
10
559.3400
20
46.1600
10
559.1700
20
48.2600
10
559.1100
20
54.8500
10
559.1500
20
59.2500
10
559.1600
20
66.3500
10
559.2300
20
69.1500
10
559.3000
20
70.3100
10
559.6400
20
72.3900
10
559.9900
20
73.8400
10
560.3300
20
74.8900
10
561.0300
20
76.8900
10
562.0800
20
76.2200
10
562.7000
20
74.8900
10
563.3000
20
73.3600
10
563.4700
20
72.8600
10
563.9500
20
71.1600
10
564.3200
20
69.5800
10
564.5700
20
68.2900
10
564.7400
20
67.1400
10
564.8700
20
65.9000
10
564.9700
20
63.9400
10
564.9600
20
53.4600
10
564.9100
20
51.5000
10
564.7700
20
49.7600
10
564.6200
20
48.7700
10
563.9800
20
45.6600
10
563.5800
20
44.2400
10
562.6400
20
41.9600
10
562.2300
20
40.7800
10
562.0100
20
40.4500
10
561.6700
20
40.1900
0
LWPOLYLINE
8
CONTOURS
90
35
70
0
10
565.0800
20
1.3600
10
564.1100
20
4.4700
10
563.8200
20
5.5900
10
563.7000
20
6.1000
10
563.4400
20
7.6600
10
563.2700
20
9.7600
10
563.2100
20
16.3500
10
563.2500
20
20.7500
10
563.2600
20
27.8500
10
563.3300
20
30.6500
10
563.4000
20
31.8100
10
563.7400
20
33.8900
10
564.0900
20
35.3400
10
564.4300
20
36.3900
10
565.1300
20
38.3900
10
566.1800
20
37.7200
10
566.8000
20
36.3900
10
567.4000
20
34.8600
10
567.5700
20
34.3600
10
568.0500
20
32.6600
10
568.4200
20
31.0800
10
568.6700
20
29.7900
10
568.8400
20
28.6400
10
568.9700
20
27.4000
10
569.0700
20
25.4400
10
569.0600
20
14.9600
10
569.0100
20
13.0000
10
568.8700
20
11.2600
10
568.7200
20
10.2700
10
568.0800
20
7.1600
10
567.6800
20
5.7400
10
566.7400
20
3.4600
10
566.3300
20
2.2800
10
566.1100
20
1.9500
10
565.7700
20
1.6900
0
LWPOLYLINE
8
CONTOURS
90
35
70
0
10
566.8800
20
36.6600
10
565.9100
20
39.7700
10
565.6200
20
40.8900
10
565.5000
20
41.4000
10
565.2400
20
42.9600
10
565.0700
20
45.0600
10
565.0100
20
51.6500
10
565.0500
20
56.0500
10
565.0600
20
63.1500
10
565.1300
20
65.9500
10
565.2000
20
67.1100
10
565.5400
20
69.1900
10
565.8900
20
70.6400
10
566.2300
20
71.6900
10
566.9300
20
73.6900
10
567.9800
20
73.0200
10
568.6000
20
71.6900
10
569.2000
20
70.1600
10
569.3700
20
69.6600
10
569.8500
20
67.9600
10
570.2200
20
66.3800
10
570.4700
20
65.0900
10
570.6400
20
63.9400
10
570.7700
20
62.7000
10
570.8700
20
60.7400
10
570.8600
20
50.2600
10
570.8100
20
48.3000
10
570.6700
20
46.5600
10
570.5200
20
45.5700
10
569.8800
20
42.4600
10
569.4800
20
41.0400
10
568.5400
20
38.7600
10
568.1300
20
37.5800
10
567.9100
20
37.2500
10
567.5700
20
36.9900
0
LWPOLYLINE
8
CONTOURS
90
35
70
0
10
567.0800
20
86.4600
10
566.1100
20
89.5700
10
565.8200
20
90.6900
10
565.7000
20
91.2000
10
565.4400
20
92.7600
10
565.2700
20
94.8600
10
565.2100
20
101.4500
10
565.2500
20
105.8500
10
565.2600
20
112.9500
10
565.3300
20
115.7500
10
565.4000
20
116.9100
10
565.7400
20
118.9900
10
566.0900
20
120.4400
10
566.4300
20
121.4900
10
567.1300
20
123.4900
10
568.1800
20
122.8200
10
568.8000
20
121.4900
10
569.4000
20
119.9600
10
569.5700
20
119.4600
10
570.0500
20
117.7600
10
570.4200
20
116.1800
10
570.6700
20
114.8900
10
570.8400
20
113.7400
10
570.9700
20
112.5000
10
571.0700
20
110.5400
10
571.0600
20
100.0600
10
571.0100
20
98.1000
10
570.8700
20
96.3600
10
570.7200
20
95.3700
10
570.0800
20
92.2600
10
569.6800
20
90.8400
10
568.7400
20
88.5600
10
568.3300
20
87.3800
10
568.1100
20
87.0500
10
567.7700
20
86.7900
0
LWPOLYLINE
8
CONTOURS
90
4
70
0
10
233.5100
20
87.4900
10
239.2800
20
87.4900
10
239.3500
20
65.0100
10
233.5300
20
64.9700
0
LWPOLYLINE
8
CONTOURS
90
4
70
0
10
271.5100
20
145.8900
10
277.2800
20
145.8900
10
277.3500
20
123.4100
10
271.5300
20
123.3700
0
LWPOLYLINE
8
CONTOURS
90
4
70
0
10
289.5100
20
146.9900
10
295.2800
20
146.9900
10
295.3500
20
124.5100
10
289.5300
20
124.4700
0
LWPOLYLINE
8
CONTOURS
90
4
70
0
10
339.7100
20
22.5900
10
345.4800
20
22.5900
10
345.5500
20
0.1100
10
339.7300
20
0.0700
0
LWPOLYLINE
8
CONTOURS
90
5
70
0
10
20.9500
20
140.5100
10
0.0100
20
136.0000
10
0.0100
20
146.0900
10
20.9500
20
141.5800
10
20.9500
20
141.0400
0
LWPOLYLINE
8
CONTOURS
90
5
70
0
10
220.2100
20
114.4800
10
241.1500
20
118.9900
10
241.1500
20
108.9000
10
220.2100
20
113.4100
10
220.2100
20
113.9400
0
LWPOLYLINE
8
CONTOURS
90
5
70
0
10
260.3500
20
69.4100
10
239.4100
20
64.9000
10
239.4100
20
74.9900
10
260.3500
20
70.4800
10
260.3500
20
69.9400
0
LWPOLYLINE
8
CONTOURS
90
5
70
0
10
307.4100
20
19.3800
10
328.3500
20
23.8900
10
328.3500
20
13.8000
10
307.4100
20
18.3100
10
307.4100
20
18.8400
0
LWPOLYLINE
8
CONTOURS
90
5
70
0
10
359.6100
20
66.4100
10
380.5500
20
61.9000
10
380.5500
20
71.9900
10
359.6100
20
67.4800
10
359.6100
20
66.9400
0
LWPOLYLINE
8
CONTOURS
90
5
70
0
10
368.9100
20
4.5100
10
389.8500
20
0.0000
10
389.8500
20
10.0900
10
368.9100
20
5.5800
10
368.9100
20
5.0400
0
LWPOLYLINE
8
CONTOURS
90
5
70
0
10
401.5500
20
63.3800
10
380.6100
20
67.8900
10
380.6100
20
57.8000
10
401.5500
20
62.3100
10
401.5500
20
62.8400
0
LWPOLYLINE
8
CONTOURS
90
5
70
0
10
456.7500
20
94.9800
10
435.8100
20
99.4900
10
435.8100
20
89.4000
10
456.7500
20
93.9100
10
456.7500
20
94.4400
0
LWPOLYLINE
8
CONTOURS
90
4
70
0
10
55.1300
20
70.6900
10
76.4800
20
70.6800
10
76.5000
20
65.4300
10
55.1100
20
65.4400
0
LWPOLYLINE
8
CONTOURS
90
4
70
0
10
156.9300
20
147.2900
10
178.2800
20
147.2800
10
178.3000
20
142.0300
10
156.9100
20
142.0400
0
LWPOLYLINE
8
CONTOURS
90
4
70
0
10
213.7300
20
99.0300
10
235.0800
20
99.0500
10
235.1000
20
104.2900
10
213.7100
20
104.2900
0
LWPOLYLINE
8
CONTOURS
90
4
70
0
10
435.3300
20
104.8300
10
456.6800
20
104.8500
10
456.7000
20
110.0900
10
435.3100
20
110.0900
0
LWPOLYLINE
8
CONTOURS
90
4
70
0
10
129.6600
20
57.5300
10
129.6600
20
58.5300
10
129.1600
20
58.0300
10
130.1600
20
58.0300
0
LWPOLYLINE
8
CONTOURS
90
13
70
1
10
130.1600
20
58.0300
10
130.0900
20
58.2800
10
129.9100
20
58.4600
10
129.6600
20
58.5300
10
129.4100
20
58.4600
10
129.2300
20
58.2800
10
129.1600
20
58.0300
10
129.2300
20
57.7800
10
129.4100
20
57.6000
10
129.6600
20
57.5300
10
129.9100
20
57.6000
10
130.0900
20
57.7800
10
130.1600
20
58.0300
0
LWPOLYLINE
8
CONTOURS
90
4
70
0
10
133.2800
20
57.7100
10
133.2800
20
58.7100
10
132.7800
20
58.2100
10
133.7800
20
58.2100
0
LWPOLYLINE
8
CONTOURS
90
13
70
1
10
133.7800
20
58.2100
10
133.7100
20
58.4600
10
133.5300
20
58.6400
10
133.2800
20
58.7100
10
133.0300
20
58.6400
10
132.8500
20
58.4600
10
132.7800
20
58.2100
10
132.8500
20
57.9600
10
133.0300
20
57.7700
10
133.2800
20
57.7100
10
133.5300
20
57.7700
10
133.7100
20
57.9600
10
133.7800
20
58.2100
0
LWPOLYLINE
8
CONTOURS
90
4
70
0
10
133.5100
20
77.1400
10
133.5100
20
78.1400
10
133.0100
20
77.6400
10
134.0100
20
77.6400
0
LWPOLYLINE
8
CONTOURS
90
13
70
1
10
134.0100
20
77.6400
10
133.9400
20
77.8900
10
133.7600
20
78.0700
10
133.5100
20
78.1400
10
133.2600
20
78.0700
10
133.0800
20
77.8900
10
133.0100
20
77.6400
10
133.0800
20
77.3900
10
133.2600
20
77.2100
10
133.5100
20
77.1400
10
133.7600
20
77.2100
10
133.9400
20
77.3900
10
134.0100
20
77.6400
0
LWPOLYLINE
8
CONTOURS
90
4
70
0
10
129.6500
20
77.2300
10
129.6500
20
78.2300
10
129.1500
20
77.7300
10
130.1500
20
77.7300
0
LWPOLYLINE
8
CONTOURS
90
13
70
1
10
130.1500
20
77.7300
10
130.0800
20
77.9800
10
129.9000
20
78.1600
10
129.6500
20
78.2300
10
129.4000
20
78.1600
10
129.2200
20
77.9800
10
129.1500
20
77.7300
10
129.2200
20
77.4800
10
129.4000
20
77.2900
10
129.6500
20
77.2300
10
129.9000
20
77.2900
10
130.0800
20
77.4800
10
130.1500
20
77.7300
0
LWPOLYLINE
8
CONTOURS
90
4
70
0
10
131.2600
20
97.3300
10
131.2600
20
98.3300
10
130.7600
20
97.8300
10
131.7600
20
97.8300
0
LWPOLYLINE
8
CONTOURS
90
13
70
1
10
131.7600
20
97.8300
10
131.6900
20
98.0800
10
131.5100
20
98.2600
10
131.2600
20
98.3300
10
131.0100
20
98.2600
10
130.8300
20
98.0800
10
130.7600
20
97.8300
10
130.8300
20
97.5800
10
131.0100
20
97.4000
10
131.2600
20
97.3300
10
131.5100
20
97.4000
10
131.6900
20
97.5800
10
131.7600
20
97.8300
0
LWPOLYLINE
8
CONTOURS
90
4
70
0
10
134.8800
20
97.5100
10
134.8800
20
98.5100
10
134.3800
20
98.0100
10
135.3800
20
98.0100
0
LWPOLYLINE
8
CONTOURS
90
13
70
1
10
135.3800
20
98.0100
10
135.3100
20
98.2600
10
135.1300
20
98.4400
10
134.8800
20
98.5100
10
134.6300
20
98.4400
10
134.4500
20
98.2600
10
134.3800
20
98.0100
10
134.4500
20
97.7600
10
134.6300
20
97.5700
10
134.8800
20
97.5100
10
135.1300
20
97.5700
10
135.3100
20
97.7600
10
135.3800
20
98.0100
0
LWPOLYLINE
8
CONTOURS
90
4
70
0
10
135.1100
20
116.9400
10
135.1100
20
117.9400
10
134.6100
20
117.4400
10
135.6100
20
117.4400
0
LWPOLYLINE
8
CONTOURS
90
13
70
1
10
135.6100
20
117.4400
10
135.5400
20
117.6900
10
135.3600
20
117.8700
10
135.1100
20
117.9400
10
134.8600
20
117.8700
10
134.6800
20
117.6900
10
134.6100
20
117.4400
10
134.6800
20
117.1900
10
134.8600
20
117.0100
10
135.1100
20
116.9400
10
135.3600
20
117.0100
10
135.5400
20
117.1900
10
135.6100
20
117.4400
0
LWPOLYLINE
8
CONTOURS
90
4
70
0
10
131.2500
20
117.0300
10
131.2500
20
118.0300
10
130.7500
20
117.5300
10
131.7500
20
117.5300
0
LWPOLYLINE
8
CONTOURS
90
13
70
1
10
131.7500
20
117.5300
10
131.6800
20
117.7800
10
131.5000
20
117.9600
10
131.2500
20
118.0300
10
131.0000
20
117.9600
10
130.8200
20
117.7800
10
130.7500
20
117.5300
10
130.8200
20
117.2800
10
131.0000
20
117.0900
10
131.2500
20
117.0300
10
131.5000
20
117.0900
10
131.6800
20
117.2800
10
131.7500
20
117.5300
0
LWPOLYLINE
8
CONTOURS
90
4
70
0
10
131.2600
20
37.6000
10
131.2600
20
38.6000
10
130.7600
20
38.1000
10
131.7600
20
38.1000
0
LWPOLYLINE
8
CONTOURS
90
13
70
1
10
131.7600
20
38.1000
10
131.6900
20
38.3500
10
131.5100
20
38.5300
10
131.2600
20
38.6000
10
131.0100
20
38.5300
10
130.8300
20
38.3500
10
130.7600
20
38.1000
10
130.8300
20
37.8500
10
131.0100
20
37.6700
10
131.2600
20
37.6000
10
131.5100
20
37.6700
10
131.6900
20
37.8500
10
131.7600
20
38.1000
0
LWPOLYLINE
8
CONTOURS
90
4
70
0
10
134.8800
20
37.4300
10
134.8800
20
38.4300
10
134.3800
20
37.9300
10
135.3800
20
37.9300
0
LWPOLYLINE
8
CONTOURS
90
13
70
1
10
135.3800
20
37.9300
10
135.3100
20
38.1800
10
135.1300
20
38.3600
10
134.8800
20
38.4300
10
134.6300
20
38.3600
10
134.4500
20
38.1800
10
134.3800
20
37.9300
10
134.4500
20
37.6800
10
134.6300
20
37.4900
10
134.8800
20
37.4300
10
135.1300
20
37.4900
10
135.3100
20
37.6800
10
135.3800
20
37.9300
0
LWPOLYLINE
8
CONTOURS
90
4
70
0
10
135.1100
20
17.9900
10
135.1100
20
18.9900
10
134.6100
20
18.4900
10
135.6100
20
18.4900
0
LWPOLYLINE
8
CONTOURS
90
13
70
1
10
135.6100
20
18.4900
10
135.5400
20
18.7400
10
135.3600
20
18.9300
10
135.1100
20
18.9900
10
134.8600
20
18.9300
10
134.6800
20
18.7400
10
134.6100
20
18.4900
10
134.6800
20
18.2400
10
134.8600
20
18.0600
10
135.1100
20
17.9900
10
135.3600
20
18.0600
10
135.5400
20
18.2400
10
135.6100
20
18.4900
0
LWPOLYLINE
8
CONTOURS
90
4
70
0
10
131.2500
20
17.9000
10
131.2500
20
18.9000
10
130.7500
20
18.4000
10
131.7500
20
18.4000
0
LWPOLYLINE
8
CONTOURS
90
13
70
1
10
131.7500
20
18.4000
10
131.6800
20
18.6500
10
131.5000
20
18.8400
10
131.2500
20
18.9000
10
131.0000
20
18.8400
10
130.8200
20
18.6500
10
130.7500
20
18.4000
10
130.8200
20
18.1500
10
131.0000
20
17.9700
10
131.2500
20
17.9000
10
131.5000
20
17.9700
10
131.6800
20
18.1500
10
131.7500
20
18.4000
0
LWPOLYLINE
8
CONTOURS
90
4
70
0
10
217.8600
20
142.1000
10
217.8600
20
143.1000
10
217.3600
20
142.6000
10
218.3600
20
142.6000
0
LWPOLYLINE
8
CONTOURS
90
13
70
1
10
218.3600
20
142.6000
10
218.2900
20
142.8500
10
218.1100
20
143.0300
10
217.8600
20
143.1000
10
217.6100
20
143.0300
10
217.4300
20
142.8500
10
217.3600
20
142.6000
10
217.4300
20
142.3500
10
217.6100
20
142.1700
10
217.8600
20
142.1000
10
218.1100
20
142.1700
10
218.2900
20
142.3500
10
218.3600
20
142.6000
0
LWPOLYLINE
8
CONTOURS
90
4
70
0
10
221.4800
20
141.9300
10
221.4800
20
142.9300
10
220.9800
20
142.4300
10
221.9800
20
142.4300
0
LWPOLYLINE
8
CONTOURS
90
13
70
1
10
221.9800
20
142.4300
10
221.9100
20
142.6800
10
221.7300
20
142.8600
10
221.4800
20
142.9300
10
221.2300
20
142.8600
10
221.0500
20
142.6800
10
220.9800
20
142.4300
10
221.0500
20
142.1800
10
221.2300
20
141.9900
10
221.4800
20
141.9300
10
221.7300
20
141.9900
10
221.9100
20
142.1800
10
221.9800
20
142.4300
0
LWPOLYLINE
8
CONTOURS
90
4
70
0
10
221.7100
20
122.4900
10
221.7100
20
123.4900
10
221.2100
20
122.9900
10
222.2100
20
122.9900
0
LWPOLYLINE
8
CONTOURS
90
13
70
1
10
222.2100
20
122.9900
10
222.1400
20
123.2400
10
221.9600
20
123.4300
10
221.7100
20
123.4900
10
221.4600
20
123.4300
10
221.2800
20
123.2400
10
221.2100
20
122.9900
10
221.2800
20
122.7400
10
221.4600
20
122.5600
10
221.7100
20
122.4900
10
221.9600
20
122.5600
10
222.1400
20
122.7400
10
222.2100
20
122.9900
0
LWPOLYLINE
8
CONTOURS
90
4
70
0
10
217.8500
20
122.4000
10
217.8500
20
123.4000
10
217.3500
20
122.9000
10
218.3500
20
122.9000
0
LWPOLYLINE
8
CONTOURS
90
13
70
1
10
218.3500
20
122.9000
10
218.2800
20
123.1500
10
218.1000
20
123.3400
10
217.8500
20
123.4000
10
217.6000
20
123.3400
10
217.4200
20
123.1500
10
217.3500
20
122.9000
10
217.4200
20
122.6500
10
217.6000
20
122.4700
10
217.8500
20
122.4000
10
218.1000
20
122.4700
10
218.2800
20
122.6500
10
218.3500
20
122.9000
0
LWPOLYLINE
8
CONTOURS
90
4
70
0
10
126.7800
20
134.0300
10
126.7800
20
135.0300
10
126.2800
20
134.5300
10
127.2800
20
134.5300
0
LWPOLYLINE
8
CONTOURS
90
13
70
1
10
127.2800
20
134.5300
10
127.2100
20
134.7800
10
127.0300
20
134.9700
10
126.7800
20
135.0300
10
126.5300
20
134.9700
10
126.3500
20
134.7800
10
126.2800
20
134.5300
10
126.3500
20
134.2800
10
126.5300
20
134.1000
10
126.7800
20
134.0300
10
127.0300
20
134.1000
10
127.2100
20
134.2800
10
127.2800
20
134.5300
0
LWPOLYLINE
8
CONTOURS
90
4
70
0
10
126.6700
20
142.3500
10
126.6700
20
143.3500
10
126.1700
20
142.8500
10
127.1700
20
142.8500
0
LWPOLYLINE
8
CONTOURS
90
13
70
1
10
127.1700
20
142.8500
10
127.1000
20
143.1000
10
126.9200
20
143.2800
10
126.6700
20
143.3500
10
126.4200
20
143.2800
10
126.2300
20
143.1000
10
126.1700
20
142.8500
10
126.2300
20
142.6000
10
126.4200
20
142.4200
10
126.6700
20
142.3500
10
126.9200
20
142.4200
10
127.1000
20
142.6000
10
127.1700
20
142.8500
0
LWPOLYLINE
8
CONTOURS
90
4
70
0
10
189.2800
20
111.9800
10
189.2800
20
112.9800
10
188.7800
20
112.4800
10
189.7800
20
112.4800
0
LWPOLYLINE
8
CONTOURS
90
13
70
1
10
189.7800
20
112.4800
10
189.7100
20
112.7300
10
189.5300
20
112.9100
10
189.2800
20
112.9800
10
189.0300
20
112.9100
10
188.8500
20
112.7300
10
188.7800
20
112.4800
10
188.8500
20
112.2300
10
189.0300
20
112.0400
10
189.2800
20
111.9800
10
189.5300
20
112.0400
10
189.7100
20
112.2300
10
189.7800
20
112.4800
0
LWPOLYLINE
8
CONTOURS
90
4
70
0
10
189.1700
20
103.6600
10
189.1700
20
104.6600
10
188.6700
20
104.1600
10
189.6700
20
104.1600
0
LWPOLYLINE
8
CONTOURS
90
13
70
1
10
189.6700
20
104.1600
10
189.6000
20
104.4100
10
189.4200
20
104.5900
10
189.1700
20
104.6600
10
188.9200
20
104.5900
10
188.7300
20
104.4100
10
188.6700
20
104.1600
10
188.7300
20
103.9100
10
188.9200
20
103.7200
10
189.1700
20
103.6600
10
189.4200
20
103.7200
10
189.6000
20
103.9100
10
189.6700
20
104.1600
0
LWPOLYLINE
8
CONTOURS
90
4
70
0
10
499.0300
20
88.9200
10
499.0300
20
89.9200
10
498.5300
20
89.4200
10
499.5300
20
89.4200
0
LWPOLYLINE
8
CONTOURS
90
13
70
1
10
499.5300
20
89.4200
10
499.4700
20
89.6700
10
499.2800
20
89.8500
10
499.0300
20
89.9200
10
498.7800
20
89.8500
10
498.6000
20
89.6700
10
498.5300
20
89.4200
10
498.6000
20
89.1700
10
498.7800
20
88.9800
10
499.0300
20
88.9200
10
499.2800
20
88.9800
10
499.4700
20
89.1700
10
499.5300
20
89.4200
0
LWPOLYLINE
8
CONTOURS
90
4
70
0
10
499.0400
20
88.9200
10
499.0400
20
89.9200
10
498.5400
20
89.4200
10
499.5400
20
89.4200
0
LWPOLYLINE
8
CONTOURS
90
13
70
1
10
499.5400
20
89.4200
10
499.4700
20
89.6700
10
499.2900
20
89.8500
10
499.0400
20
89.9200
10
498.7900
20
89.8500
10
498.6000
20
89.6700
10
498.5400
20
89.4200
10
498.6000
20
89.1700
10
498.7900
20
88.9900
10
499.0400
20
88.9200
10
499.2900
20
88.9900
10
499.4700
20
89.1700
10
499.5400
20
89.4200
0
LWPOLYLINE
8
CONTOURS
90
4
70
0
10
499.1100
20
74.9000
10
499.1100
20
75.9000
10
498.6100
20
75.4000
10
499.6100
20
75.4000
0
LWPOLYLINE
8
CONTOURS
90
13
70
1
10
499.6100
20
75.4000
10
499.5500
20
75.6500
10
499.3600
20
75.8300
10
499.1100
20
75.9000
10
498.8600
20
75.8300
10
498.6800
20
75.6500
10
498.6100
20
75.4000
10
498.6800
20
75.1500
10
498.8600
20
74.9600
10
499.1100
20
74.9000
10
499.3600
20
74.9600
10
499.5500
20
75.1500
10
499.6100
20
75.4000
0
LWPOLYLINE
8
CONTOURS
90
4
70
0
10
499.1200
20
74.8900
10
499.1200
20
75.8900
10
498.6200
20
75.3900
10
499.6200
20
75.3900
0
LWPOLYLINE
8
CONTOURS
90
13
70
1
10
499.6200
20
75.3900
10
499.5500
20
75.6400
10
499.3700
20
75.8200
10
499.1200
20
75.8900
10
498.8700
20
75.8200
10
498.6800
20
75.6400
10
498.6200
20
75.3900
10
498.6800
20
75.1400
10
498.8700
20
74.9600
10
499.1200
20
74.8900
10
499.3700
20
74.9600
10
499.5500
20
75.1400
10
499.6200
20
75.3900
0
LWPOLYLINE
8
CONTOURS
90
4
70
0
10
493.3400
20
121.4600
10
493.3400
20
122.4600
10
492.8400
20
121.9600
10
493.8400
20
121.9600
0
LWPOLYLINE
8
CONTOURS
90
13
70
1
10
493.8400
20
121.9600
10
493.7700
20
122.2100
10
493.5900
20
122.4000
10
493.3400
20
122.4600
10
493.0900
20
122.4000
10
492.9000
20
122.2100
10
492.8400
20
121.9600
10
492.9000
20
121.7100
10
493.0900
20
121.5300
10
493.3400
20
121.4600
10
493.5900
20
121.5300
10
493.7700
20
121.7100
10
493.8400
20
121.9600
0
LWPOLYLINE
8
CONTOURS
90
4
70
0
10
493.3300
20
121.4600
10
493.3300
20
122.4600
10
492.8300
20
121.9600
10
493.8300
20
121.9600
0
LWPOLYLINE
8
CONTOURS
90
13
70
1
10
493.8300
20
121.9600
10
493.7600
20
122.2100
10
493.5800
20
122.3900
10
493.3300
20
122.4600
10
493.0800
20
122.3900
10
492.9000
20
122.2100
10
492.8300
20
121.9600
10
492.9000
20
121.7100
10
493.0800
20
121.5300
10
493.3300
20
121.4600
10
493.5800
20
121.5300
10
493.7600
20
121.7100
10
493.8300
20
121.9600
0
LWPOLYLINE
8
CONTOURS
90
4
70
0
10
493.2600
20
135.4800
10
493.2600
20
136.4800
10
492.7600
20
135.9800
10
493.7600
20
135.9800
0
LWPOLYLINE
8
CONTOURS
90
13
70
1
10
493.7600
20
135.9800
10
493.6900
20
136.2300
10
493.5100
20
136.4200
10
493.2600
20
136.4800
10
493.0100
20
136.4200
10
492.8200
20
136.2300
10
492.7600
20
135.9800
10
492.8200
20
135.7300
10
493.0100
20
135.5500
10
493.2600
20
135.4800
10
493.5100
20
135.5500
10
493.6900
20
135.7300
10
493.7600
20
135.9800
0
LWPOLYLINE
8
CONTOURS
90
4
70
0
10
493.2500
20
135.4900
10
493.2500
20
136.4900
10
492.7500
20
135.9900
10
493.7500
20
135.9900
0
LWPOLYLINE
8
CONTOURS
90
13
70
1
10
493.7500
20
135.9900
10
493.6900
20
136.2400
10
493.5000
20
136.4200
10
493.2500
20
136.4900
10
493.0000
20
136.4200
10
492.8200
20
136.2400
10
492.7500
20
135.9900
10
492.8200
20
135.7400
10
493.0000
20
135.5600
10
493.2500
20
135.4900
10
493.5000
20
135.5600
10
493.6900
20
135.7400
10
493.7500
20
135.9900
0
LWPOLYLINE
8
CONTOURS
90
4
70
0
10
502.5300
20
42.8600
10
502.5300
20
43.8600
10
502.0300
20
43.3600
10
503.0300
20
43.3600
0
LWPOLYLINE
8
CONTOURS
90
13
70
1
10
503.0300
20
43.3600
10
502.9700
20
43.6100
10
502.7800
20
43.8000
10
502.5300
20
43.8600
10
502.2800
20
43.8000
10
502.1000
20
43.6100
10
502.0300
20
43.3600
10
502.1000
20
43.1100
10
502.2800
20
42.9300
10
502.5300
20
42.8600
10
502.7800
20
42.9300
10
502.9700
20
43.1100
10
503.0300
20
43.3600
0
LWPOLYLINE
8
CONTOURS
90
4
70
0
10
502.5400
20
42.8600
10
502.5400
20
43.8600
10
502.0400
20
43.3600
10
503.0400
20
43.3600
0
LWPOLYLINE
8
CONTOURS
90
13
70
1
10
503.0400
20
43.3600
10
502.9700
20
43.6100
10
502.7900
20
43.7900
10
502.5400
20
43.8600
10
502.2900
20
43.7900
10
502.1000
20
43.6100
10
502.0400
20
43.3600
10
502.1000
20
43.1100
10
502.2900
20
42.9300
10
502.5400
20
42.8600
10
502.7900
20
42.9300
10
502.9700
20
43.1100
10
503.0400
20
43.3600
0
LWPOLYLINE
8
CONTOURS
90
4
70
0
10
502.6100
20
56.8800
10
502.6100
20
57.8800
10
502.1100
20
57.3800
10
503.1100
20
57.3800
0
LWPOLYLINE
8
CONTOURS
90
13
70
1
10
503.1100
20
57.3800
10
503.0500
20
57.6300
10
502.8600
20
57.8200
10
502.6100
20
57.8800
10
502.3600
20
57.8200
10
502.1800
20
57.6300
10
502.1100
20
57.3800
10
502.1800
20
57.1300
10
502.3600
20
56.9500
10
502.6100
20
56.8800
10
502.8600
20
56.9500
10
503.0500
20
57.1300
10
503.1100
20
57.3800
0
LWPOLYLINE
8
CONTOURS
90
4
70
0
10
502.6200
20
56.8900
10
502.6200
20
57.8900
10
502.1200
20
57.3900
10
503.1200
20
57.3900
0
LWPOLYLINE
8
CONTOURS
90
13
70
1
10
503.1200
20
57.3900
10
503.0500
20
57.6400
10
502.8700
20
57.8200
10
502.6200
20
57.8900
10
502.3700
20
57.8200
10
502.1800
20
57.6400
10
502.1200
20
57.3900
10
502.1800
20
57.1400
10
502.3700
20
56.9600
10
502.6200
20
56.8900
10
502.8700
20
56.9600
10
503.0500
20
57.1400
10
503.1200
20
57.3900
0
LWPOLYLINE
8
CONTOURS
90
4
70
0
10
515.7400
20
79.8200
10
515.7400
20
80.8200
10
515.2400
20
80.3200
10
516.2400
20
80.3200
0
LWPOLYLINE
8
CONTOURS
90
13
70
1
10
516.2400
20
80.3200
10
516.1700
20
80.5700
10
515.9900
20
80.7500
10
515.7400
20
80.8200
10
515.4900
20
80.7500
10
515.3000
20
80.5700
10
515.2400
20
80.3200
10
515.3000
20
80.0700
10
515.4900
20
79.8800
10
515.7400
20
79.8200
10
515.9900
20
79.8800
10
516.1700
20
80.0700
10
516.2400
20
80.3200
0
LWPOLYLINE
8
CONTOURS
90
4
70
0
10
515.7300
20
79.8200
10
515.7300
20
80.8200
10
515.2300
20
80.3200
10
516.2300
20
80.3200
0
LWPOLYLINE
8
CONTOURS
90
13
70
1
10
516.2300
20
80.3200
10
516.1600
20
80.5700
10
515.9800
20
80.7500
10
515.7300
20
80.8200
10
515.4800
20
80.7500
10
515.3000
20
80.5700
10
515.2300
20
80.3200
10
515.3000
20
80.0700
10
515.4800
20
79.8900
10
515.7300
20
79.8200
10
515.9800
20
79.8900
10
516.1600
20
80.0700
10
516.2300
20
80.3200
0
LWPOLYLINE
8
CONTOURS
90
4
70
0
10
515.6600
20
65.8000
10
515.6600
20
66.8000
10
515.1600
20
66.3000
10
516.1600
20
66.3000
0
LWPOLYLINE
8
CONTOURS
90
13
70
1
10
516.1600
20
66.3000
10
516.0900
20
66.5500
10
515.9100
20
66.7300
10
515.6600
20
66.8000
10
515.4100
20
66.7300
10
515.2200
20
66.5500
10
515.1600
20
66.3000
10
515.2200
20
66.0500
10
515.4100
20
65.8600
10
515.6600
20
65.8000
10
515.9100
20
65.8600
10
516.0900
20
66.0500
10
516.1600
20
66.3000
0
LWPOLYLINE
8
CONTOURS
90
4
70
0
10
515.6500
20
65.7900
10
515.6500
20
66.7900
10
515.1500
20
66.2900
10
516.1500
20
66.2900
0
LWPOLYLINE
8
CONTOURS
90
13
70
1
10
516.1500
20
66.2900
10
516.0900
20
66.5400
10
515.9000
20
66.7200
10
515.6500
20
66.7900
10
515.4000
20
66.7200
10
515.2200
20
66.5400
10
515.1500
20
66.2900
10
515.2200
20
66.0400
10
515.4000
20
65.8600
10
515.6500
20
65.7900
10
515.9000
20
65.8600
10
516.0900
20
66.0400
10
516.1500
20
66.2900
0
LWPOLYLINE
8
CONTOURS
90
4
70
0
10
536.9300
20
54.0400
10
536.9300
20
55.0400
10
536.4300
20
54.5400
10
537.4300
20
54.5400
0
LWPOLYLINE
8
CONTOURS
90
13
70
1
10
537.4300
20
54.5400
10
537.3600
20
54.7900
10
537.1800
20
54.9700
10
536.9300
20
55.0400
10
536.6800
20
54.9700
10
536.4900
20
54.7900
10
536.4300
20
54.5400
10
536.4900
20
54.2900
10
536.6800
20
54.1100
10
536.9300
20
54.0400
10
537.1800
20
54.1100
10
537.3600
20
54.2900
10
537.4300
20
54.5400
0
LWPOLYLINE
8
CONTOURS
90
4
70
0
10
536.9000
20
63.0400
10
536.9000
20
64.0400
10
536.4000
20
63.5400
10
537.4000
20
63.5400
0
LWPOLYLINE
8
CONTOURS
90
13
70
1
10
537.4000
20
63.5400
10
537.3300
20
63.7900
10
537.1500
20
63.9700
10
536.9000
20
64.0400
10
536.6500
20
63.9700
10
536.4700
20
63.7900
10
536.4000
20
63.5400
10
536.4700
20
63.2900
10
536.6500
20
63.1100
10
536.9000
20
63.0400
10
537.1500
20
63.1100
10
537.3300
20
63.2900
10
537.4000
20
63.5400
0
LWPOLYLINE
8
CONTOURS
90
4
70
0
10
543.3300
20
54.0400
10
543.3300
20
55.0400
10
542.8300
20
54.5400
10
543.8300
20
54.5400
0
LWPOLYLINE
8
CONTOURS
90
13
70
1
10
543.8300
20
54.5400
10
543.7600
20
54.7900
10
543.5800
20
54.9700
10
543.3300
20
55.0400
10
543.0800
20
54.9700
10
542.8900
20
54.7900
10
542.8300
20
54.5400
10
542.8900
20
54.2900
10
543.0800
20
54.1100
10
543.3300
20
54.0400
10
543.5800
20
54.1100
10
543.7600
20
54.2900
10
543.8300
20
54.5400
0
LWPOLYLINE
8
CONTOURS
90
4
70
0
10
543.3000
20
63.0400
10
543.3000
20
64.0400
10
542.8000
20
63.5400
10
543.8000
20
63.5400
0
LWPOLYLINE
8
CONTOURS
90
13
70
1
10
543.8000
20
63.5400
10
543.7300
20
63.7900
10
543.5500
20
63.9700
10
543.3000
20
64.0400
10
543.0500
20
63.9700
10
542.8700
20
63.7900
10
542.8000
20
63.5400
10
542.8700
20
63.2900
10
543.0500
20
63.1100
10
543.3000
20
63.0400
10
543.5500
20
63.1100
10
543.7300
20
63.2900
10
543.8000
20
63.5400
0
LWPOLYLINE
8
CONTOURS
90
4
70
0
10
549.5300
20
92.5400
10
549.5300
20
93.5400
10
549.0300
20
93.0400
10
550.0300
20
93.0400
0
LWPOLYLINE
8
CONTOURS
90
13
70
1
10
550.0300
20
93.0400
10
549.9600
20
93.2900
10
549.7800
20
93.4700
10
549.5300
20
93.5400
10
549.2800
20
93.4700
10
549.0900
20
93.2900
10
549.0300
20
93.0400
10
549.0900
20
92.7900
10
549.2800
20
92.6100
10
549.5300
20
92.5400
10
549.7800
20
92.6100
10
549.9600
20
92.7900
10
550.0300
20
93.0400
0
LWPOLYLINE
8
CONTOURS
90
4
70
0
10
549.5000
20
101.5400
10
549.5000
20
102.5400
10
549.0000
20
102.0400
10
550.0000
20
102.0400
0
LWPOLYLINE
8
CONTOURS
90
13
70
1
10
550.0000
20
102.0400
10
549.9300
20
102.2900
10
549.7500
20
102.4700
10
549.5000
20
102.5400
10
549.2500
20
102.4700
10
549.0700
20
102.2900
10
549.0000
20
102.0400
10
549.0700
20
101.7900
10
549.2500
20
101.6100
10
549.5000
20
101.5400
10
549.7500
20
101.6100
10
549.9300
20
101.7900
10
550.0000
20
102.0400
0
LWPOLYLINE
8
CONTOURS
90
4
70
0
10
549.7300
20
54.0400
10
549.7300
20
55.0400
10
549.2300
20
54.5400
10
550.2300
20
54.5400
0
LWPOLYLINE
8
CONTOURS
90
13
70
1
10
550.2300
20
54.5400
10
550.1600
20
54.7900
10
549.9800
20
54.9700
10
549.7300
20
55.0400
10
549.4800
20
54.9700
10
549.2900
20
54.7900
10
549.2300
20
54.5400
10
549.2900
20
54.2900
10
549.4800
20
54.1100
10
549.7300
20
54.0400
10
549.9800
20
54.1100
10
550.1600
20
54.2900
10
550.2300
20
54.5400
0
LWPOLYLINE
8
CONTOURS
90
4
70
0
10
549.7000
20
63.0400
10
549.7000
20
64.0400
10
549.2000
20
63.5400
10
550.2000
20
63.5400
0
LWPOLYLINE
8
CONTOURS
90
13
70
1
10
550.2000
20
63.5400
10
550.1300
20
63.7900
10
549.9500
20
63.9700
10
549.7000
20
64.0400
10
549.4500
20
63.9700
10
549.2700
20
63.7900
10
549.2000
20
63.5400
10
549.2700
20
63.2900
10
549.4500
20
63.1100
10
549.7000
20
63.0400
10
549.9500
20
63.1100
10
550.1300
20
63.2900
10
550.2000
20
63.5400
0
LWPOLYLINE
8
CONTOURS
90
4
70
0
10
555.9300
20
98.9800
10
555.9300
20
99.9800
10
555.4300
20
99.4800
10
556.4300
20
99.4800
0
LWPOLYLINE
8
CONTOURS
90
13
70
1
10
556.4300
20
99.4800
10
556.3600
20
99.7300
10
556.1800
20
99.9200
10
555.9300
20
99.9800
10
555.6800
20
99.9200
10
555.4900
20
99.7300
10
555.4300
20
99.4800
10
555.4900
20
99.2300
10
555.6800
20
99.0500
10
555.9300
20
98.9800
10
556.1800
20
99.0500
10
556.3600
20
99.2300
10
556.4300
20
99.4800
0
LWPOLYLINE
8
CONTOURS
90
4
70
0
10
555.9000
20
89.9800
10
555.9000
20
90.9800
10
555.4000
20
90.4800
10
556.4000
20
90.4800
0
LWPOLYLINE
8
CONTOURS
90
13
70
1
10
556.4000
20
90.4800
10
556.3300
20
90.7300
10
556.1500
20
90.9200
10
555.9000
20
90.9800
10
555.6500
20
90.9200
10
555.4700
20
90.7300
10
555.4000
20
90.4800
10
555.4700
20
90.2300
10
555.6500
20
90.0500
10
555.9000
20
89.9800
10
556.1500
20
90.0500
10
556.3300
20
90.2300
10
556.4000
20
90.4800
0
LWPOLYLINE
8
CONTOURS
90
4
70
0
10
556.1300
20
60.4800
10
556.1300
20
61.4800
10
555.6300
20
60.9800
10
556.6300
20
60.9800
0
LWPOLYLINE
8
CONTOURS
90
13
70
1
10
556.6300
20
60.9800
10
556.5600
20
61.2300
10
556.3800
20
61.4200
10
556.1300
20
61.4800
10
555.8800
20
61.4200
10
555.6900
20
61.2300
10
555.6300
20
60.9800
10
555.6900
20
60.7300
10
555.8800
20
60.5500
10
556.1300
20
60.4800
10
556.3800
20
60.5500
10
556.5600
20
60.7300
10
556.6300
20
60.9800
0
LWPOLYLINE
8
CONTOURS
90
4
70
0
10
556.1000
20
51.4800
10
556.1000
20
52.4800
10
555.6000
20
51.9800
10
556.6000
20
51.9800
0
LWPOLYLINE
8
CONTOURS
90
13
70
1
10
556.6000
20
51.9800
10
556.5300
20
52.2300
10
556.3500
20
52.4200
10
556.1000
20
52.4800
10
555.8500
20
52.4200
10
555.6700
20
52.2300
10
555.6000
20
51.9800
10
555.6700
20
51.7300
10
555.8500
20
51.5500
10
556.1000
20
51.4800
10
556.3500
20
51.5500
10
556.5300
20
51.7300
10
556.6000
20
51.9800
0
LWPOLYLINE
8
CONTOURS
90
4
70
0
10
560.2300
20
21.9800
10
560.2300
20
22.9800
10
559.7300
20
22.4800
10
560.7300
20
22.4800
0
LWPOLYLINE
8
CONTOURS
90
13
70
1
10
560.7300
20
22.4800
10
560.6600
20
22.7300
10
560.4800
20
22.9200
10
560.2300
20
22.9800
10
559.9800
20
22.9200
10
559.7900
20
22.7300
10
559.7300
20
22.4800
10
559.7900
20
22.2300
10
559.9800
20
22.0500
10
560.2300
20
21.9800
10
560.4800
20
22.0500
10
560.6600
20
22.2300
10
560.7300
20
22.4800
0
LWPOLYLINE
8
CONTOURS
90
4
70
0
10
560.2000
20
12.9800
10
560.2000
20
13.9800
10
559.7000
20
13.4800
10
560.7000
20
13.4800
0
LWPOLYLINE
8
CONTOURS
90
13
70
1
10
560.7000
20
13.4800
10
560.6300
20
13.7300
10
560.4500
20
13.9200
10
560.2000
20
13.9800
10
559.9500
20
13.9200
10
559.7700
20
13.7300
10
559.7000
20
13.4800
10
559.7700
20
13.2300
10
559.9500
20
13.0500
10
560.2000
20
12.9800
10
560.4500
20
13.0500
10
560.6300
20
13.2300
10
560.7000
20
13.4800
0
LWPOLYLINE
8
CONTOURS
90
4
70
0
10
562.2300
20
107.0800
10
562.2300
20
108.0800
10
561.7300
20
107.5800
10
562.7300
20
107.5800
0
LWPOLYLINE
8
CONTOURS
90
13
70
1
10
562.7300
20
107.5800
10
562.6600
20
107.8300
10
562.4800
20
108.0200
10
562.2300
20
108.0800
10
561.9800
20
108.0200
10
561.7900
20
107.8300
10
561.7300
20
107.5800
10
561.7900
20
107.3300
10
561.9800
20
107.1500
10
562.2300
20
107.0800
10
562.4800
20
107.1500
10
562.6600
20
107.3300
10
562.7300
20
107.5800
0
LWPOLYLINE
8
CONTOURS
90
4
70
0
10
562.2000
20
98.0800
10
562.2000
20
99.0800
10
561.7000
20
98.5800
10
562.7000
20
98.5800
0
LWPOLYLINE
8
CONTOURS
90
13
70
1
10
562.7000
20
98.5800
10
562.6300
20
98.8300
10
562.4500
20
99.0200
10
562.2000
20
99.0800
10
561.9500
20
99.0200
10
561.7700
20
98.8300
10
561.7000
20
98.5800
10
561.7700
20
98.3300
10
561.9500
20
98.1500
10
562.2000
20
98.0800
10
562.4500
20
98.1500
10
562.6300
20
98.3300
10
562.7000
20
98.5800
0
LWPOLYLINE
8
CONTOURS
90
4
70
0
10
522.1000
20
103.2900
10
522.1000
20
104.2900
10
521.6000
20
103.7900
10
522.6000
20
103.7900
0
LWPOLYLINE
8
CONTOURS
90
13
70
1
10
522.6000
20
103.7900
10
522.5300
20
104.0400
10
522.3500
20
104.2200
10
522.1000
20
104.2900
10
521.8500
20
104.2200
10
521.6700
20
104.0400
10
521.6000
20
103.7900
10
521.6700
20
103.5400
10
521.8500
20
103.3500
10
522.1000
20
103.2900
10
522.3500
20
103.3500
10
522.5300
20
103.5400
10
522.6000
20
103.7900
0
LWPOLYLINE
8
CONTOURS
90
4
70
0
10
522.1100
20
88.8500
10
522.1100
20
89.8500
10
521.6100
20
89.3500
10
522.6100
20
89.3500
0
LWPOLYLINE
8
CONTOURS
90
13
70
1
10
522.6100
20
89.3500
10
522.5400
20
89.6000
10
522.3600
20
89.7800
10
522.1100
20
89.8500
10
521.8600
20
89.7800
10
521.6800
20
89.6000
10
521.6100
20
89.3500
10
521.6800
20
89.1000
10
521.8600
20
88.9200
10
522.1100
20
88.8500
10
522.3600
20
88.9200
10
522.5400
20
89.1000
10
522.6100
20
89.3500
0
LWPOLYLINE
8
CONTOURS
90
4
70
0
10
525.6000
20
56.6900
10
525.6000
20
57.6900
10
525.1000
20
57.1900
10
526.1000
20
57.1900
0
LWPOLYLINE
8
CONTOURS
90
13
70
1
10
526.1000
20
57.1900
10
526.0300
20
57.4400
10
525.8500
20
57.6200
10
525.6000
20
57.6900
10
525.3500
20
57.6200
10
525.1700
20
57.4400
10
525.1000
20
57.1900
10
525.1700
20
56.9400
10
525.3500
20
56.7500
10
525.6000
20
56.6900
10
525.8500
20
56.7500
10
526.0300
20
56.9400
10
526.1000
20
57.1900
0
LWPOLYLINE
8
CONTOURS
90
4
70
0
10
525.6100
20
42.2500
10
525.6100
20
43.2500
10
525.1100
20
42.7500
10
526.1100
20
42.7500
0
LWPOLYLINE
8
CONTOURS
90
13
70
1
10
526.1100
20
42.7500
10
526.0400
20
43.0000
10
525.8600
20
43.1800
10
525.6100
20
43.2500
10
525.3600
20
43.1800
10
525.1800
20
43.0000
10
525.1100
20
42.7500
10
525.1800
20
42.5000
10
525.3600
20
42.3200
10
525.6100
20
42.2500
10
525.8600
20
42.3200
10
526.0400
20
42.5000
10
526.1100
20
42.7500
0
LWPOLYLINE
8
CONTOURS
90
4
70
0
10
525.9000
20
120.8500
10
525.9000
20
121.8500
10
525.4000
20
121.3500
10
526.4000
20
121.3500
0
LWPOLYLINE
8
CONTOURS
90
13
70
1
10
526.4000
20
121.3500
10
526.3300
20
121.6000
10
526.1500
20
121.7900
10
525.9000
20
121.8500
10
525.6500
20
121.7900
10
525.4700
20
121.6000
10
525.4000
20
121.3500
10
525.4700
20
121.1000
10
525.6500
20
120.9200
10
525.9000
20
120.8500
10
526.1500
20
120.9200
10
526.3300
20
121.1000
10
526.4000
20
121.3500
0
LWPOLYLINE
8
CONTOURS
90
4
70
0
10
525.9100
20
135.2900
10
525.9100
20
136.2900
10
525.4100
20
135.7900
10
526.4100
20
135.7900
0
LWPOLYLINE
8
CONTOURS
90
13
70
1
10
526.4100
20
135.7900
10
526.3400
20
136.0400
10
526.1600
20
136.2200
10
525.9100
20
136.2900
10
525.6600
20
136.2200
10
525.4800
20
136.0400
10
525.4100
20
135.7900
10
525.4800
20
135.5400
10
525.6600
20
135.3600
10
525.9100
20
135.2900
10
526.1600
20
135.3600
10
526.3400
20
135.5400
10
526.4100
20
135.7900
0
LWPOLYLINE
8
CONTOURS
90
4
70
0
10
546.8000
20
120.8500
10
546.8000
20
121.8500
10
546.3000
20
121.3500
10
547.3000
20
121.3500
0
LWPOLYLINE
8
CONTOURS
90
13
70
1
10
547.3000
20
121.3500
10
547.2300
20
121.6000
10
547.0500
20
121.7900
10
546.8000
20
121.8500
10
546.5500
20
121.7900
10
546.3700
20
121.6000
10
546.3000
20
121.3500
10
546.3700
20
121.1000
10
546.5500
20
120.9200
10
546.8000
20
120.8500
10
547.0500
20
120.9200
10
547.2300
20
121.1000
10
547.3000
20
121.3500
0
LWPOLYLINE
8
CONTOURS
90
4
70
0
10
546.8100
20
135.2900
10
546.8100
20
136.2900
10
546.3100
20
135.7900
10
547.3100
20
135.7900
0
LWPOLYLINE
8
CONTOURS
90
13
70
1
10
547.3100
20
135.7900
10
547.2400
20
136.0400
10
547.0600
20
136.2200
10
546.8100
20
136.2900
10
546.5600
20
136.2200
10
546.3800
20
136.0400
10
546.3100
20
135.7900
10
546.3800
20
135.5400
10
546.5600
20
135.3600
10
546.8100
20
135.2900
10
547.0600
20
135.3600
10
547.2400
20
135.5400
10
547.3100
20
135.7900
0
ENDSEC
0
EOF