0
SECTION
2
HEADER
9
$ACADVER
1
AC1015
9
$INSUNITS
70
4
0
ENDSEC
0
SECTION
2
TABLES
0
TABLE
2
LAYER
70
3
0
LAYER
2
0
70
0
62
7
6
CONTINUOUS
0
LAYER
2
CONTOURS
70
0
62
7
6
CONTINUOUS
0
LAYER
2
FILL
70
0
62
8
6
CONTINUOUS
0
ENDTAB
0
ENDSEC
0
SECTION
2
ENTITIES
0
LWPOLYLINE
8
CONTOURS
90
4
70
0
10
0.0100
20
0.0000
10
0.0100
20
120.3300
10
94.8900
20
120.3300
10
94.8900
20
0.0000
0
LWPOLYLINE
8
CONTOURS
90
52
70
1
10
62.7300
20
3.5000
10
62.1300
20
15.9900
10
61.8500
20
23.9800
10
61.6100
20
33.9800
10
61.4000
20
38.4800
10
61.0700
20
42.4600
10
60.5500
20
46.9300
10
59.4900
20
54.3600
10
55.1500
20
83.5400
10
54.2100
20
90.4800
10
53.6000
20
95.9400
10
53.0400
20
102.1500
10
57.0000
20
102.7300
10
59.9500
20
103.2700
10
62.3800
20
103.8500
10
65.0400
20
104.6400
10
65.0800
20
104.6600
10
66.5200
20
105.2600
10
68.0900
20
105.1000
10
71.5900
20
105.2100
10
74.0800
20
105.3800
10
77.0500
20
105.7500
10
80.3200
20
106.2500
10
83.2800
20
90.5300
10
84.1300
20
86.6200
10
84.5300
20
85.1700
10
85.2500
20
83.3000
10
85.7100
20
82.4200
10
86.3100
20
81.6100
10
87.0000
20
80.8900
10
87.7800
20
80.2600
10
89.0700
20
79.5100
10
90.4700
20
78.9700
10
92.8800
20
78.3100
10
93.8900
20
78.0600
10
90.6700
20
70.2000
10
89.4400
20
66.9200
10
88.3400
20
63.5900
10
87.3900
20
60.2200
10
86.5900
20
56.8000
10
85.9500
20
53.3600
10
85.3900
20
49.4000
10
84.9100
20
44.9300
10
84.4700
20
39.9300
10
84.2700
20
36.4400
10
84.1000
20
30.9400
10
83.9300
20
22.9400
10
83.6100
20
14.9500
10
83.0000
20
3.5000
10
83.1000
20
1.0000
10
62.6400
20
1.0000
10
62.7300
20
3.5000
0
LWPOLYLINE
8
CONTOURS
90
44
70
1
10
8.4000
20
3.6400
10
7.6400
20
17.6200
10
7.2600
20
26.6200
10
6.9500
20
38.1100
10
6.9000
20
40.1400
10
6.6900
20
44.6400
10
6.3500
20
49.6200
10
5.8200
20
55.1000
10
5.2800
20
59.5700
10
4.6000
20
64.0200
10
3.8700
20
67.9500
10
3.0200
20
71.8600
10
2.0300
20
75.7400
10
1.0100
20
79.2300
10
1.8700
20
79.7500
10
2.6400
20
80.3900
10
3.2300
20
81.1900
10
3.6000
20
82.1200
10
3.9100
20
83.5900
10
4.1000
20
85.4300
10
4.6500
20
90.9100
10
5.6500
20
102.0000
10
9.6400
20
101.6600
10
12.6300
20
101.5300
10
17.3600
20
101.5500
10
20.8600
20
101.6700
10
23.8500
20
101.9100
10
25.2200
20
102.0600
10
30.2600
20
85.5300
10
30.0900
20
82.8800
10
29.7100
20
78.4000
10
29.3100
20
73.4100
10
28.6700
20
67.4500
10
27.4400
20
57.0200
10
26.7900
20
50.5500
10
26.3200
20
44.5700
10
26.0300
20
39.0700
10
25.8100
20
31.5800
10
25.5900
20
23.0800
10
25.2100
20
14.0900
10
24.6500
20
3.6400
10
24.7500
20
1.1400
10
8.2900
20
1.1400
10
8.4000
20
3.6400
0
LWPOLYLINE
8
CONTOURS
90
33
70
1
10
51.7700
20
113.9500
10
47.6700
20
112.0900
10
44.4400
20
110.7500
10
41.6200
20
109.7200
10
38.7600
20
108.8100
10
35.8600
20
108.0400
10
32.4400
20
107.2800
10
31.6000
20
107.1100
10
28.7400
20
106.6100
10
25.7700
20
106.1800
10
22.7800
20
105.8700
10
19.7900
20
105.7000
10
16.2900
20
105.6500
10
12.7900
20
105.7200
10
9.7900
20
105.9200
10
6.1500
20
106.2800
10
6.8600
20
112.2300
10
10.8400
20
111.8500
10
13.8300
20
111.6900
10
17.3300
20
111.6500
10
20.3300
20
111.7300
10
23.3300
20
111.9500
10
26.3100
20
112.3100
10
29.1100
20
112.7500
10
32.5400
20
113.4300
10
35.4600
20
114.1300
10
38.3400
20
114.9600
10
41.1800
20
115.9300
10
44.4400
20
117.2300
10
49.1200
20
119.3300
10
50.0100
20
117.5100
10
50.4400
20
116.6500
10
51.7700
20
113.9500
0
LWPOLYLINE
8
CONTOURS
90
16
70
0
10
26.3900
20
78.1600
10
19.7600
20
100.6500
10
19.4700
20
101.6400
10
22.4700
20
101.7900
10
29.3400
20
102.5100
10
29.7800
20
99.5500
10
30.0400
20
97.0600
10
30.2600
20
93.0700
10
30.3400
20
89.5700
10
30.2800
20
86.0700
10
30.2500
20
85.3800
10
29.9700
20
81.3900
10
29.6800
20
78.1300
10
28.6900
20
77.9600
10
27.7200
20
77.7000
10
26.6800
20
77.1800
0
LWPOLYLINE
8
CONTOURS
90
4
70
0
10
13.8700
20
114.2900
10
14.6700
20
114.2900
10
14.6700
20
108.7900
10
13.8700
20
108.7900
0
LWPOLYLINE
8
CONTOURS
90
4
70
0
10
84.7400
20
113.1600
10
85.5400
20
113.1600
10
85.5400
20
107.6600
10
84.7400
20
107.6600
0
LWPOLYLINE
8
CONTOURS
90
45
70
1
10
82.0000
20
3.5000
10
63.7300
20
3.5000
10
62.8500
20
24.4800
10
62.2900
20
40.0300
10
60.8900
20
51.4400
10
59.7900
20
59.3700
10
56.4300
20
81.6200
10
55.3400
20
89.5400
10
54.7000
20
95.0000
10
54.1200
20
101.3000
10
58.0800
20
101.9000
10
61.0200
20
102.4800
10
63.4400
20
103.1000
10
65.3900
20
103.7100
10
66.6900
20
104.1400
10
68.0600
20
104.1000
10
71.5600
20
104.2000
10
74.0500
20
104.3800
10
77.0300
20
104.7400
10
79.5200
20
105.1200
10
82.2900
20
90.3800
10
83.1400
20
86.4700
10
83.5300
20
85.0300
10
84.2300
20
83.1500
10
84.6500
20
82.2400
10
85.1900
20
81.4000
10
86.1800
20
80.2800
10
87.3500
20
79.3400
10
88.6600
20
78.6000
10
90.0500
20
78.0500
10
92.5300
20
77.3900
10
89.6900
20
70.4500
10
88.4600
20
67.1700
10
87.3700
20
63.8400
10
86.4200
20
60.4600
10
85.6200
20
57.0500
10
84.9800
20
53.6100
10
84.4100
20
49.6500
10
83.9300
20
45.1800
10
83.4800
20
40.0300
10
83.2700
20
36.5400
10
83.1100
20
31.0400
10
82.9300
20
23.0400
10
82.6200
20
15.0400
10
82.0000
20
3.5000
0
LWPOLYLINE
8
CONTOURS
90
4
70
0
10
67.6900
20
96.6400
10
67.6900
20
98.0400
10
66.9900
20
97.3400
10
68.3900
20
97.3400
0
LWPOLYLINE
8
CONTOURS
90
41
70
1
10
23.6500
20
3.6400
10
9.4000
20
3.6400
10
8.6400
20
17.6200
10
8.2600
20
26.6200
10
7.9500
20
38.1100
10
7.9000
20
40.1700
10
7.6900
20
44.6700
10
7.3500
20
49.6600
10
6.8300
20
55.1300
10
6.2800
20
59.6000
10
5.6100
20
64.0500
10
4.7900
20
68.4700
10
3.9300
20
72.3800
10
3.0600
20
75.7700
10
2.1800
20
78.7900
10
3.0100
20
79.3600
10
3.7100
20
80.0700
10
4.2300
20
80.9300
10
4.7000
20
82.3500
10
4.9500
20
83.8300
10
5.0900
20
85.3000
10
5.6400
20
90.7800
10
6.5600
20
100.9200
10
10.0500
20
100.6400
10
13.0400
20
100.5200
10
17.3900
20
100.5500
10
20.8900
20
100.6700
10
23.8800
20
100.9100
10
24.5000
20
100.9800
10
29.2500
20
85.4100
10
29.1000
20
82.9600
10
28.7100
20
78.4700
10
28.3500
20
73.9900
10
27.7100
20
68.0200
10
26.6700
20
59.0800
10
26.0100
20
52.1100
10
25.1800
20
41.6400
10
25.0700
20
40.1600
10
24.7200
20
27.1700
10
24.3200
20
17.1800
10
23.6500
20
3.6400
0
LWPOLYLINE
8
CONTOURS
90
31
70
1
10
49.5400
20
116.2100
10
50.4200
20
114.4300
10
46.7700
20
112.7900
10
43.5300
20
111.4700
10
40.7000
20
110.4700
10
37.8300
20
109.5900
10
34.9200
20
108.8400
10
31.4200
20
108.1000
10
28.5800
20
107.6000
10
25.6100
20
107.1700
10
22.6300
20
106.8700
10
19.6300
20
106.7000
10
16.1300
20
106.6500
10
12.6300
20
106.7300
10
9.6400
20
106.9400
10
7.2600
20
107.1800
10
7.7300
20
111.1500
10
11.2200
20
110.8200
10
14.2200
20
110.6800
10
17.7200
20
110.6500
10
20.7100
20
110.7500
10
23.7100
20
110.9800
10
26.6900
20
111.3400
10
30.1400
20
111.9200
10
33.5700
20
112.6400
10
36.4800
20
113.3700
10
39.3500
20
114.2300
10
42.1800
20
115.2400
10
44.9600
20
116.3600
10
48.6500
20
118.0200
10
49.5400
20
116.2100
0
LWPOLYLINE
8
CONTOURS
90
4
70
0
10
9.2900
20
108.1800
10
9.2900
20
109.5800
10
8.5900
20
108.8800
10
9.9900
20
108.8800
0
LWPOLYLINE
8
CONTOURS
90
14
70
1
10
26.3900
20
78.1600
10
26.3900
20
78.1600
10
19.7600
20
100.6500
10
22.2600
20
100.7800
10
28.4900
20
101.4200
10
28.8500
20
98.9400
10
29.0900
20
96.4500
10
29.2800
20
92.4600
10
29.3400
20
88.9600
10
29.2500
20
85.4200
10
28.9700
20
81.4300
10
28.7500
20
78.9500
10
27.7600
20
78.7500
10
26.3900
20
78.1600
0
ENDSEC
0
EOF