0
SECTION
2
HEADER
9
$ACADVER
1
AC1015
9
$INSUNITS
70
4
0
ENDSEC
0
SECTION
2
TABLES
0
TABLE
2
LAYER
70
3
0
LAYER
2
0
70
0
62
7
6
CONTINUOUS
0
LAYER
2
CONTOURS
70
0
62
7
6
CONTINUOUS
0
LAYER
2
FILL
70
0
62
8
6
CONTINUOUS
0
ENDTAB
0
ENDSEC
0
SECTION
2
ENTITIES
0
LWPOLYLINE
8
CONTOURS
90
39
70
0
10
22.7700
20
30.5000
10
25.0400
20
31.2500
10
26.4800
20
31.8300
10
27.1400
20
32.1700
10
27.7500
20
32.5700
10
28.2800
20
33.0300
10
28.8900
20
33.7500
10
29.2400
20
34.2900
10
29.6800
20
35.1900
10
30.0500
20
36.1800
10
30.3500
20
37.2600
10
30.5200
20
38.0200
10
31.3800
20
42.6200
10
39.9400
20
40.1000
10
44.7700
20
38.8100
10
48.0200
20
38.0600
10
51.7600
20
37.3500
10
55.5200
20
36.7700
10
65.6500
20
35.4700
10
113.0300
20
34.4400
10
113.5000
20
24.9100
10
113.6000
20
20.8300
10
113.5500
20
16.7400
10
113.3200
20
11.3000
10
113.0300
20
5.8600
10
65.6400
20
4.4500
10
41.4000
20
2.0300
10
29.2900
20
0.7200
10
23.2400
20
0.0200
10
16.9900
20
0.0100
10
13.8800
20
0.1200
10
11.8100
20
0.2800
10
9.9200
20
0.5200
10
7.3200
20
0.9900
10
1.6200
20
2.2500
10
0.9400
20
13.1200
10
0.4300
20
14.7000
10
0.7000
20
16.3500
10
0.0100
20
27.3900
0
LWPOLYLINE
8
CONTOURS
90
39
70
0
10
22.7700
20
54.8300
10
25.0400
20
54.0800
10
26.4800
20
53.5000
10
27.1400
20
53.1600
10
27.7500
20
52.7600
10
28.2800
20
52.3000
10
28.8900
20
51.5800
10
29.2400
20
51.0400
10
29.6800
20
50.1400
10
30.0500
20
49.1500
10
30.3500
20
48.0700
10
30.5200
20
47.3100
10
31.3800
20
42.7100
10
39.9400
20
45.2300
10
44.7700
20
46.5300
10
48.0200
20
47.2700
10
51.7600
20
47.9800
10
55.5200
20
48.5600
10
65.6500
20
49.8600
10
113.0300
20
50.8900
10
113.5000
20
60.4200
10
113.6000
20
64.5000
10
113.5500
20
68.5900
10
113.3200
20
74.0300
10
113.0300
20
79.4700
10
65.6400
20
80.8800
10
41.4000
20
83.3000
10
29.2900
20
84.6100
10
23.2400
20
85.3100
10
16.9900
20
85.3200
10
13.8800
20
85.2200
10
11.8100
20
85.0500
10
9.9200
20
84.8100
10
7.3200
20
84.3400
10
1.6200
20
83.0800
10
0.9400
20
72.2200
10
0.4300
20
70.6300
10
0.7000
20
68.9800
10
0.0100
20
57.9400
0
LWPOLYLINE
8
CONTOURS
90
39
70
0
10
22.7700
20
114.9000
10
25.6600
20
115.9400
10
26.3300
20
116.2400
10
26.9600
20
116.5800
10
27.5400
20
116.9700
10
28.0400
20
117.4300
10
28.6300
20
118.1500
10
28.9600
20
118.6800
10
29.2500
20
119.2700
10
29.7200
20
120.5700
10
29.9900
20
121.6400
10
30.1500
20
122.4000
10
30.8800
20
126.7200
10
39.4200
20
124.3100
10
44.2600
20
123.0800
10
47.5100
20
122.3700
10
51.2500
20
121.7100
10
55.0100
20
121.1700
10
65.1500
20
119.9900
10
112.5300
20
119.0800
10
113.0000
20
109.7200
10
113.0900
20
105.7100
10
113.0400
20
101.7000
10
112.8200
20
96.3500
10
112.5300
20
91.0000
10
65.1400
20
89.7300
10
41.1900
20
87.3800
10
29.2200
20
86.1000
10
23.2400
20
85.4200
10
16.9900
20
85.4100
10
13.8800
20
85.5100
10
11.8100
20
85.6800
10
9.9200
20
85.9200
10
7.3200
20
86.3900
10
1.6200
20
87.6500
10
0.9400
20
98.0100
10
0.4300
20
99.6000
10
0.7000
20
101.2500
10
0.0100
20
111.7900
0
LWPOLYLINE
8
CONTOURS
90
39
70
0
10
135.4300
20
146.8000
10
132.5400
20
147.8400
10
131.8700
20
148.1400
10
131.2300
20
148.4800
10
130.6600
20
148.8700
10
130.1500
20
149.3300
10
129.5700
20
150.0500
10
129.2400
20
150.5800
10
128.9500
20
151.1700
10
128.4800
20
152.4700
10
128.2000
20
153.5400
10
128.0500
20
154.3000
10
127.3200
20
158.6200
10
118.7800
20
156.2100
10
113.9400
20
154.9800
10
110.6900
20
154.2700
10
106.9500
20
153.6100
10
103.1900
20
153.0700
10
93.0500
20
151.8900
10
45.6700
20
150.9800
10
45.2000
20
141.6200
10
45.1100
20
137.6100
10
45.1600
20
133.6000
10
45.3800
20
128.2500
10
45.6600
20
122.9000
10
93.0500
20
121.6300
10
117.0100
20
119.2800
10
128.9800
20
118.0000
10
134.9500
20
117.3200
10
141.2100
20
117.3100
10
144.3200
20
117.4100
10
146.3800
20
117.5800
10
148.2800
20
117.8200
10
150.8700
20
118.2900
10
156.5800
20
119.5500
10
157.2600
20
129.9100
10
157.7700
20
131.5000
10
157.4900
20
133.1500
10
158.1900
20
143.6900
0
LWPOLYLINE
8
CONTOURS
90
39
70
0
10
134.7700
20
53.5000
10
137.5300
20
54.5500
10
138.1800
20
54.8500
10
138.7800
20
55.1900
10
139.3200
20
55.5800
10
139.8000
20
56.0200
10
140.3700
20
56.7400
10
140.6800
20
57.2800
10
140.9500
20
57.8600
10
141.3800
20
59.1600
10
141.6300
20
60.2200
10
141.7700
20
60.9700
10
142.3700
20
65.0200
10
150.8900
20
62.7300
10
155.7300
20
61.5500
10
158.9900
20
60.8800
10
162.7300
20
60.2600
10
166.4900
20
59.7600
10
176.6500
20
58.7000
10
224.0300
20
57.9300
10
224.4900
20
48.7400
10
224.5800
20
44.8000
10
224.5300
20
40.8600
10
224.3100
20
35.6100
10
224.0300
20
30.3500
10
176.6400
20
29.2100
10
152.9700
20
26.9300
10
141.1500
20
25.6800
10
135.2400
20
25.0100
10
128.9900
20
25.0100
10
125.8800
20
25.1100
10
123.8100
20
25.2800
10
121.9200
20
25.5200
10
119.3200
20
25.9800
10
113.6200
20
27.2500
10
112.9400
20
37.1100
10
112.4300
20
38.7000
10
112.7000
20
40.3400
10
112.0100
20
50.3900
0
LWPOLYLINE
8
CONTOURS
90
39
70
0
10
134.9700
20
76.6300
10
137.7300
20
75.5800
10
138.3800
20
75.2800
10
138.9800
20
74.9400
10
139.5200
20
74.5500
10
140.0000
20
74.1000
10
140.5700
20
73.3900
10
140.8800
20
72.8500
10
141.1500
20
72.2600
10
141.5800
20
70.9700
10
141.8300
20
69.9000
10
141.9700
20
69.1500
10
142.5700
20
65.1100
10
151.0900
20
67.4000
10
155.9300
20
68.5800
10
159.1900
20
69.2500
10
162.9300
20
69.8700
10
166.6900
20
70.3600
10
176.8500
20
71.4300
10
224.2300
20
72.1900
10
224.6900
20
81.3900
10
224.7800
20
85.3300
10
224.7300
20
89.2700
10
224.5100
20
94.5200
10
224.2300
20
99.7700
10
176.8400
20
100.9100
10
153.1700
20
103.2000
10
141.3500
20
104.4500
10
135.4400
20
105.1100
10
129.1900
20
105.1200
10
126.0800
20
105.0200
10
124.0100
20
104.8500
10
122.1200
20
104.6100
10
119.5200
20
104.1400
10
113.8200
20
102.8800
10
113.1400
20
93.0100
10
112.6300
20
91.4300
10
112.9000
20
89.7800
10
112.2100
20
79.7400
0
LWPOLYLINE
8
CONTOURS
90
35
70
0
10
221.9500
20
106.0800
10
213.7500
20
105.4800
10
208.8400
20
105.0200
10
205.5800
20
104.6000
10
202.7300
20
104.1300
10
199.0300
20
103.4000
10
192.8900
20
101.9900
10
187.9100
20
100.8000
10
186.7200
20
103.4400
10
186.1800
20
104.4200
10
185.7200
20
105.0900
10
185.3800
20
105.5000
10
185.0000
20
105.8600
10
184.5900
20
106.1800
10
184.0400
20
106.5100
10
183.1200
20
106.9100
10
182.4500
20
107.1300
10
179.5600
20
107.8500
10
179.2000
20
107.9100
10
179.2700
20
106.9000
10
158.4200
20
107.8400
10
157.8400
20
124.3700
10
157.7100
20
126.9200
10
157.8700
20
129.4400
10
157.8400
20
134.8900
10
177.1900
20
139.4200
10
180.6900
20
139.1100
10
194.3000
20
137.5200
10
207.1000
20
136.2000
10
221.9600
20
134.7500
10
269.4400
20
133.9100
10
268.8800
20
122.5100
10
268.8600
20
119.9800
10
269.2900
20
109.8400
10
269.4300
20
107.3100
0
LWPOLYLINE
8
CONTOURS
90
35
70
0
10
287.7500
20
33.3400
10
279.5500
20
33.9300
10
274.6400
20
34.4000
10
271.3800
20
34.8200
10
268.5300
20
35.2900
10
264.8300
20
36.0200
10
258.6900
20
37.4300
10
253.7100
20
38.6200
10
252.5200
20
35.9800
10
251.9800
20
35.0000
10
251.5200
20
34.3300
10
251.1800
20
33.9200
10
250.8000
20
33.5600
10
250.3900
20
33.2400
10
249.8400
20
32.9100
10
248.9200
20
32.5100
10
248.2500
20
32.2900
10
245.3600
20
31.5600
10
245.0000
20
31.5100
10
245.0700
20
32.5200
10
224.2200
20
31.5700
10
223.6400
20
15.0400
10
223.5100
20
12.5000
10
223.6700
20
9.9800
10
223.6400
20
4.5300
10
242.9900
20
0.0000
10
246.4900
20
0.3100
10
260.1000
20
1.8900
10
272.9000
20
3.2200
10
287.7600
20
4.6700
10
335.2400
20
5.5100
10
334.6800
20
16.9100
10
334.6600
20
19.4400
10
335.0900
20
29.5800
10
335.2300
20
32.1100
0
LWPOLYLINE
8
CONTOURS
90
41
70
0
10
245.8700
20
74.9000
10
248.5100
20
75.9600
10
249.1200
20
76.2600
10
249.6900
20
76.6000
10
250.2100
20
76.9800
10
250.6600
20
77.4200
10
251.2000
20
78.1400
10
251.5000
20
78.6700
10
251.7500
20
79.2600
10
251.9700
20
79.8800
10
252.1500
20
80.5500
10
252.3000
20
81.2500
10
252.4800
20
82.3500
10
252.9700
20
86.1200
10
261.4700
20
83.9400
10
266.3100
20
82.8200
10
269.5700
20
82.1900
10
272.4500
20
81.7300
10
276.2100
20
81.2500
10
282.5200
20
80.6400
10
287.2500
20
80.2100
10
334.6300
20
79.5800
10
335.0800
20
70.5500
10
335.1700
20
66.6900
10
335.1200
20
62.8200
10
334.9100
20
57.6600
10
334.6300
20
52.5000
10
287.2400
20
51.5000
10
263.8600
20
49.2700
10
252.1800
20
48.0600
10
246.3400
20
47.4100
10
240.0900
20
47.4000
10
236.9800
20
47.5100
10
234.9100
20
47.6800
10
233.0200
20
47.9200
10
230.4200
20
48.3800
10
224.7200
20
49.6500
10
224.0400
20
59.0100
10
223.5300
20
60.6000
10
223.8000
20
62.2400
10
223.1100
20
71.7900
0
LWPOLYLINE
8
CONTOURS
90
41
70
0
10
290.2700
20
131.1300
10
292.9100
20
130.0700
10
293.5200
20
129.7700
10
294.0900
20
129.4300
10
294.6100
20
129.0400
10
295.0600
20
128.6100
10
295.6000
20
127.8900
10
295.9000
20
127.3500
10
296.1500
20
126.7700
10
296.3700
20
126.1400
10
296.5500
20
125.4800
10
296.7000
20
124.7800
10
296.8800
20
123.6800
10
297.3700
20
119.9000
10
305.8700
20
122.0900
10
310.7100
20
123.2100
10
313.9700
20
123.8400
10
316.8500
20
124.3000
10
320.6100
20
124.7700
10
326.9200
20
125.3900
10
331.6500
20
125.8100
10
379.0300
20
126.4400
10
379.4800
20
135.4700
10
379.5700
20
139.3400
10
379.5200
20
143.2100
10
379.3100
20
148.3700
10
379.0300
20
153.5200
10
331.6400
20
154.5300
10
308.2600
20
156.7500
10
296.5800
20
157.9700
10
290.7400
20
158.6100
10
284.4900
20
158.6200
10
281.3800
20
158.5200
10
279.3100
20
158.3500
10
277.4200
20
158.1100
10
274.8200
20
157.6400
10
269.1200
20
156.3800
10
268.4400
20
147.0100
10
267.9300
20
145.4300
10
268.2000
20
143.7800
10
267.5100
20
134.2400
0
LWPOLYLINE
8
CONTOURS
90
35
70
0
10
333.2500
20
85.0600
10
325.0500
20
84.5700
10
320.1500
20
84.1600
10
316.9000
20
83.7800
10
314.0400
20
83.3500
10
310.3400
20
82.6600
10
304.1900
20
81.3300
10
299.2100
20
80.2000
10
298.1000
20
82.7100
10
297.4700
20
83.8600
10
297.1700
20
84.2800
10
296.8500
20
84.6700
10
296.5000
20
85.0200
10
296.1100
20
85.3200
10
295.5800
20
85.6500
10
294.6700
20
86.0500
10
294.0200
20
86.2600
10
291.3600
20
86.9500
10
291.0000
20
87.0100
10
291.0700
20
86.0000
10
270.2200
20
86.9400
10
269.6400
20
102.9700
10
269.5100
20
105.5200
10
269.6700
20
108.0400
10
269.6400
20
112.9900
10
288.9900
20
117.5200
10
293.9600
20
117.0600
10
306.2000
20
115.6400
10
318.8500
20
114.3500
10
333.2600
20
112.9700
10
380.7400
20
112.2600
10
380.1900
20
101.0800
10
380.1800
20
98.5900
10
380.5900
20
88.6400
10
380.7300
20
86.1600
0
LWPOLYLINE
8
CONTOURS
90
35
70
0
10
398.1500
20
60.2600
10
389.9500
20
60.7500
10
385.0500
20
61.1600
10
381.8000
20
61.5400
10
378.9400
20
61.9700
10
375.2400
20
62.6600
10
369.0900
20
63.9900
10
364.1100
20
65.1200
10
363.0000
20
62.6100
10
362.3700
20
61.4500
10
362.0700
20
61.0400
10
361.7500
20
60.6500
10
361.4000
20
60.3000
10
361.0100
20
60.0000
10
360.4800
20
59.6700
10
359.5700
20
59.2700
10
358.9200
20
59.0500
10
356.2600
20
58.3700
10
355.9000
20
58.3100
10
355.9700
20
59.3200
10
335.1200
20
58.3700
10
334.5400
20
42.3400
10
334.4100
20
39.8000
10
334.5700
20
37.2800
10
334.5400
20
32.3300
10
353.8900
20
27.8000
10
358.8600
20
28.2600
10
371.1000
20
29.6800
10
383.7500
20
30.9700
10
398.1600
20
32.3500
10
445.6400
20
33.0600
10
445.0900
20
44.2400
10
445.0800
20
46.7300
10
445.4900
20
56.6800
10
445.6300
20
59.1600
0
LWPOLYLINE
8
CONTOURS
90
41
70
0
10
393.5700
20
87.7900
10
396.0800
20
88.8700
10
396.6700
20
89.1700
10
397.2100
20
89.5100
10
397.7000
20
89.8800
10
398.1300
20
90.3100
10
398.6400
20
91.0300
10
398.9200
20
91.5700
10
399.1500
20
92.1500
10
399.3400
20
92.7700
10
399.5000
20
93.4300
10
399.6300
20
94.1300
10
399.7900
20
95.2200
10
400.1600
20
98.7200
10
408.6300
20
96.6500
10
413.4900
20
95.5900
10
416.7400
20
94.9900
10
419.6300
20
94.5700
10
423.3900
20
94.1400
10
429.7000
20
93.6000
10
434.4500
20
93.2300
10
481.8300
20
92.7300
10
482.2700
20
83.8700
10
482.3600
20
80.0700
10
482.3100
20
76.2700
10
482.1000
20
71.2100
10
481.8300
20
66.1500
10
434.4400
20
65.2800
10
411.3400
20
63.1200
10
399.8100
20
61.9400
10
394.0400
20
61.3100
10
387.7900
20
61.3000
10
384.6800
20
61.4100
10
382.6100
20
61.5700
10
380.7200
20
61.8200
10
378.1200
20
62.2800
10
372.4200
20
63.5400
10
371.7400
20
72.4100
10
371.2300
20
74.0000
10
371.5000
20
75.6400
10
370.8100
20
84.6800
0
LWPOLYLINE
8
CONTOURS
90
41
70
0
10
400.8700
20
109.6300
10
403.3800
20
108.5600
10
403.9700
20
108.2500
10
404.5100
20
107.9200
10
405.0000
20
107.5400
10
405.4300
20
107.1100
10
405.9400
20
106.3900
10
406.2200
20
105.8500
10
406.4500
20
105.2700
10
406.6400
20
104.6500
10
406.8000
20
103.9900
10
406.9300
20
103.2900
10
407.0900
20
102.2000
10
407.4600
20
98.7000
10
415.9300
20
100.7700
10
420.7900
20
101.8400
10
424.0400
20
102.4300
10
426.9300
20
102.8500
10
430.6900
20
103.2800
10
437.0000
20
103.8300
10
441.7500
20
104.1900
10
489.1300
20
104.6900
10
489.5700
20
113.5500
10
489.6600
20
117.3500
10
489.6100
20
121.1500
10
489.4000
20
126.2100
10
489.1300
20
131.2700
10
441.7400
20
132.1500
10
418.6400
20
134.3000
10
407.1100
20
135.4800
10
401.3400
20
136.1100
10
395.0900
20
136.1200
10
391.9800
20
136.0200
10
389.9100
20
135.8500
10
388.0200
20
135.6100
10
385.4200
20
135.1400
10
379.7200
20
133.8800
10
379.0400
20
125.0200
10
378.5300
20
123.4300
10
378.8000
20
121.7800
10
378.1100
20
112.7400
0
LWPOLYLINE
8
CONTOURS
90
34
70
0
10
428.4900
20
31.5700
10
436.6800
20
31.9700
10
441.5800
20
32.3100
10
444.8300
20
32.6500
10
447.6900
20
33.0600
10
451.4000
20
33.7000
10
457.5600
20
34.9600
10
462.5300
20
36.0200
10
463.5600
20
33.6400
10
464.1500
20
32.5400
10
464.7200
20
31.7800
10
465.0500
20
31.4400
10
465.4100
20
31.1500
10
465.9300
20
30.8300
10
466.8200
20
30.4300
10
467.4700
20
30.2200
10
469.8800
20
29.5700
10
470.2500
20
29.5100
10
470.1800
20
30.5200
10
491.0300
20
29.5700
10
491.6100
20
14.0500
10
491.7400
20
11.5000
10
491.5800
20
8.9800
10
491.6100
20
4.5300
10
472.2600
20
0.0000
10
467.2500
20
0.4600
10
454.9300
20
1.8600
10
442.4200
20
3.1200
10
428.4800
20
4.4400
10
381.0100
20
5.0100
10
381.5500
20
15.9800
10
381.5600
20
18.4200
10
381.1500
20
28.1700
10
381.0100
20
30.6100
0
LWPOLYLINE
8
CONTOURS
90
34
70
0
10
492.9900
20
36.7400
10
501.1800
20
36.3500
10
506.0800
20
36.0000
10
509.3300
20
35.6600
10
512.1900
20
35.2600
10
515.9000
20
34.6200
10
522.0600
20
33.3600
10
527.0300
20
32.3000
10
528.0600
20
34.6800
10
528.6500
20
35.7800
10
529.2200
20
36.5400
10
529.5500
20
36.8700
10
529.9100
20
37.1700
10
530.4300
20
37.4900
10
531.3200
20
37.8900
10
531.9700
20
38.1000
10
534.3800
20
38.7500
10
534.7500
20
38.8100
10
534.6800
20
37.8000
10
555.5300
20
38.7400
10
556.1100
20
54.2700
10
556.2400
20
56.8200
10
556.0800
20
59.3400
10
556.1100
20
63.7900
10
536.7600
20
68.3200
10
531.7500
20
67.8600
10
519.4300
20
66.4500
10
506.9200
20
65.2000
10
492.9800
20
63.8800
10
445.5100
20
63.3100
10
446.0500
20
52.3400
10
446.0600
20
49.9000
10
445.6500
20
40.1400
10
445.5100
20
37.7100
0
LWPOLYLINE
8
CONTOURS
90
32
70
0
10
544.6500
20
75.1300
10
536.4700
20
74.8300
10
531.5800
20
74.5500
10
528.3200
20
74.2500
10
525.4600
20
73.8800
10
521.7500
20
73.2800
10
515.5800
20
72.1000
10
510.6200
20
71.1000
10
509.6800
20
73.3500
10
509.1300
20
74.3900
10
508.6000
20
75.1200
10
508.3000
20
75.4300
10
507.7100
20
75.8800
10
506.8800
20
76.3000
10
505.9400
20
76.6400
10
503.7700
20
77.2500
10
503.3900
20
77.3100
10
503.4700
20
76.3000
10
482.6200
20
77.2400
10
482.0400
20
92.2700
10
481.9100
20
94.8200
10
482.0700
20
97.3400
10
482.0400
20
101.2900
10
501.3900
20
105.8200
10
506.4400
20
105.3500
10
518.8700
20
103.9700
10
533.3000
20
102.5600
10
544.6600
20
101.5000
10
592.1400
20
101.0600
10
591.6100
20
90.3100
10
591.6000
20
87.9100
10
592.1300
20
75.9600
0
LWPOLYLINE
8
CONTOURS
90
32
70
0
10
551.9500
20
154.1900
10
543.7700
20
154.4900
10
538.8800
20
154.7700
10
535.6200
20
155.0700
10
532.7600
20
155.4400
10
529.0500
20
156.0400
10
522.8800
20
157.2200
10
517.9200
20
158.2200
10
516.9800
20
155.9700
10
516.4300
20
154.9300
10
515.9000
20
154.2000
10
515.6000
20
153.8900
10
515.0100
20
153.4400
10
514.1800
20
153.0100
10
513.2400
20
152.6800
10
511.0700
20
152.0700
10
510.6900
20
152.0100
10
510.7700
20
153.0200
10
489.9200
20
152.0700
10
489.3400
20
137.0500
10
489.2100
20
134.5000
10
489.3700
20
131.9800
10
489.3400
20
128.0300
10
508.6900
20
123.5000
10
513.7400
20
123.9700
10
526.1700
20
125.3500
10
540.6000
20
126.7600
10
551.9600
20
127.8200
10
599.4400
20
128.2600
10
598.9100
20
139.0100
10
598.9000
20
141.4100
10
599.4300
20
153.3600
0
LWPOLYLINE
8
CONTOURS
90
31
70
0
10
553.6500
20
3.6100
10
545.4800
20
3.4200
10
540.5900
20
3.1900
10
537.3400
20
2.9300
10
534.4800
20
2.6000
10
530.7600
20
2.0500
10
524.5800
20
0.9400
10
519.6200
20
0.0000
10
518.7600
20
2.1200
10
518.2700
20
3.1000
10
517.7800
20
3.7900
10
517.5000
20
4.0900
10
516.9400
20
4.5200
10
516.1300
20
4.9500
10
515.2100
20
5.2800
10
513.2700
20
5.8500
10
512.8900
20
5.9100
10
512.9700
20
4.9000
10
492.1200
20
5.8400
10
491.4100
20
22.9200
10
491.5700
20
25.4400
10
491.5400
20
28.8900
10
510.8900
20
33.4200
10
516.0000
20
32.9500
10
526.9500
20
31.7400
10
539.1700
20
30.5400
10
553.6600
20
29.2100
10
601.1400
20
28.9100
10
600.6200
20
18.3700
10
600.6100
20
16.0200
10
601.1300
20
4.3100
0
LWPOLYLINE
8
CONTOURS
90
31
70
0
10
587.6900
20
101.3100
10
595.8700
20
101.1200
10
600.7600
20
100.8900
10
604.0100
20
100.6300
10
606.8700
20
100.3000
10
610.5900
20
99.7500
10
616.7700
20
98.6400
10
621.7300
20
97.7000
10
622.5800
20
99.8200
10
623.0800
20
100.8000
10
623.5700
20
101.4900
10
623.8500
20
101.7900
10
624.4100
20
102.2200
10
625.2200
20
102.6500
10
626.1400
20
102.9800
10
628.0700
20
103.5500
10
628.4600
20
103.6100
10
628.3800
20
102.6000
10
649.2300
20
103.5400
10
649.9400
20
120.6200
10
649.7800
20
123.1400
10
649.8100
20
126.5900
10
630.4600
20
131.1200
10
625.3500
20
130.6500
10
614.3900
20
129.4400
10
602.1700
20
128.2400
10
587.6800
20
126.9100
10
540.2100
20
126.6100
10
540.7300
20
116.0700
10
540.7400
20
113.7200
10
540.2100
20
102.0100
0
LWPOLYLINE
8
CONTOURS
90
4
70
0
10
113.2100
20
0.0200
10
113.2100
20
9.0200
10
205.2100
20
9.0200
10
205.2100
20
0.0200
0
LWPOLYLINE
8
CONTOURS
90
4
70
0
10
113.6100
20
9.1200
10
113.6100
20
18.1200
10
201.6100
20
18.1200
10
201.6100
20
9.1200
0
LWPOLYLINE
8
CONTOURS
90
4
70
0
10
130.0100
20
149.6200
10
130.0100
20
158.6200
10
214.0100
20
158.6200
10
214.0100
20
149.6200
0
LWPOLYLINE
8
CONTOURS
90
4
70
0
10
158.2100
20
139.5200
10
158.2100
20
148.5200
10
238.2100
20
148.5200
10
238.2100
20
139.5200
0
LWPOLYLINE
8
CONTOURS
90
4
70
0
10
249.2100
20
38.7200
10
249.2100
20
47.7200
10
325.2100
20
47.7200
10
325.2100
20
38.7200
0
LWPOLYLINE
8
CONTOURS
90
4
70
0
10
0.0100
20
126.7200
10
0.0100
20
130.2200
10
35.0100
20
130.2200
10
35.0100
20
126.7200
0
LWPOLYLINE
8
CONTOURS
90
4
70
0
10
0.0100
20
130.2200
10
0.0100
20
133.7200
10
35.0100
20
133.7200
10
35.0100
20
130.2200
0
LWPOLYLINE
8
CONTOURS
90
4
70
0
10
0.0100
20
133.7200
10
0.0100
20
137.2200
10
35.0100
20
137.2200
10
35.0100
20
133.7200
0
LWPOLYLINE
8
CONTOURS
90
4
70
0
10
0.0100
20
137.2200
10
0.0100
20
140.7200
10
35.0100
20
140.7200
10
35.0100
20
137.2200
0
LWPOLYLINE
8
CONTOURS
90
4
70
0
10
0.0100
20
140.7200
10
0.0100
20
144.2200
10
35.0100
20
144.2200
10
35.0100
20
140.7200
0
LWPOLYLINE
8
CONTOURS
90
18
70
0
10
0.2200
20
28.4100
10
0.3300
20
32.4900
10
0.0100
20
38.4000
10
6.6900
20
39.7700
10
9.7600
20
40.2700
10
11.6900
20
40.5000
10
14.3900
20
40.6800
10
16.2200
20
40.7200
10
18.9600
20
40.6800
10
21.6200
20
40.5700
10
25.7000
20
40.3000
10
25.7500
20
37.9900
10
25.8100
20
37.2300
10
25.9900
20
36.3100
10
26.1500
20
35.7700
10
26.4300
20
35.0700
10
26.7600
20
34.3900
10
27.6800
20
32.6900
0
LWPOLYLINE
8
CONTOURS
90
18
70
0
10
0.2200
20
53.1200
10
0.3300
20
49.0400
10
0.0100
20
43.1300
10
6.6900
20
41.7600
10
9.7600
20
41.2600
10
11.6900
20
41.0300
10
14.3900
20
40.8500
10
16.2200
20
40.8100
10
18.9600
20
40.8500
10
21.6200
20
40.9600
10
25.7000
20
41.2300
10
25.7500
20
43.5400
10
25.8100
20
44.3000
10
25.9900
20
45.2200
10
26.1500
20
45.7600
10
26.4300
20
46.4600
10
26.7600
20
47.1400
10
27.6800
20
48.8400
0
LWPOLYLINE
8
CONTOURS
90
18
70
0
10
0.2200
20
113.0100
10
0.3300
20
117.0900
10
0.0100
20
123.0000
10
6.6900
20
124.3700
10
9.7600
20
124.8700
10
11.6900
20
125.1000
10
14.3900
20
125.2800
10
16.2200
20
125.3200
10
18.9600
20
125.2800
10
21.6200
20
125.1700
10
25.7000
20
124.9000
10
25.7500
20
122.5900
10
25.8100
20
121.8300
10
25.9900
20
120.9100
10
26.1500
20
120.3700
10
26.4300
20
119.6700
10
26.7600
20
118.9900
10
27.6800
20
117.2900
0
LWPOLYLINE
8
CONTOURS
90
18
70
0
10
0.2200
20
156.6200
10
0.3300
20
152.5400
10
0.0100
20
146.6300
10
6.6900
20
145.2600
10
9.7600
20
144.7600
10
11.6900
20
144.5300
10
14.3900
20
144.3500
10
16.2200
20
144.3100
10
18.9600
20
144.3500
10
21.6200
20
144.4600
10
25.7000
20
144.7300
10
25.7500
20
147.0400
10
25.8100
20
147.8000
10
25.9900
20
148.7200
10
26.1500
20
149.2600
10
26.4300
20
149.9600
10
26.7600
20
150.6400
10
27.6800
20
152.3400
0
LWPOLYLINE
8
CONTOURS
90
18
70
0
10
73.7700
20
50.0200
10
73.6600
20
45.9400
10
73.9800
20
40.0300
10
67.3000
20
38.6600
10
64.2300
20
38.1600
10
62.3100
20
37.9300
10
59.6000
20
37.7500
10
57.7700
20
37.7100
10
55.0300
20
37.7500
10
52.3700
20
37.8600
10
48.2900
20
38.1300
10
48.2400
20
40.4400
10
48.1800
20
41.2000
10
48.0100
20
42.1200
10
47.8500
20
42.6600
10
47.5700
20
43.3600
10
47.2300
20
44.0400
10
46.3100
20
45.7400
0
LWPOLYLINE
8
CONTOURS
90
18
70
0
10
74.2200
20
47.4200
10
74.3300
20
43.3400
10
74.0100
20
37.4300
10
80.6900
20
36.0600
10
83.7600
20
35.5600
10
85.6900
20
35.3300
10
88.3900
20
35.1500
10
90.2200
20
35.1100
10
92.9600
20
35.1500
10
95.6200
20
35.2600
10
99.7000
20
35.5300
10
99.7500
20
37.8400
10
99.8100
20
38.6000
10
99.9900
20
39.5200
10
100.1500
20
40.0600
10
100.4300
20
40.7600
10
100.7600
20
41.4400
10
101.6800
20
43.1400
0
LWPOLYLINE
8
CONTOURS
90
18
70
0
10
113.2200
20
103.4100
10
113.3300
20
107.4900
10
113.0100
20
113.4000
10
119.6900
20
114.7700
10
122.7600
20
115.2700
10
124.6900
20
115.5000
10
127.3900
20
115.6800
10
129.2200
20
115.7200
10
131.9600
20
115.6800
10
134.6200
20
115.5700
10
138.7000
20
115.3000
10
138.7500
20
112.9900
10
138.8100
20
112.2300
10
138.9900
20
111.3100
10
139.1500
20
110.7700
10
139.4300
20
110.0700
10
139.7600
20
109.3900
10
140.6800
20
107.6900
0
LWPOLYLINE
8
CONTOURS
90
18
70
0
10
113.8200
20
67.5200
10
113.9300
20
63.4400
10
113.6100
20
57.5300
10
120.2900
20
56.1600
10
123.3600
20
55.6600
10
125.2900
20
55.4300
10
127.9900
20
55.2500
10
129.8200
20
55.2100
10
132.5600
20
55.2500
10
135.2200
20
55.3600
10
139.3000
20
55.6300
10
139.3500
20
57.9400
10
139.4100
20
58.7000
10
139.5900
20
59.6200
10
139.7500
20
60.1600
10
140.0300
20
60.8600
10
140.3600
20
61.5400
10
141.2800
20
63.2400
0
LWPOLYLINE
8
CONTOURS
90
18
70
0
10
193.2700
20
71.6200
10
193.1600
20
67.5400
10
193.4800
20
61.6300
10
186.8000
20
60.2600
10
183.7300
20
59.7600
10
181.8100
20
59.5300
10
179.1000
20
59.3500
10
177.2700
20
59.3100
10
174.5300
20
59.3500
10
171.8700
20
59.4600
10
167.7900
20
59.7300
10
167.7400
20
62.0400
10
167.6800
20
62.8000
10
167.5100
20
63.7200
10
167.3500
20
64.2600
10
167.0700
20
64.9600
10
166.7300
20
65.6400
10
165.8100
20
67.3400
0
LWPOLYLINE
8
CONTOURS
90
18
70
0
10
208.1700
20
17.1100
10
208.0600
20
21.1900
10
208.3800
20
27.1000
10
201.7000
20
28.4700
10
198.6300
20
28.9700
10
196.7100
20
29.2000
10
194.0000
20
29.3800
10
192.1700
20
29.4200
10
189.4300
20
29.3800
10
186.7700
20
29.2700
10
182.6900
20
29.0000
10
182.6400
20
26.6900
10
182.5800
20
25.9300
10
182.4100
20
25.0100
10
182.2500
20
24.4700
10
181.9700
20
23.7700
10
181.6300
20
23.0900
10
180.7100
20
21.3900
0
LWPOLYLINE
8
CONTOURS
90
4
70
0
10
87.1100
20
80.3200
10
87.1100
20
90.3200
10
107.1100
20
90.3200
10
107.1100
20
80.3200
0
LWPOLYLINE
8
CONTOURS
90
4
70
0
10
193.5100
20
58.5200
10
193.5100
20
68.5200
10
213.5100
20
68.5200
10
213.5100
20
58.5200
0
LWPOLYLINE
8
CONTOURS
90
4
70
0
10
214.0100
20
148.5200
10
214.0100
20
158.5200
10
234.0100
20
158.5200
10
234.0100
20
148.5200
0
LWPOLYLINE
8
CONTOURS
90
4
70
0
10
224.5100
20
94.6200
10
224.5100
20
104.6200
10
244.5100
20
104.6200
10
244.5100
20
94.6200
0
LWPOLYLINE
8
CONTOURS
90
4
70
0
10
224.6100
20
32.5200
10
224.6100
20
42.5200
10
244.6100
20
42.5200
10
244.6100
20
32.5200
0
LWPOLYLINE
8
CONTOURS
90
4
70
0
10
25.9100
20
152.6200
10
25.9100
20
158.6200
10
45.9100
20
158.6200
10
45.9100
20
152.6200
0
LWPOLYLINE
8
CONTOURS
90
4
70
0
10
46.0100
20
151.4200
10
46.0100
20
157.4200
10
66.0100
20
157.4200
10
66.0100
20
151.4200
0
LWPOLYLINE
8
CONTOURS
90
4
70
0
10
51.2100
20
82.3200
10
51.2100
20
88.3200
10
71.2100
20
88.3200
10
71.2100
20
82.3200
0
LWPOLYLINE
8
CONTOURS
90
4
70
0
10
66.1100
20
151.8200
10
66.1100
20
157.8200
10
86.1100
20
157.8200
10
86.1100
20
151.8200
0
LWPOLYLINE
8
CONTOURS
90
4
70
0
10
113.5100
20
69.5200
10
113.5100
20
75.5200
10
133.5100
20
75.5200
10
133.5100
20
69.5200
0
ENDSEC
0
EOF